mtllib material.mtl
usemtl Opaque(255,255,255)
v 0.10197700 -0.03250000 0.01872500
v 0.10197700 -0.03250000 0.01872500
v 0.10197700 -0.03250000 0.01872500
v 0.10197700 -0.03250000 0.01872500
v 0.10328800 -0.03250000 0.01925500
v 0.10328800 -0.03250000 0.01925500
v 0.10328800 -0.03250000 0.01925500
v 0.10347000 -0.03543600 0.01968300
v 0.10347000 -0.03543600 0.01968300
v 0.10399700 -0.03808400 0.02092500
v 0.10399700 -0.03808400 0.02092500
v 0.10481800 -0.04018600 0.02286000
v 0.10481800 -0.04018600 0.02286000
v 0.10585300 -0.04153500 0.02529800
v 0.10585300 -0.04153500 0.02529800
v 0.10700000 -0.04200000 0.02800000
v 0.10700000 -0.04200000 0.02800000
v 0.10814700 -0.04153500 0.03070200
v 0.10814700 -0.04153500 0.03070200
v 0.10918200 -0.04018600 0.03314000
v 0.10918200 -0.04018600 0.03314000
v 0.11000300 -0.03808400 0.03507500
v 0.11000300 -0.03808400 0.03507500
v 0.11053000 -0.03543600 0.03631700
v 0.11053000 -0.03543600 0.03631700
v 0.11071200 -0.03250000 0.03674500
v 0.11071200 -0.03250000 0.03674500
v 0.11071200 -0.03250000 0.03674500
v 0.11018200 -0.03250000 0.03805600
v 0.11018200 -0.03250000 0.03805600
v 0.11018200 -0.03250000 0.03805600
v 0.11018200 -0.03250000 0.03805600
v 0.11001600 -0.03545800 0.03766500
v 0.11001600 -0.03545800 0.03766500
v 0.10953100 -0.03817700 0.03652200
v 0.10953100 -0.03817700 0.03652200
v 0.10876600 -0.04043500 0.03472000
v 0.10876600 -0.04043500 0.03472000
v 0.10778400 -0.04205100 0.03240600
v 0.10778400 -0.04205100 0.03240600
v 0.10666300 -0.04289300 0.02976600
v 0.10666300 -0.04289300 0.02976600
v 0.10549600 -0.04289300 0.02701500
v 0.10549600 -0.04289300 0.02701500
v 0.10437500 -0.04205100 0.02437600
v 0.10437500 -0.04205100 0.02437600
v 0.10339300 -0.04043500 0.02206100
v 0.10339300 -0.04043500 0.02206100
v 0.10262800 -0.03817700 0.02026000
v 0.10262800 -0.03817700 0.02026000
v 0.10214300 -0.03545800 0.01911700
v 0.10214300 -0.03545800 0.01911700
v 0.11071200 0.03250000 0.03674500
v 0.11071200 0.03250000 0.03674500
v 0.11071200 0.03250000 0.03674500
v 0.11018200 0.03250000 0.03805600
v 0.11018200 0.03250000 0.03805600
v 0.11018200 0.03250000 0.03805600
v 0.11018200 0.03250000 0.03805600
v 0.10197700 0.03250000 0.01872500
v 0.10197700 0.03250000 0.01872500
v 0.10197700 0.03250000 0.01872500
v 0.10197700 0.03250000 0.01872500
v 0.10328800 0.03250000 0.01925500
v 0.10328800 0.03250000 0.01925500
v 0.10328800 0.03250000 0.01925500
v 0.11053000 0.03543600 0.03631700
v 0.11053000 0.03543600 0.03631700
v 0.11000300 0.03808400 0.03507500
v 0.11000300 0.03808400 0.03507500
v 0.10918200 0.04018600 0.03314000
v 0.10918200 0.04018600 0.03314000
v 0.10814700 0.04153500 0.03070200
v 0.10814700 0.04153500 0.03070200
v 0.10700000 0.04200000 0.02800000
v 0.10700000 0.04200000 0.02800000
v 0.10585300 0.04153500 0.02529800
v 0.10585300 0.04153500 0.02529800
v 0.10481800 0.04018600 0.02286000
v 0.10481800 0.04018600 0.02286000
v 0.10399700 0.03808400 0.02092500
v 0.10399700 0.03808400 0.02092500
v 0.10347000 0.03543600 0.01968300
v 0.10347000 0.03543600 0.01968300
v 0.10214300 0.03545800 0.01911700
v 0.10214300 0.03545800 0.01911700
v 0.10262800 0.03817700 0.02026000
v 0.10262800 0.03817700 0.02026000
v 0.10339300 0.04043500 0.02206100
v 0.10339300 0.04043500 0.02206100
v 0.10437500 0.04205100 0.02437600
v 0.10437500 0.04205100 0.02437600
v 0.10549600 0.04289300 0.02701500
v 0.10549600 0.04289300 0.02701500
v 0.10666300 0.04289300 0.02976600
v 0.10666300 0.04289300 0.02976600
v 0.10778400 0.04205100 0.03240600
v 0.10778400 0.04205100 0.03240600
v 0.10876600 0.04043500 0.03472000
v 0.10876600 0.04043500 0.03472000
v 0.10953100 0.03817700 0.03652200
v 0.10953100 0.03817700 0.03652200
v 0.11001600 0.03545800 0.03766500
v 0.11001600 0.03545800 0.03766500
v 0.09369200 -0.03250000 0.02224200
v 0.09369200 -0.03250000 0.02224200
v 0.09369200 -0.03250000 0.02224200
v 0.09369200 0.03250000 0.02224200
v 0.09369200 0.03250000 0.02224200
v 0.09369200 0.03250000 0.02224200
v 0.10189800 -0.03250000 0.04157300
v 0.10189800 -0.03250000 0.04157300
v 0.10189800 -0.03250000 0.04157300
v 0.10173100 -0.03545800 0.04118100
v 0.10173100 -0.03545800 0.04118100
v 0.10124600 -0.03817700 0.04003800
v 0.10124600 -0.03817700 0.04003800
v 0.10048200 -0.04043500 0.03823700
v 0.10048200 -0.04043500 0.03823700
v 0.09949900 -0.04205100 0.03592200
v 0.09949900 -0.04205100 0.03592200
v 0.09837900 -0.04289300 0.03328300
v 0.09837900 -0.04289300 0.03328300
v 0.09721100 -0.04289300 0.03053200
v 0.09721100 -0.04289300 0.03053200
v 0.09609100 -0.04205100 0.02789200
v 0.09609100 -0.04205100 0.02789200
v 0.09510800 -0.04043500 0.02557800
v 0.09510800 -0.04043500 0.02557800
v 0.09434400 -0.03817700 0.02377600
v 0.09434400 -0.03817700 0.02377600
v 0.09385800 -0.03545800 0.02263400
v 0.09385800 -0.03545800 0.02263400
v 0.09385800 0.03545800 0.02263400
v 0.09385800 0.03545800 0.02263400
v 0.09434400 0.03817700 0.02377600
v 0.09434400 0.03817700 0.02377600
v 0.09510800 0.04043500 0.02557800
v 0.09510800 0.04043500 0.02557800
v 0.09609100 0.04205100 0.02789200
v 0.09609100 0.04205100 0.02789200
v 0.09721100 0.04289300 0.03053200
v 0.09721100 0.04289300 0.03053200
v 0.09837900 0.04289300 0.03328300
v 0.09837900 0.04289300 0.03328300
v 0.09949900 0.04205100 0.03592200
v 0.09949900 0.04205100 0.03592200
v 0.10048200 0.04043500 0.03823700
v 0.10048200 0.04043500 0.03823700
v 0.10124600 0.03817700 0.04003800
v 0.10124600 0.03817700 0.04003800
v 0.10173100 0.03545800 0.04118100
v 0.10173100 0.03545800 0.04118100
v 0.10189800 0.03250000 0.04157300
v 0.10189800 0.03250000 0.04157300
v 0.10189800 0.03250000 0.04157300
v -0.14429900 -0.03703500 0.12521200
v -0.14429900 -0.03933100 0.12526200
v -0.14429900 -0.04153700 0.12461900
v -0.14429900 -0.04344700 0.12334300
v -0.14429900 -0.04488400 0.12155200
v -0.14429900 -0.04408400 0.12108900
v -0.14429900 -0.04657100 0.11929200
v -0.14429900 -0.04624900 0.12233900
v -0.14429900 -0.04549500 0.12190400
v -0.14429900 -0.04392300 0.12386300
v -0.14429900 -0.04183500 0.12525800
v -0.14429900 -0.03942400 0.12596100
v -0.14429900 -0.03691200 0.12590600
v -0.14429900 -0.03256200 0.11292400
v -0.14429900 -0.03137100 0.11488700
v -0.14429900 -0.03082500 0.11711900
v -0.14429900 -0.03097500 0.11941100
v -0.14429900 -0.03180800 0.12155200
v -0.14429900 -0.03260800 0.12108900
v -0.14429900 -0.03292100 0.12414200
v -0.14429900 -0.03044300 0.12233900
v -0.14429900 -0.03119700 0.12190400
v -0.14429900 -0.03028600 0.11956300
v -0.14429900 -0.03012200 0.11705700
v -0.14429900 -0.03071900 0.11461700
v -0.14429900 -0.03202200 0.11247000
v -0.14429900 -0.04544100 0.11519400
v -0.14429900 -0.04433600 0.11318000
v -0.14429900 -0.04267600 0.11159200
v -0.14429900 -0.04061600 0.11057600
v -0.14429900 -0.03834600 0.11022700
v -0.14429900 -0.03834600 0.11115100
v -0.14429900 -0.03554600 0.10989600
v -0.14429900 -0.03834600 0.10865100
v -0.14429900 -0.03834600 0.10952100
v -0.14429900 -0.04082800 0.10990300
v -0.14429900 -0.04308100 0.11101400
v -0.14429900 -0.04489500 0.11275100
v -0.14429900 -0.04610300 0.11495300
vn 37.46065900 -0.00000000 -92.71838600
vn 37.46065900 -0.00000000 -92.71838600
vn -39.07311400 -0.00000000 -92.05048500
vn -39.07311400 -0.00000000 -92.05048500
vn 37.46065900 -0.00000000 -92.71838600
vn 37.46065900 -0.00000000 -92.71838600
vn 92.05048500 0.00000000 -39.07311400
vn 92.05048500 0.00000000 -39.07311400
vn 38.81291100 -21.85080100 -89.53267800
vn 42.73730200 -41.56269400 -80.28739300
vn 92.05048500 0.00000000 -39.07311400
vn 48.84968400 -57.20614000 -65.88752500
vn 92.05048500 0.00000000 -39.07311400
vn 92.05048500 0.00000000 -39.07311400
vn 56.55173400 -67.24985100 -47.74263200
vn 65.08952200 -70.71067800 -27.62886400
vn 92.05048500 0.00000000 -39.07311400
vn 73.62731100 -67.24985100 -7.51509500
vn 92.05048500 0.00000000 -39.07311400
vn 92.05048500 0.00000000 -39.07311400
vn 81.32936100 -57.20614000 10.62979800
vn 92.05048500 0.00000000 -39.07311400
vn 87.44174200 -41.56269400 25.02966600
vn 91.36613300 -21.85080100 34.27495100
vn 92.05048500 0.00000000 -39.07311400
vn 92.05048500 0.00000000 -39.07311400
vn 92.71838600 0.00000000 37.46065900
vn 92.71838600 0.00000000 37.46065900
vn 39.07311400 0.00000000 92.05048500
vn 92.71838600 0.00000000 37.46065900
vn 92.71838600 0.00000000 37.46065900
vn 39.07311400 0.00000000 92.05048500
vn 91.59922300 -19.92150000 34.82407600
vn 37.49037800 -28.17325600 88.32179400
vn 32.87039500 -54.06408200 77.43779600
vn 88.33240100 -38.22907900 27.12792700
vn 25.58744800 -75.57495700 60.28024800
vn 83.18258000 -53.43956500 14.99570900
vn 76.56696700 -64.32069500 -0.58969900
vn 16.23155800 -90.96320000 38.23915300
vn 69.02151900 -69.99094500 -18.36565900
vn 5.56068400 -98.98214400 13.10015000
vn 61.15752500 -69.99094500 -36.89206800
vn -5.56068400 -98.98214400 -13.10015000
vn -16.23155800 -90.96320000 -38.23915300
vn 53.61207700 -64.32069500 -54.66802800
vn 46.99646400 -53.43956500 -70.25343600
vn -25.58744800 -75.57495700 -60.28024800
vn 41.84664300 -38.22907900 -82.38565400
vn -32.87039500 -54.06408200 -77.43779600
vn -37.49037800 -28.17325600 -88.32179400
vn 38.57982200 -19.92150000 -90.08180300
vn 92.05048500 0.00000000 -39.07311400
vn 92.71838600 -0.00000000 37.46065900
vn 92.71838600 -0.00000000 37.46065900
vn 39.07311400 0.00000000 92.05048500
vn 92.71838600 -0.00000000 37.46065900
vn 39.07311400 0.00000000 92.05048500
vn 92.71838600 -0.00000000 37.46065900
vn -39.07311400 -0.00000000 -92.05048500
vn -39.07311400 -0.00000000 -92.05048500
vn 37.46065900 0.00000000 -92.71838600
vn 37.46065900 0.00000000 -92.71838600
vn 92.05048500 0.00000000 -39.07311400
vn 37.46065900 0.00000000 -92.71838600
vn 37.46065900 0.00000000 -92.71838600
vn 91.36613300 21.85080100 34.27495100
vn 92.05048500 0.00000000 -39.07311400
vn 92.05048500 0.00000000 -39.07311400
vn 87.44174200 41.56269400 25.02966600
vn 81.32936100 57.20614000 10.62979800
vn 92.05048500 0.00000000 -39.07311400
vn 73.62731100 67.24985100 -7.51509500
vn 92.05048500 0.00000000 -39.07311400
vn 92.05048500 0.00000000 -39.07311400
vn 65.08952200 70.71067800 -27.62886400
vn 92.05048500 0.00000000 -39.07311400
vn 56.55173400 67.24985100 -47.74263200
vn 92.05048500 0.00000000 -39.07311400
vn 48.84968400 57.20614000 -65.88752500
vn 42.73730200 41.56269400 -80.28739300
vn 92.05048500 0.00000000 -39.07311400
vn 92.05048500 0.00000000 -39.07311400
vn 38.81291100 21.85080100 -89.53267800
vn -37.49037800 28.17325600 -88.32179400
vn 38.57982200 19.92150000 -90.08180300
vn -32.87039500 54.06408200 -77.43779600
vn 41.84664300 38.22907900 -82.38565400
vn -25.58744800 75.57495700 -60.28024800
vn 46.99646400 53.43956500 -70.25343600
vn -16.23155800 90.96320000 -38.23915300
vn 53.61207700 64.32069500 -54.66802800
vn -5.56068400 98.98214400 -13.10015000
vn 61.15752500 69.99094500 -36.89206800
vn 69.02151900 69.99094500 -18.36565900
vn 5.56068400 98.98214400 13.10015000
vn 16.23155800 90.96320000 38.23915300
vn 76.56696700 64.32069500 -0.58969900
vn 83.18258000 53.43956500 14.99570900
vn 25.58744800 75.57495700 60.28024800
vn 32.87039500 54.06408200 77.43779600
vn 88.33240100 38.22907900 27.12792700
vn 91.59922300 19.92150000 34.82407600
vn 37.49037800 28.17325600 88.32179400
vn -92.05048500 -0.00000000 39.07311400
vn -39.07311400 -0.00000000 -92.05048500
vn -39.07311400 -0.00000000 -92.05048500
vn -92.05048500 -0.00000000 39.07311400
vn -39.07311400 -0.00000000 -92.05048500
vn -39.07311400 -0.00000000 -92.05048500
vn -92.05048500 -0.00000000 39.07311400
vn 39.07311400 0.00000000 92.05048500
vn 39.07311400 0.00000000 92.05048500
vn 37.49037800 -28.17325600 88.32179400
vn -92.05048500 -0.00000000 39.07311400
vn 32.87039500 -54.06408200 77.43779600
vn -92.05048500 -0.00000000 39.07311400
vn 25.58744800 -75.57495700 60.28024800
vn -92.05048500 -0.00000000 39.07311400
vn 16.23155800 -90.96320000 38.23915300
vn -92.05048500 -0.00000000 39.07311400
vn -92.05048500 -0.00000000 39.07311400
vn 5.56068400 -98.98214400 13.10015000
vn -92.05048500 -0.00000000 39.07311400
vn -5.56068400 -98.98214400 -13.10015000
vn -16.23155800 -90.96320000 -38.23915300
vn -92.05048500 -0.00000000 39.07311400
vn -25.58744800 -75.57495700 -60.28024800
vn -92.05048500 -0.00000000 39.07311400
vn -92.05048500 -0.00000000 39.07311400
vn -32.87039500 -54.06408200 -77.43779600
vn -92.05048500 -0.00000000 39.07311400
vn -37.49037800 -28.17325600 -88.32179400
vn -92.05048500 -0.00000000 39.07311400
vn -37.49037800 28.17325600 -88.32179400
vn -92.05048500 -0.00000000 39.07311400
vn -32.87039500 54.06408200 -77.43779600
vn -25.58744800 75.57495700 -60.28024800
vn -92.05048500 -0.00000000 39.07311400
vn -16.23155800 90.96320000 -38.23915300
vn -92.05048500 -0.00000000 39.07311400
vn -5.56068400 98.98214400 -13.10015000
vn -92.05048500 -0.00000000 39.07311400
vn 5.56068400 98.98214400 13.10015000
vn -92.05048500 -0.00000000 39.07311400
vn 16.23155800 90.96320000 38.23915300
vn -92.05048500 -0.00000000 39.07311400
vn -92.05048500 -0.00000000 39.07311400
vn 25.58744800 75.57495700 60.28024800
vn -92.05048500 -0.00000000 39.07311400
vn 32.87039500 54.06408200 77.43779600
vn -92.05048500 -0.00000000 39.07311400
vn 37.49037800 28.17325600 88.32179400
vn -92.05048500 -0.00000000 39.07311400
vn 39.07311400 0.00000000 92.05048500
vn 39.07311400 0.00000000 92.05048500
vn -100.00000000 -0.00000000 0.00000000
vn -100.00000000 -0.00000000 0.00000000
vn -100.00000000 -0.00000000 0.00000000
vn -100.00000000 -0.00000000 0.00000000
vn -100.00000000 -0.00000000 0.00000000
vn -100.00000000 -0.00000000 0.00000000
vn -100.00000000 -0.00000000 0.00000000
vn -100.00000000 -0.00000000 0.00000000
vn -100.00000000 -0.00000000 0.00000000
vn -100.00000000 -0.00000000 0.00000000
vn -100.00000000 -0.00000000 0.00000000
vn -100.00000000 -0.00000000 0.00000000
vn -100.00000000 -0.00000000 0.00000000
vn -100.00000000 -0.00000000 0.00000000
vn -100.00000000 -0.00000000 0.00000000
vn -100.00000000 -0.00000000 0.00000000
vn -100.00000000 -0.00000000 0.00000000
vn -100.00000000 -0.00000000 0.00000000
vn -100.00000000 -0.00000000 0.00000000
vn -100.00000000 -0.00000000 0.00000000
vn -100.00000000 -0.00000000 0.00000000
vn -100.00000000 -0.00000000 0.00000000
vn -100.00000000 -0.00000000 0.00000000
vn -100.00000000 -0.00000000 0.00000000
vn -100.00000000 -0.00000000 0.00000000
vn -100.00000000 -0.00000000 0.00000000
vn -100.00000000 -0.00000000 0.00000000
vn -100.00000000 -0.00000000 0.00000000
vn -100.00000000 -0.00000000 0.00000000
vn -100.00000000 -0.00000000 0.00000000
vn -100.00000000 -0.00000000 0.00000000
vn -100.00000000 -0.00000000 0.00000000
vn -100.00000000 -0.00000000 0.00000000
vn -100.00000000 -0.00000000 0.00000000
vn -100.00000000 -0.00000000 0.00000000
vn -100.00000000 -0.00000000 0.00000000
vn -100.00000000 -0.00000000 0.00000000
vn -100.00000000 -0.00000000 0.00000000
vn -100.00000000 -0.00000000 0.00000000
vt -0.07071100 -3.14159300
vt -4.87500000 -0.07071100
vt 6.50000000 0.10000000
vt -0.10000000 -3.29867200
vt 0.07071100 -3.14159300
vt -4.87500000 0.07071100
vt -3.25000000 -0.95000000
vt -3.54356600 -0.90350400
vt 0.07071100 -2.82743300
vt 0.07071100 -2.51327400
vt -3.80839600 -0.76856600
vt 0.07071100 -2.19911500
vt -4.01856600 -0.55839600
vt -4.15350400 -0.29356600
vt 0.07071100 -1.88495600
vt 0.07071100 -1.57079600
vt -4.20000000 -0.00000000
vt 0.07071100 -1.25663700
vt -4.15350400 0.29356600
vt -4.01856600 0.55839600
vt 0.07071100 -0.94247800
vt -3.80839600 0.76856600
vt 0.07071100 -0.62831900
vt 0.07071100 -0.31415900
vt -3.54356600 0.90350400
vt -3.25000000 0.95000000
vt 0.07071100 0.00000000
vt -0.07071100 1.62500000
vt 0.00000000 0.10000000
vt -0.07071100 0.00000000
vt 0.07071100 1.62500000
vt -0.10000000 0.00000000
vt -0.07071100 -0.28559900
vt -0.10000000 -0.29987900
vt -0.10000000 -0.59975900
vt -0.07071100 -0.57119900
vt -0.10000000 -0.89963800
vt -0.07071100 -0.85679800
vt -0.07071100 -1.14239700
vt -0.10000000 -1.19951700
vt -0.07071100 -1.42799700
vt -0.10000000 -1.49939600
vt -0.07071100 -1.71359600
vt -0.10000000 -1.79927600
vt -0.10000000 -2.09915500
vt -0.07071100 -1.99919500
vt -0.07071100 -2.28479500
vt -0.10000000 -2.39903400
vt -0.07071100 -2.57039400
vt -0.10000000 -2.69891400
vt -0.10000000 -2.99879300
vt -0.07071100 -2.85599300
vt 3.25000000 0.95000000
vt 0.07071100 -3.14159300
vt -0.07071100 -4.87500000
vt 6.50000000 0.10000000
vt 0.07071100 -4.87500000
vt -0.10000000 -3.29867200
vt -0.07071100 -3.14159300
vt -0.10000000 -0.00000000
vt -0.00000000 0.10000000
vt -0.07071100 -0.00000000
vt 1.62500000 -0.07071100
vt 3.25000000 -0.95000000
vt 1.62500000 0.07071100
vt 0.07071100 -0.00000000
vt 0.07071100 -2.82743300
vt 3.54356600 0.90350400
vt 3.80839600 0.76856600
vt 0.07071100 -2.51327400
vt 0.07071100 -2.19911500
vt 4.01856600 0.55839600
vt 0.07071100 -1.88495600
vt 4.15350400 0.29356600
vt 4.20000000 0.00000000
vt 0.07071100 -1.57079600
vt 4.15350400 -0.29356600
vt 0.07071100 -1.25663700
vt 4.01856600 -0.55839600
vt 0.07071100 -0.94247800
vt 0.07071100 -0.62831900
vt 3.80839600 -0.76856600
vt 3.54356600 -0.90350400
vt 0.07071100 -0.31415900
vt -0.10000000 -0.29987900
vt -0.07071100 -0.28559900
vt -0.10000000 -0.59975900
vt -0.07071100 -0.57119900
vt -0.10000000 -0.89963800
vt -0.07071100 -0.85679800
vt -0.10000000 -1.19951700
vt -0.07071100 -1.14239700
vt -0.10000000 -1.49939600
vt -0.07071100 -1.42799700
vt -0.07071100 -1.71359600
vt -0.10000000 -1.79927600
vt -0.10000000 -2.09915500
vt -0.07071100 -1.99919500
vt -0.07071100 -2.28479500
vt -0.10000000 -2.39903400
vt -0.10000000 -2.69891400
vt -0.07071100 -2.57039400
vt -0.07071100 -2.85599300
vt -0.10000000 -2.99879300
vt 3.25000000 -1.05000000
vt 6.50000000 1.00000000
vt -1.00000000 -3.29867200
vt -3.25000000 -1.05000000
vt -0.00000000 1.00000000
vt -1.00000000 -0.00000000
vt 3.25000000 1.05000000
vt -1.00000000 0.00000000
vt -0.00000000 1.00000000
vt -1.00000000 -0.29987900
vt 3.54581900 1.00746800
vt -1.00000000 -0.59975900
vt 3.81767300 0.88331600
vt -1.00000000 -0.89963800
vt 4.04353700 0.68760400
vt -1.00000000 -1.19951700
vt 4.20511400 0.43618600
vt 4.28931300 0.14943100
vt -1.00000000 -1.49939600
vt 4.28931300 -0.14943100
vt -1.00000000 -1.79927600
vt -1.00000000 -2.09915500
vt 4.20511400 -0.43618600
vt -1.00000000 -2.39903400
vt 4.04353700 -0.68760400
vt 3.81767300 -0.88331600
vt -1.00000000 -2.69891400
vt 3.54581900 -1.00746800
vt -1.00000000 -2.99879300
vt -3.54581900 -1.00746800
vt -1.00000000 -0.29987900
vt -3.81767300 -0.88331600
vt -1.00000000 -0.59975900
vt -1.00000000 -0.89963800
vt -4.04353700 -0.68760400
vt -1.00000000 -1.19951700
vt -4.20511400 -0.43618600
vt -1.00000000 -1.49939600
vt -4.28931300 -0.14943100
vt -1.00000000 -1.79927600
vt -4.28931300 0.14943100
vt -1.00000000 -2.09915500
vt -4.20511400 0.43618600
vt -4.04353700 0.68760400
vt -1.00000000 -2.39903400
vt -3.81767300 0.88331600
vt -1.00000000 -2.69891400
vt -3.54581900 1.00746800
vt -1.00000000 -2.99879300
vt -3.25000000 1.05000000
vt 6.50000000 1.00000000
vt -1.00000000 -3.29867200
vt -0.13110400 0.74353000
vt 0.09854700 0.74854100
vt 0.31907700 0.68426200
vt 0.51007100 0.55664400
vt 0.65384900 0.37750000
vt 0.57376400 0.33126300
vt 0.82247500 0.15154000
vt 0.79027100 0.45626300
vt 0.71492200 0.41276000
vt 0.55771300 0.60863700
vt 0.34888000 0.74817500
vt 0.10775200 0.81845800
vt -0.14335000 0.81297900
vt -0.57836400 -0.48530500
vt -0.69752900 -0.28892600
vt -0.75212700 -0.06580300
vt -0.73710300 0.16341200
vt -0.65384900 0.37750000
vt -0.57376400 0.33126300
vt -0.54247500 0.63651400
vt -0.79027100 0.45626300
vt -0.71492200 0.41276000
vt -0.80595200 0.17867500
vt -0.82237900 -0.07194900
vt -0.76268100 -0.31591300
vt -0.63238500 -0.53063400
vt 0.70946800 -0.25822500
vt 0.59898200 -0.45961500
vt 0.43305000 -0.61846000
vt 0.22703300 -0.72005600
vt -0.00000000 -0.75500000
vt 0.00000000 -0.66252600
vt -0.28000000 -0.78805400
vt -0.00000000 -0.91252600
vt -0.00000000 -0.82552000
vt 0.24823900 -0.78731300
vt 0.47349900 -0.67622700
vt 0.65492900 -0.50254500
vt 0.77573500 -0.28234500
f 1/1/1 5/5/5 52/52/52
f 52/52/52 5/5/5 9/9/9
f 52/52/52 9/9/9 49/49/49
f 49/49/49 9/9/9 10/10/10
f 49/49/49 10/10/10 47/47/47
f 47/47/47 10/10/10 12/12/12
f 47/47/47 12/12/12 46/46/46
f 46/46/46 12/12/12 15/15/15
f 46/46/46 15/15/15 43/43/43
f 43/43/43 15/15/15 16/16/16
f 43/43/43 16/16/16 41/41/41
f 41/41/41 16/16/16 18/18/18
f 41/41/41 18/18/18 39/39/39
f 39/39/39 18/18/18 21/21/21
f 39/39/39 21/21/21 38/38/38
f 38/38/38 21/21/21 23/23/23
f 38/38/38 23/23/23 36/36/36
f 36/36/36 23/23/23 24/24/24
f 36/36/36 24/24/24 33/33/33
f 33/33/33 24/24/24 27/27/27
f 33/33/33 27/27/27 30/30/30
f 31/31/31 28/28/28 57/57/57
f 57/57/57 28/28/28 55/55/55
f 65/65/65 6/6/6 63/63/63
f 63/63/63 6/6/6 2/2/2
f 59/59/59 54/54/54 103/103/103
f 103/103/103 54/54/54 67/67/67
f 103/103/103 67/67/67 102/102/102
f 102/102/102 67/67/67 70/70/70
f 102/102/102 70/70/70 99/99/99
f 99/99/99 70/70/70 71/71/71
f 99/99/99 71/71/71 98/98/98
f 98/98/98 71/71/71 73/73/73
f 98/98/98 73/73/73 95/95/95
f 95/95/95 73/73/73 76/76/76
f 95/95/95 76/76/76 94/94/94
f 94/94/94 76/76/76 78/78/78
f 94/94/94 78/78/78 92/92/92
f 92/92/92 78/78/78 80/80/80
f 92/92/92 80/80/80 90/90/90
f 90/90/90 80/80/80 81/81/81
f 90/90/90 81/81/81 88/88/88
f 88/88/88 81/81/81 84/84/84
f 88/88/88 84/84/84 86/86/86
f 86/86/86 84/84/84 66/66/66
f 86/86/86 66/66/66 62/62/62
f 61/61/61 3/3/3 109/109/109
f 109/109/109 3/3/3 106/106/106
f 107/107/107 4/4/4 133/133/133
f 133/133/133 4/4/4 51/51/51
f 133/133/133 51/51/51 50/50/50
f 133/133/133 50/50/50 131/131/131
f 131/131/131 50/50/50 48/48/48
f 131/131/131 48/48/48 128/128/128
f 128/128/128 48/48/48 45/45/45
f 128/128/128 45/45/45 126/126/126
f 126/126/126 45/45/45 44/44/44
f 126/126/126 44/44/44 125/125/125
f 125/125/125 44/44/44 42/42/42
f 125/125/125 42/42/42 123/123/123
f 123/123/123 42/42/42 40/40/40
f 123/123/123 40/40/40 120/120/120
f 120/120/120 40/40/40 37/37/37
f 120/120/120 37/37/37 118/118/118
f 118/118/118 37/37/37 35/35/35
f 118/118/118 35/35/35 116/116/116
f 116/116/116 35/35/35 34/34/34
f 116/116/116 34/34/34 114/114/114
f 114/114/114 34/34/34 112/112/112
f 112/112/112 34/34/34 32/32/32
f 25/25/25 22/22/22 26/26/26
f 26/26/26 22/22/22 20/20/20
f 26/26/26 20/20/20 72/72/72
f 72/72/72 20/20/20 74/74/74
f 74/74/74 20/20/20 19/19/19
f 74/74/74 19/19/19 75/75/75
f 75/75/75 19/19/19 17/17/17
f 75/75/75 17/17/17 77/77/77
f 77/77/77 17/17/17 14/14/14
f 77/77/77 14/14/14 79/79/79
f 79/79/79 14/14/14 13/13/13
f 79/79/79 13/13/13 64/64/64
f 64/64/64 13/13/13 7/7/7
f 7/7/7 13/13/13 11/11/11
f 7/7/7 11/11/11 8/8/8
f 83/83/83 82/82/82 64/64/64
f 64/64/64 82/82/82 79/79/79
f 26/26/26 72/72/72 53/53/53
f 53/53/53 72/72/72 69/69/69
f 53/53/53 69/69/69 68/68/68
f 156/156/156 58/58/58 153/153/153
f 153/153/153 58/58/58 104/104/104
f 153/153/153 104/104/104 101/101/101
f 153/153/153 101/101/101 151/151/151
f 151/151/151 101/101/101 100/100/100
f 151/151/151 100/100/100 149/149/149
f 149/149/149 100/100/100 97/97/97
f 149/149/149 97/97/97 146/146/146
f 146/146/146 97/97/97 96/96/96
f 146/146/146 96/96/96 144/144/144
f 144/144/144 96/96/96 93/93/93
f 144/144/144 93/93/93 142/142/142
f 142/142/142 93/93/93 91/91/91
f 142/142/142 91/91/91 140/140/140
f 140/140/140 91/91/91 89/89/89
f 140/140/140 89/89/89 138/138/138
f 138/138/138 89/89/89 87/87/87
f 138/138/138 87/87/87 137/137/137
f 137/137/137 87/87/87 85/85/85
f 137/137/137 85/85/85 135/135/135
f 135/135/135 85/85/85 110/110/110
f 110/110/110 85/85/85 60/60/60
f 29/29/29 56/56/56 113/113/113
f 113/113/113 56/56/56 155/155/155
f 105/105/105 139/139/139 108/108/108
f 108/108/108 139/139/139 136/136/136
f 108/108/108 136/136/136 134/134/134
f 132/132/132 130/130/130 105/105/105
f 105/105/105 130/130/130 129/129/129
f 105/105/105 129/129/129 141/141/141
f 141/141/141 129/129/129 127/127/127
f 141/141/141 127/127/127 143/143/143
f 143/143/143 127/127/127 124/124/124
f 143/143/143 124/124/124 145/145/145
f 145/145/145 124/124/124 122/122/122
f 145/145/145 122/122/122 147/147/147
f 147/147/147 122/122/122 121/121/121
f 147/147/147 121/121/121 148/148/148
f 148/148/148 121/121/121 154/154/154
f 148/148/148 154/154/154 150/150/150
f 150/150/150 154/154/154 152/152/152
f 121/121/121 119/119/119 154/154/154
f 154/154/154 119/119/119 111/111/111
f 111/111/111 119/119/119 117/117/117
f 111/111/111 117/117/117 115/115/115
f 141/141/141 139/139/139 105/105/105
f 157/157/157 158/158/158 169/169/169
f 169/169/169 158/158/158 168/168/168
f 168/168/168 158/158/158 167/167/167
f 167/167/167 158/158/158 159/159/159
f 167/167/167 159/159/159 166/166/166
f 166/166/166 159/159/159 160/160/160
f 166/166/166 160/160/160 165/165/165
f 165/165/165 160/160/160 161/161/161
f 165/165/165 161/161/161 163/163/163
f 163/163/163 161/161/161 162/162/162
f 163/163/163 164/164/164 165/165/165
f 170/170/170 171/171/171 182/182/182
f 182/182/182 171/171/171 181/181/181
f 181/181/181 171/171/171 172/172/172
f 181/181/181 172/172/172 180/180/180
f 180/180/180 172/172/172 179/179/179
f 179/179/179 172/172/172 173/173/173
f 179/179/179 173/173/173 178/178/178
f 178/178/178 173/173/173 174/174/174
f 178/178/178 174/174/174 176/176/176
f 176/176/176 174/174/174 175/175/175
f 176/176/176 177/177/177 178/178/178
f 183/183/183 184/184/184 195/195/195
f 195/195/195 184/184/184 194/194/194
f 194/194/194 184/184/184 185/185/185
f 194/194/194 185/185/185 193/193/193
f 193/193/193 185/185/185 186/186/186
f 193/193/193 186/186/186 192/192/192
f 192/192/192 186/186/186 187/187/187
f 192/192/192 187/187/187 191/191/191
f 191/191/191 187/187/187 189/189/189
f 191/191/191 189/189/189 190/190/190
f 187/187/187 188/188/188 189/189/189

