mtllib material.mtl
usemtl Opaque(229,229,229)
v -0.13729900 -0.02812100 0.11777700
v -0.13729900 -0.02812100 0.11777700
v -0.13729900 -0.02862100 0.11461700
v -0.13729900 -0.03007400 0.11176600
v -0.13729900 -0.03233600 0.10950400
v -0.13729900 -0.03518600 0.10805200
v -0.13729900 -0.03834600 0.10755200
v -0.13729900 -0.04150600 0.10805200
v -0.13729900 -0.04435600 0.10950400
v -0.13729900 -0.04661800 0.11176600
v -0.13729900 -0.04807100 0.11461700
v -0.13729900 -0.04857100 0.11777700
v -0.13729900 -0.04807100 0.12093600
v -0.13729900 -0.04661800 0.12378700
v -0.13729900 -0.04435600 0.12604900
v -0.13729900 -0.04150600 0.12750100
v -0.13729900 -0.03834600 0.12800200
v -0.13729900 -0.03518600 0.12750100
v -0.13729900 -0.03233600 0.12604900
v -0.13729900 -0.03007400 0.12378700
v -0.13729900 -0.02862100 0.12093600
v -0.12304900 -0.02684600 0.11777700
v -0.12304900 -0.02684600 0.11777700
v -0.12304900 -0.02684600 0.11777700
v -0.12304900 -0.02731200 0.12101600
v -0.12304900 -0.02731200 0.12101600
v -0.12304900 -0.02867200 0.12399400
v -0.12304900 -0.02867200 0.12399400
v -0.12304900 -0.03081500 0.12646800
v -0.12304900 -0.03081500 0.12646800
v -0.12304900 -0.03356900 0.12823700
v -0.12304900 -0.03356900 0.12823700
v -0.12304900 -0.03670900 0.12915900
v -0.12304900 -0.03670900 0.12915900
v -0.12304900 -0.03998300 0.12915900
v -0.12304900 -0.03998300 0.12915900
v -0.12304900 -0.04312300 0.12823700
v -0.12304900 -0.04312300 0.12823700
v -0.12304900 -0.04587700 0.12646800
v -0.12304900 -0.04587700 0.12646800
v -0.12304900 -0.04802000 0.12399400
v -0.12304900 -0.04802000 0.12399400
v -0.12304900 -0.04938000 0.12101600
v -0.12304900 -0.04938000 0.12101600
v -0.12304900 -0.04984600 0.11777700
v -0.12304900 -0.04984600 0.11777700
v -0.12304900 -0.04938000 0.11453700
v -0.12304900 -0.04938000 0.11453700
v -0.12304900 -0.04802000 0.11155900
v -0.12304900 -0.04802000 0.11155900
v -0.12304900 -0.04587700 0.10908500
v -0.12304900 -0.04587700 0.10908500
v -0.12304900 -0.04312300 0.10731600
v -0.12304900 -0.04312300 0.10731600
v -0.12304900 -0.03998300 0.10639400
v -0.12304900 -0.03998300 0.10639400
v -0.12304900 -0.03670900 0.10639400
v -0.12304900 -0.03670900 0.10639400
v -0.12304900 -0.03356900 0.10731600
v -0.12304900 -0.03356900 0.10731600
v -0.12304900 -0.03081500 0.10908500
v -0.12304900 -0.03081500 0.10908500
v -0.12304900 -0.02867200 0.11155900
v -0.12304900 -0.02867200 0.11155900
v -0.12304900 -0.02731200 0.11453700
v -0.12304900 -0.02731200 0.11453700
v -0.12554900 -0.02684600 0.11777700
v -0.12554900 -0.02684600 0.11777700
v -0.12554900 -0.02684600 0.11777700
v -0.12554900 -0.02731200 0.11453700
v -0.12554900 -0.02731200 0.11453700
v -0.12554900 -0.02867200 0.11155900
v -0.12554900 -0.02867200 0.11155900
v -0.12554900 -0.03081500 0.10908500
v -0.12554900 -0.03081500 0.10908500
v -0.12554900 -0.03356900 0.10731600
v -0.12554900 -0.03356900 0.10731600
v -0.12554900 -0.03670900 0.10639400
v -0.12554900 -0.03670900 0.10639400
v -0.12554900 -0.03998300 0.10639400
v -0.12554900 -0.03998300 0.10639400
v -0.12554900 -0.04312300 0.10731600
v -0.12554900 -0.04312300 0.10731600
v -0.12554900 -0.04587700 0.10908500
v -0.12554900 -0.04587700 0.10908500
v -0.12554900 -0.04802000 0.11155900
v -0.12554900 -0.04802000 0.11155900
v -0.12554900 -0.04938000 0.11453700
v -0.12554900 -0.04938000 0.11453700
v -0.12554900 -0.04984600 0.11777700
v -0.12554900 -0.04984600 0.11777700
v -0.12554900 -0.04938000 0.12101600
v -0.12554900 -0.04938000 0.12101600
v -0.12554900 -0.04802000 0.12399400
v -0.12554900 -0.04802000 0.12399400
v -0.12554900 -0.04587700 0.12646800
v -0.12554900 -0.04587700 0.12646800
v -0.12554900 -0.04312300 0.12823700
v -0.12554900 -0.04312300 0.12823700
v -0.12554900 -0.03998300 0.12915900
v -0.12554900 -0.03998300 0.12915900
v -0.12554900 -0.03670900 0.12915900
v -0.12554900 -0.03670900 0.12915900
v -0.12554900 -0.03356900 0.12823700
v -0.12554900 -0.03356900 0.12823700
v -0.12554900 -0.03081500 0.12646800
v -0.12554900 -0.03081500 0.12646800
v -0.12554900 -0.02867200 0.12399400
v -0.12554900 -0.02867200 0.12399400
v -0.12554900 -0.02731200 0.12101600
v -0.12554900 -0.02731200 0.12101600
v -0.12554900 -0.02812100 0.11777700
v -0.12554900 -0.02812100 0.11777700
v -0.12554900 -0.02812100 0.11777700
v -0.12554900 -0.02862100 0.12093600
v -0.12554900 -0.02862100 0.12093600
v -0.12554900 -0.03007400 0.12378700
v -0.12554900 -0.03007400 0.12378700
v -0.12554900 -0.03233600 0.12604900
v -0.12554900 -0.03233600 0.12604900
v -0.12554900 -0.03518600 0.12750100
v -0.12554900 -0.03518600 0.12750100
v -0.12554900 -0.03834600 0.12800200
v -0.12554900 -0.03834600 0.12800200
v -0.12554900 -0.04150600 0.12750100
v -0.12554900 -0.04150600 0.12750100
v -0.12554900 -0.04435600 0.12604900
v -0.12554900 -0.04435600 0.12604900
v -0.12554900 -0.04661800 0.12378700
v -0.12554900 -0.04661800 0.12378700
v -0.12554900 -0.04807100 0.12093600
v -0.12554900 -0.04807100 0.12093600
v -0.12554900 -0.04857100 0.11777700
v -0.12554900 -0.04857100 0.11777700
v -0.12554900 -0.04807100 0.11461700
v -0.12554900 -0.04807100 0.11461700
v -0.12554900 -0.04661800 0.11176600
v -0.12554900 -0.04661800 0.11176600
v -0.12554900 -0.04435600 0.10950400
v -0.12554900 -0.04435600 0.10950400
v -0.12554900 -0.04150600 0.10805200
v -0.12554900 -0.04150600 0.10805200
v -0.12554900 -0.03834600 0.10755200
v -0.12554900 -0.03834600 0.10755200
v -0.12554900 -0.03518600 0.10805200
v -0.12554900 -0.03518600 0.10805200
v -0.12554900 -0.03233600 0.10950400
v -0.12554900 -0.03233600 0.10950400
v -0.12554900 -0.03007400 0.11176600
v -0.12554900 -0.03007400 0.11176600
v -0.12554900 -0.02862100 0.11461700
v -0.12554900 -0.02862100 0.11461700
vn -0.00000000 100.00000000 -0.00000000
vn -0.00000000 100.00000000 -0.00000000
vn -0.00000000 95.10565200 -30.90169900
vn -0.00000000 80.90169900 -58.77852500
vn -0.00000000 58.77852500 -80.90169900
vn -0.00000000 30.90169900 -95.10565200
vn -0.00000000 -0.00000000 -100.00000000
vn 0.00000000 -30.90169900 -95.10565200
vn 0.00000000 -58.77852500 -80.90169900
vn 0.00000000 -80.90169900 -58.77852500
vn 0.00000000 -95.10565200 -30.90169900
vn 0.00000000 -100.00000000 0.00000000
vn 0.00000000 -95.10565200 30.90169900
vn 0.00000000 -80.90169900 58.77852500
vn 0.00000000 -58.77852500 80.90169900
vn 0.00000000 -30.90169900 95.10565200
vn 0.00000000 -0.00000000 100.00000000
vn -0.00000000 30.90169900 95.10565200
vn -0.00000000 58.77852500 80.90169900
vn -0.00000000 80.90169900 58.77852500
vn -0.00000000 95.10565200 30.90169900
vn -0.00000000 100.00000000 -0.00000000
vn 100.00000000 0.00000000 -0.00000000
vn -0.00000000 100.00000000 -0.00000000
vn -0.00000000 95.94929700 28.17325600
vn 100.00000000 0.00000000 -0.00000000
vn -0.00000000 84.12535300 54.06408200
vn 100.00000000 0.00000000 -0.00000000
vn -0.00000000 65.48607300 75.57495700
vn 100.00000000 0.00000000 -0.00000000
vn -0.00000000 41.54150100 90.96320000
vn 100.00000000 0.00000000 -0.00000000
vn 100.00000000 0.00000000 -0.00000000
vn 0.00000000 14.23148400 98.98214400
vn 0.00000000 -14.23148400 98.98214400
vn 100.00000000 0.00000000 -0.00000000
vn 100.00000000 0.00000000 -0.00000000
vn 0.00000000 -41.54150100 90.96320000
vn 0.00000000 -65.48607300 75.57495700
vn 100.00000000 0.00000000 -0.00000000
vn 0.00000000 -84.12535300 54.06408200
vn 100.00000000 0.00000000 -0.00000000
vn 100.00000000 0.00000000 -0.00000000
vn 0.00000000 -95.94929700 28.17325600
vn 0.00000000 -100.00000000 0.00000000
vn 100.00000000 0.00000000 -0.00000000
vn 0.00000000 -95.94929700 -28.17325600
vn 100.00000000 0.00000000 -0.00000000
vn 0.00000000 -84.12535300 -54.06408200
vn 100.00000000 0.00000000 -0.00000000
vn 100.00000000 0.00000000 -0.00000000
vn 0.00000000 -65.48607300 -75.57495700
vn 100.00000000 0.00000000 -0.00000000
vn 0.00000000 -41.54150100 -90.96320000
vn 100.00000000 0.00000000 -0.00000000
vn -0.00000000 -14.23148400 -98.98214400
vn -0.00000000 14.23148400 -98.98214400
vn 100.00000000 0.00000000 -0.00000000
vn 100.00000000 0.00000000 -0.00000000
vn -0.00000000 41.54150100 -90.96320000
vn -0.00000000 65.48607300 -75.57495700
vn 100.00000000 0.00000000 -0.00000000
vn 100.00000000 0.00000000 -0.00000000
vn -0.00000000 84.12535300 -54.06408200
vn -0.00000000 95.94929700 -28.17325600
vn 100.00000000 0.00000000 -0.00000000
vn -0.00000000 100.00000000 -0.00000000
vn -100.00000000 -0.00000000 0.00000000
vn -0.00000000 100.00000000 -0.00000000
vn -100.00000000 -0.00000000 0.00000000
vn -0.00000000 95.94929700 -28.17325600
vn -0.00000000 84.12535300 -54.06408200
vn -100.00000000 -0.00000000 0.00000000
vn -0.00000000 65.48607300 -75.57495700
vn -100.00000000 -0.00000000 0.00000000
vn -100.00000000 -0.00000000 0.00000000
vn -0.00000000 41.54150100 -90.96320000
vn -0.00000000 14.23148400 -98.98214400
vn -100.00000000 -0.00000000 0.00000000
vn -0.00000000 -14.23148400 -98.98214400
vn -100.00000000 -0.00000000 0.00000000
vn 0.00000000 -41.54150100 -90.96320000
vn -100.00000000 -0.00000000 0.00000000
vn 0.00000000 -65.48607300 -75.57495700
vn -100.00000000 -0.00000000 0.00000000
vn 0.00000000 -84.12535300 -54.06408200
vn -100.00000000 -0.00000000 0.00000000
vn -100.00000000 -0.00000000 0.00000000
vn 0.00000000 -95.94929700 -28.17325600
vn -100.00000000 -0.00000000 0.00000000
vn 0.00000000 -100.00000000 0.00000000
vn 0.00000000 -95.94929700 28.17325600
vn -100.00000000 -0.00000000 0.00000000
vn 0.00000000 -84.12535300 54.06408200
vn -100.00000000 -0.00000000 0.00000000
vn -100.00000000 -0.00000000 0.00000000
vn 0.00000000 -65.48607300 75.57495700
vn 0.00000000 -41.54150100 90.96320000
vn -100.00000000 -0.00000000 0.00000000
vn 0.00000000 -14.23148400 98.98214400
vn -100.00000000 -0.00000000 0.00000000
vn -100.00000000 -0.00000000 0.00000000
vn 0.00000000 14.23148400 98.98214400
vn -0.00000000 41.54150100 90.96320000
vn -100.00000000 -0.00000000 0.00000000
vn -100.00000000 -0.00000000 0.00000000
vn -0.00000000 65.48607300 75.57495700
vn -0.00000000 84.12535300 54.06408200
vn -100.00000000 -0.00000000 0.00000000
vn -100.00000000 -0.00000000 0.00000000
vn -0.00000000 95.94929700 28.17325600
vn -100.00000000 -0.00000000 0.00000000
vn -0.00000000 100.00000000 -0.00000000
vn -0.00000000 100.00000000 -0.00000000
vn -100.00000000 -0.00000000 0.00000000
vn -0.00000000 95.10565200 30.90169900
vn -0.00000000 80.90169900 58.77852500
vn -100.00000000 -0.00000000 0.00000000
vn -100.00000000 -0.00000000 0.00000000
vn -0.00000000 58.77852500 80.90169900
vn -0.00000000 30.90169900 95.10565200
vn -100.00000000 -0.00000000 0.00000000
vn -100.00000000 -0.00000000 0.00000000
vn 0.00000000 -0.00000000 100.00000000
vn -100.00000000 -0.00000000 0.00000000
vn 0.00000000 -30.90169900 95.10565200
vn -100.00000000 -0.00000000 0.00000000
vn 0.00000000 -58.77852500 80.90169900
vn -100.00000000 -0.00000000 0.00000000
vn 0.00000000 -80.90169900 58.77852500
vn -100.00000000 -0.00000000 0.00000000
vn 0.00000000 -95.10565200 30.90169900
vn 0.00000000 -100.00000000 0.00000000
vn -100.00000000 -0.00000000 0.00000000
vn -100.00000000 -0.00000000 0.00000000
vn 0.00000000 -95.10565200 -30.90169900
vn 0.00000000 -80.90169900 -58.77852500
vn -100.00000000 -0.00000000 0.00000000
vn 0.00000000 -58.77852500 -80.90169900
vn -100.00000000 -0.00000000 0.00000000
vn 0.00000000 -30.90169900 -95.10565200
vn -100.00000000 -0.00000000 0.00000000
vn -0.00000000 -0.00000000 -100.00000000
vn -100.00000000 -0.00000000 0.00000000
vn -0.00000000 30.90169900 -95.10565200
vn -100.00000000 -0.00000000 0.00000000
vn -100.00000000 -0.00000000 0.00000000
vn -0.00000000 58.77852500 -80.90169900
vn -100.00000000 -0.00000000 0.00000000
vn -0.00000000 80.90169900 -58.77852500
vn -0.00000000 95.10565200 -30.90169900
vn -100.00000000 -0.00000000 0.00000000
vt 0.70000000 3.21227800
vt 0.70000000 -3.21227800
vt 0.70000000 -2.89105100
vt 0.70000000 -2.56982300
vt 0.70000000 -2.24859500
vt 0.70000000 -1.92736700
vt 0.70000000 -1.60613900
vt 0.70000000 -1.28491100
vt 0.70000000 -0.96368400
vt 0.70000000 -0.64245600
vt 0.70000000 -0.32122800
vt 0.70000000 0.00000000
vt 0.70000000 0.32122800
vt 0.70000000 0.64245600
vt 0.70000000 0.96368400
vt 0.70000000 1.28491100
vt 0.70000000 1.60613900
vt 0.70000000 1.92736700
vt 0.70000000 2.24859500
vt 0.70000000 2.56982300
vt 0.70000000 2.89105100
vt 2.12500000 3.61283200
vt 1.15000000 -0.78000000
vt 2.12500000 -3.61283200
vt 2.12500000 3.28439200
vt 1.10341700 -0.45600800
vt 2.12500000 2.95595300
vt 0.96744200 -0.15826300
vt 2.12500000 2.62751400
vt 0.75309000 0.08911200
vt 2.12500000 2.29907500
vt 0.47772700 0.26607700
vt 0.16366200 0.35829500
vt 2.12500000 1.97063500
vt 2.12500000 1.64219600
vt -0.16366200 0.35829500
vt -0.47772700 0.26607700
vt 2.12500000 1.31375700
vt 2.12500000 0.98531800
vt -0.75309000 0.08911200
vt 2.12500000 0.65687800
vt -0.96744200 -0.15826300
vt -1.10341700 -0.45600800
vt 2.12500000 0.32843900
vt 2.12500000 0.00000000
vt -1.15000000 -0.78000000
vt 2.12500000 -0.32843900
vt -1.10341700 -1.10399200
vt 2.12500000 -0.65687800
vt -0.96744200 -1.40173700
vt -0.75309000 -1.64911200
vt 2.12500000 -0.98531800
vt -0.47772700 -1.82607700
vt 2.12500000 -1.31375700
vt -0.16366200 -1.91829500
vt 2.12500000 -1.64219600
vt 2.12500000 -1.97063500
vt 0.16366200 -1.91829500
vt 0.47772700 -1.82607700
vt 2.12500000 -2.29907500
vt 2.12500000 -2.62751400
vt 0.75309000 -1.64911200
vt 0.96744200 -1.40173700
vt 2.12500000 -2.95595300
vt 2.12500000 -3.28439200
vt 1.10341700 -1.10399200
vt 1.87500000 3.61283200
vt -1.15000000 -1.15000000
vt 1.87500000 -3.61283200
vt -1.10341700 -1.47399200
vt 1.87500000 -3.28439200
vt 1.87500000 -2.95595300
vt -0.96744200 -1.77173700
vt 1.87500000 -2.62751400
vt -0.75309000 -2.01911200
vt -0.47772700 -2.19607700
vt 1.87500000 -2.29907500
vt 1.87500000 -1.97063500
vt -0.16366200 -2.28829500
vt 1.87500000 -1.64219600
vt 0.16366200 -2.28829500
vt 1.87500000 -1.31375700
vt 0.47772700 -2.19607700
vt 1.87500000 -0.98531800
vt 0.75309000 -2.01911200
vt 1.87500000 -0.65687800
vt 0.96744200 -1.77173700
vt 1.10341700 -1.47399200
vt 1.87500000 -0.32843900
vt 1.15000000 -1.15000000
vt 1.87500000 0.00000000
vt 1.87500000 0.32843900
vt 1.10341700 -0.82600800
vt 1.87500000 0.65687800
vt 0.96744200 -0.52826300
vt 0.75309000 -0.28088800
vt 1.87500000 0.98531800
vt 1.87500000 1.31375700
vt 0.47772700 -0.10392300
vt 1.87500000 1.64219600
vt 0.16366200 -0.01170500
vt -0.16366200 -0.01170500
vt 1.87500000 1.97063500
vt 1.87500000 2.29907500
vt -0.47772700 -0.10392300
vt -0.75309000 -0.28088800
vt 1.87500000 2.62751400
vt 1.87500000 2.95595300
vt -0.96744200 -0.52826300
vt -1.10341700 -0.82600800
vt 1.87500000 3.28439200
vt -1.02250000 -1.15000000
vt 1.87500000 -3.21227800
vt 1.87500000 3.21227800
vt -0.97245500 -0.83403000
vt 1.87500000 2.89105100
vt 1.87500000 2.56982300
vt -0.82722000 -0.54899000
vt -0.60101000 -0.32278000
vt 1.87500000 2.24859500
vt 1.87500000 1.92736700
vt -0.31597000 -0.17754500
vt -0.00000000 -0.12750000
vt 1.87500000 1.60613900
vt 0.31597000 -0.17754500
vt 1.87500000 1.28491100
vt 0.60101000 -0.32278000
vt 1.87500000 0.96368400
vt 0.82722000 -0.54899000
vt 1.87500000 0.64245600
vt 0.97245500 -0.83403000
vt 1.87500000 0.32122800
vt 1.87500000 0.00000000
vt 1.02250000 -1.15000000
vt 0.97245500 -1.46597000
vt 1.87500000 -0.32122800
vt 1.87500000 -0.64245600
vt 0.82722000 -1.75101000
vt 1.87500000 -0.96368400
vt 0.60101000 -1.97722000
vt 1.87500000 -1.28491100
vt 0.31597000 -2.12245500
vt 1.87500000 -1.60613900
vt -0.00000000 -2.17250000
vt 1.87500000 -1.92736700
vt -0.31597000 -2.12245500
vt -0.60101000 -1.97722000
vt 1.87500000 -2.24859500
vt -0.82722000 -1.75101000
vt 1.87500000 -2.56982300
vt 1.87500000 -2.89105100
vt -0.97245500 -1.46597000
f 26/26/26 43/43/43 23/23/23
f 23/23/23 43/43/43 46/46/46
f 23/23/23 46/46/46 66/66/66
f 66/66/66 46/46/46 48/48/48
f 66/66/66 48/48/48 63/63/63
f 63/63/63 48/48/48 50/50/50
f 63/63/63 50/50/50 62/62/62
f 62/62/62 50/50/50 51/51/51
f 62/62/62 51/51/51 59/59/59
f 59/59/59 51/51/51 53/53/53
f 59/59/59 53/53/53 58/58/58
f 58/58/58 53/53/53 55/55/55
f 43/43/43 26/26/26 42/42/42
f 42/42/42 26/26/26 28/28/28
f 42/42/42 28/28/28 40/40/40
f 40/40/40 28/28/28 30/30/30
f 40/40/40 30/30/30 37/37/37
f 37/37/37 30/30/30 32/32/32
f 37/37/37 32/32/32 36/36/36
f 36/36/36 32/32/32 33/33/33
f 110/110/110 68/68/68 112/112/112
f 112/112/112 68/68/68 70/70/70
f 112/112/112 70/70/70 152/152/152
f 152/152/152 70/70/70 73/73/73
f 152/152/152 73/73/73 149/149/149
f 149/149/149 73/73/73 75/75/75
f 149/149/149 75/75/75 147/147/147
f 147/147/147 75/75/75 76/76/76
f 147/147/147 76/76/76 146/146/146
f 146/146/146 76/76/76 79/79/79
f 146/146/146 79/79/79 144/144/144
f 144/144/144 79/79/79 81/81/81
f 144/144/144 81/81/81 142/142/142
f 142/142/142 81/81/81 83/83/83
f 142/142/142 83/83/83 140/140/140
f 140/140/140 83/83/83 85/85/85
f 140/140/140 85/85/85 138/138/138
f 138/138/138 85/85/85 87/87/87
f 138/138/138 87/87/87 135/135/135
f 135/135/135 87/87/87 88/88/88
f 135/135/135 88/88/88 134/134/134
f 134/134/134 88/88/88 90/90/90
f 134/134/134 90/90/90 93/93/93
f 134/134/134 93/93/93 131/131/131
f 131/131/131 93/93/93 95/95/95
f 131/131/131 95/95/95 129/129/129
f 129/129/129 95/95/95 96/96/96
f 129/129/129 96/96/96 127/127/127
f 127/127/127 96/96/96 99/99/99
f 127/127/127 99/99/99 125/125/125
f 125/125/125 99/99/99 101/101/101
f 125/125/125 101/101/101 123/123/123
f 123/123/123 101/101/101 102/102/102
f 123/123/123 102/102/102 122/122/122
f 122/122/122 102/102/102 105/105/105
f 122/122/122 105/105/105 119/119/119
f 119/119/119 105/105/105 106/106/106
f 119/119/119 106/106/106 118/118/118
f 118/118/118 106/106/106 109/109/109
f 118/118/118 109/109/109 115/115/115
f 115/115/115 109/109/109 110/110/110
f 115/115/115 110/110/110 112/112/112
f 151/151/151 3/3/3 113/113/113
f 113/113/113 3/3/3 2/2/2
f 114/114/114 1/1/1 116/116/116
f 116/116/116 1/1/1 21/21/21
f 116/116/116 21/21/21 117/117/117
f 117/117/117 21/21/21 20/20/20
f 117/117/117 20/20/20 120/120/120
f 120/120/120 20/20/20 19/19/19
f 120/120/120 19/19/19 121/121/121
f 121/121/121 19/19/19 18/18/18
f 121/121/121 18/18/18 124/124/124
f 124/124/124 18/18/18 17/17/17
f 124/124/124 17/17/17 126/126/126
f 126/126/126 17/17/17 16/16/16
f 126/126/126 16/16/16 128/128/128
f 128/128/128 16/16/16 15/15/15
f 128/128/128 15/15/15 130/130/130
f 130/130/130 15/15/15 14/14/14
f 130/130/130 14/14/14 132/132/132
f 132/132/132 14/14/14 13/13/13
f 132/132/132 13/13/13 133/133/133
f 133/133/133 13/13/13 12/12/12
f 133/133/133 12/12/12 136/136/136
f 136/136/136 12/12/12 11/11/11
f 136/136/136 11/11/11 137/137/137
f 137/137/137 11/11/11 10/10/10
f 137/137/137 10/10/10 139/139/139
f 139/139/139 10/10/10 9/9/9
f 139/139/139 9/9/9 141/141/141
f 141/141/141 9/9/9 8/8/8
f 141/141/141 8/8/8 143/143/143
f 143/143/143 8/8/8 7/7/7
f 143/143/143 7/7/7 145/145/145
f 145/145/145 7/7/7 6/6/6
f 145/145/145 6/6/6 148/148/148
f 148/148/148 6/6/6 5/5/5
f 148/148/148 5/5/5 150/150/150
f 150/150/150 5/5/5 4/4/4
f 150/150/150 4/4/4 151/151/151
f 151/151/151 4/4/4 3/3/3
f 65/65/65 71/71/71 24/24/24
f 24/24/24 71/71/71 69/69/69
f 22/22/22 67/67/67 25/25/25
f 25/25/25 67/67/67 111/111/111
f 25/25/25 111/111/111 27/27/27
f 27/27/27 111/111/111 108/108/108
f 27/27/27 108/108/108 29/29/29
f 29/29/29 108/108/108 107/107/107
f 29/29/29 107/107/107 31/31/31
f 31/31/31 107/107/107 104/104/104
f 31/31/31 104/104/104 34/34/34
f 34/34/34 104/104/104 103/103/103
f 34/34/34 103/103/103 35/35/35
f 35/35/35 103/103/103 100/100/100
f 35/35/35 100/100/100 38/38/38
f 38/38/38 100/100/100 98/98/98
f 38/38/38 98/98/98 39/39/39
f 39/39/39 98/98/98 97/97/97
f 39/39/39 97/97/97 41/41/41
f 41/41/41 97/97/97 94/94/94
f 41/41/41 94/94/94 44/44/44
f 44/44/44 94/94/94 92/92/92
f 44/44/44 92/92/92 45/45/45
f 45/45/45 92/92/92 91/91/91
f 45/45/45 91/91/91 47/47/47
f 47/47/47 91/91/91 89/89/89
f 47/47/47 89/89/89 49/49/49
f 49/49/49 89/89/89 86/86/86
f 49/49/49 86/86/86 52/52/52
f 52/52/52 86/86/86 84/84/84
f 52/52/52 84/84/84 54/54/54
f 54/54/54 84/84/84 82/82/82
f 54/54/54 82/82/82 56/56/56
f 56/56/56 82/82/82 80/80/80
f 56/56/56 80/80/80 57/57/57
f 57/57/57 80/80/80 78/78/78
f 57/57/57 78/78/78 60/60/60
f 60/60/60 78/78/78 77/77/77
f 60/60/60 77/77/77 61/61/61
f 61/61/61 77/77/77 74/74/74
f 61/61/61 74/74/74 64/64/64
f 64/64/64 74/74/74 72/72/72
f 64/64/64 72/72/72 65/65/65
f 65/65/65 72/72/72 71/71/71

