mtllib material.mtl
usemtl Opaque(38,83,143)
v -0.02300000 0.04450000 -0.00000000
v -0.02300000 0.04450000 -0.00000000
v -0.02300000 0.04450000 -0.00000000
v -0.02279600 0.04450000 -0.00337400
v -0.02279600 0.04450000 -0.00337400
v -0.02255400 0.04450000 -0.00528500
v -0.02255400 0.04450000 -0.00528500
v -0.02223000 0.04450000 -0.00742800
v -0.02223000 0.04450000 -0.00742800
v -0.02184100 0.04450000 -0.00984500
v -0.02184100 0.04450000 -0.00984500
v -0.02140200 0.04450000 -0.01257000
v -0.02140200 0.04450000 -0.01257000
v -0.02093000 0.04450000 -0.01562600
v -0.02093000 0.04450000 -0.01562600
v -0.02044000 0.04450000 -0.01903800
v -0.02044000 0.04450000 -0.01903800
v -0.02008000 0.04450000 -0.02176000
v -0.02008000 0.04450000 -0.02176000
v -0.01952400 0.04450000 -0.02647000
v -0.01952400 0.04450000 -0.02647000
v -0.01899900 0.04450000 -0.03164300
v -0.01899900 0.04450000 -0.03164300
v -0.01852200 0.04450000 -0.03723800
v -0.01852200 0.04450000 -0.03723800
v -0.01810900 0.04450000 -0.04321300
v -0.01810900 0.04450000 -0.04321300
v -0.01771100 0.04450000 -0.05094500
v -0.01771100 0.04450000 -0.05094500
v -0.01744000 0.04450000 -0.05900000
v -0.01744000 0.04450000 -0.05900000
v -0.01728400 0.04450000 -0.07555600
v -0.01728400 0.04450000 -0.07555600
v -0.01756500 0.04450000 -0.09032000
v -0.01756500 0.04450000 -0.09032000
v -0.01819500 0.04450000 -0.10487200
v -0.01819500 0.04450000 -0.10487200
v -0.01928300 0.04450000 -0.12084500
v -0.01928300 0.04450000 -0.12084500
v -0.02029900 0.04450000 -0.13199500
v -0.02029900 0.04450000 -0.13199500
v -0.02150000 0.04450000 -0.14290300
v -0.02150000 0.04450000 -0.14290300
v -0.02286500 0.04450000 -0.15345900
v -0.02286500 0.04450000 -0.15345900
v -0.02437100 0.04450000 -0.16354900
v -0.02437100 0.04450000 -0.16354900
v -0.02565000 0.04450000 -0.17116000
v -0.02565000 0.04450000 -0.17116000
v -0.02697700 0.04450000 -0.17836800
v -0.02697700 0.04450000 -0.17836800
v -0.02832600 0.04450000 -0.18515200
v -0.02832600 0.04450000 -0.18515200
v -0.02967400 0.04450000 -0.19149100
v -0.02967400 0.04450000 -0.19149100
v -0.03033400 0.04450000 -0.19445800
v -0.03033400 0.04450000 -0.19445800
v -0.03033400 0.04450000 -0.19445800
v -0.03549600 0.04000000 -0.19686500
v -0.03549600 0.04000000 -0.19686500
v -0.03549600 0.04000000 -0.19686500
v -0.03407000 0.04000000 -0.19052700
v -0.03407000 0.04000000 -0.19052700
v -0.03273300 0.04000000 -0.18424300
v -0.03273300 0.04000000 -0.18424300
v -0.03139600 0.04000000 -0.17752000
v -0.03139600 0.04000000 -0.17752000
v -0.03008200 0.04000000 -0.17037900
v -0.03008200 0.04000000 -0.17037900
v -0.02881500 0.04000000 -0.16284000
v -0.02881500 0.04000000 -0.16284000
v -0.02732200 0.04000000 -0.15283900
v -0.02732200 0.04000000 -0.15283900
v -0.02596900 0.04000000 -0.14236900
v -0.02596900 0.04000000 -0.14236900
v -0.02477600 0.04000000 -0.13154400
v -0.02477600 0.04000000 -0.13154400
v -0.02376800 0.04000000 -0.12048000
v -0.02376800 0.04000000 -0.12048000
v -0.02268900 0.04000000 -0.10462400
v -0.02268900 0.04000000 -0.10462400
v -0.02206300 0.04000000 -0.09017800
v -0.02206300 0.04000000 -0.09017800
v -0.02178400 0.04000000 -0.07552900
v -0.02178400 0.04000000 -0.07552900
v -0.02193800 0.04000000 -0.05911400
v -0.02193800 0.04000000 -0.05911400
v -0.02220700 0.04000000 -0.05113600
v -0.02220700 0.04000000 -0.05113600
v -0.02260000 0.04000000 -0.04348700
v -0.02260000 0.04000000 -0.04348700
v -0.02300800 0.04000000 -0.03758300
v -0.02300800 0.04000000 -0.03758300
v -0.02347900 0.04000000 -0.03206100
v -0.02347900 0.04000000 -0.03206100
v -0.02399700 0.04000000 -0.02696200
v -0.02399700 0.04000000 -0.02696200
v -0.02454400 0.04000000 -0.02232700
v -0.02454400 0.04000000 -0.02232700
v -0.02489800 0.04000000 -0.01965000
v -0.02489800 0.04000000 -0.01965000
v -0.02538000 0.04000000 -0.01629200
v -0.02538000 0.04000000 -0.01629200
v -0.02584600 0.04000000 -0.01327600
v -0.02584600 0.04000000 -0.01327600
v -0.02628200 0.04000000 -0.01056700
v -0.02628200 0.04000000 -0.01056700
v -0.02667500 0.04000000 -0.00813000
v -0.02667500 0.04000000 -0.00813000
v -0.02726900 0.04000000 -0.00386400
v -0.02726900 0.04000000 -0.00386400
v -0.02750000 0.04000000 0.00000000
v -0.02750000 0.04000000 0.00000000
v -0.02750000 0.04000000 0.00000000
v -0.02635400 0.04022400 -0.00872000
v -0.02672600 0.04022400 -0.00631000
v -0.02592000 0.04022400 -0.01140200
v -0.02467600 0.04022400 -0.01961900
v -0.02432200 0.04022400 -0.02229900
v -0.02237700 0.04022400 -0.04347300
v -0.02199900 0.04022400 -0.05075300
v -0.02173400 0.04022400 -0.05833800
v -0.02157700 0.04022400 -0.06688900
v -0.02156000 0.04022400 -0.07553000
v -0.02165400 0.04022400 -0.08288600
v -0.02183900 0.04022400 -0.09018500
v -0.02211000 0.04022400 -0.09742300
v -0.02246500 0.04022400 -0.10463700
v -0.02295300 0.04022400 -0.11257000
v -0.02354500 0.04022400 -0.12049800
v -0.02419600 0.04022400 -0.12789800
v -0.02574600 0.04022400 -0.14239500
v -0.02663200 0.04022400 -0.14942500
v -0.02986100 0.04022400 -0.17041700
v -0.02859400 0.04022400 -0.16287500
v -0.03117600 0.04022400 -0.17756200
v -0.03251400 0.04022400 -0.18428900
v -0.03385100 0.04022400 -0.19057500
v -0.02758400 0.04022400 -0.15626300
v -0.02493100 0.04022400 -0.13520900
v -0.02712600 0.04022400 -0.00305500
v -0.02531700 0.04022400 -0.01521700
v -0.02359700 0.04022400 -0.02858900
v -0.02293600 0.04022400 -0.03568000
v 0.03033400 0.04450000 -0.19445800
v 0.03033400 0.04450000 -0.19445800
v 0.03033400 0.04450000 -0.19445800
v 0.02967400 0.04450000 -0.19149100
v 0.02967400 0.04450000 -0.19149100
v 0.02832600 0.04450000 -0.18515200
v 0.02832600 0.04450000 -0.18515200
v 0.02697700 0.04450000 -0.17836800
v 0.02697700 0.04450000 -0.17836800
v 0.02565000 0.04450000 -0.17116000
v 0.02565000 0.04450000 -0.17116000
v 0.02437100 0.04450000 -0.16354900
v 0.02437100 0.04450000 -0.16354900
v 0.02286500 0.04450000 -0.15345900
v 0.02286500 0.04450000 -0.15345900
v 0.02150000 0.04450000 -0.14290300
v 0.02150000 0.04450000 -0.14290300
v 0.02029900 0.04450000 -0.13199500
v 0.02029900 0.04450000 -0.13199500
v 0.01928300 0.04450000 -0.12084500
v 0.01928300 0.04450000 -0.12084500
v 0.01819500 0.04450000 -0.10487200
v 0.01819500 0.04450000 -0.10487200
v 0.01756500 0.04450000 -0.09032000
v 0.01756500 0.04450000 -0.09032000
v 0.01728400 0.04450000 -0.07555600
v 0.01728400 0.04450000 -0.07555600
v 0.01744000 0.04450000 -0.05900000
v 0.01744000 0.04450000 -0.05900000
v 0.01771100 0.04450000 -0.05094500
v 0.01771100 0.04450000 -0.05094500
v 0.01810900 0.04450000 -0.04321300
v 0.01810900 0.04450000 -0.04321300
v 0.01852200 0.04450000 -0.03723800
v 0.01852200 0.04450000 -0.03723800
v 0.01899900 0.04450000 -0.03164300
v 0.01899900 0.04450000 -0.03164300
v 0.01952400 0.04450000 -0.02647000
v 0.01952400 0.04450000 -0.02647000
v 0.02008000 0.04450000 -0.02176000
v 0.02008000 0.04450000 -0.02176000
v 0.02044000 0.04450000 -0.01903800
v 0.02044000 0.04450000 -0.01903800
v 0.02093000 0.04450000 -0.01562600
v 0.02093000 0.04450000 -0.01562600
v 0.02140200 0.04450000 -0.01257000
v 0.02140200 0.04450000 -0.01257000
v 0.02184100 0.04450000 -0.00984600
v 0.02184100 0.04450000 -0.00984600
v 0.02223000 0.04450000 -0.00742900
v 0.02223000 0.04450000 -0.00742900
v 0.02255400 0.04450000 -0.00528600
v 0.02255400 0.04450000 -0.00528600
v 0.02279600 0.04450000 -0.00337500
v 0.02279600 0.04450000 -0.00337500
v 0.02300000 0.04450000 0.00000000
v 0.02300000 0.04450000 0.00000000
v 0.02300000 0.04450000 0.00000000
v 0.02750000 0.04000000 0.00000000
v 0.02750000 0.04000000 0.00000000
v 0.02750000 0.04000000 0.00000000
v 0.02726900 0.04000000 -0.00386400
v 0.02726900 0.04000000 -0.00386400
v 0.02667500 0.04000000 -0.00813000
v 0.02667500 0.04000000 -0.00813000
v 0.02628300 0.04000000 -0.01056800
v 0.02628300 0.04000000 -0.01056800
v 0.02584600 0.04000000 -0.01327600
v 0.02584600 0.04000000 -0.01327600
v 0.02538000 0.04000000 -0.01629200
v 0.02538000 0.04000000 -0.01629200
v 0.02489800 0.04000000 -0.01965000
v 0.02489800 0.04000000 -0.01965000
v 0.02454400 0.04000000 -0.02232700
v 0.02454400 0.04000000 -0.02232700
v 0.02399700 0.04000000 -0.02696200
v 0.02399700 0.04000000 -0.02696200
v 0.02347900 0.04000000 -0.03206100
v 0.02347900 0.04000000 -0.03206100
v 0.02300800 0.04000000 -0.03758300
v 0.02300800 0.04000000 -0.03758300
v 0.02260000 0.04000000 -0.04348700
v 0.02260000 0.04000000 -0.04348700
v 0.02220700 0.04000000 -0.05113600
v 0.02220700 0.04000000 -0.05113600
v 0.02193800 0.04000000 -0.05911400
v 0.02193800 0.04000000 -0.05911400
v 0.02178400 0.04000000 -0.07552900
v 0.02178400 0.04000000 -0.07552900
v 0.02206300 0.04000000 -0.09017800
v 0.02206300 0.04000000 -0.09017800
v 0.02268900 0.04000000 -0.10462400
v 0.02268900 0.04000000 -0.10462400
v 0.02376800 0.04000000 -0.12048000
v 0.02376800 0.04000000 -0.12048000
v 0.02477600 0.04000000 -0.13154400
v 0.02477600 0.04000000 -0.13154400
v 0.02596900 0.04000000 -0.14236900
v 0.02596900 0.04000000 -0.14236900
v 0.02732200 0.04000000 -0.15283900
v 0.02732200 0.04000000 -0.15283900
v 0.02881500 0.04000000 -0.16284000
v 0.02881500 0.04000000 -0.16284000
v 0.03008200 0.04000000 -0.17037900
v 0.03008200 0.04000000 -0.17037900
v 0.03139600 0.04000000 -0.17752000
v 0.03139600 0.04000000 -0.17752000
v 0.03273300 0.04000000 -0.18424300
v 0.03273300 0.04000000 -0.18424300
v 0.03407000 0.04000000 -0.19052700
v 0.03407000 0.04000000 -0.19052700
v 0.03549600 0.04000000 -0.19686500
v 0.03549600 0.04000000 -0.19686500
v 0.03549600 0.04000000 -0.19686500
v 0.03187200 0.04225000 -0.19100900
v 0.03053000 0.04225000 -0.18469800
v 0.02918600 0.04225000 -0.17794400
v 0.02786600 0.04225000 -0.17076900
v 0.02659300 0.04225000 -0.16319500
v 0.02462400 0.04225000 -0.14969100
v 0.02291700 0.04225000 -0.13542400
v 0.02152600 0.04225000 -0.12066200
v 0.02044200 0.04225000 -0.10474800
v 0.01981400 0.04225000 -0.09024900
v 0.01953400 0.04225000 -0.07554300
v 0.01968900 0.04225000 -0.05905700
v 0.01995900 0.04225000 -0.05104000
v 0.02035500 0.04225000 -0.04335000
v 0.02076500 0.04225000 -0.03741000
v 0.02123900 0.04225000 -0.03185200
v 0.02176000 0.04225000 -0.02671600
v 0.02231200 0.04225000 -0.02204400
v 0.02266900 0.04225000 -0.01934400
v 0.02342400 0.04225000 -0.01419800
v 0.02411700 0.04225000 -0.00986700
v 0.02469000 0.04225000 -0.00623100
v 0.02508500 0.04225000 -0.00311700
v 0.00000000 0.04450000 0.00875000
v 0.00000000 0.04450000 0.00875000
v 0.00000000 0.04450000 0.00875000
v 0.00284100 0.04450000 0.00827600
v 0.00284100 0.04450000 0.00827600
v 0.00537400 0.04450000 0.00690500
v 0.00537400 0.04450000 0.00690500
v 0.00732500 0.04450000 0.00478600
v 0.00732500 0.04450000 0.00478600
v 0.00848200 0.04450000 0.00214800
v 0.00848200 0.04450000 0.00214800
v 0.00872000 0.04450000 -0.00072300
v 0.00872000 0.04450000 -0.00072300
v 0.00801300 0.04450000 -0.00351500
v 0.00801300 0.04450000 -0.00351500
v 0.00643800 0.04450000 -0.00592600
v 0.00643800 0.04450000 -0.00592600
v 0.00416500 0.04450000 -0.00769500
v 0.00416500 0.04450000 -0.00769500
v 0.00144000 0.04450000 -0.00863100
v 0.00144000 0.04450000 -0.00863100
v -0.00144000 0.04450000 -0.00863100
v -0.00144000 0.04450000 -0.00863100
v -0.00416500 0.04450000 -0.00769500
v -0.00416500 0.04450000 -0.00769500
v -0.00643800 0.04450000 -0.00592600
v -0.00643800 0.04450000 -0.00592600
v -0.00801300 0.04450000 -0.00351500
v -0.00801300 0.04450000 -0.00351500
v -0.00872000 0.04450000 -0.00072300
v -0.00872000 0.04450000 -0.00072300
v -0.00848200 0.04450000 0.00214800
v -0.00848200 0.04450000 0.00214800
v -0.00732500 0.04450000 0.00478600
v -0.00732500 0.04450000 0.00478600
v -0.00537400 0.04450000 0.00690500
v -0.00537400 0.04450000 0.00690500
v -0.00284100 0.04450000 0.00827600
v -0.00284100 0.04450000 0.00827600
v 0.00000000 0.04150000 0.00575000
v 0.00000000 0.04150000 0.00575000
v 0.00000000 0.04150000 0.00575000
v 0.00000000 0.04150000 0.00575000
v -0.00220000 0.04150000 0.00531200
v -0.00220000 0.04150000 0.00531200
v -0.00406600 0.04150000 0.00406600
v -0.00406600 0.04150000 0.00406600
v -0.00531200 0.04150000 0.00220000
v -0.00531200 0.04150000 0.00220000
v -0.00575000 0.04150000 -0.00000000
v -0.00575000 0.04150000 -0.00000000
v -0.00531200 0.04150000 -0.00220000
v -0.00531200 0.04150000 -0.00220000
v -0.00406600 0.04150000 -0.00406600
v -0.00406600 0.04150000 -0.00406600
v -0.00220000 0.04150000 -0.00531200
v -0.00220000 0.04150000 -0.00531200
v -0.00000000 0.04150000 -0.00575000
v -0.00000000 0.04150000 -0.00575000
v 0.00220000 0.04150000 -0.00531200
v 0.00220000 0.04150000 -0.00531200
v 0.00406600 0.04150000 -0.00406600
v 0.00406600 0.04150000 -0.00406600
v 0.00531200 0.04150000 -0.00220000
v 0.00531200 0.04150000 -0.00220000
v 0.00575000 0.04150000 -0.00000000
v 0.00575000 0.04150000 -0.00000000
v 0.00531200 0.04150000 0.00220000
v 0.00531200 0.04150000 0.00220000
v 0.00406600 0.04150000 0.00406600
v 0.00406600 0.04150000 0.00406600
v 0.00220000 0.04150000 0.00531200
v 0.00220000 0.04150000 0.00531200
v -0.02255800 0.04450000 0.00448700
v -0.02255800 0.04450000 0.00448700
v -0.02124900 0.04450000 0.00880200
v -0.02124900 0.04450000 0.00880200
v -0.01912400 0.04450000 0.01277800
v -0.01912400 0.04450000 0.01277800
v -0.01626300 0.04450000 0.01626300
v -0.01626300 0.04450000 0.01626300
v -0.01277800 0.04450000 0.01912400
v -0.01277800 0.04450000 0.01912400
v -0.00880200 0.04450000 0.02124900
v -0.00880200 0.04450000 0.02124900
v -0.00448700 0.04450000 0.02255800
v -0.00448700 0.04450000 0.02255800
v -0.00000000 0.04450000 0.02300000
v -0.00000000 0.04450000 0.02300000
v 0.00448700 0.04450000 0.02255800
v 0.00448700 0.04450000 0.02255800
v 0.00880200 0.04450000 0.02124900
v 0.00880200 0.04450000 0.02124900
v 0.01277800 0.04450000 0.01912400
v 0.01277800 0.04450000 0.01912400
v 0.01626300 0.04450000 0.01626300
v 0.01626300 0.04450000 0.01626300
v 0.01912400 0.04450000 0.01277800
v 0.01912400 0.04450000 0.01277800
v 0.02124900 0.04450000 0.00880200
v 0.02124900 0.04450000 0.00880200
v 0.02255800 0.04450000 0.00448700
v 0.02255800 0.04450000 0.00448700
v 0.01711600 0.04450000 -0.18829500
v 0.01711600 0.04450000 -0.18829500
v 0.01711600 0.04450000 -0.18829500
v 0.01161600 0.04450000 -0.18620100
v 0.01161600 0.04450000 -0.18620100
v 0.00587000 0.04450000 -0.18492800
v 0.00587000 0.04450000 -0.18492800
v -0.00000000 0.04450000 -0.18450000
v -0.00000000 0.04450000 -0.18450000
v -0.00587000 0.04450000 -0.18492800
v -0.00587000 0.04450000 -0.18492800
v -0.01161600 0.04450000 -0.18620100
v -0.01161600 0.04450000 -0.18620100
v -0.01711600 0.04450000 -0.18829500
v -0.01711600 0.04450000 -0.18829500
v -0.01711600 0.04450000 -0.18829500
v 0.00000000 0.04000000 0.00575000
v 0.00000000 0.04000000 0.00575000
v 0.00000000 0.04000000 0.00575000
v -0.00220000 0.04000000 0.00531200
v -0.00220000 0.04000000 0.00531200
v -0.00406600 0.04000000 0.00406600
v -0.00406600 0.04000000 0.00406600
v -0.00531200 0.04000000 0.00220000
v -0.00531200 0.04000000 0.00220000
v -0.00575000 0.04000000 -0.00000000
v -0.00575000 0.04000000 -0.00000000
v -0.00531200 0.04000000 -0.00220000
v -0.00531200 0.04000000 -0.00220000
v -0.00406600 0.04000000 -0.00406600
v -0.00406600 0.04000000 -0.00406600
v -0.00220000 0.04000000 -0.00531200
v -0.00220000 0.04000000 -0.00531200
v -0.00000000 0.04000000 -0.00575000
v -0.00000000 0.04000000 -0.00575000
v 0.00220000 0.04000000 -0.00531200
v 0.00220000 0.04000000 -0.00531200
v 0.00406600 0.04000000 -0.00406600
v 0.00406600 0.04000000 -0.00406600
v 0.00531200 0.04000000 -0.00220000
v 0.00531200 0.04000000 -0.00220000
v 0.00575000 0.04000000 -0.00000000
v 0.00575000 0.04000000 -0.00000000
v 0.00531200 0.04000000 0.00220000
v 0.00531200 0.04000000 0.00220000
v 0.00406600 0.04000000 0.00406600
v 0.00406600 0.04000000 0.00406600
v 0.00220000 0.04000000 0.00531200
v 0.00220000 0.04000000 0.00531200
v -0.02703200 0.04000000 0.00505300
v -0.02703200 0.04000000 0.00505300
v -0.02564300 0.04000000 0.00993400
v -0.02564300 0.04000000 0.00993400
v -0.02338100 0.04000000 0.01447700
v -0.02338100 0.04000000 0.01447700
v -0.02032300 0.04000000 0.01852700
v -0.02032300 0.04000000 0.01852700
v -0.01657200 0.04000000 0.02194500
v -0.01657200 0.04000000 0.02194500
v -0.01225800 0.04000000 0.02461700
v -0.01225800 0.04000000 0.02461700
v -0.00752600 0.04000000 0.02645000
v -0.00752600 0.04000000 0.02645000
v -0.00253700 0.04000000 0.02738300
v -0.00253700 0.04000000 0.02738300
v 0.00253700 0.04000000 0.02738300
v 0.00253700 0.04000000 0.02738300
v 0.00752600 0.04000000 0.02645000
v 0.00752600 0.04000000 0.02645000
v 0.01225800 0.04000000 0.02461700
v 0.01225800 0.04000000 0.02461700
v 0.01657200 0.04000000 0.02194500
v 0.01657200 0.04000000 0.02194500
v 0.02032300 0.04000000 0.01852700
v 0.02032300 0.04000000 0.01852700
v 0.02338100 0.04000000 0.01447700
v 0.02338100 0.04000000 0.01447700
v 0.02564300 0.04000000 0.00993400
v 0.02564300 0.04000000 0.00993400
v 0.02703200 0.04000000 0.00505300
v 0.02703200 0.04000000 0.00505300
v -0.01711600 0.04000000 -0.18829500
v -0.01711600 0.04000000 -0.18829500
v -0.01711600 0.04000000 -0.18829500
v 0.01711600 0.04000000 -0.18829500
v 0.01711600 0.04000000 -0.18829500
v 0.01711600 0.04000000 -0.18829500
v 0.01161600 0.04000000 -0.18620100
v 0.01161600 0.04000000 -0.18620100
v 0.00587000 0.04000000 -0.18492800
v 0.00587000 0.04000000 -0.18492800
v 0.00000000 0.04000000 -0.18450000
v 0.00000000 0.04000000 -0.18450000
v -0.00587000 0.04000000 -0.18492800
v -0.00587000 0.04000000 -0.18492800
v -0.01161600 0.04000000 -0.18620100
v -0.01161600 0.04000000 -0.18620100
vn -70.71067800 70.71067800 -0.00000300
vn -70.71067800 70.71067800 -0.00000200
vn -0.00000000 100.00000000 0.00000000
vn -70.29067700 70.71081300 -7.69426400
vn -0.00000000 100.00000000 0.00000000
vn -70.01768100 70.71042000 -9.87729000
vn -0.00000000 100.00000000 0.00000000
vn -0.00000000 100.00000000 0.00000000
vn -69.84417200 70.71083000 -11.03495200
vn -69.79653000 70.71057700 -11.33396200
vn -0.00000000 100.00000000 0.00000000
vn -69.83699900 70.71062500 -11.08156500
vn -0.00000000 100.00000000 0.00000000
vn -0.00000000 100.00000000 0.00000000
vn -69.93111000 70.71077400 -10.47025900
vn -0.00000000 100.00000000 0.00000000
vn -70.05441000 70.71069300 -9.61132200
vn -0.00000000 100.00000000 0.00000000
vn -70.14712100 70.71081900 -8.90850700
vn -0.00000000 100.00000000 0.00000000
vn -70.28781400 70.71075200 -7.72092800
vn -0.00000000 100.00000000 0.00000000
vn -70.40388000 70.71070400 -6.57951400
vn -70.50044500 70.71063600 -5.44915100
vn -0.00000000 100.00000000 0.00000000
vn -70.57960500 70.71059600 -4.30477100
vn -0.00000000 100.00000000 0.00000000
vn -0.00000000 100.00000000 0.00000000
vn -70.64727800 70.71068500 -2.99351200
vn -0.00000000 100.00000000 0.00000000
vn -70.68806000 70.71067100 -1.78864900
vn -70.70943900 70.71062700 0.42714500
vn -0.00000000 100.00000000 0.00000000
vn -0.00000000 100.00000000 0.00000000
vn -70.67574300 70.71067500 2.22257700
vn -0.00000000 100.00000000 0.00000000
vn -70.60389400 70.71063000 3.88548000
vn -70.47759600 70.71029800 5.74127900
vn -0.00000000 100.00000000 0.00000000
vn -0.00000000 100.00000000 0.00000000
vn -70.35530900 70.71042500 7.08281300
vn -0.00000000 100.00000000 0.00000000
vn -70.20932900 70.71074600 8.40479400
vn -70.03593500 70.71033900 9.74760300
vn -0.00000000 100.00000000 0.00000000
vn -0.00000000 100.00000000 0.00000000
vn -69.82540500 70.71005200 11.15801500
vn -69.63744400 70.71039700 12.27461300
vn -0.00000000 100.00000000 0.00000000
vn -69.44620300 70.71059000 13.31304800
vn -0.00000000 100.00000000 0.00000000
vn -69.25551700 70.71065300 14.27154200
vn -0.00000000 100.00000000 0.00000000
vn -69.06947900 70.71066500 15.14625100
vn -0.00000000 100.00000000 0.00000000
vn 42.26182600 0.00000000 -90.63077900
vn -68.98745900 70.71067800 15.51549400
vn -0.00000000 100.00000000 0.00000000
vn -68.91680500 70.71067800 15.82637100
vn 42.26182600 0.00000000 -90.63077900
vn 0.00000000 -100.00000000 -0.00000000
vn 0.00000000 -100.00000000 -0.00000000
vn -69.06947900 70.71066500 15.14625100
vn -69.25552300 70.71065300 14.27151200
vn 0.00000000 -100.00000000 -0.00000000
vn -69.44620100 70.71059000 13.31305700
vn 0.00000000 -100.00000000 -0.00000000
vn -69.63743700 70.71039700 12.27465400
vn 0.00000000 -100.00000000 -0.00000000
vn 0.00000000 -100.00000000 -0.00000000
vn -69.82540500 70.71005200 11.15801500
vn 0.00000000 -100.00000000 -0.00000000
vn -70.03603800 70.71033900 9.74686300
vn 0.00000000 -100.00000000 -0.00000000
vn -70.20932100 70.71074600 8.40485500
vn 0.00000000 -100.00000000 -0.00000000
vn -70.35523300 70.71042500 7.08356900
vn -70.47759600 70.71029800 5.74127900
vn 0.00000000 -100.00000000 -0.00000000
vn 0.00000000 -100.00000000 -0.00000000
vn -70.60389400 70.71063000 3.88548000
vn -70.67574200 70.71067500 2.22260500
vn 0.00000000 -100.00000000 -0.00000000
vn -70.70943900 70.71062700 0.42714500
vn 0.00000000 -100.00000000 -0.00000000
vn -70.68806100 70.71067100 -1.78858900
vn 0.00000000 -100.00000000 -0.00000000
vn -70.64727700 70.71068500 -2.99355100
vn 0.00000000 -100.00000000 -0.00000000
vn 0.00000000 -100.00000000 -0.00000000
vn -70.57960500 70.71059600 -4.30477100
vn -70.50042400 70.71063600 -5.44941400
vn 0.00000000 -100.00000000 -0.00000000
vn 0.00000000 -100.00000000 -0.00000000
vn -70.40387700 70.71070400 -6.57954800
vn 0.00000000 -100.00000000 -0.00000000
vn -70.28784700 70.71075200 -7.72063000
vn 0.00000000 -100.00000000 -0.00000000
vn -70.14712100 70.71081900 -8.90850700
vn 0.00000000 -100.00000000 -0.00000000
vn -70.05439200 70.71069300 -9.61145600
vn 0.00000000 -100.00000000 -0.00000000
vn -69.93119100 70.71077400 -10.46971800
vn 0.00000000 -100.00000000 -0.00000000
vn -69.83702400 70.71062500 -11.08140700
vn 0.00000000 -100.00000000 -0.00000000
vn -69.79660000 70.71057700 -11.33353100
vn 0.00000000 -100.00000000 -0.00000000
vn -69.84470500 70.71083000 -11.03157500
vn 0.00000000 -100.00000000 -0.00000000
vn -70.29114800 70.71081300 -7.68995800
vn -70.71067800 70.71067800 -0.00000300
vn -70.71067800 70.71067800 -0.00000200
vn 0.00000000 -100.00000000 -0.00000000
vn -69.82031300 70.71070100 -11.18573300
vn -69.97299200 70.71003600 -10.19172700
vn -69.80247700 70.71051100 -11.29769000
vn -70.05440900 70.71068800 -9.61136700
vn -70.14716200 70.71077900 -8.90849800
vn -70.57958100 70.71061900 -4.30476900
vn -70.64472000 70.71070000 -3.05294800
vn -70.68515000 70.71067500 -1.89996900
vn -70.70708200 70.71068700 -0.71217400
vn -70.70942500 70.71064100 0.42714100
vn -70.69763000 70.71068400 1.35806400
vn -70.67573800 70.71067900 2.22260500
vn -70.64423500 70.71068500 3.06449100
vn -70.60388000 70.71064400 3.88547800
vn -70.54766300 70.71064300 4.79918000
vn -70.47748600 70.71040600 5.74129600
vn -70.39837400 70.71049500 6.64039800
vn -70.20898500 70.71108500 8.40481600
vn -70.09698200 70.71086800 9.29441600
vn -69.63736400 70.71047400 12.27462600
vn -69.82523300 70.71023000 11.15796500
vn -69.44617600 70.71061800 13.31304600
vn -69.25551400 70.71066200 14.27150900
vn -69.06947600 70.71066800 15.14624900
vn -69.97041100 70.71040800 10.20685100
vn -70.30898800 70.71089800 7.52429900
vn -70.41169700 70.71025800 -6.50018000
vn -69.89556000 70.71061900 -10.70602700
vn -70.32892800 70.71073700 -7.33713400
vn -70.47021000 70.71067800 -5.82661600
vn -42.26182600 0.00000000 -90.63077900
vn -0.00000000 100.00000000 0.00000000
vn 68.98745900 70.71067800 15.51549400
vn -0.00000000 100.00000000 0.00000000
vn 69.06947900 70.71066500 15.14625100
vn -0.00000000 100.00000000 0.00000000
vn 69.25551700 70.71065300 14.27154200
vn -0.00000000 100.00000000 0.00000000
vn 69.44620300 70.71059000 13.31304800
vn 69.63744400 70.71039700 12.27461300
vn -0.00000000 100.00000000 0.00000000
vn -0.00000000 100.00000000 0.00000000
vn 69.82540500 70.71005200 11.15801500
vn 70.03593500 70.71033900 9.74760300
vn -0.00000000 100.00000000 0.00000000
vn -0.00000000 100.00000000 0.00000000
vn 70.20932900 70.71074600 8.40479400
vn 70.35530900 70.71042500 7.08281300
vn -0.00000000 100.00000000 0.00000000
vn 70.47759600 70.71029800 5.74127900
vn -0.00000000 100.00000000 0.00000000
vn -0.00000000 100.00000000 0.00000000
vn 70.60385400 70.71067000 3.88547800
vn 70.67554600 70.71067500 2.22881400
vn -0.00000000 100.00000000 0.00000000
vn -0.00000000 100.00000000 0.00000000
vn 70.70948900 70.71057700 0.42714500
vn -0.00000000 100.00000000 0.00000000
vn 70.68806000 70.71067100 -1.78864700
vn -0.00000000 100.00000000 0.00000000
vn 70.64727800 70.71068500 -2.99352200
vn -0.00000000 100.00000000 0.00000000
vn 70.57960500 70.71059600 -4.30477100
vn -0.00000000 100.00000000 0.00000000
vn 70.50044400 70.71063600 -5.44915100
vn 70.40387500 70.71070900 -6.57951600
vn -0.00000000 100.00000000 0.00000000
vn -0.00000000 100.00000000 0.00000000
vn 70.28779500 70.71077100 -7.72092900
vn 70.14707700 70.71086300 -8.90850100
vn -0.00000000 100.00000000 0.00000000
vn -0.00000000 100.00000000 0.00000000
vn 70.05457400 70.71068800 -9.61016400
vn 69.93082300 70.71083800 -10.47174100
vn -0.00000000 100.00000000 0.00000000
vn -0.00000000 100.00000000 0.00000000
vn 69.83660200 70.71061300 -11.08414000
vn -0.00000000 100.00000000 0.00000000
vn 69.79631900 70.71055100 -11.33542400
vn 69.84427100 70.71096000 -11.03349300
vn -0.00000000 100.00000000 0.00000000
vn -0.00000000 100.00000000 0.00000000
vn 70.01799000 70.71043400 -9.87500000
vn -0.00000000 100.00000000 0.00000000
vn 70.29018000 70.71070700 -7.69977200
vn -0.00000000 100.00000000 0.00000000
vn 70.71067800 70.71067800 0.00000100
vn 70.71067800 70.71067800 -0.00000200
vn 70.71067800 70.71067800 -0.00000200
vn 0.00000000 -100.00000000 -0.00000000
vn 70.71067800 70.71067800 0.00000000
vn 0.00000000 -100.00000000 -0.00000000
vn 70.29040000 70.71070700 -7.69776300
vn 69.84443500 70.71096000 -11.03245700
vn 0.00000000 -100.00000000 -0.00000000
vn 69.79621900 70.71055100 -11.33603600
vn 0.00000000 -100.00000000 -0.00000000
vn 69.83672600 70.71061300 -11.08336400
vn 0.00000000 -100.00000000 -0.00000000
vn 0.00000000 -100.00000000 -0.00000000
vn 69.93101200 70.71083800 -10.47048000
vn 0.00000000 -100.00000000 -0.00000000
vn 70.05448400 70.71068800 -9.61081400
vn 0.00000000 -100.00000000 -0.00000000
vn 70.14707700 70.71086300 -8.90850100
vn 0.00000000 -100.00000000 -0.00000000
vn 70.28782800 70.71077100 -7.72063100
vn 0.00000000 -100.00000000 -0.00000000
vn 70.40387200 70.71070900 -6.57955000
vn 0.00000000 -100.00000000 -0.00000000
vn 70.50042400 70.71063600 -5.44941500
vn 0.00000000 -100.00000000 -0.00000000
vn 70.57960500 70.71059600 -4.30477100
vn 70.64727600 70.71068500 -2.99356200
vn 0.00000000 -100.00000000 -0.00000000
vn 70.68806100 70.71067100 -1.78858700
vn 0.00000000 -100.00000000 -0.00000000
vn 0.00000000 -100.00000000 -0.00000000
vn 70.70948900 70.71057700 0.42714500
vn 70.67554900 70.71067500 2.22872700
vn 0.00000000 -100.00000000 -0.00000000
vn 0.00000000 -100.00000000 -0.00000000
vn 70.60385400 70.71067000 3.88547800
vn 0.00000000 -100.00000000 -0.00000000
vn 70.47759600 70.71029800 5.74127900
vn 0.00000000 -100.00000000 -0.00000000
vn 70.35523300 70.71042500 7.08356900
vn 70.20932100 70.71074600 8.40485500
vn 0.00000000 -100.00000000 -0.00000000
vn 70.03603800 70.71033900 9.74686300
vn 0.00000000 -100.00000000 -0.00000000
vn 69.82540500 70.71005200 11.15801500
vn 0.00000000 -100.00000000 -0.00000000
vn 0.00000000 -100.00000000 -0.00000000
vn 69.63743700 70.71039700 12.27465300
vn 69.44620200 70.71059000 13.31305700
vn 0.00000000 -100.00000000 -0.00000000
vn 0.00000000 -100.00000000 -0.00000000
vn 69.25552300 70.71065300 14.27151200
vn 69.06947900 70.71066500 15.14625100
vn 0.00000000 -100.00000000 -0.00000000
vn -42.26182600 0.00000000 -90.63077900
vn 68.91680500 70.71067800 15.82637100
vn 0.00000000 -100.00000000 -0.00000000
vn 69.06946000 70.71068500 15.14624700
vn 69.25547300 70.71070100 14.27151700
vn 69.44606200 70.71073400 13.31302600
vn 69.63704300 70.71080100 12.27456300
vn 69.82447800 70.71099100 11.15786600
vn 70.09555800 70.71227100 9.29448600
vn 70.30771500 70.71221000 7.52386800
vn 70.47702700 70.71086800 5.74123300
vn 70.60384200 70.71068200 3.88547800
vn 70.67552400 70.71069800 2.22877000
vn 70.70933700 70.71072900 0.42714400
vn 70.68802100 70.71071000 -1.78861600
vn 70.64719500 70.71076700 -2.99353900
vn 70.57948100 70.71071900 -4.30476300
vn 70.50032600 70.71074500 -5.44927400
vn 70.40381900 70.71076400 -6.57952800
vn 70.28788700 70.71069500 -7.72079000
vn 70.14735300 70.71058600 -8.90853600
vn 70.05452200 70.71069600 -9.61048500
vn 69.87329000 70.70987000 -10.85530700
vn 69.79733200 70.70968100 -11.33461700
vn 69.95343200 70.70970100 -10.32742000
vn 70.37084600 70.71043400 -6.92665800
vn 0.00000000 70.71067800 -70.71067800
vn 0.00000000 70.71067800 -70.71067800
vn -0.00000000 100.00000000 0.00000000
vn -22.95972000 70.71067800 -66.87937900
vn -0.00000000 100.00000000 0.00000000
vn -43.43139700 70.71067800 -55.80066100
vn -0.00000000 100.00000000 0.00000000
vn -0.00000000 100.00000000 0.00000000
vn -59.19660900 70.71067800 -38.67507500
vn -0.00000000 100.00000000 0.00000000
vn -68.54695000 70.71067800 -17.35844500
vn -70.46916500 70.71067800 5.83924200
vn -0.00000000 100.00000000 0.00000000
vn -0.00000000 100.00000000 0.00000000
vn -64.75495300 70.71067800 28.40415600
vn -0.00000000 100.00000000 0.00000000
vn -52.02353700 70.71067800 47.89103900
vn -0.00000000 100.00000000 0.00000000
vn -33.65456300 70.71067800 62.18818500
vn -11.63859500 70.71067800 69.74627700
vn -0.00000000 100.00000000 0.00000000
vn 11.63859500 70.71067800 69.74627700
vn -0.00000000 100.00000000 0.00000000
vn -0.00000000 100.00000000 0.00000000
vn 33.65456300 70.71067800 62.18818500
vn -0.00000000 100.00000000 0.00000000
vn 52.02353700 70.71067800 47.89103900
vn 64.75495300 70.71067800 28.40415600
vn -0.00000000 100.00000000 0.00000000
vn -0.00000000 100.00000000 0.00000000
vn 70.46916500 70.71067800 5.83924200
vn -0.00000000 100.00000000 0.00000000
vn 68.54695000 70.71067800 -17.35844500
vn -0.00000000 100.00000000 0.00000000
vn 59.19660900 70.71067800 -38.67507500
vn -0.00000000 100.00000000 0.00000000
vn 43.43139700 70.71067800 -55.80066100
vn -0.00000000 100.00000000 0.00000000
vn 22.95972000 70.71067800 -66.87937900
vn 0.00000000 0.00000000 -100.00000000
vn 0.00000000 0.00000000 -100.00000000
vn 0.00000000 70.71067800 -70.71067800
vn 0.00000000 70.71067800 -70.71067800
vn 27.05980500 70.71067800 -65.32814800
vn 38.26834300 0.00000000 -92.38795300
vn 50.00000000 70.71067800 -50.00000000
vn 70.71067800 0.00000000 -70.71067800
vn 92.38795300 0.00000000 -38.26834300
vn 65.32814800 70.71067800 -27.05980500
vn 100.00000000 0.00000000 0.00000000
vn 70.71067800 70.71067800 0.00000000
vn 65.32814800 70.71067800 27.05980500
vn 92.38795300 -0.00000000 38.26834300
vn 50.00000000 70.71067800 50.00000000
vn 70.71067800 -0.00000000 70.71067800
vn 38.26834300 -0.00000000 92.38795300
vn 27.05980500 70.71067800 65.32814800
vn 0.00000000 70.71067800 70.71067800
vn 0.00000000 -0.00000000 100.00000000
vn -38.26834300 -0.00000000 92.38795300
vn -27.05980500 70.71067800 65.32814800
vn -70.71067800 -0.00000000 70.71067800
vn -50.00000000 70.71067800 50.00000000
vn -92.38795300 -0.00000000 38.26834300
vn -65.32814800 70.71067800 27.05980500
vn -100.00000000 -0.00000000 0.00000000
vn -70.71067800 70.71067800 0.00000000
vn -92.38795300 0.00000000 -38.26834300
vn -65.32814800 70.71067800 -27.05980500
vn -70.71067800 0.00000000 -70.71067800
vn -50.00000000 70.71067800 -50.00000000
vn -38.26834300 0.00000000 -92.38795300
vn -27.05980500 70.71067800 -65.32814800
vn -69.35199200 70.71067800 13.79496900
vn -0.00000000 100.00000000 0.00000000
vn -65.32814800 70.71067800 27.05980500
vn -0.00000000 100.00000000 0.00000000
vn -58.79378000 70.71067800 39.28474800
vn -0.00000000 100.00000000 0.00000000
vn -50.00000000 70.71067800 50.00000000
vn -0.00000000 100.00000000 0.00000000
vn -39.28474800 70.71067800 58.79378000
vn -0.00000000 100.00000000 0.00000000
vn -27.05980500 70.71067800 65.32814800
vn -0.00000000 100.00000000 0.00000000
vn -0.00000000 100.00000000 0.00000000
vn -13.79496900 70.71067800 69.35199200
vn -0.00000000 100.00000000 0.00000000
vn -0.00000000 70.71067800 70.71067800
vn 13.79496900 70.71067800 69.35199200
vn -0.00000000 100.00000000 0.00000000
vn 27.05980500 70.71067800 65.32814800
vn -0.00000000 100.00000000 0.00000000
vn 39.28474700 70.71067800 58.79378000
vn -0.00000000 100.00000000 0.00000000
vn 50.00000000 70.71067800 50.00000000
vn -0.00000000 100.00000000 0.00000000
vn -0.00000000 100.00000000 0.00000000
vn 58.79378000 70.71067800 39.28474800
vn -0.00000000 100.00000000 0.00000000
vn 65.32814800 70.71067800 27.05980600
vn -0.00000000 100.00000000 0.00000000
vn 69.35199200 70.71067800 13.79497000
vn -0.00000000 100.00000000 0.00000000
vn -42.26182600 0.00000000 -90.63077900
vn -42.26182600 0.00000000 -90.63077900
vn -0.00000000 100.00000000 0.00000000
vn -28.68032300 0.00000000 -95.79895100
vn -0.00000000 100.00000000 0.00000000
vn -14.49318600 0.00000000 -98.94416400
vn 0.00000000 0.00000000 -100.00000000
vn -0.00000000 100.00000000 0.00000000
vn 14.49318600 0.00000000 -98.94416400
vn -0.00000000 100.00000000 0.00000000
vn -0.00000000 100.00000000 0.00000000
vn 28.68032300 0.00000000 -95.79895100
vn 42.26182600 0.00000000 -90.63077900
vn -0.00000000 100.00000000 0.00000000
vn 42.26182600 0.00000000 -90.63077900
vn 0.00000000 0.00000000 -100.00000000
vn 0.00000000 0.00000000 -100.00000000
vn 0.00000000 -100.00000000 -0.00000000
vn 38.26834300 0.00000000 -92.38795300
vn 0.00000000 -100.00000000 -0.00000000
vn 70.71067800 0.00000000 -70.71067800
vn 0.00000000 -100.00000000 -0.00000000
vn 92.38795300 0.00000000 -38.26834300
vn 0.00000000 -100.00000000 -0.00000000
vn 0.00000000 -100.00000000 -0.00000000
vn 100.00000000 0.00000000 0.00000000
vn 92.38795300 -0.00000000 38.26834300
vn 0.00000000 -100.00000000 -0.00000000
vn 70.71067800 -0.00000000 70.71067800
vn 0.00000000 -100.00000000 -0.00000000
vn 38.26834300 -0.00000000 92.38795300
vn 0.00000000 -100.00000000 -0.00000000
vn 0.00000000 -100.00000000 -0.00000000
vn 0.00000000 -0.00000000 100.00000000
vn 0.00000000 -100.00000000 -0.00000000
vn -38.26834300 -0.00000000 92.38795300
vn 0.00000000 -100.00000000 -0.00000000
vn -70.71067800 -0.00000000 70.71067800
vn 0.00000000 -100.00000000 -0.00000000
vn -92.38795300 -0.00000000 38.26834300
vn 0.00000000 -100.00000000 -0.00000000
vn -100.00000000 -0.00000000 0.00000000
vn -92.38795300 0.00000000 -38.26834300
vn 0.00000000 -100.00000000 -0.00000000
vn 0.00000000 -100.00000000 -0.00000000
vn -70.71067800 0.00000000 -70.71067800
vn -38.26834300 0.00000000 -92.38795300
vn 0.00000000 -100.00000000 -0.00000000
vn 0.00000000 -100.00000000 -0.00000000
vn -69.50669400 70.71067800 12.99305300
vn -65.93574400 70.71067800 25.54364300
vn 0.00000000 -100.00000000 -0.00000000
vn 0.00000000 -100.00000000 -0.00000000
vn -60.11943000 70.71067800 37.22437500
vn 0.00000000 -100.00000000 -0.00000000
vn -52.25582200 70.71067800 47.63747600
vn 0.00000000 -100.00000000 -0.00000000
vn -42.61270400 70.71067800 56.42833900
vn -31.51846100 70.71067800 63.29760300
vn 0.00000000 -100.00000000 -0.00000000
vn 0.00000000 -100.00000000 -0.00000000
vn -19.35089600 70.71067800 68.01134300
vn 0.00000000 -100.00000000 -0.00000000
vn -6.52435800 70.71067800 70.40903900
vn 0.00000000 -100.00000000 -0.00000000
vn 6.52435800 70.71067800 70.40903900
vn 0.00000000 -100.00000000 -0.00000000
vn 19.35089600 70.71067800 68.01134300
vn 31.51846100 70.71067800 63.29760300
vn 0.00000000 -100.00000000 -0.00000000
vn 42.61270400 70.71067800 56.42833900
vn 0.00000000 -100.00000000 -0.00000000
vn 52.25582200 70.71067800 47.63747600
vn 0.00000000 -100.00000000 -0.00000000
vn 0.00000000 -100.00000000 -0.00000000
vn 60.11943000 70.71067800 37.22437500
vn 0.00000000 -100.00000000 -0.00000000
vn 65.93574400 70.71067800 25.54364300
vn 69.50669400 70.71067800 12.99305300
vn 0.00000000 -100.00000000 -0.00000000
vn 0.00000000 -100.00000000 -0.00000000
vn 42.26182600 0.00000000 -90.63077900
vn 42.26182600 0.00000000 -90.63077900
vn 0.00000000 -100.00000000 -0.00000000
vn -42.26182600 0.00000000 -90.63077900
vn -42.26182600 0.00000000 -90.63077900
vn 0.00000000 -100.00000000 -0.00000000
vn -28.68032300 0.00000000 -95.79895100
vn -14.49318600 0.00000000 -98.94416400
vn 0.00000000 -100.00000000 -0.00000000
vn 0.00000000 -100.00000000 -0.00000000
vn -0.00000000 0.00000000 -100.00000000
vn 0.00000000 -100.00000000 -0.00000000
vn 14.49318600 0.00000000 -98.94416400
vn 0.00000000 -100.00000000 -0.00000000
vn 28.68032300 0.00000000 -95.79895100
vt -0.00000000 0.00000000
vt 0.31819800 7.93252100
vt 8.46871700 -2.29995200
vt -0.00000000 1.16083300
vt 8.13130300 -2.27954800
vt -0.00000000 1.74124900
vt 7.94018500 -2.25531000
vt 7.72591000 -2.22297600
vt -0.00000000 2.32166600
vt -0.00000000 2.90208200
vt 7.48420700 -2.18403600
vt -0.00000000 3.48249800
vt 7.21175500 -2.14016600
vt 6.90610800 -2.09295100
vt -0.00000000 4.06291500
vt 6.56493700 -2.04396300
vt -0.00000000 4.64333100
vt 6.29266900 -2.00798200
vt -0.00000000 5.06657400
vt 5.82171800 -1.95232300
vt -0.00000000 5.73568200
vt 5.30443700 -1.89982100
vt -0.00000000 6.40478900
vt -0.00000000 7.07389700
vt 4.74496100 -1.85211200
vt -0.00000000 7.74300400
vt 4.14742400 -1.81083200
vt 3.37419900 -1.77107100
vt -0.00000000 8.56090700
vt 2.56869200 -1.74392200
vt -0.00000000 9.37880900
vt -0.00000000 11.01461300
vt 0.91307700 -1.72838900
vt -0.56329600 -1.75646500
vt -0.00000000 12.47595900
vt -2.01845700 -1.81950100
vt -0.00000000 13.93730500
vt -0.00000000 15.54133300
vt -3.61580100 -1.92827900
vt -4.73077500 -2.02982900
vt -0.00000000 16.67205300
vt -5.82161600 -2.14997200
vt -0.00000000 17.80277300
vt -0.00000000 18.93349200
vt -6.87715400 -2.28647300
vt -7.88621800 -2.43709600
vt -0.00000000 20.06421200
vt -0.00000000 20.96274100
vt -8.64724300 -2.56498300
vt -0.00000000 21.86127100
vt -9.36803600 -2.69760700
vt -0.00000000 22.75980000
vt -10.04646300 -2.83254800
vt -0.00000000 23.65832900
vt -10.68039100 -2.96738500
vt -0.56961500 0.45000000
vt -0.00000000 24.10350300
vt -10.97708000 -3.03330800
vt -0.63639600 24.63921300
vt -0.00000000 0.00000000
vt 11.21780900 -3.54955400
vt 10.58398800 -3.40693800
vt -0.63639600 23.65832900
vt -0.63639600 22.75980000
vt 9.95562900 -3.27328500
vt -0.63639600 21.86127100
vt 9.28330700 -3.13955900
vt -0.63639600 20.96274100
vt 8.56914200 -3.00815400
vt 7.81525300 -2.88146600
vt -0.63639600 20.06421200
vt 6.81516700 -2.73219300
vt -0.63639600 18.93349200
vt 5.76816100 -2.59680200
vt -0.63639600 17.80277300
vt 4.68569900 -2.47757400
vt -0.63639600 16.67205300
vt -0.63639600 15.54133300
vt 3.57924000 -2.37679100
vt 1.99372900 -2.26882200
vt -0.63639600 13.93730500
vt -0.63639600 12.47595900
vt 0.54911900 -2.20624200
vt -0.63639600 11.01461300
vt -0.91582100 -2.17838000
vt -0.63639600 9.37880900
vt -2.55730100 -2.19377800
vt -0.63639600 8.56090700
vt -3.35515600 -2.22066800
vt -4.12004400 -2.25999800
vt -0.63639600 7.74300400
vt -0.63639600 7.07389700
vt -4.71037300 -2.30078200
vt -5.26257500 -2.34787100
vt -0.63639600 6.40478900
vt -5.77249600 -2.39962400
vt -0.63639600 5.73568200
vt -6.23598300 -2.45439800
vt -0.63639600 5.06657400
vt -6.50374200 -2.48978300
vt -0.63639600 4.64333100
vt -6.83948900 -2.53799000
vt -0.63639600 4.06291500
vt -7.14110900 -2.58458300
vt -0.63639600 3.48249800
vt -7.41199700 -2.62820000
vt -0.63639600 2.90208200
vt -7.65573000 -2.66746300
vt -0.63639600 2.32166500
vt -8.08234000 -2.72687500
vt -0.63639600 1.16083300
vt -0.63639600 0.00000000
vt -0.31819800 7.93252100
vt -8.46871700 -2.74995200
vt -0.60469600 2.47644300
vt -0.60469600 1.85733200
vt -0.60469600 3.09555400
vt -0.60469600 4.64333100
vt -0.60469600 5.06657400
vt -0.60469600 7.74300400
vt -0.60469600 8.52195900
vt -0.60469600 9.30091300
vt -0.60469600 10.15776300
vt -0.60469600 11.01461300
vt -0.60469600 11.74528600
vt -0.60469600 12.47595900
vt -0.60469600 13.20663200
vt -0.60469600 13.93730500
vt -0.60469600 14.73931900
vt -0.60469600 15.54133300
vt -0.60469600 16.29514600
vt -0.60469600 17.80277300
vt -0.60469600 18.55658600
vt -0.60469600 20.96274100
vt -0.60469600 20.06421200
vt -0.60469600 21.86127100
vt -0.60469600 22.75980000
vt -0.60469600 23.65832900
vt -0.60469600 19.31039900
vt -0.60469600 17.04895900
vt -0.60469600 0.92866600
vt -0.60469600 3.86944200
vt -0.60469600 5.95871700
vt -0.60469600 6.85086100
vt -1.45839200 0.45000000
vt -10.97708000 3.03340500
vt -0.00000000 -24.13504200
vt -10.68039100 2.96748200
vt 0.00000000 -23.68945300
vt -10.04646300 2.83264400
vt 0.00000000 -22.79008500
vt -9.36803600 2.69770400
vt 0.00000000 -21.89071600
vt 0.00000000 -20.99134800
vt -8.64724300 2.56508000
vt -7.88621800 2.43719300
vt 0.00000000 -20.09197900
vt 0.00000000 -18.96020400
vt -6.87715400 2.28657000
vt -5.82161600 2.15006900
vt 0.00000000 -17.82842900
vt 0.00000000 -16.69665300
vt -4.73077500 2.02992500
vt 0.00000000 -15.56487800
vt -3.61580200 1.92837500
vt -2.01845700 1.81959800
vt 0.00000000 -13.95935200
vt 0.00000000 -12.49664100
vt -0.56330100 1.75656400
vt 0.91307900 1.72848500
vt 0.00000000 -11.03393100
vt 2.56869100 1.74401900
vt 0.00000000 -9.39659600
vt 3.37419800 1.77116700
vt 0.00000000 -8.57792900
vt 4.14742400 1.81092800
vt 0.00000000 -7.75926100
vt 4.74496100 1.85220900
vt 0.00000000 -7.08952700
vt 0.00000000 -6.41979300
vt 5.30443700 1.89991800
vt 5.82172000 1.95242000
vt 0.00000000 -5.75005900
vt 0.00000000 -5.08032500
vt 6.29267200 2.00807900
vt 6.56493600 2.04405900
vt 0.00000000 -4.65670300
vt 0.00000000 -4.07576600
vt 6.90610400 2.09304800
vt 7.21173600 2.14027100
vt 0.00000000 -3.49482900
vt 7.48415200 2.18414300
vt 0.00000000 -2.91389200
vt 0.00000000 -2.33295500
vt 7.72580400 2.22307500
vt 7.94010700 2.25540600
vt 0.00000000 -1.75201800
vt 8.13126200 2.27965200
vt 0.00000000 -1.17108200
vt 8.46871700 2.30004800
vt 0.31819800 -0.00000000
vt 0.00000000 -0.00920800
vt -0.63639600 -0.00920800
vt -8.46871700 2.75004800
vt -0.31819800 -0.00000000
vt -8.08234300 2.72698400
vt -0.63639600 -1.17108200
vt -0.63639600 -2.33295500
vt -7.65567800 2.66757400
vt -0.63639600 -2.91389200
vt -7.41195500 2.62830500
vt -0.63639600 -3.49482900
vt -7.14109900 2.58468400
vt -6.83950400 2.53808900
vt -0.63639600 -4.07576600
vt -6.50374800 2.48988000
vt -0.63639600 -4.65670300
vt -6.23598600 2.45449500
vt -0.63639600 -5.08032500
vt -5.77249700 2.39972100
vt -0.63639600 -5.75005900
vt -5.26257500 2.34796800
vt -0.63639600 -6.41979300
vt -4.71037300 2.30087800
vt -0.63639600 -7.08952700
vt -4.12004400 2.26009500
vt -0.63639600 -7.75926100
vt -0.63639600 -8.57792900
vt -3.35515500 2.22076500
vt -0.63639600 -9.39659600
vt -2.55729900 2.19387500
vt -0.91582800 2.17847700
vt -0.63639600 -11.03393100
vt -0.63639600 -12.49664100
vt 0.54912300 2.20634100
vt 1.99372900 2.26891800
vt -0.63639600 -13.95935200
vt 3.57924000 2.37688800
vt -0.63639600 -15.56487800
vt 4.68569900 2.47767100
vt -0.63639600 -16.69665300
vt -0.63639600 -17.82842900
vt 5.76816100 2.59689900
vt -0.63639600 -18.96020400
vt 6.81516700 2.73229000
vt -0.63639600 -20.09197900
vt 7.81525300 2.88156200
vt 8.56914200 3.00825100
vt -0.63639600 -20.99134800
vt -0.63639600 -21.89071600
vt 9.28330700 3.13965500
vt 9.95562900 3.27338200
vt -0.63639600 -22.79008500
vt -0.63639600 -23.68945300
vt 10.58398800 3.40703400
vt -2.02800700 -0.00000000
vt -0.63639600 -24.67125300
vt 11.21780900 3.54965100
vt -0.31819800 -23.68945300
vt -0.31819800 -22.79008500
vt -0.31819800 -21.89071600
vt -0.31819800 -20.99134800
vt -0.31819800 -20.09197900
vt -0.31819800 -18.58294500
vt -0.31819800 -17.07391200
vt -0.31819800 -15.56487800
vt -0.31819800 -13.95935200
vt -0.31819800 -12.49664100
vt -0.31819800 -11.03393100
vt -0.31819800 -9.39659600
vt -0.31819800 -8.57792900
vt -0.31819800 -7.75926100
vt -0.31819800 -7.08952700
vt -0.31819800 -6.41979300
vt -0.31819800 -5.75005900
vt -0.31819800 -5.08032500
vt -0.31819800 -4.65670300
vt -0.31819800 -3.74656800
vt -0.31819800 -2.83643400
vt -0.31819800 -1.92630000
vt -0.31819800 -1.01616500
vt 0.21213200 2.27765500
vt 0.21213200 -2.27765500
vt 9.34371700 0.00004800
vt 0.21213200 -2.03790200
vt 9.29630700 0.28416000
vt 0.21213200 -1.79814800
vt 9.15921500 0.53748400
vt 8.94729600 0.73256900
vt 0.21213200 -1.55839500
vt 8.68351700 0.84827400
vt 0.21213200 -1.31864200
vt 0.21213200 -1.07888900
vt 8.39646000 0.87206000
vt 8.11723300 0.80135000
vt 0.21213200 -0.83913600
vt 7.87609500 0.64380700
vt 0.21213200 -0.59938300
vt 7.69917700 0.41650200
vt 0.21213200 -0.35963000
vt 0.21213200 -0.11987700
vt 7.60565100 0.14406900
vt 0.21213200 0.11987700
vt 7.60565100 -0.14397200
vt 7.69917700 -0.41640600
vt 0.21213200 0.35963000
vt 7.87609500 -0.64371000
vt 0.21213200 0.59938300
vt 0.21213200 0.83913600
vt 8.11723300 -0.80125300
vt 8.39646000 -0.87196300
vt 0.21213200 1.07888900
vt 8.68351700 -0.84817700
vt 0.21213200 1.31864200
vt 8.94729600 -0.73247200
vt 0.21213200 1.55839500
vt 9.15921500 -0.53738800
vt 0.21213200 1.79814800
vt 9.29630700 -0.28406400
vt 0.21213200 2.03790200
vt -0.15000000 1.80641600
vt -0.15000000 -1.80641600
vt -0.21213200 -2.27765500
vt -0.21213200 2.27765500
vt -0.21213200 1.99294800
vt -0.15000000 -1.58061400
vt -0.21213200 1.70824100
vt -0.15000000 -1.35481200
vt -0.15000000 -1.12901000
vt -0.21213200 1.42353400
vt -0.15000000 -0.90320800
vt -0.21213200 1.13882700
vt -0.21213200 0.85412100
vt -0.15000000 -0.67740600
vt -0.21213200 0.56941400
vt -0.15000000 -0.45160400
vt -0.15000000 -0.22580200
vt -0.21213200 0.28470700
vt -0.21213200 0.00000000
vt -0.15000000 0.00000000
vt -0.15000000 0.22580200
vt -0.21213200 -0.28470700
vt -0.15000000 0.45160400
vt -0.21213200 -0.56941400
vt -0.15000000 0.67740600
vt -0.21213200 -0.85412100
vt -0.15000000 0.90320800
vt -0.21213200 -1.13882700
vt -0.15000000 1.12901000
vt -0.21213200 -1.42353400
vt -0.15000000 1.35481200
vt -0.21213200 -1.70824100
vt -0.15000000 1.58061400
vt -0.21213200 -1.99294800
vt 0.31819800 7.43673900
vt 8.91742400 -2.25575800
vt 0.31819800 6.94095600
vt 9.34888900 -2.12487500
vt 0.31819800 6.44517400
vt 9.74652800 -1.91233200
vt 0.31819800 5.94939100
vt 10.09506200 -1.62629700
vt 0.31819800 5.45360800
vt 10.38109700 -1.27776300
vt 0.31819800 4.95782600
vt 10.59364000 -0.88012400
vt 10.72452300 -0.44865900
vt 0.31819800 4.46204300
vt 10.76871700 0.00004800
vt 0.31819800 3.96626100
vt 0.31819800 3.47047800
vt 10.72452300 0.44875600
vt 0.31819800 2.97469500
vt 10.59364000 0.88022000
vt 0.31819800 2.47891300
vt 10.38109700 1.27786000
vt 0.31819800 1.98313000
vt 10.09506200 1.62639400
vt 9.74652800 1.91242800
vt 0.31819800 1.48734800
vt 9.34888900 2.12497100
vt 0.31819800 0.99156500
vt 8.91742400 2.25585500
vt 0.31819800 0.49578300
vt -10.36073600 1.71165200
vt -0.45000000 -1.76714600
vt -0.00000000 0.45000000
vt -10.15142500 1.16160100
vt -0.45000000 -1.17809700
vt -10.02404400 0.58702200
vt -0.45000000 -0.58904900
vt -0.45000000 0.00000000
vt -9.98128300 0.00004800
vt -0.45000000 0.58904900
vt -10.02404400 -0.58692600
vt -10.15142500 -1.16150500
vt -0.45000000 1.17809700
vt -2.02800700 0.45000000
vt -10.36073600 -1.71155600
vt -0.45000000 1.76714600
vt 0.00000000 -1.80641600
vt 0.00000000 1.80641600
vt -9.04371700 0.00004800
vt -0.00000000 -1.58061400
vt -8.99994700 -0.21999500
vt -0.00000000 -1.35481200
vt -8.87530300 -0.40653800
vt -0.00000000 -1.12901000
vt -8.68876000 -0.53118200
vt -8.46871700 -0.57495200
vt -0.00000000 -0.90320800
vt 0.00000000 -0.67740600
vt -8.24867400 -0.53118200
vt 0.00000000 -0.45160400
vt -8.06213000 -0.40653800
vt 0.00000000 -0.22580200
vt -7.93748600 -0.21999500
vt -7.89371700 0.00004800
vt 0.00000000 0.00000000
vt -7.93748600 0.22009100
vt 0.00000000 0.22580200
vt -8.06213000 0.40663500
vt 0.00000000 0.45160400
vt -8.24867400 0.53127900
vt 0.00000000 0.67740600
vt -8.46871700 0.57504800
vt 0.00000000 0.90320800
vt -0.00000000 1.12901000
vt -8.68876000 0.53127900
vt -8.87530300 0.40663500
vt -0.00000000 1.35481200
vt -0.00000000 1.58061400
vt -8.99994700 0.22009100
vt -8.97402800 -2.70312800
vt -0.31819800 7.46590200
vt -0.31819800 6.99928400
vt -9.46213100 -2.56425000
vt -9.91640500 -2.33804900
vt -0.31819800 6.53266500
vt -10.32138000 -2.03222600
vt -0.31819800 6.06604600
vt -10.66326400 -1.65719700
vt -0.31819800 5.59942700
vt -0.31819800 5.13280800
vt -10.93041600 -1.22573200
vt -11.11373700 -0.75252500
vt -0.31819800 4.66618900
vt -11.20698600 -0.25369000
vt -0.31819800 4.19957000
vt -11.20698600 0.25378600
vt -0.31819800 3.73295100
vt -11.11373700 0.75262200
vt -0.31819800 3.26633200
vt -0.31819800 2.79971300
vt -10.93041600 1.22582900
vt -0.31819800 2.33309400
vt -10.66326400 1.65729400
vt -0.31819800 1.86647600
vt -10.32138000 2.03232300
vt -9.91640500 2.33814500
vt -0.31819800 1.39985700
vt -9.46213100 2.56434700
vt -0.31819800 0.93323800
vt -0.31819800 0.46661900
vt -8.97402800 2.70322400
vt 10.36073600 -1.71155600
vt -0.00000000 1.76714600
vt -2.02800700 0.00000000
vt 10.36073600 1.71165200
vt -0.00000000 -1.76714600
vt -0.00000000 0.00000000
vt 10.15142500 1.16160100
vt 0.00000000 -1.17809700
vt -0.00000000 -0.58904900
vt 10.02404400 0.58702200
vt 9.98128300 0.00004800
vt -0.00000000 0.00000000
vt 10.02404400 -0.58692600
vt -0.00000000 0.58904900
vt 10.15142500 -1.16150500
vt 0.00000000 1.17809700
f 112/112/112 1/1/1 141/141/141
f 141/141/141 1/1/1 4/4/4
f 141/141/141 4/4/4 111/111/111
f 111/111/111 4/4/4 116/116/116
f 111/111/111 116/116/116 109/109/109
f 109/109/109 116/116/116 115/115/115
f 109/109/109 115/115/115 107/107/107
f 107/107/107 115/115/115 117/117/117
f 107/107/107 117/117/117 105/105/105
f 105/105/105 117/117/117 12/12/12
f 105/105/105 12/12/12 142/142/142
f 142/142/142 12/12/12 15/15/15
f 142/142/142 15/15/15 103/103/103
f 103/103/103 15/15/15 118/118/118
f 103/103/103 118/118/118 101/101/101
f 101/101/101 118/118/118 99/99/99
f 99/99/99 118/118/118 119/119/119
f 99/99/99 119/119/119 97/97/97
f 97/97/97 119/119/119 21/21/21
f 97/97/97 21/21/21 143/143/143
f 143/143/143 21/21/21 23/23/23
f 143/143/143 23/23/23 95/95/95
f 95/95/95 23/23/23 144/144/144
f 95/95/95 144/144/144 92/92/92
f 92/92/92 144/144/144 24/24/24
f 92/92/92 24/24/24 120/120/120
f 120/120/120 24/24/24 26/26/26
f 120/120/120 26/26/26 121/121/121
f 121/121/121 26/26/26 29/29/29
f 121/121/121 29/29/29 122/122/122
f 122/122/122 29/29/29 31/31/31
f 122/122/122 31/31/31 123/123/123
f 123/123/123 31/31/31 32/32/32
f 123/123/123 32/32/32 124/124/124
f 124/124/124 32/32/32 125/125/125
f 124/124/124 125/125/125 84/84/84
f 84/84/84 125/125/125 82/82/82
f 82/82/82 125/125/125 126/126/126
f 82/82/82 126/126/126 127/127/127
f 127/127/127 126/126/126 35/35/35
f 127/127/127 35/35/35 37/37/37
f 4/4/4 6/6/6 116/116/116
f 116/116/116 6/6/6 9/9/9
f 116/116/116 9/9/9 115/115/115
f 115/115/115 9/9/9 10/10/10
f 115/115/115 10/10/10 117/117/117
f 117/117/117 10/10/10 12/12/12
f 15/15/15 17/17/17 118/118/118
f 118/118/118 17/17/17 119/119/119
f 17/17/17 19/19/19 119/119/119
f 119/119/119 19/19/19 21/21/21
f 23/23/23 24/24/24 144/144/144
f 32/32/32 35/35/35 125/125/125
f 125/125/125 35/35/35 126/126/126
f 38/38/38 129/129/129 37/37/37
f 37/37/37 129/129/129 128/128/128
f 37/37/37 128/128/128 127/127/127
f 127/127/127 128/128/128 81/81/81
f 127/127/127 81/81/81 82/82/82
f 41/41/41 131/131/131 38/38/38
f 38/38/38 131/131/131 130/130/130
f 38/38/38 130/130/130 129/129/129
f 129/129/129 130/130/130 78/78/78
f 129/129/129 78/78/78 81/81/81
f 43/43/43 140/140/140 41/41/41
f 41/41/41 140/140/140 77/77/77
f 41/41/41 77/77/77 131/131/131
f 131/131/131 77/77/77 78/78/78
f 131/131/131 78/78/78 130/130/130
f 44/44/44 133/133/133 43/43/43
f 43/43/43 133/133/133 132/132/132
f 43/43/43 132/132/132 140/140/140
f 140/140/140 132/132/132 75/75/75
f 140/140/140 75/75/75 77/77/77
f 47/47/47 139/139/139 44/44/44
f 44/44/44 139/139/139 73/73/73
f 44/44/44 73/73/73 133/133/133
f 133/133/133 73/73/73 75/75/75
f 133/133/133 75/75/75 132/132/132
f 48/48/48 134/134/134 47/47/47
f 47/47/47 134/134/134 135/135/135
f 47/47/47 135/135/135 139/139/139
f 139/139/139 135/135/135 71/71/71
f 139/139/139 71/71/71 73/73/73
f 134/134/134 48/48/48 136/136/136
f 136/136/136 48/48/48 50/50/50
f 136/136/136 50/50/50 137/137/137
f 137/137/137 50/50/50 52/52/52
f 137/137/137 52/52/52 138/138/138
f 138/138/138 52/52/52 54/54/54
f 138/138/138 54/54/54 57/57/57
f 57/57/57 59/59/59 138/138/138
f 138/138/138 59/59/59 63/63/63
f 138/138/138 63/63/63 137/137/137
f 137/137/137 63/63/63 64/64/64
f 137/137/137 64/64/64 136/136/136
f 136/136/136 64/64/64 66/66/66
f 136/136/136 66/66/66 134/134/134
f 134/134/134 66/66/66 68/68/68
f 134/134/134 68/68/68 135/135/135
f 135/135/135 68/68/68 71/71/71
f 124/124/124 84/84/84 123/123/123
f 123/123/123 84/84/84 86/86/86
f 123/123/123 86/86/86 122/122/122
f 122/122/122 86/86/86 88/88/88
f 122/122/122 88/88/88 121/121/121
f 121/121/121 88/88/88 91/91/91
f 121/121/121 91/91/91 120/120/120
f 120/120/120 91/91/91 92/92/92
f 95/95/95 97/97/97 143/143/143
f 103/103/103 105/105/105 142/142/142
f 111/111/111 112/112/112 141/141/141
f 81/81/81 128/128/128 129/129/129
f 149/149/149 259/259/259 147/147/147
f 147/147/147 259/259/259 254/254/254
f 147/147/147 254/254/254 257/257/257
f 259/259/259 149/149/149 260/260/260
f 260/260/260 149/149/149 151/151/151
f 260/260/260 151/151/151 261/261/261
f 261/261/261 151/151/151 153/153/153
f 261/261/261 153/153/153 262/262/262
f 262/262/262 153/153/153 154/154/154
f 262/262/262 154/154/154 263/263/263
f 263/263/263 154/154/154 157/157/157
f 263/263/263 157/157/157 158/158/158
f 263/263/263 158/158/158 264/264/264
f 264/264/264 158/158/158 161/161/161
f 264/264/264 161/161/161 265/265/265
f 265/265/265 161/161/161 162/162/162
f 265/265/265 162/162/162 266/266/266
f 266/266/266 162/162/162 164/164/164
f 266/266/266 164/164/164 267/267/267
f 267/267/267 164/164/164 167/167/167
f 267/267/267 167/167/167 268/268/268
f 268/268/268 167/167/167 168/168/168
f 268/268/268 168/168/168 269/269/269
f 269/269/269 168/168/168 171/171/171
f 269/269/269 171/171/171 270/270/270
f 270/270/270 171/171/171 173/173/173
f 270/270/270 173/173/173 271/271/271
f 271/271/271 173/173/173 175/175/175
f 271/271/271 175/175/175 272/272/272
f 272/272/272 175/175/175 177/177/177
f 272/272/272 177/177/177 273/273/273
f 273/273/273 177/177/177 179/179/179
f 273/273/273 179/179/179 274/274/274
f 274/274/274 179/179/179 180/180/180
f 274/274/274 180/180/180 275/275/275
f 275/275/275 180/180/180 183/183/183
f 275/275/275 183/183/183 276/276/276
f 276/276/276 183/183/183 184/184/184
f 276/276/276 184/184/184 277/277/277
f 277/277/277 184/184/184 187/187/187
f 277/277/277 187/187/187 188/188/188
f 277/277/277 188/188/188 278/278/278
f 278/278/278 188/188/188 191/191/191
f 278/278/278 191/191/191 279/279/279
f 279/279/279 191/191/191 193/193/193
f 279/279/279 193/193/193 194/194/194
f 279/279/279 194/194/194 280/280/280
f 280/280/280 194/194/194 197/197/197
f 280/280/280 197/197/197 199/199/199
f 280/280/280 199/199/199 281/281/281
f 281/281/281 199/199/199 202/202/202
f 281/281/281 202/202/202 203/203/203
f 203/203/203 207/207/207 281/281/281
f 281/281/281 207/207/207 280/280/280
f 207/207/207 208/208/208 280/280/280
f 280/280/280 208/208/208 279/279/279
f 208/208/208 210/210/210 279/279/279
f 279/279/279 210/210/210 212/212/212
f 279/279/279 212/212/212 278/278/278
f 278/278/278 212/212/212 215/215/215
f 278/278/278 215/215/215 277/277/277
f 277/277/277 215/215/215 217/217/217
f 277/277/277 217/217/217 276/276/276
f 276/276/276 217/217/217 219/219/219
f 276/276/276 219/219/219 275/275/275
f 275/275/275 219/219/219 221/221/221
f 275/275/275 221/221/221 274/274/274
f 274/274/274 221/221/221 223/223/223
f 274/274/274 223/223/223 273/273/273
f 273/273/273 223/223/223 225/225/225
f 273/273/273 225/225/225 272/272/272
f 272/272/272 225/225/225 227/227/227
f 272/272/272 227/227/227 271/271/271
f 271/271/271 227/227/227 228/228/228
f 271/271/271 228/228/228 270/270/270
f 270/270/270 228/228/228 230/230/230
f 270/270/270 230/230/230 269/269/269
f 269/269/269 230/230/230 233/233/233
f 269/269/269 233/233/233 268/268/268
f 268/268/268 233/233/233 234/234/234
f 268/268/268 234/234/234 267/267/267
f 267/267/267 234/234/234 237/237/237
f 267/267/267 237/237/237 266/266/266
f 266/266/266 237/237/237 239/239/239
f 266/266/266 239/239/239 241/241/241
f 266/266/266 241/241/241 265/265/265
f 265/265/265 241/241/241 242/242/242
f 265/265/265 242/242/242 264/264/264
f 264/264/264 242/242/242 244/244/244
f 264/264/264 244/244/244 263/263/263
f 263/263/263 244/244/244 246/246/246
f 263/263/263 246/246/246 262/262/262
f 262/262/262 246/246/246 249/249/249
f 262/262/262 249/249/249 261/261/261
f 261/261/261 249/249/249 250/250/250
f 261/261/261 250/250/250 260/260/260
f 260/260/260 250/250/250 253/253/253
f 260/260/260 253/253/253 259/259/259
f 259/259/259 253/253/253 254/254/254
f 320/320/320 282/282/282 324/324/324
f 323/323/323 283/283/283 285/285/285
f 323/323/323 285/285/285 354/354/354
f 354/354/354 285/285/285 287/287/287
f 354/354/354 287/287/287 352/352/352
f 352/352/352 287/287/287 290/290/290
f 352/352/352 290/290/290 350/350/350
f 350/350/350 290/290/290 292/292/292
f 350/350/350 292/292/292 348/348/348
f 348/348/348 292/292/292 293/293/293
f 348/348/348 293/293/293 346/346/346
f 346/346/346 293/293/293 296/296/296
f 346/346/346 296/296/296 298/298/298
f 346/346/346 298/298/298 344/344/344
f 344/344/344 298/298/298 300/300/300
f 344/344/344 300/300/300 342/342/342
f 342/342/342 300/300/300 301/301/301
f 342/342/342 301/301/301 339/339/339
f 339/339/339 301/301/301 303/303/303
f 339/339/339 303/303/303 338/338/338
f 338/338/338 303/303/303 306/306/306
f 338/338/338 306/306/306 335/335/335
f 335/335/335 306/306/306 308/308/308
f 335/335/335 308/308/308 333/333/333
f 333/333/333 308/308/308 309/309/309
f 333/333/333 309/309/309 312/312/312
f 333/333/333 312/312/312 332/332/332
f 332/332/332 312/312/312 314/314/314
f 332/332/332 314/314/314 330/330/330
f 330/330/330 314/314/314 316/316/316
f 330/330/330 316/316/316 327/327/327
f 327/327/327 316/316/316 318/318/318
f 327/327/327 318/318/318 325/325/325
f 325/325/325 318/318/318 320/320/320
f 325/325/325 320/320/320 324/324/324
f 58/58/58 55/55/55 399/399/399
f 399/399/399 55/55/55 53/53/53
f 399/399/399 53/53/53 51/51/51
f 51/51/51 49/49/49 399/399/399
f 399/399/399 49/49/49 46/46/46
f 399/399/399 46/46/46 45/45/45
f 399/399/399 45/45/45 396/396/396
f 396/396/396 45/45/45 42/42/42
f 396/396/396 42/42/42 40/40/40
f 396/396/396 40/40/40 395/395/395
f 395/395/395 40/40/40 39/39/39
f 395/395/395 39/39/39 393/393/393
f 393/393/393 39/39/39 36/36/36
f 393/393/393 36/36/36 166/166/166
f 166/166/166 36/36/36 169/169/169
f 169/169/169 36/36/36 34/34/34
f 169/169/169 34/34/34 33/33/33
f 30/30/30 304/304/304 33/33/33
f 33/33/33 304/304/304 170/170/170
f 33/33/33 170/170/170 169/169/169
f 304/304/304 30/30/30 305/305/305
f 305/305/305 30/30/30 28/28/28
f 305/305/305 28/28/28 307/307/307
f 307/307/307 28/28/28 27/27/27
f 307/307/307 27/27/27 25/25/25
f 307/307/307 25/25/25 310/310/310
f 310/310/310 25/25/25 22/22/22
f 310/310/310 22/22/22 20/20/20
f 310/310/310 20/20/20 311/311/311
f 311/311/311 20/20/20 18/18/18
f 311/311/311 18/18/18 16/16/16
f 16/16/16 14/14/14 311/311/311
f 311/311/311 14/14/14 362/362/362
f 311/311/311 362/362/362 364/364/364
f 362/362/362 14/14/14 360/360/360
f 360/360/360 14/14/14 13/13/13
f 360/360/360 13/13/13 11/11/11
f 360/360/360 11/11/11 358/358/358
f 358/358/358 11/11/11 8/8/8
f 358/358/358 8/8/8 7/7/7
f 7/7/7 5/5/5 358/358/358
f 358/358/358 5/5/5 356/356/356
f 356/356/356 5/5/5 3/3/3
f 311/311/311 364/364/364 313/313/313
f 313/313/313 364/364/364 366/366/366
f 313/313/313 366/366/366 315/315/315
f 315/315/315 366/366/366 317/317/317
f 317/317/317 366/366/366 367/367/367
f 317/317/317 367/367/367 319/319/319
f 319/319/319 367/367/367 369/369/369
f 319/319/319 369/369/369 284/284/284
f 284/284/284 369/369/369 286/286/286
f 286/286/286 369/369/369 372/372/372
f 286/286/286 372/372/372 288/288/288
f 288/288/288 372/372/372 374/374/374
f 288/288/288 374/374/374 289/289/289
f 289/289/289 374/374/374 291/291/291
f 291/291/291 374/374/374 376/376/376
f 291/291/291 376/376/376 294/294/294
f 294/294/294 376/376/376 378/378/378
f 294/294/294 378/378/378 189/189/189
f 189/189/189 378/378/378 379/379/379
f 189/189/189 379/379/379 190/190/190
f 190/190/190 379/379/379 192/192/192
f 192/192/192 379/379/379 381/381/381
f 192/192/192 381/381/381 195/195/195
f 195/195/195 381/381/381 196/196/196
f 196/196/196 381/381/381 198/198/198
f 198/198/198 381/381/381 383/383/383
f 198/198/198 383/383/383 200/200/200
f 189/189/189 186/186/186 294/294/294
f 294/294/294 186/186/186 185/185/185
f 294/294/294 185/185/185 182/182/182
f 294/294/294 182/182/182 295/295/295
f 295/295/295 182/182/182 181/181/181
f 295/295/295 181/181/181 178/178/178
f 295/295/295 178/178/178 297/297/297
f 297/297/297 178/178/178 176/176/176
f 297/297/297 176/176/176 174/174/174
f 297/297/297 174/174/174 299/299/299
f 299/299/299 174/174/174 172/172/172
f 299/299/299 172/172/172 302/302/302
f 302/302/302 172/172/172 170/170/170
f 302/302/302 170/170/170 304/304/304
f 166/166/166 165/165/165 393/393/393
f 393/393/393 165/165/165 390/390/390
f 390/390/390 165/165/165 163/163/163
f 390/390/390 163/163/163 388/388/388
f 388/388/388 163/163/163 160/160/160
f 388/388/388 160/160/160 159/159/159
f 388/388/388 159/159/159 385/385/385
f 385/385/385 159/159/159 156/156/156
f 385/385/385 156/156/156 155/155/155
f 155/155/155 152/152/152 385/385/385
f 385/385/385 152/152/152 150/150/150
f 385/385/385 150/150/150 148/148/148
f 148/148/148 146/146/146 385/385/385
f 404/404/404 326/326/326 401/401/401
f 401/401/401 326/326/326 322/322/322
f 402/402/402 321/321/321 432/432/432
f 432/432/432 321/321/321 353/353/353
f 432/432/432 353/353/353 431/431/431
f 431/431/431 353/353/353 351/351/351
f 431/431/431 351/351/351 428/428/428
f 428/428/428 351/351/351 349/349/349
f 428/428/428 349/349/349 427/427/427
f 427/427/427 349/349/349 347/347/347
f 427/427/427 347/347/347 425/425/425
f 425/425/425 347/347/347 345/345/345
f 425/425/425 345/345/345 423/423/423
f 423/423/423 345/345/345 343/343/343
f 423/423/423 343/343/343 421/421/421
f 421/421/421 343/343/343 341/341/341
f 421/421/421 341/341/341 419/419/419
f 419/419/419 341/341/341 340/340/340
f 419/419/419 340/340/340 416/416/416
f 416/416/416 340/340/340 337/337/337
f 416/416/416 337/337/337 414/414/414
f 414/414/414 337/337/337 336/336/336
f 414/414/414 336/336/336 412/412/412
f 412/412/412 336/336/336 334/334/334
f 412/412/412 334/334/334 411/411/411
f 411/411/411 334/334/334 331/331/331
f 411/411/411 331/331/331 408/408/408
f 408/408/408 331/331/331 329/329/329
f 408/408/408 329/329/329 406/406/406
f 406/406/406 329/329/329 328/328/328
f 406/406/406 328/328/328 404/404/404
f 404/404/404 328/328/328 326/326/326
f 113/113/113 435/435/435 2/2/2
f 2/2/2 435/435/435 355/355/355
f 355/355/355 435/435/435 436/436/436
f 355/355/355 436/436/436 357/357/357
f 357/357/357 436/436/436 439/439/439
f 357/357/357 439/439/439 359/359/359
f 359/359/359 439/439/439 441/441/441
f 359/359/359 441/441/441 361/361/361
f 361/361/361 441/441/441 443/443/443
f 361/361/361 443/443/443 363/363/363
f 363/363/363 443/443/443 444/444/444
f 363/363/363 444/444/444 365/365/365
f 365/365/365 444/444/444 447/447/447
f 365/365/365 447/447/447 368/368/368
f 368/368/368 447/447/447 449/449/449
f 368/368/368 449/449/449 370/370/370
f 370/370/370 449/449/449 451/451/451
f 370/370/370 451/451/451 371/371/371
f 371/371/371 451/451/451 453/453/453
f 371/371/371 453/453/453 373/373/373
f 373/373/373 453/453/453 454/454/454
f 373/373/373 454/454/454 375/375/375
f 375/375/375 454/454/454 456/456/456
f 375/375/375 456/456/456 377/377/377
f 377/377/377 456/456/456 458/458/458
f 377/377/377 458/458/458 380/380/380
f 380/380/380 458/458/458 461/461/461
f 380/380/380 461/461/461 382/382/382
f 382/382/382 461/461/461 463/463/463
f 382/382/382 463/463/463 384/384/384
f 384/384/384 463/463/463 464/464/464
f 384/384/384 464/464/464 201/201/201
f 201/201/201 464/464/464 205/205/205
f 60/60/60 56/56/56 468/468/468
f 468/468/468 56/56/56 398/398/398
f 386/386/386 470/470/470 389/389/389
f 389/389/389 470/470/470 473/473/473
f 389/389/389 473/473/473 391/391/391
f 391/391/391 473/473/473 474/474/474
f 391/391/391 474/474/474 392/392/392
f 392/392/392 474/474/474 477/477/477
f 392/392/392 477/477/477 394/394/394
f 394/394/394 477/477/477 479/479/479
f 394/394/394 479/479/479 397/397/397
f 397/397/397 479/479/479 481/481/481
f 397/397/397 481/481/481 400/400/400
f 400/400/400 481/481/481 467/467/467
f 256/256/256 471/471/471 145/145/145
f 145/145/145 471/471/471 387/387/387
f 258/258/258 255/255/255 469/469/469
f 469/469/469 255/255/255 252/252/252
f 469/469/469 252/252/252 251/251/251
f 251/251/251 248/248/248 469/469/469
f 469/469/469 248/248/248 247/247/247
f 469/469/469 247/247/247 245/245/245
f 245/245/245 243/243/243 469/469/469
f 469/469/469 243/243/243 472/472/472
f 472/472/472 243/243/243 240/240/240
f 472/472/472 240/240/240 475/475/475
f 475/475/475 240/240/240 238/238/238
f 475/475/475 238/238/238 236/236/236
f 235/235/235 80/80/80 236/236/236
f 236/236/236 80/80/80 476/476/476
f 236/236/236 476/476/476 475/475/475
f 232/232/232 85/85/85 235/235/235
f 235/235/235 85/85/85 83/83/83
f 235/235/235 83/83/83 80/80/80
f 231/231/231 420/420/420 232/232/232
f 232/232/232 420/420/420 418/418/418
f 232/232/232 418/418/418 85/85/85
f 85/85/85 418/418/418 417/417/417
f 85/85/85 417/417/417 87/87/87
f 87/87/87 417/417/417 415/415/415
f 87/87/87 415/415/415 89/89/89
f 89/89/89 415/415/415 90/90/90
f 90/90/90 415/415/415 413/413/413
f 90/90/90 413/413/413 93/93/93
f 93/93/93 413/413/413 94/94/94
f 94/94/94 413/413/413 96/96/96
f 96/96/96 413/413/413 410/410/410
f 96/96/96 410/410/410 98/98/98
f 98/98/98 410/410/410 442/442/442
f 98/98/98 442/442/442 100/100/100
f 100/100/100 442/442/442 440/440/440
f 100/100/100 440/440/440 102/102/102
f 102/102/102 440/440/440 104/104/104
f 104/104/104 440/440/440 438/438/438
f 104/104/104 438/438/438 106/106/106
f 106/106/106 438/438/438 108/108/108
f 108/108/108 438/438/438 437/437/437
f 108/108/108 437/437/437 110/110/110
f 110/110/110 437/437/437 434/434/434
f 110/110/110 434/434/434 114/114/114
f 420/420/420 231/231/231 422/422/422
f 422/422/422 231/231/231 229/229/229
f 422/422/422 229/229/229 226/226/226
f 422/422/422 226/226/226 424/424/424
f 424/424/424 226/226/226 224/224/224
f 424/424/424 224/224/224 222/222/222
f 222/222/222 220/220/220 424/424/424
f 424/424/424 220/220/220 426/426/426
f 426/426/426 220/220/220 218/218/218
f 426/426/426 218/218/218 457/457/457
f 457/457/457 218/218/218 216/216/216
f 457/457/457 216/216/216 459/459/459
f 459/459/459 216/216/216 214/214/214
f 459/459/459 214/214/214 213/213/213
f 459/459/459 213/213/213 460/460/460
f 460/460/460 213/213/213 211/211/211
f 460/460/460 211/211/211 209/209/209
f 460/460/460 209/209/209 462/462/462
f 462/462/462 209/209/209 206/206/206
f 462/462/462 206/206/206 465/465/465
f 465/465/465 206/206/206 204/204/204
f 457/457/457 455/455/455 426/426/426
f 426/426/426 455/455/455 429/429/429
f 429/429/429 455/455/455 452/452/452
f 429/429/429 452/452/452 430/430/430
f 430/430/430 452/452/452 450/450/450
f 430/430/430 450/450/450 433/433/433
f 433/433/433 450/450/450 403/403/403
f 403/403/403 450/450/450 448/448/448
f 403/403/403 448/448/448 405/405/405
f 405/405/405 448/448/448 407/407/407
f 407/407/407 448/448/448 446/446/446
f 407/407/407 446/446/446 409/409/409
f 409/409/409 446/446/446 445/445/445
f 409/409/409 445/445/445 410/410/410
f 410/410/410 445/445/445 442/442/442
f 476/476/476 80/80/80 478/478/478
f 478/478/478 80/80/80 79/79/79
f 478/478/478 79/79/79 76/76/76
f 478/478/478 76/76/76 480/480/480
f 480/480/480 76/76/76 74/74/74
f 480/480/480 74/74/74 466/466/466
f 466/466/466 74/74/74 72/72/72
f 466/466/466 72/72/72 70/70/70
f 70/70/70 69/69/69 466/466/466
f 466/466/466 69/69/69 67/67/67
f 466/466/466 67/67/67 65/65/65
f 65/65/65 62/62/62 466/466/466
f 466/466/466 62/62/62 61/61/61

