mtllib material.mtl
usemtl Opaque(245,245,246)
v 0.09750000 -0.03280000 0.04550000
v 0.09750000 -0.03280000 0.04550000
v 0.09750000 -0.03280000 0.04550000
v 0.09720200 -0.03601600 0.04550000
v 0.09720200 -0.03601600 0.04550000
v 0.09631800 -0.03912200 0.04550000
v 0.09631800 -0.03912200 0.04550000
v 0.09487900 -0.04201300 0.04550000
v 0.09487900 -0.04201300 0.04550000
v 0.09293300 -0.04459000 0.04550000
v 0.09293300 -0.04459000 0.04550000
v 0.09054600 -0.04676500 0.04550000
v 0.09054600 -0.04676500 0.04550000
v 0.08780000 -0.04846500 0.04550000
v 0.08780000 -0.04846500 0.04550000
v 0.08478900 -0.04963200 0.04550000
v 0.08478900 -0.04963200 0.04550000
v 0.08161500 -0.05022500 0.04550000
v 0.08161500 -0.05022500 0.04550000
v 0.07838500 -0.05022500 0.04550000
v 0.07838500 -0.05022500 0.04550000
v 0.07521100 -0.04963200 0.04550000
v 0.07521100 -0.04963200 0.04550000
v 0.07220000 -0.04846500 0.04550000
v 0.07220000 -0.04846500 0.04550000
v 0.06945400 -0.04676500 0.04550000
v 0.06945400 -0.04676500 0.04550000
v 0.06706700 -0.04459000 0.04550000
v 0.06706700 -0.04459000 0.04550000
v 0.06512100 -0.04201300 0.04550000
v 0.06512100 -0.04201300 0.04550000
v 0.06368200 -0.03912200 0.04550000
v 0.06368200 -0.03912200 0.04550000
v 0.06279800 -0.03601600 0.04550000
v 0.06279800 -0.03601600 0.04550000
v 0.06250000 -0.03280000 0.04550000
v 0.06250000 -0.03280000 0.04550000
v 0.06279800 -0.02958400 0.04550000
v 0.06279800 -0.02958400 0.04550000
v 0.06368200 -0.02647800 0.04550000
v 0.06368200 -0.02647800 0.04550000
v 0.06512100 -0.02358700 0.04550000
v 0.06512100 -0.02358700 0.04550000
v 0.06706700 -0.02101000 0.04550000
v 0.06706700 -0.02101000 0.04550000
v 0.06945400 -0.01883500 0.04550000
v 0.06945400 -0.01883500 0.04550000
v 0.07220000 -0.01713500 0.04550000
v 0.07220000 -0.01713500 0.04550000
v 0.07521100 -0.01596800 0.04550000
v 0.07521100 -0.01596800 0.04550000
v 0.07838500 -0.01537500 0.04550000
v 0.07838500 -0.01537500 0.04550000
v 0.08161500 -0.01537500 0.04550000
v 0.08161500 -0.01537500 0.04550000
v 0.08478900 -0.01596800 0.04550000
v 0.08478900 -0.01596800 0.04550000
v 0.08780000 -0.01713500 0.04550000
v 0.08780000 -0.01713500 0.04550000
v 0.09054600 -0.01883500 0.04550000
v 0.09054600 -0.01883500 0.04550000
v 0.09293300 -0.02101000 0.04550000
v 0.09293300 -0.02101000 0.04550000
v 0.09487900 -0.02358700 0.04550000
v 0.09487900 -0.02358700 0.04550000
v 0.09631800 -0.02647800 0.04550000
v 0.09631800 -0.02647800 0.04550000
v 0.09720200 -0.02958400 0.04550000
v 0.09720200 -0.02958400 0.04550000
v 0.09750000 -0.03280000 0.04075000
v 0.09750000 -0.03280000 0.04075000
v 0.09750000 -0.03280000 0.04075000
v 0.09720200 -0.02958400 0.04075000
v 0.09720200 -0.02958400 0.04075000
v 0.09631800 -0.02647800 0.04075000
v 0.09631800 -0.02647800 0.04075000
v 0.09487900 -0.02358700 0.04075000
v 0.09487900 -0.02358700 0.04075000
v 0.09293300 -0.02101000 0.04075000
v 0.09293300 -0.02101000 0.04075000
v 0.09054600 -0.01883500 0.04075000
v 0.09054600 -0.01883500 0.04075000
v 0.08780000 -0.01713500 0.04075000
v 0.08780000 -0.01713500 0.04075000
v 0.08478900 -0.01596800 0.04075000
v 0.08478900 -0.01596800 0.04075000
v 0.08161500 -0.01537500 0.04075000
v 0.08161500 -0.01537500 0.04075000
v 0.07838500 -0.01537500 0.04075000
v 0.07838500 -0.01537500 0.04075000
v 0.07521100 -0.01596800 0.04075000
v 0.07521100 -0.01596800 0.04075000
v 0.07220000 -0.01713500 0.04075000
v 0.07220000 -0.01713500 0.04075000
v 0.06945400 -0.01883500 0.04075000
v 0.06945400 -0.01883500 0.04075000
v 0.06706700 -0.02101000 0.04075000
v 0.06706700 -0.02101000 0.04075000
v 0.06512100 -0.02358700 0.04075000
v 0.06512100 -0.02358700 0.04075000
v 0.06368200 -0.02647800 0.04075000
v 0.06368200 -0.02647800 0.04075000
v 0.06279800 -0.02958400 0.04075000
v 0.06279800 -0.02958400 0.04075000
v 0.06250000 -0.03280000 0.04075000
v 0.06250000 -0.03280000 0.04075000
v 0.06279800 -0.03601600 0.04075000
v 0.06279800 -0.03601600 0.04075000
v 0.06368200 -0.03912200 0.04075000
v 0.06368200 -0.03912200 0.04075000
v 0.06512100 -0.04201300 0.04075000
v 0.06512100 -0.04201300 0.04075000
v 0.06706700 -0.04459000 0.04075000
v 0.06706700 -0.04459000 0.04075000
v 0.06945400 -0.04676500 0.04075000
v 0.06945400 -0.04676500 0.04075000
v 0.07220000 -0.04846500 0.04075000
v 0.07220000 -0.04846500 0.04075000
v 0.07521100 -0.04963200 0.04075000
v 0.07521100 -0.04963200 0.04075000
v 0.07838500 -0.05022500 0.04075000
v 0.07838500 -0.05022500 0.04075000
v 0.08161500 -0.05022500 0.04075000
v 0.08161500 -0.05022500 0.04075000
v 0.08478900 -0.04963200 0.04075000
v 0.08478900 -0.04963200 0.04075000
v 0.08780000 -0.04846500 0.04075000
v 0.08780000 -0.04846500 0.04075000
v 0.09054600 -0.04676500 0.04075000
v 0.09054600 -0.04676500 0.04075000
v 0.09293300 -0.04459000 0.04075000
v 0.09293300 -0.04459000 0.04075000
v 0.09487900 -0.04201300 0.04075000
v 0.09487900 -0.04201300 0.04075000
v 0.09631800 -0.03912200 0.04075000
v 0.09631800 -0.03912200 0.04075000
v 0.09720200 -0.03601600 0.04075000
v 0.09720200 -0.03601600 0.04075000
v 0.07260200 -0.05309400 0.04550000
v 0.07260200 -0.05309400 0.04550000
v 0.07260200 -0.05309400 0.04550000
v 0.07202500 -0.05271300 0.04550000
v 0.07202500 -0.05271300 0.04550000
v 0.07167900 -0.05211400 0.04550000
v 0.07167900 -0.05211400 0.04550000
v 0.07163900 -0.05142400 0.04550000
v 0.07163900 -0.05142400 0.04550000
v 0.07163900 -0.05142400 0.04550000
v 0.07192000 -0.04982800 0.04550000
v 0.07192000 -0.04982800 0.04550000
v 0.07192000 -0.04982800 0.04550000
v 0.07190200 -0.04921900 0.04550000
v 0.07190200 -0.04921900 0.04550000
v 0.07164300 -0.04866800 0.04550000
v 0.07164300 -0.04866800 0.04550000
v 0.07118600 -0.04826500 0.04550000
v 0.07118600 -0.04826500 0.04550000
v 0.07118600 -0.04826500 0.04550000
v 0.06862200 -0.04648800 0.04550000
v 0.06862200 -0.04648800 0.04550000
v 0.06640700 -0.04429200 0.04550000
v 0.06640700 -0.04429200 0.04550000
v 0.06461000 -0.04174300 0.04550000
v 0.06461000 -0.04174300 0.04550000
v 0.06328500 -0.03891900 0.04550000
v 0.06328500 -0.03891900 0.04550000
v 0.06247300 -0.03590700 0.04550000
v 0.06247300 -0.03590700 0.04550000
v 0.06220000 -0.03280000 0.04550000
v 0.06220000 -0.03280000 0.04550000
v 0.06247300 -0.02969300 0.04550000
v 0.06247300 -0.02969300 0.04550000
v 0.06328500 -0.02668100 0.04550000
v 0.06328500 -0.02668100 0.04550000
v 0.06461000 -0.02385700 0.04550000
v 0.06461000 -0.02385700 0.04550000
v 0.06640700 -0.02130800 0.04550000
v 0.06640700 -0.02130800 0.04550000
v 0.06862200 -0.01911200 0.04550000
v 0.06862200 -0.01911200 0.04550000
v 0.07118600 -0.01733500 0.04550000
v 0.07118600 -0.01733500 0.04550000
v 0.07118600 -0.01733500 0.04550000
v 0.07164300 -0.01693200 0.04550000
v 0.07164300 -0.01693200 0.04550000
v 0.07190200 -0.01638100 0.04550000
v 0.07190200 -0.01638100 0.04550000
v 0.07192000 -0.01577200 0.04550000
v 0.07192000 -0.01577200 0.04550000
v 0.07192000 -0.01577200 0.04550000
v 0.07163900 -0.01417600 0.04550000
v 0.07163900 -0.01417600 0.04550000
v 0.07163900 -0.01417600 0.04550000
v 0.07167900 -0.01348600 0.04550000
v 0.07167900 -0.01348600 0.04550000
v 0.07202500 -0.01288700 0.04550000
v 0.07202500 -0.01288700 0.04550000
v 0.07260200 -0.01250600 0.04550000
v 0.07260200 -0.01250600 0.04550000
v 0.07260200 -0.01250600 0.04550000
v 0.07607800 -0.01155900 0.04550000
v 0.07607800 -0.01155900 0.04550000
v 0.07966300 -0.01120300 0.04550000
v 0.07966300 -0.01120300 0.04550000
v 0.08325800 -0.01144700 0.04550000
v 0.08325800 -0.01144700 0.04550000
v 0.08676200 -0.01228600 0.04550000
v 0.08676200 -0.01228600 0.04550000
v 0.09007700 -0.01369500 0.04550000
v 0.09007700 -0.01369500 0.04550000
v 0.09311300 -0.01563600 0.04550000
v 0.09311300 -0.01563600 0.04550000
v 0.09578300 -0.01805400 0.04550000
v 0.09578300 -0.01805400 0.04550000
v 0.09801500 -0.02088200 0.04550000
v 0.09801500 -0.02088200 0.04550000
v 0.09974500 -0.02404200 0.04550000
v 0.09974500 -0.02404200 0.04550000
v 0.10092600 -0.02744600 0.04550000
v 0.10092600 -0.02744600 0.04550000
v 0.10152500 -0.03099900 0.04550000
v 0.10152500 -0.03099900 0.04550000
v 0.10152500 -0.03460100 0.04550000
v 0.10152500 -0.03460100 0.04550000
v 0.10092600 -0.03815400 0.04550000
v 0.10092600 -0.03815400 0.04550000
v 0.09974500 -0.04155800 0.04550000
v 0.09974500 -0.04155800 0.04550000
v 0.09801500 -0.04471800 0.04550000
v 0.09801500 -0.04471800 0.04550000
v 0.09578300 -0.04754600 0.04550000
v 0.09578300 -0.04754600 0.04550000
v 0.09311300 -0.04996400 0.04550000
v 0.09311300 -0.04996400 0.04550000
v 0.09007700 -0.05190500 0.04550000
v 0.09007700 -0.05190500 0.04550000
v 0.08676200 -0.05331400 0.04550000
v 0.08676200 -0.05331400 0.04550000
v 0.08325800 -0.05415300 0.04550000
v 0.08325800 -0.05415300 0.04550000
v 0.07966300 -0.05439700 0.04550000
v 0.07966300 -0.05439700 0.04550000
v 0.07607800 -0.05404100 0.04550000
v 0.07607800 -0.05404100 0.04550000
v 0.07831300 -0.06125000 0.04550000
v 0.07831300 -0.06125000 0.04550000
v 0.07831300 -0.06125000 0.04550000
v 0.08000000 -0.06125000 0.04550000
v 0.08000000 -0.06125000 0.04550000
v 0.08000000 -0.06125000 0.04550000
v 0.08404900 -0.06096000 0.04550000
v 0.08404900 -0.06096000 0.04550000
v 0.08801500 -0.06009800 0.04550000
v 0.08801500 -0.06009800 0.04550000
v 0.09181900 -0.05867900 0.04550000
v 0.09181900 -0.05867900 0.04550000
v 0.09538100 -0.05673400 0.04550000
v 0.09538100 -0.05673400 0.04550000
v 0.09863100 -0.05430100 0.04550000
v 0.09863100 -0.05430100 0.04550000
v 0.10150100 -0.05143100 0.04550000
v 0.10150100 -0.05143100 0.04550000
v 0.10393400 -0.04818100 0.04550000
v 0.10393400 -0.04818100 0.04550000
v 0.10587900 -0.04461900 0.04550000
v 0.10587900 -0.04461900 0.04550000
v 0.10729800 -0.04081500 0.04550000
v 0.10729800 -0.04081500 0.04550000
v 0.10816000 -0.03684900 0.04550000
v 0.10816000 -0.03684900 0.04550000
v 0.10845000 -0.03280000 0.04550000
v 0.10845000 -0.03280000 0.04550000
v 0.10816000 -0.02875100 0.04550000
v 0.10816000 -0.02875100 0.04550000
v 0.10729800 -0.02478500 0.04550000
v 0.10729800 -0.02478500 0.04550000
v 0.10587900 -0.02098100 0.04550000
v 0.10587900 -0.02098100 0.04550000
v 0.10393400 -0.01741900 0.04550000
v 0.10393400 -0.01741900 0.04550000
v 0.10150100 -0.01416900 0.04550000
v 0.10150100 -0.01416900 0.04550000
v 0.09863100 -0.01129900 0.04550000
v 0.09863100 -0.01129900 0.04550000
v 0.09538100 -0.00886600 0.04550000
v 0.09538100 -0.00886600 0.04550000
v 0.09181900 -0.00692100 0.04550000
v 0.09181900 -0.00692100 0.04550000
v 0.08801500 -0.00550200 0.04550000
v 0.08801500 -0.00550200 0.04550000
v 0.08404900 -0.00464000 0.04550000
v 0.08404900 -0.00464000 0.04550000
v 0.08000000 -0.00435000 0.04550000
v 0.08000000 -0.00435000 0.04550000
v 0.08000000 -0.00435000 0.04550000
v 0.07831300 -0.00435000 0.04550000
v 0.07831300 -0.00435000 0.04550000
v 0.07831300 -0.00435000 0.04550000
v 0.08000000 -0.00430000 0.04550000
v 0.08000000 -0.00430000 0.04550000
v 0.08279300 -0.00443700 0.04550000
v 0.08279300 -0.00443700 0.04550000
v 0.08556000 -0.00484800 0.04550000
v 0.08556000 -0.00484800 0.04550000
v 0.08827300 -0.00552700 0.04550000
v 0.08827300 -0.00552700 0.04550000
v 0.09090600 -0.00646900 0.04550000
v 0.09090600 -0.00646900 0.04550000
v 0.09343500 -0.00766500 0.04550000
v 0.09343500 -0.00766500 0.04550000
v 0.09583400 -0.00910300 0.04550000
v 0.09583400 -0.00910300 0.04550000
v 0.09808000 -0.01076900 0.04550000
v 0.09808000 -0.01076900 0.04550000
v 0.10015300 -0.01264700 0.04550000
v 0.10015300 -0.01264700 0.04550000
v 0.10203100 -0.01472000 0.04550000
v 0.10203100 -0.01472000 0.04550000
v 0.10369700 -0.01696600 0.04550000
v 0.10369700 -0.01696600 0.04550000
v 0.10513500 -0.01936500 0.04550000
v 0.10513500 -0.01936500 0.04550000
v 0.10633100 -0.02189400 0.04550000
v 0.10633100 -0.02189400 0.04550000
v 0.10727300 -0.02452700 0.04550000
v 0.10727300 -0.02452700 0.04550000
v 0.10795200 -0.02724000 0.04550000
v 0.10795200 -0.02724000 0.04550000
v 0.10836300 -0.03000700 0.04550000
v 0.10836300 -0.03000700 0.04550000
v 0.10850000 -0.03280000 0.04550000
v 0.10850000 -0.03280000 0.04550000
v 0.10836300 -0.03559300 0.04550000
v 0.10836300 -0.03559300 0.04550000
v 0.10795200 -0.03836000 0.04550000
v 0.10795200 -0.03836000 0.04550000
v 0.10727300 -0.04107300 0.04550000
v 0.10727300 -0.04107300 0.04550000
v 0.10633100 -0.04370600 0.04550000
v 0.10633100 -0.04370600 0.04550000
v 0.10513500 -0.04623500 0.04550000
v 0.10513500 -0.04623500 0.04550000
v 0.10369700 -0.04863400 0.04550000
v 0.10369700 -0.04863400 0.04550000
v 0.10203100 -0.05088000 0.04550000
v 0.10203100 -0.05088000 0.04550000
v 0.10015300 -0.05295300 0.04550000
v 0.10015300 -0.05295300 0.04550000
v 0.09808000 -0.05483100 0.04550000
v 0.09808000 -0.05483100 0.04550000
v 0.09583400 -0.05649700 0.04550000
v 0.09583400 -0.05649700 0.04550000
v 0.09343500 -0.05793500 0.04550000
v 0.09343500 -0.05793500 0.04550000
v 0.09090600 -0.05913100 0.04550000
v 0.09090600 -0.05913100 0.04550000
v 0.08827300 -0.06007300 0.04550000
v 0.08827300 -0.06007300 0.04550000
v 0.08556000 -0.06075200 0.04550000
v 0.08556000 -0.06075200 0.04550000
v 0.08279300 -0.06116300 0.04550000
v 0.08279300 -0.06116300 0.04550000
v 0.08000000 -0.06130000 0.04550000
v 0.08000000 -0.06130000 0.04550000
v 0.08000000 -0.06130000 0.04550000
v 0.07831300 -0.00435000 0.04650000
v 0.07831300 -0.00435000 0.04650000
v 0.07831300 -0.00435000 0.04650000
v 0.07424900 -0.00488600 0.04650000
v 0.07424900 -0.00488600 0.04650000
v 0.07030400 -0.00600000 0.04650000
v 0.07030400 -0.00600000 0.04650000
v 0.06655900 -0.00766800 0.04650000
v 0.06655900 -0.00766800 0.04650000
v 0.06309300 -0.00985700 0.04650000
v 0.06309300 -0.00985700 0.04650000
v 0.05997600 -0.01252000 0.04650000
v 0.05997600 -0.01252000 0.04650000
v 0.05727400 -0.01560200 0.04650000
v 0.05727400 -0.01560200 0.04650000
v 0.05504200 -0.01904000 0.04650000
v 0.05504200 -0.01904000 0.04650000
v 0.05332600 -0.02276300 0.04650000
v 0.05332600 -0.02276300 0.04650000
v 0.05216200 -0.02669400 0.04650000
v 0.05216200 -0.02669400 0.04650000
v 0.05157400 -0.03075000 0.04650000
v 0.05157400 -0.03075000 0.04650000
v 0.05157400 -0.03485000 0.04650000
v 0.05157400 -0.03485000 0.04650000
v 0.05216200 -0.03890600 0.04650000
v 0.05216200 -0.03890600 0.04650000
v 0.05332600 -0.04283700 0.04650000
v 0.05332600 -0.04283700 0.04650000
v 0.05504200 -0.04656000 0.04650000
v 0.05504200 -0.04656000 0.04650000
v 0.05727400 -0.04999800 0.04650000
v 0.05727400 -0.04999800 0.04650000
v 0.05997600 -0.05308000 0.04650000
v 0.05997600 -0.05308000 0.04650000
v 0.06309300 -0.05574300 0.04650000
v 0.06309300 -0.05574300 0.04650000
v 0.06655900 -0.05793200 0.04650000
v 0.06655900 -0.05793200 0.04650000
v 0.07030400 -0.05960000 0.04650000
v 0.07030400 -0.05960000 0.04650000
v 0.07424900 -0.06071400 0.04650000
v 0.07424900 -0.06071400 0.04650000
v 0.07831300 -0.06125000 0.04650000
v 0.07831300 -0.06125000 0.04650000
v 0.07831300 -0.06125000 0.04650000
v 0.08000000 -0.06130000 0.09250000
v 0.08000000 -0.06130000 0.09250000
v 0.08000000 -0.06130000 0.09250000
v 0.07585000 -0.06099600 0.09250000
v 0.07585000 -0.06099600 0.09250000
v 0.07178900 -0.06009200 0.09250000
v 0.07178900 -0.06009200 0.09250000
v 0.06790300 -0.05860500 0.09250000
v 0.06790300 -0.05860500 0.09250000
v 0.06427500 -0.05656900 0.09250000
v 0.06427500 -0.05656900 0.09250000
v 0.06098100 -0.05402600 0.09250000
v 0.06098100 -0.05402600 0.09250000
v 0.05809400 -0.05103100 0.09250000
v 0.05809400 -0.05103100 0.09250000
v 0.05567300 -0.04764700 0.09250000
v 0.05567300 -0.04764700 0.09250000
v 0.05377000 -0.04394600 0.09250000
v 0.05377000 -0.04394600 0.09250000
v 0.05242700 -0.04000900 0.09250000
v 0.05242700 -0.04000900 0.09250000
v 0.05167100 -0.03591700 0.09250000
v 0.05167100 -0.03591700 0.09250000
v 0.05151900 -0.03175900 0.09250000
v 0.05151900 -0.03175900 0.09250000
v 0.05197400 -0.02762300 0.09250000
v 0.05197400 -0.02762300 0.09250000
v 0.05302600 -0.02359800 0.09250000
v 0.05302600 -0.02359800 0.09250000
v 0.05465400 -0.01976900 0.09250000
v 0.05465400 -0.01976900 0.09250000
v 0.05682100 -0.01621700 0.09250000
v 0.05682100 -0.01621700 0.09250000
v 0.05948300 -0.01301900 0.09250000
v 0.05948300 -0.01301900 0.09250000
v 0.06258200 -0.01024200 0.09250000
v 0.06258200 -0.01024200 0.09250000
v 0.06605200 -0.00794700 0.09250000
v 0.06605200 -0.00794700 0.09250000
v 0.06981900 -0.00618100 0.09250000
v 0.06981900 -0.00618100 0.09250000
v 0.07380300 -0.00498200 0.09250000
v 0.07380300 -0.00498200 0.09250000
v 0.07792000 -0.00437600 0.09250000
v 0.07792000 -0.00437600 0.09250000
v 0.08208000 -0.00437600 0.09250000
v 0.08208000 -0.00437600 0.09250000
v 0.08619700 -0.00498200 0.09250000
v 0.08619700 -0.00498200 0.09250000
v 0.09018100 -0.00618100 0.09250000
v 0.09018100 -0.00618100 0.09250000
v 0.09394800 -0.00794700 0.09250000
v 0.09394800 -0.00794700 0.09250000
v 0.09741800 -0.01024200 0.09250000
v 0.09741800 -0.01024200 0.09250000
v 0.10051700 -0.01301900 0.09250000
v 0.10051700 -0.01301900 0.09250000
v 0.10317900 -0.01621700 0.09250000
v 0.10317900 -0.01621700 0.09250000
v 0.10534600 -0.01976900 0.09250000
v 0.10534600 -0.01976900 0.09250000
v 0.10697400 -0.02359800 0.09250000
v 0.10697400 -0.02359800 0.09250000
v 0.10802600 -0.02762300 0.09250000
v 0.10802600 -0.02762300 0.09250000
v 0.10848100 -0.03175900 0.09250000
v 0.10848100 -0.03175900 0.09250000
v 0.10832900 -0.03591700 0.09250000
v 0.10832900 -0.03591700 0.09250000
v 0.10757300 -0.04000900 0.09250000
v 0.10757300 -0.04000900 0.09250000
v 0.10623000 -0.04394600 0.09250000
v 0.10623000 -0.04394600 0.09250000
v 0.10432700 -0.04764700 0.09250000
v 0.10432700 -0.04764700 0.09250000
v 0.10190600 -0.05103100 0.09250000
v 0.10190600 -0.05103100 0.09250000
v 0.09901900 -0.05402600 0.09250000
v 0.09901900 -0.05402600 0.09250000
v 0.09572500 -0.05656900 0.09250000
v 0.09572500 -0.05656900 0.09250000
v 0.09209700 -0.05860500 0.09250000
v 0.09209700 -0.05860500 0.09250000
v 0.08821100 -0.06009200 0.09250000
v 0.08821100 -0.06009200 0.09250000
v 0.08415000 -0.06099600 0.09250000
v 0.08415000 -0.06099600 0.09250000
v 0.05671100 -0.06125000 0.04650000
v 0.05671100 -0.06125000 0.04650000
v 0.05671100 -0.06125000 0.04650000
v 0.05671100 -0.06125000 0.04332500
v 0.05671100 -0.06125000 0.04332500
v 0.05671100 -0.06125000 0.04332500
v 0.08000000 -0.06125000 0.04332500
v 0.08000000 -0.06125000 0.04332500
v 0.08000000 -0.06125000 0.04332500
v 0.05671100 -0.00435000 0.04650000
v 0.05671100 -0.00435000 0.04650000
v 0.05671100 -0.00435000 0.04650000
v 0.05523100 -0.00458900 0.04650000
v 0.05523100 -0.00458900 0.04650000
v 0.05390300 -0.00528100 0.04650000
v 0.05390300 -0.00528100 0.04650000
v 0.05285900 -0.00635600 0.04650000
v 0.05285900 -0.00635600 0.04650000
v 0.05220700 -0.00770500 0.04650000
v 0.05220700 -0.00770500 0.04650000
v 0.05220700 -0.00770500 0.04650000
v 0.05041700 -0.01475100 0.04650000
v 0.05041700 -0.01475100 0.04650000
v 0.04921700 -0.02192100 0.04650000
v 0.04921700 -0.02192100 0.04650000
v 0.04861500 -0.02916500 0.04650000
v 0.04861500 -0.02916500 0.04650000
v 0.04861500 -0.03643500 0.04650000
v 0.04861500 -0.03643500 0.04650000
v 0.04921700 -0.04367900 0.04650000
v 0.04921700 -0.04367900 0.04650000
v 0.05041700 -0.05084900 0.04650000
v 0.05041700 -0.05084900 0.04650000
v 0.05220700 -0.05789500 0.04650000
v 0.05220700 -0.05789500 0.04650000
v 0.05220700 -0.05789500 0.04650000
v 0.05285900 -0.05924400 0.04650000
v 0.05285900 -0.05924400 0.04650000
v 0.05390300 -0.06031900 0.04650000
v 0.05390300 -0.06031900 0.04650000
v 0.05523100 -0.06101100 0.04650000
v 0.05523100 -0.06101100 0.04650000
v 0.07118600 -0.01733500 0.04332500
v 0.07118600 -0.01733500 0.04332500
v 0.07118600 -0.01733500 0.04332500
v 0.07164300 -0.01693200 0.04332500
v 0.07164300 -0.01693200 0.04332500
v 0.07190200 -0.01638100 0.04332500
v 0.07190200 -0.01638100 0.04332500
v 0.07192000 -0.01577200 0.04332500
v 0.07192000 -0.01577200 0.04332500
v 0.07192000 -0.01577200 0.04332500
v 0.07118600 -0.04826500 0.04332500
v 0.07118600 -0.04826500 0.04332500
v 0.07118600 -0.04826500 0.04332500
v 0.06862200 -0.04648800 0.04332500
v 0.06862200 -0.04648800 0.04332500
v 0.06640700 -0.04429200 0.04332500
v 0.06640700 -0.04429200 0.04332500
v 0.06461000 -0.04174300 0.04332500
v 0.06461000 -0.04174300 0.04332500
v 0.06328500 -0.03891900 0.04332500
v 0.06328500 -0.03891900 0.04332500
v 0.06247300 -0.03590700 0.04332500
v 0.06247300 -0.03590700 0.04332500
v 0.06220000 -0.03280000 0.04332500
v 0.06220000 -0.03280000 0.04332500
v 0.06247300 -0.02969300 0.04332500
v 0.06247300 -0.02969300 0.04332500
v 0.06328500 -0.02668100 0.04332500
v 0.06328500 -0.02668100 0.04332500
v 0.06461000 -0.02385700 0.04332500
v 0.06461000 -0.02385700 0.04332500
v 0.06640700 -0.02130800 0.04332500
v 0.06640700 -0.02130800 0.04332500
v 0.06862200 -0.01911200 0.04332500
v 0.06862200 -0.01911200 0.04332500
v 0.07192000 -0.04982800 0.04332500
v 0.07192000 -0.04982800 0.04332500
v 0.07192000 -0.04982800 0.04332500
v 0.07190200 -0.04921900 0.04332500
v 0.07190200 -0.04921900 0.04332500
v 0.07164300 -0.04866800 0.04332500
v 0.07164300 -0.04866800 0.04332500
v 0.07163900 -0.05142400 0.04332500
v 0.07163900 -0.05142400 0.04332500
v 0.07163900 -0.05142400 0.04332500
v 0.05220700 -0.05789500 0.04332500
v 0.05220700 -0.05789500 0.04332500
v 0.05220700 -0.05789500 0.04332500
v 0.05041700 -0.05084900 0.04332500
v 0.05041700 -0.05084900 0.04332500
v 0.04921700 -0.04367900 0.04332500
v 0.04921700 -0.04367900 0.04332500
v 0.04861500 -0.03643500 0.04332500
v 0.04861500 -0.03643500 0.04332500
v 0.04861500 -0.02916500 0.04332500
v 0.04861500 -0.02916500 0.04332500
v 0.04921700 -0.02192100 0.04332500
v 0.04921700 -0.02192100 0.04332500
v 0.05041700 -0.01475100 0.04332500
v 0.05041700 -0.01475100 0.04332500
v 0.05220700 -0.00770500 0.04332500
v 0.05220700 -0.00770500 0.04332500
v 0.05220700 -0.00770500 0.04332500
v 0.05285900 -0.00635600 0.04332500
v 0.05285900 -0.00635600 0.04332500
v 0.05390300 -0.00528100 0.04332500
v 0.05390300 -0.00528100 0.04332500
v 0.05523100 -0.00458900 0.04332500
v 0.05523100 -0.00458900 0.04332500
v 0.05671100 -0.00435000 0.04332500
v 0.05671100 -0.00435000 0.04332500
v 0.05671100 -0.00435000 0.04332500
v 0.08000000 -0.00435000 0.04332500
v 0.08000000 -0.00435000 0.04332500
v 0.08000000 -0.00435000 0.04332500
v 0.08404900 -0.00464000 0.04332500
v 0.08404900 -0.00464000 0.04332500
v 0.08801500 -0.00550200 0.04332500
v 0.08801500 -0.00550200 0.04332500
v 0.09181900 -0.00692100 0.04332500
v 0.09181900 -0.00692100 0.04332500
v 0.09538100 -0.00886600 0.04332500
v 0.09538100 -0.00886600 0.04332500
v 0.09863100 -0.01129900 0.04332500
v 0.09863100 -0.01129900 0.04332500
v 0.10150100 -0.01416900 0.04332500
v 0.10150100 -0.01416900 0.04332500
v 0.10393400 -0.01741900 0.04332500
v 0.10393400 -0.01741900 0.04332500
v 0.10587900 -0.02098100 0.04332500
v 0.10587900 -0.02098100 0.04332500
v 0.10729800 -0.02478500 0.04332500
v 0.10729800 -0.02478500 0.04332500
v 0.10816000 -0.02875100 0.04332500
v 0.10816000 -0.02875100 0.04332500
v 0.10845000 -0.03280000 0.04332500
v 0.10845000 -0.03280000 0.04332500
v 0.10816000 -0.03684900 0.04332500
v 0.10816000 -0.03684900 0.04332500
v 0.10729800 -0.04081500 0.04332500
v 0.10729800 -0.04081500 0.04332500
v 0.10587900 -0.04461900 0.04332500
v 0.10587900 -0.04461900 0.04332500
v 0.10393400 -0.04818100 0.04332500
v 0.10393400 -0.04818100 0.04332500
v 0.10150100 -0.05143100 0.04332500
v 0.10150100 -0.05143100 0.04332500
v 0.09863100 -0.05430100 0.04332500
v 0.09863100 -0.05430100 0.04332500
v 0.09538100 -0.05673400 0.04332500
v 0.09538100 -0.05673400 0.04332500
v 0.09181900 -0.05867900 0.04332500
v 0.09181900 -0.05867900 0.04332500
v 0.08801500 -0.06009800 0.04332500
v 0.08801500 -0.06009800 0.04332500
v 0.08404900 -0.06096000 0.04332500
v 0.08404900 -0.06096000 0.04332500
v 0.05523100 -0.06101100 0.04332500
v 0.05523100 -0.06101100 0.04332500
v 0.05390300 -0.06031900 0.04332500
v 0.05390300 -0.06031900 0.04332500
v 0.05285900 -0.05924400 0.04332500
v 0.05285900 -0.05924400 0.04332500
v 0.07167900 -0.05211400 0.04332500
v 0.07167900 -0.05211400 0.04332500
v 0.07202500 -0.05271300 0.04332500
v 0.07202500 -0.05271300 0.04332500
v 0.07260200 -0.05309400 0.04332500
v 0.07260200 -0.05309400 0.04332500
v 0.07260200 -0.05309400 0.04332500
v 0.07607800 -0.05404100 0.04332500
v 0.07607800 -0.05404100 0.04332500
v 0.07966300 -0.05439700 0.04332500
v 0.07966300 -0.05439700 0.04332500
v 0.08325800 -0.05415300 0.04332500
v 0.08325800 -0.05415300 0.04332500
v 0.08676200 -0.05331400 0.04332500
v 0.08676200 -0.05331400 0.04332500
v 0.09007700 -0.05190500 0.04332500
v 0.09007700 -0.05190500 0.04332500
v 0.09311300 -0.04996400 0.04332500
v 0.09311300 -0.04996400 0.04332500
v 0.09578300 -0.04754600 0.04332500
v 0.09578300 -0.04754600 0.04332500
v 0.09801500 -0.04471800 0.04332500
v 0.09801500 -0.04471800 0.04332500
v 0.09974500 -0.04155800 0.04332500
v 0.09974500 -0.04155800 0.04332500
v 0.10092600 -0.03815400 0.04332500
v 0.10092600 -0.03815400 0.04332500
v 0.10152500 -0.03460100 0.04332500
v 0.10152500 -0.03460100 0.04332500
v 0.10152500 -0.03099900 0.04332500
v 0.10152500 -0.03099900 0.04332500
v 0.10092600 -0.02744600 0.04332500
v 0.10092600 -0.02744600 0.04332500
v 0.09974500 -0.02404200 0.04332500
v 0.09974500 -0.02404200 0.04332500
v 0.09801500 -0.02088200 0.04332500
v 0.09801500 -0.02088200 0.04332500
v 0.09578300 -0.01805400 0.04332500
v 0.09578300 -0.01805400 0.04332500
v 0.09311300 -0.01563600 0.04332500
v 0.09311300 -0.01563600 0.04332500
v 0.09007700 -0.01369500 0.04332500
v 0.09007700 -0.01369500 0.04332500
v 0.08676200 -0.01228600 0.04332500
v 0.08676200 -0.01228600 0.04332500
v 0.08325800 -0.01144700 0.04332500
v 0.08325800 -0.01144700 0.04332500
v 0.07966300 -0.01120300 0.04332500
v 0.07966300 -0.01120300 0.04332500
v 0.07607800 -0.01155900 0.04332500
v 0.07607800 -0.01155900 0.04332500
v 0.07260200 -0.01250600 0.04332500
v 0.07260200 -0.01250600 0.04332500
v 0.07260200 -0.01250600 0.04332500
v 0.07202500 -0.01288700 0.04332500
v 0.07202500 -0.01288700 0.04332500
v 0.07167900 -0.01348600 0.04332500
v 0.07167900 -0.01348600 0.04332500
v 0.07163900 -0.01417600 0.04332500
v 0.07163900 -0.01417600 0.04332500
v 0.07163900 -0.01417600 0.04332500
vn 100.00000000 -0.00000000 0.00000000
vn 100.00000000 -0.00000000 0.00000000
vn -0.00000000 -0.00000000 -100.00000000
vn 98.29731000 -18.37495200 0.00000000
vn -0.00000000 -0.00000000 -100.00000000
vn -0.00000000 -0.00000000 -100.00000000
vn 93.24722300 -36.12416700 0.00000000
vn 85.02171400 -52.64321600 0.00000000
vn -0.00000000 -0.00000000 -100.00000000
vn -0.00000000 -0.00000000 -100.00000000
vn 73.90089200 -67.36956400 0.00000000
vn -0.00000000 -0.00000000 -100.00000000
vn 60.26346400 -79.80172300 0.00000000
vn -0.00000000 -0.00000000 -100.00000000
vn 44.57383600 -89.51632900 0.00000000
vn 27.36629900 -96.18256400 0.00000000
vn -0.00000000 -0.00000000 -100.00000000
vn 9.22683600 -99.57341800 0.00000000
vn -0.00000000 -0.00000000 -100.00000000
vn -0.00000000 -0.00000000 -100.00000000
vn -9.22683600 -99.57341800 -0.00000000
vn -27.36629900 -96.18256400 -0.00000000
vn -0.00000000 -0.00000000 -100.00000000
vn -0.00000000 -0.00000000 -100.00000000
vn -44.57383600 -89.51632900 -0.00000000
vn -0.00000000 -0.00000000 -100.00000000
vn -60.26346400 -79.80172300 -0.00000000
vn -73.90089200 -67.36956400 -0.00000000
vn -0.00000000 -0.00000000 -100.00000000
vn -85.02171400 -52.64321600 -0.00000000
vn -0.00000000 -0.00000000 -100.00000000
vn -0.00000000 -0.00000000 -100.00000000
vn -93.24722300 -36.12416700 -0.00000000
vn -0.00000000 -0.00000000 -100.00000000
vn -98.29731000 -18.37495200 -0.00000000
vn -0.00000000 -0.00000000 -100.00000000
vn -100.00000000 0.00000000 -0.00000000
vn -98.29731000 18.37495200 -0.00000000
vn -0.00000000 -0.00000000 -100.00000000
vn -93.24722300 36.12416700 -0.00000000
vn -0.00000000 -0.00000000 -100.00000000
vn -0.00000000 -0.00000000 -100.00000000
vn -85.02171400 52.64321600 -0.00000000
vn -73.90089200 67.36956400 -0.00000000
vn -0.00000000 -0.00000000 -100.00000000
vn -60.26346400 79.80172300 -0.00000000
vn -0.00000000 -0.00000000 -100.00000000
vn -0.00000000 -0.00000000 -100.00000000
vn -44.57383600 89.51632900 -0.00000000
vn -0.00000000 -0.00000000 -100.00000000
vn -27.36629900 96.18256400 -0.00000000
vn -0.00000000 -0.00000000 -100.00000000
vn -9.22683600 99.57341800 -0.00000000
vn -0.00000000 -0.00000000 -100.00000000
vn 9.22683600 99.57341800 0.00000000
vn -0.00000000 -0.00000000 -100.00000000
vn 27.36629900 96.18256400 0.00000000
vn 44.57383600 89.51632900 0.00000000
vn -0.00000000 -0.00000000 -100.00000000
vn 60.26346400 79.80172300 0.00000000
vn -0.00000000 -0.00000000 -100.00000000
vn -0.00000000 -0.00000000 -100.00000000
vn 73.90089200 67.36956400 0.00000000
vn -0.00000000 -0.00000000 -100.00000000
vn 85.02171400 52.64321600 0.00000000
vn -0.00000000 -0.00000000 -100.00000000
vn 93.24722300 36.12416700 0.00000000
vn 98.29731000 18.37495200 0.00000000
vn -0.00000000 -0.00000000 -100.00000000
vn 100.00000000 -0.00000000 0.00000000
vn 100.00000000 -0.00000000 0.00000000
vn 0.00000000 -0.00000000 -100.00000000
vn 98.29731000 18.37495200 0.00000000
vn 0.00000000 -0.00000000 -100.00000000
vn 93.24722300 36.12416700 0.00000000
vn 0.00000000 -0.00000000 -100.00000000
vn 85.02171400 52.64321600 0.00000000
vn 0.00000000 -0.00000000 -100.00000000
vn 73.90089200 67.36956400 0.00000000
vn 0.00000000 -0.00000000 -100.00000000
vn 0.00000000 -0.00000000 -100.00000000
vn 60.26346400 79.80172300 0.00000000
vn 0.00000000 -0.00000000 -100.00000000
vn 44.57383600 89.51632900 0.00000000
vn 0.00000000 -0.00000000 -100.00000000
vn 27.36629900 96.18256400 0.00000000
vn 0.00000000 -0.00000000 -100.00000000
vn 9.22683600 99.57341800 0.00000000
vn -9.22683600 99.57341800 -0.00000000
vn 0.00000000 -0.00000000 -100.00000000
vn 0.00000000 -0.00000000 -100.00000000
vn -27.36629900 96.18256400 -0.00000000
vn 0.00000000 -0.00000000 -100.00000000
vn -44.57383600 89.51632900 -0.00000000
vn -60.26346400 79.80172300 -0.00000000
vn 0.00000000 -0.00000000 -100.00000000
vn -73.90089200 67.36956400 -0.00000000
vn 0.00000000 -0.00000000 -100.00000000
vn -85.02171400 52.64321600 -0.00000000
vn 0.00000000 -0.00000000 -100.00000000
vn -93.24722300 36.12416700 -0.00000000
vn 0.00000000 -0.00000000 -100.00000000
vn -98.29731000 18.37495200 -0.00000000
vn 0.00000000 -0.00000000 -100.00000000
vn -100.00000000 0.00000000 -0.00000000
vn 0.00000000 -0.00000000 -100.00000000
vn -98.29731000 -18.37495200 -0.00000000
vn 0.00000000 -0.00000000 -100.00000000
vn 0.00000000 -0.00000000 -100.00000000
vn -93.24722300 -36.12416700 -0.00000000
vn 0.00000000 -0.00000000 -100.00000000
vn -85.02171400 -52.64321600 -0.00000000
vn 0.00000000 -0.00000000 -100.00000000
vn -73.90089200 -67.36956400 -0.00000000
vn -60.26346400 -79.80172300 -0.00000000
vn 0.00000000 -0.00000000 -100.00000000
vn 0.00000000 -0.00000000 -100.00000000
vn -44.57383600 -89.51632900 -0.00000000
vn 0.00000000 -0.00000000 -100.00000000
vn -27.36629900 -96.18256400 -0.00000000
vn 0.00000000 -0.00000000 -100.00000000
vn -9.22683600 -99.57341800 -0.00000000
vn 0.00000000 -0.00000000 -100.00000000
vn 9.22683600 -99.57341800 0.00000000
vn 27.36629900 -96.18256400 0.00000000
vn 0.00000000 -0.00000000 -100.00000000
vn 44.57383600 -89.51632900 0.00000000
vn 0.00000000 -0.00000000 -100.00000000
vn 0.00000000 -0.00000000 -100.00000000
vn 60.26346400 -79.80172300 0.00000000
vn 73.90089200 -67.36956400 0.00000000
vn 0.00000000 -0.00000000 -100.00000000
vn 0.00000000 -0.00000000 -100.00000000
vn 85.02171400 -52.64321600 0.00000000
vn 0.00000000 -0.00000000 -100.00000000
vn 93.24722300 -36.12416700 0.00000000
vn 0.00000000 -0.00000000 -100.00000000
vn 98.29731000 -18.37495200 0.00000000
vn 34.24792500 93.95253900 0.00000000
vn -0.00000000 -0.00000000 -100.00000000
vn 34.24792500 93.95253900 0.00000000
vn -0.00000000 -0.00000000 -100.00000000
vn 72.75971400 68.60046600 0.00000000
vn 95.80362100 28.66472000 0.00000000
vn -0.00000000 -0.00000000 -100.00000000
vn 98.48077500 -17.36481800 0.00000000
vn -0.00000000 -0.00000000 -100.00000000
vn 98.48077500 -17.36481800 0.00000000
vn 98.48077500 -17.36481800 0.00000000
vn 98.48077500 -17.36481800 0.00000000
vn -0.00000000 -0.00000000 -100.00000000
vn 97.26155800 23.24197600 0.00000000
vn -0.00000000 -0.00000000 -100.00000000
vn -0.00000000 -0.00000000 -100.00000000
vn 79.99031000 60.01291700 0.00000000
vn -0.00000000 -0.00000000 -100.00000000
vn 49.51747700 86.87933900 0.00000000
vn 49.51747700 86.87933900 0.00000000
vn 63.92295900 76.90159500 0.00000000
vn -0.00000000 -0.00000000 -100.00000000
vn 76.36553900 64.56240800 0.00000000
vn -0.00000000 -0.00000000 -100.00000000
vn 86.46313600 50.24068200 0.00000000
vn -0.00000000 -0.00000000 -100.00000000
vn 93.90568100 34.37619900 0.00000000
vn -0.00000000 -0.00000000 -100.00000000
vn 98.46463400 17.45611500 0.00000000
vn -0.00000000 -0.00000000 -100.00000000
vn -0.00000000 -0.00000000 -100.00000000
vn 100.00000000 -0.00000000 0.00000000
vn -0.00000000 -0.00000000 -100.00000000
vn 98.46463400 -17.45611500 0.00000000
vn -0.00000000 -0.00000000 -100.00000000
vn 93.90568100 -34.37619900 0.00000000
vn 86.46313600 -50.24068200 0.00000000
vn -0.00000000 -0.00000000 -100.00000000
vn 76.36553900 -64.56240800 0.00000000
vn -0.00000000 -0.00000000 -100.00000000
vn 63.92295900 -76.90159500 0.00000000
vn -0.00000000 -0.00000000 -100.00000000
vn -0.00000000 -0.00000000 -100.00000000
vn 49.51747700 -86.87933900 0.00000000
vn 49.51747700 -86.87933900 0.00000000
vn -0.00000000 -0.00000000 -100.00000000
vn 79.99031000 -60.01291700 0.00000000
vn -0.00000000 -0.00000000 -100.00000000
vn 97.26155800 -23.24197600 0.00000000
vn 98.48077500 17.36481800 0.00000000
vn -0.00000000 -0.00000000 -100.00000000
vn 98.48077500 17.36481800 0.00000000
vn 98.48077500 17.36481800 0.00000000
vn 98.48077500 17.36481800 0.00000000
vn -0.00000000 -0.00000000 -100.00000000
vn 95.80362100 -28.66472000 0.00000000
vn -0.00000000 -0.00000000 -100.00000000
vn 72.75971400 -68.60046600 0.00000000
vn -0.00000000 -0.00000000 -100.00000000
vn 34.24792500 -93.95253900 0.00000000
vn -0.00000000 -0.00000000 -100.00000000
vn 34.24792500 -93.95253900 0.00000000
vn -0.00000000 -0.00000000 -100.00000000
vn 18.15549400 -98.33808000 0.00000000
vn 1.55797900 -99.98786300 0.00000000
vn -0.00000000 -0.00000000 -100.00000000
vn -0.00000000 -0.00000000 -100.00000000
vn -15.08288000 -98.85599000 -0.00000000
vn -31.30413400 -94.97395000 -0.00000000
vn -0.00000000 -0.00000000 -100.00000000
vn -0.00000000 -0.00000000 -100.00000000
vn -46.65450900 -88.44974200 -0.00000000
vn -0.00000000 -0.00000000 -100.00000000
vn -60.70695800 -79.46486800 -0.00000000
vn -0.00000000 -0.00000000 -100.00000000
vn -73.07054500 -68.26928700 -0.00000000
vn -0.00000000 -0.00000000 -100.00000000
vn -83.40131400 -55.17445900 -0.00000000
vn -91.41186400 -40.54468100 -0.00000000
vn -0.00000000 -0.00000000 -100.00000000
vn -96.87934200 -24.78695300 -0.00000000
vn -0.00000000 -0.00000000 -100.00000000
vn -99.65164400 -8.33965400 -0.00000000
vn -0.00000000 -0.00000000 -100.00000000
vn -99.65164400 8.33965400 -0.00000000
vn -0.00000000 -0.00000000 -100.00000000
vn -96.87934200 24.78695300 -0.00000000
vn -0.00000000 -0.00000000 -100.00000000
vn -0.00000000 -0.00000000 -100.00000000
vn -91.41186400 40.54468100 -0.00000000
vn -0.00000000 -0.00000000 -100.00000000
vn -83.40131400 55.17445900 -0.00000000
vn -73.07054500 68.26928700 -0.00000000
vn -0.00000000 -0.00000000 -100.00000000
vn -0.00000000 -0.00000000 -100.00000000
vn -60.70695800 79.46486800 -0.00000000
vn -46.65450900 88.44974200 -0.00000000
vn -0.00000000 -0.00000000 -100.00000000
vn -0.00000000 -0.00000000 -100.00000000
vn -31.30413400 94.97395000 -0.00000000
vn -15.08288000 98.85599000 -0.00000000
vn -0.00000000 -0.00000000 -100.00000000
vn 1.55797900 99.98786300 -0.00000000
vn -0.00000000 -0.00000000 -100.00000000
vn -0.00000000 -0.00000000 -100.00000000
vn 18.15549400 98.33808000 0.00000000
vn -5.92089000 -99.82456100 0.00000000
vn 0.00000000 -100.00000000 0.00000000
vn -0.00000000 -0.00000000 -100.00000000
vn 0.00000000 -100.00000000 0.00000000
vn 0.00000000 -100.00000000 0.00000000
vn -0.00000000 -0.00000000 -100.00000000
vn 14.23148400 -98.98214400 0.00000000
vn -0.00000000 -0.00000000 -100.00000000
vn -0.00000000 -0.00000000 -100.00000000
vn 28.17325600 -95.94929700 0.00000000
vn -0.00000000 -0.00000000 -100.00000000
vn 41.54150100 -90.96320000 0.00000000
vn -0.00000000 -0.00000000 -100.00000000
vn 54.06408200 -84.12535300 0.00000000
vn 65.48607300 -75.57495700 0.00000000
vn -0.00000000 -0.00000000 -100.00000000
vn 75.57495700 -65.48607300 0.00000000
vn -0.00000000 -0.00000000 -100.00000000
vn -0.00000000 -0.00000000 -100.00000000
vn 84.12535300 -54.06408200 0.00000000
vn 90.96320000 -41.54150100 0.00000000
vn -0.00000000 -0.00000000 -100.00000000
vn -0.00000000 -0.00000000 -100.00000000
vn 95.94929700 -28.17325600 0.00000000
vn -0.00000000 -0.00000000 -100.00000000
vn 98.98214400 -14.23148400 0.00000000
vn 100.00000000 0.00000000 0.00000000
vn -0.00000000 -0.00000000 -100.00000000
vn -0.00000000 -0.00000000 -100.00000000
vn 98.98214400 14.23148400 0.00000000
vn 95.94929700 28.17325600 0.00000000
vn -0.00000000 -0.00000000 -100.00000000
vn -0.00000000 -0.00000000 -100.00000000
vn 90.96320000 41.54150100 0.00000000
vn -0.00000000 -0.00000000 -100.00000000
vn 84.12535300 54.06408200 0.00000000
vn -0.00000000 -0.00000000 -100.00000000
vn 75.57495700 65.48607300 0.00000000
vn -0.00000000 -0.00000000 -100.00000000
vn 65.48607300 75.57495700 0.00000000
vn -0.00000000 -0.00000000 -100.00000000
vn 54.06408200 84.12535300 0.00000000
vn -0.00000000 -0.00000000 -100.00000000
vn 41.54150100 90.96320000 0.00000000
vn -0.00000000 -0.00000000 -100.00000000
vn 28.17325600 95.94929700 0.00000000
vn 14.23148400 98.98214400 0.00000000
vn -0.00000000 -0.00000000 -100.00000000
vn -0.00000000 100.00000000 -0.00000000
vn -0.00000000 100.00000000 -0.00000000
vn -0.00000000 -0.00000000 -100.00000000
vn -5.92089000 99.82456100 -0.00000000
vn -0.00000000 -0.00000000 -100.00000000
vn -0.00000000 100.00000000 -0.00000000
vn -0.00000000 -0.00000000 -100.00000000
vn -0.00000000 100.00000000 -0.00000000
vn 9.80171400 99.51847300 -0.00000000
vn -0.00000000 -0.00000000 -100.00000000
vn 19.50903200 98.07852800 -0.00000000
vn -0.00000000 -0.00000000 -100.00000000
vn 29.02846800 95.69403400 -0.00000000
vn -0.00000000 -0.00000000 -100.00000000
vn 38.26834300 92.38795300 -0.00000000
vn -0.00000000 -0.00000000 -100.00000000
vn 47.13967400 88.19212600 -0.00000000
vn -0.00000000 -0.00000000 -100.00000000
vn 55.55702300 83.14696100 -0.00000000
vn -0.00000000 -0.00000000 -100.00000000
vn -0.00000000 -0.00000000 -100.00000000
vn 63.43932800 77.30104500 -0.00000000
vn -0.00000000 -0.00000000 -100.00000000
vn 70.71067800 70.71067800 -0.00000000
vn 77.30104500 63.43932800 -0.00000000
vn -0.00000000 -0.00000000 -100.00000000
vn -0.00000000 -0.00000000 -100.00000000
vn 83.14696100 55.55702300 -0.00000000
vn 88.19212600 47.13967400 -0.00000000
vn -0.00000000 -0.00000000 -100.00000000
vn 92.38795300 38.26834300 -0.00000000
vn -0.00000000 -0.00000000 -100.00000000
vn 95.69403400 29.02846800 -0.00000000
vn -0.00000000 -0.00000000 -100.00000000
vn -0.00000000 -0.00000000 -100.00000000
vn 98.07852800 19.50903200 -0.00000000
vn 99.51847300 9.80171400 -0.00000000
vn -0.00000000 -0.00000000 -100.00000000
vn -0.00000000 -0.00000000 -100.00000000
vn 100.00000000 -0.00000000 -0.00000000
vn 99.51847300 -9.80171400 -0.00000000
vn -0.00000000 -0.00000000 -100.00000000
vn -0.00000000 -0.00000000 -100.00000000
vn 98.07852800 -19.50903200 -0.00000000
vn -0.00000000 -0.00000000 -100.00000000
vn 95.69403400 -29.02846800 -0.00000000
vn 92.38795300 -38.26834300 -0.00000000
vn -0.00000000 -0.00000000 -100.00000000
vn 88.19212600 -47.13967400 -0.00000000
vn -0.00000000 -0.00000000 -100.00000000
vn 83.14696100 -55.55702300 -0.00000000
vn -0.00000000 -0.00000000 -100.00000000
vn 77.30104500 -63.43932800 -0.00000000
vn -0.00000000 -0.00000000 -100.00000000
vn 70.71067800 -70.71067800 -0.00000000
vn -0.00000000 -0.00000000 -100.00000000
vn -0.00000000 -0.00000000 -100.00000000
vn 63.43932800 -77.30104500 -0.00000000
vn -0.00000000 -0.00000000 -100.00000000
vn 55.55702300 -83.14696100 -0.00000000
vn 47.13967400 -88.19212600 -0.00000000
vn -0.00000000 -0.00000000 -100.00000000
vn 38.26834300 -92.38795300 0.00000000
vn -0.00000000 -0.00000000 -100.00000000
vn 29.02846800 -95.69403400 0.00000000
vn -0.00000000 -0.00000000 -100.00000000
vn -0.00000000 -0.00000000 -100.00000000
vn 19.50903200 -98.07852800 0.00000000
vn -0.00000000 -0.00000000 -100.00000000
vn 9.80171400 -99.51847300 0.00000000
vn -0.00000000 -100.00000000 0.00000000
vn -0.00000000 -0.00000000 -100.00000000
vn -0.00000000 -100.00000000 0.00000000
vn -0.00000000 100.00000000 -0.00000000
vn -0.00000000 0.00000000 100.00000000
vn -5.92089000 99.82456100 -0.00000000
vn -0.00000000 0.00000000 100.00000000
vn -20.18054600 97.94256300 -0.00000000
vn -0.00000000 0.00000000 100.00000000
vn -34.02270700 94.03433100 -0.00000000
vn -0.00000000 0.00000000 100.00000000
vn -47.16100800 88.18072000 0.00000000
vn -59.32364300 80.50282900 0.00000000
vn -0.00000000 0.00000000 100.00000000
vn -70.25899200 71.15949700 0.00000000
vn -0.00000000 0.00000000 100.00000000
vn -79.74082500 60.34402000 0.00000000
vn -0.00000000 0.00000000 100.00000000
vn -87.57298300 48.28014800 0.00000000
vn -0.00000000 0.00000000 100.00000000
vn -93.59343300 35.21745800 0.00000000
vn -0.00000000 0.00000000 100.00000000
vn -97.67762500 21.42618900 0.00000000
vn -0.00000000 0.00000000 100.00000000
vn -0.00000000 0.00000000 100.00000000
vn -99.74106500 7.19165700 0.00000000
vn -0.00000000 0.00000000 100.00000000
vn -99.74106500 -7.19165700 0.00000000
vn -97.67762500 -21.42618900 0.00000000
vn -0.00000000 0.00000000 100.00000000
vn -93.59343300 -35.21745800 0.00000000
vn -0.00000000 0.00000000 100.00000000
vn -87.57298300 -48.28014800 0.00000000
vn -0.00000000 0.00000000 100.00000000
vn -79.74082500 -60.34402000 0.00000000
vn -0.00000000 0.00000000 100.00000000
vn -0.00000000 0.00000000 100.00000000
vn -70.25899200 -71.15949700 0.00000000
vn -59.32364300 -80.50282900 0.00000000
vn -0.00000000 0.00000000 100.00000000
vn -47.16100800 -88.18072000 0.00000000
vn -0.00000000 0.00000000 100.00000000
vn -34.02270700 -94.03433100 0.00000000
vn -0.00000000 0.00000000 100.00000000
vn -0.00000000 0.00000000 100.00000000
vn -20.18054600 -97.94256300 0.00000000
vn -0.00000000 0.00000000 100.00000000
vn 0.00000000 -100.00000000 0.00000000
vn -5.92089000 -99.82456100 0.00000000
vn 0.00000000 0.00000000 100.00000000
vn -0.00000000 -100.00000000 0.00000000
vn -0.00000000 -100.00000000 0.00000000
vn 0.00000000 0.00000000 100.00000000
vn -14.56011700 -98.93433700 0.00000000
vn -28.80991000 -95.76006000 0.00000000
vn 0.00000000 0.00000000 100.00000000
vn -42.44567000 -90.54482400 0.00000000
vn 0.00000000 0.00000000 100.00000000
vn -55.17677400 -83.39978200 0.00000000
vn 0.00000000 0.00000000 100.00000000
vn 0.00000000 0.00000000 100.00000000
vn -66.73188100 -74.47721800 0.00000000
vn 0.00000000 0.00000000 100.00000000
vn -76.86471400 -63.96730200 0.00000000
vn 0.00000000 0.00000000 100.00000000
vn -85.35930900 -52.09403400 0.00000000
vn 0.00000000 0.00000000 100.00000000
vn -92.03461800 -39.11047200 0.00000000
vn 0.00000000 0.00000000 100.00000000
vn -96.74837000 -25.29333800 0.00000000
vn -99.40009800 -10.93712100 0.00000000
vn 0.00000000 0.00000000 100.00000000
vn 0.00000000 0.00000000 100.00000000
vn -99.93328500 3.65220200 0.00000000
vn 0.00000000 0.00000000 100.00000000
vn -98.33656800 18.16368500 0.00000000
vn -94.64397700 32.28804000 0.00000000
vn 0.00000000 0.00000000 100.00000000
vn -88.93421500 45.72423200 0.00000000
vn 0.00000000 0.00000000 100.00000000
vn 0.00000000 0.00000000 100.00000000
vn -81.32897400 58.18589200 0.00000000
vn 0.00000000 0.00000000 100.00000000
vn -71.99034700 69.40742000 0.00000000
vn -61.11737100 79.14964900 0.00000000
vn 0.00000000 0.00000000 100.00000000
vn 0.00000000 0.00000000 100.00000000
vn -48.94178500 87.20494100 0.00000000
vn -35.72308900 93.40161100 -0.00000000
vn 0.00000000 0.00000000 100.00000000
vn 0.00000000 0.00000000 100.00000000
vn -21.74301800 97.60758800 -0.00000000
vn -7.29953100 99.73322800 -0.00000000
vn 0.00000000 0.00000000 100.00000000
vn 7.29953100 99.73322800 -0.00000000
vn 0.00000000 0.00000000 100.00000000
vn 21.74301800 97.60758800 -0.00000000
vn 0.00000000 0.00000000 100.00000000
vn 0.00000000 0.00000000 100.00000000
vn 35.72308900 93.40161100 -0.00000000
vn 0.00000000 0.00000000 100.00000000
vn 48.94178500 87.20494100 -0.00000000
vn 0.00000000 0.00000000 100.00000000
vn 61.11737100 79.14964900 -0.00000000
vn 71.99034700 69.40742000 -0.00000000
vn 0.00000000 0.00000000 100.00000000
vn 0.00000000 0.00000000 100.00000000
vn 81.32897400 58.18589200 -0.00000000
vn 0.00000000 0.00000000 100.00000000
vn 88.93421500 45.72423200 -0.00000000
vn 94.64397700 32.28804000 -0.00000000
vn 0.00000000 0.00000000 100.00000000
vn 98.33656800 18.16368500 -0.00000000
vn 0.00000000 0.00000000 100.00000000
vn 99.93328500 3.65220200 -0.00000000
vn 0.00000000 0.00000000 100.00000000
vn 99.40009800 -10.93712100 -0.00000000
vn 0.00000000 0.00000000 100.00000000
vn 96.74837000 -25.29333800 -0.00000000
vn 0.00000000 0.00000000 100.00000000
vn 92.03461800 -39.11047200 -0.00000000
vn 0.00000000 0.00000000 100.00000000
vn 0.00000000 0.00000000 100.00000000
vn 85.35930900 -52.09403400 -0.00000000
vn 76.86471400 -63.96730200 -0.00000000
vn 0.00000000 0.00000000 100.00000000
vn 66.73188100 -74.47721800 -0.00000000
vn 0.00000000 0.00000000 100.00000000
vn 55.17677400 -83.39978200 -0.00000000
vn 0.00000000 0.00000000 100.00000000
vn 42.44567000 -90.54482400 0.00000000
vn 0.00000000 0.00000000 100.00000000
vn 0.00000000 0.00000000 100.00000000
vn 28.80991000 -95.76006000 0.00000000
vn 14.56011700 -98.93433700 0.00000000
vn 0.00000000 0.00000000 100.00000000
vn 0.00000000 -100.00000000 0.00000000
vn 0.00000000 -100.00000000 0.00000000
vn -0.00000000 0.00000000 100.00000000
vn 0.00000000 -100.00000000 0.00000000
vn 0.00000000 -0.00000000 -100.00000000
vn 0.00000000 -100.00000000 0.00000000
vn 0.00000000 -100.00000000 0.00000000
vn 0.00000000 -100.00000000 0.00000000
vn 0.00000000 -0.00000000 -100.00000000
vn -0.00000000 100.00000000 -0.00000000
vn -0.00000000 0.00000000 100.00000000
vn -0.00000000 100.00000000 -0.00000000
vn -31.47078900 94.91885700 -0.00000000
vn -0.00000000 0.00000000 100.00000000
vn -0.00000000 0.00000000 100.00000000
vn -59.74342700 80.19178800 -0.00000000
vn -81.94476700 57.31540000 -0.00000000
vn -0.00000000 0.00000000 100.00000000
vn -95.81864500 28.61445800 -0.00000000
vn -95.81864500 28.61445800 -0.00000000
vn -0.00000000 0.00000000 100.00000000
vn -97.85930200 20.58050000 -0.00000000
vn -0.00000000 0.00000000 100.00000000
vn -99.22758000 12.40513600 -0.00000000
vn -0.00000000 0.00000000 100.00000000
vn -99.91407700 4.14453700 -0.00000000
vn -0.00000000 0.00000000 100.00000000
vn -99.91407700 -4.14453700 -0.00000000
vn -0.00000000 0.00000000 100.00000000
vn -0.00000000 0.00000000 100.00000000
vn -99.22758000 -12.40513600 -0.00000000
vn -97.85930200 -20.58050000 -0.00000000
vn -0.00000000 0.00000000 100.00000000
vn -95.81864500 -28.61445800 -0.00000000
vn -0.00000000 0.00000000 100.00000000
vn -95.81864500 -28.61445800 -0.00000000
vn -0.00000000 0.00000000 100.00000000
vn -81.94476700 -57.31540000 -0.00000000
vn -0.00000000 0.00000000 100.00000000
vn -59.74342700 -80.19178800 -0.00000000
vn -31.47078900 -94.91885700 -0.00000000
vn -0.00000000 0.00000000 100.00000000
vn 49.51747700 -86.87933900 0.00000000
vn 49.51747700 -86.87933900 0.00000000
vn 0.00000000 -0.00000000 -100.00000000
vn 0.00000000 -0.00000000 -100.00000000
vn 79.99031000 -60.01291700 0.00000000
vn 0.00000000 -0.00000000 -100.00000000
vn 97.26155800 -23.24197600 0.00000000
vn 0.00000000 -0.00000000 -100.00000000
vn 98.48077500 17.36481800 0.00000000
vn 98.48077500 17.36481800 0.00000000
vn 0.00000000 -0.00000000 -100.00000000
vn 49.51747700 86.87933900 0.00000000
vn 49.51747700 86.87933900 0.00000000
vn 63.92295900 76.90159500 0.00000000
vn 0.00000000 -0.00000000 -100.00000000
vn 76.36553900 64.56240800 0.00000000
vn 0.00000000 -0.00000000 -100.00000000
vn 0.00000000 -0.00000000 -100.00000000
vn 86.46313600 50.24068200 0.00000000
vn 93.90568100 34.37619900 0.00000000
vn 0.00000000 -0.00000000 -100.00000000
vn 0.00000000 -0.00000000 -100.00000000
vn 98.46463400 17.45611500 0.00000000
vn 0.00000000 -0.00000000 -100.00000000
vn 100.00000000 -0.00000000 0.00000000
vn 98.46463400 -17.45611500 0.00000000
vn 0.00000000 -0.00000000 -100.00000000
vn 0.00000000 -0.00000000 -100.00000000
vn 93.90568100 -34.37619900 0.00000000
vn 0.00000000 -0.00000000 -100.00000000
vn 86.46313600 -50.24068200 0.00000000
vn 0.00000000 -0.00000000 -100.00000000
vn 76.36553900 -64.56240800 0.00000000
vn 0.00000000 -0.00000000 -100.00000000
vn 63.92295900 -76.90159500 0.00000000
vn 0.00000000 -0.00000000 -100.00000000
vn 98.48077500 -17.36481800 0.00000000
vn 98.48077500 -17.36481800 0.00000000
vn 0.00000000 -0.00000000 -100.00000000
vn 97.26155800 23.24197600 0.00000000
vn 0.00000000 -0.00000000 -100.00000000
vn 79.99031000 60.01291700 0.00000000
vn 98.48077500 -17.36481800 0.00000000
vn 98.48077500 -17.36481800 0.00000000
vn 0.00000000 -0.00000000 -100.00000000
vn 0.00000000 -0.00000000 -100.00000000
vn -95.81864500 -28.61445800 -0.00000000
vn -95.81864500 -28.61445800 -0.00000000
vn -97.85930200 -20.58050000 -0.00000000
vn 0.00000000 -0.00000000 -100.00000000
vn 0.00000000 -0.00000000 -100.00000000
vn -99.22758000 -12.40513600 -0.00000000
vn 0.00000000 -0.00000000 -100.00000000
vn -99.91407700 -4.14453700 -0.00000000
vn 0.00000000 -0.00000000 -100.00000000
vn -99.91407700 4.14453700 -0.00000000
vn -99.22758000 12.40513600 -0.00000000
vn 0.00000000 -0.00000000 -100.00000000
vn -97.85930200 20.58050000 -0.00000000
vn 0.00000000 -0.00000000 -100.00000000
vn -95.81864500 28.61445800 -0.00000000
vn 0.00000000 -0.00000000 -100.00000000
vn -95.81864500 28.61445800 -0.00000000
vn 0.00000000 -0.00000000 -100.00000000
vn -81.94476700 57.31540000 -0.00000000
vn -59.74342700 80.19178800 -0.00000000
vn 0.00000000 -0.00000000 -100.00000000
vn -31.47078900 94.91885700 -0.00000000
vn 0.00000000 -0.00000000 -100.00000000
vn -0.00000000 100.00000000 -0.00000000
vn -0.00000000 100.00000000 -0.00000000
vn 0.00000000 -0.00000000 -100.00000000
vn 0.00000000 -0.00000000 -100.00000000
vn -0.00000000 100.00000000 -0.00000000
vn -0.00000000 100.00000000 -0.00000000
vn 0.00000000 -0.00000000 -100.00000000
vn 14.23148400 98.98214400 0.00000000
vn 0.00000000 -0.00000000 -100.00000000
vn 28.17325600 95.94929700 0.00000000
vn 41.54150100 90.96320000 0.00000000
vn 0.00000000 -0.00000000 -100.00000000
vn 54.06408200 84.12535300 0.00000000
vn 0.00000000 -0.00000000 -100.00000000
vn 65.48607300 75.57495700 0.00000000
vn 0.00000000 -0.00000000 -100.00000000
vn 75.57495700 65.48607300 0.00000000
vn 0.00000000 -0.00000000 -100.00000000
vn 0.00000000 -0.00000000 -100.00000000
vn 84.12535300 54.06408200 0.00000000
vn 90.96320000 41.54150100 0.00000000
vn 0.00000000 -0.00000000 -100.00000000
vn 0.00000000 -0.00000000 -100.00000000
vn 95.94929700 28.17325600 0.00000000
vn 98.98214400 14.23148400 0.00000000
vn 0.00000000 -0.00000000 -100.00000000
vn 100.00000000 0.00000000 0.00000000
vn 0.00000000 -0.00000000 -100.00000000
vn 98.98214400 -14.23148400 0.00000000
vn 0.00000000 -0.00000000 -100.00000000
vn 95.94929700 -28.17325600 0.00000000
vn 0.00000000 -0.00000000 -100.00000000
vn 90.96320000 -41.54150100 0.00000000
vn 0.00000000 -0.00000000 -100.00000000
vn 84.12535300 -54.06408200 0.00000000
vn 0.00000000 -0.00000000 -100.00000000
vn 75.57495700 -65.48607300 0.00000000
vn 0.00000000 -0.00000000 -100.00000000
vn 0.00000000 -0.00000000 -100.00000000
vn 65.48607300 -75.57495700 0.00000000
vn 0.00000000 -0.00000000 -100.00000000
vn 54.06408200 -84.12535300 0.00000000
vn 41.54150100 -90.96320000 0.00000000
vn 0.00000000 -0.00000000 -100.00000000
vn 28.17325600 -95.94929700 0.00000000
vn 0.00000000 -0.00000000 -100.00000000
vn 0.00000000 -0.00000000 -100.00000000
vn 14.23148400 -98.98214400 0.00000000
vn 0.00000000 -0.00000000 -100.00000000
vn -31.47078900 -94.91885700 -0.00000000
vn 0.00000000 -0.00000000 -100.00000000
vn -59.74342700 -80.19178800 -0.00000000
vn 0.00000000 -0.00000000 -100.00000000
vn -81.94476700 -57.31540000 -0.00000000
vn 95.80362100 28.66472000 0.00000000
vn 0.00000000 -0.00000000 -100.00000000
vn 0.00000000 -0.00000000 -100.00000000
vn 72.75971400 68.60046600 0.00000000
vn 34.24792500 93.95253900 0.00000000
vn 34.24792500 93.95253900 0.00000000
vn 0.00000000 -0.00000000 -100.00000000
vn 18.15549400 98.33808000 0.00000000
vn 0.00000000 -0.00000000 -100.00000000
vn 0.00000000 -0.00000000 -100.00000000
vn 1.55797900 99.98786300 -0.00000000
vn 0.00000000 -0.00000000 -100.00000000
vn -15.08288000 98.85599000 -0.00000000
vn -31.30413400 94.97395000 -0.00000000
vn 0.00000000 -0.00000000 -100.00000000
vn 0.00000000 -0.00000000 -100.00000000
vn -46.65450900 88.44974200 -0.00000000
vn 0.00000000 -0.00000000 -100.00000000
vn -60.70695800 79.46486800 -0.00000000
vn 0.00000000 -0.00000000 -100.00000000
vn -73.07054500 68.26928700 -0.00000000
vn 0.00000000 -0.00000000 -100.00000000
vn -83.40131400 55.17445900 -0.00000000
vn -91.41186400 40.54468100 -0.00000000
vn 0.00000000 -0.00000000 -100.00000000
vn -96.87934200 24.78695300 -0.00000000
vn 0.00000000 -0.00000000 -100.00000000
vn -99.65164400 8.33965400 -0.00000000
vn 0.00000000 -0.00000000 -100.00000000
vn -99.65164400 -8.33965400 -0.00000000
vn 0.00000000 -0.00000000 -100.00000000
vn 0.00000000 -0.00000000 -100.00000000
vn -96.87934200 -24.78695300 -0.00000000
vn -91.41186400 -40.54468100 -0.00000000
vn 0.00000000 -0.00000000 -100.00000000
vn 0.00000000 -0.00000000 -100.00000000
vn -83.40131400 -55.17445900 -0.00000000
vn -73.07054500 -68.26928700 -0.00000000
vn 0.00000000 -0.00000000 -100.00000000
vn -60.70695800 -79.46486800 -0.00000000
vn 0.00000000 -0.00000000 -100.00000000
vn 0.00000000 -0.00000000 -100.00000000
vn -46.65450900 -88.44974200 -0.00000000
vn 0.00000000 -0.00000000 -100.00000000
vn -31.30413400 -94.97395000 -0.00000000
vn 0.00000000 -0.00000000 -100.00000000
vn -15.08288000 -98.85599000 -0.00000000
vn 1.55797900 -99.98786300 0.00000000
vn 0.00000000 -0.00000000 -100.00000000
vn 0.00000000 -0.00000000 -100.00000000
vn 18.15549400 -98.33808000 0.00000000
vn 0.00000000 -0.00000000 -100.00000000
vn 34.24792500 -93.95253900 0.00000000
vn 34.24792500 -93.95253900 0.00000000
vn 72.75971400 -68.60046600 0.00000000
vn 0.00000000 -0.00000000 -100.00000000
vn 95.80362100 -28.66472000 0.00000000
vn 0.00000000 -0.00000000 -100.00000000
vn 98.48077500 17.36481800 0.00000000
vn 98.48077500 17.36481800 0.00000000
vn 0.00000000 -0.00000000 -100.00000000
vt 0.15748000 -5.49778700
vt 0.15748000 5.49778700
vt 0.00000000 -1.75000000
vt 0.15748000 -5.17438800
vt 0.32156200 -1.72020300
vt 0.63217300 -1.63182600
vt 0.15748000 -4.85098900
vt 0.15748000 -4.52758900
vt 0.92125600 -1.48788000
vt 1.17896700 -1.29326600
vt 0.15748000 -4.20419000
vt 1.39653000 -1.05461100
vt 0.15748000 -3.88079100
vt 1.56653600 -0.78004200
vt 0.15748000 -3.55739200
vt 0.15748000 -3.23399200
vt 1.68319500 -0.47891000
vt 0.15748000 -2.91059300
vt 1.74253500 -0.16147000
vt 1.74253500 0.16147000
vt 0.15748000 -2.58719400
vt 0.15748000 -2.26379500
vt 1.68319500 0.47891000
vt 1.56653600 0.78004200
vt 0.15748000 -1.94039500
vt 1.39653000 1.05461100
vt 0.15748000 -1.61699600
vt 0.15748000 -1.29359700
vt 1.17896700 1.29326600
vt 0.15748000 -0.97019800
vt 0.92125600 1.48788000
vt 0.63217300 1.63182600
vt 0.15748000 -0.64679800
vt 0.32156200 1.72020300
vt 0.15748000 -0.32339900
vt -0.00000000 1.75000000
vt 0.15748000 -0.00000000
vt 0.15748000 0.32339900
vt -0.32156200 1.72020300
vt 0.15748000 0.64679800
vt -0.63217300 1.63182600
vt -0.92125600 1.48788000
vt 0.15748000 0.97019800
vt 0.15748000 1.29359700
vt -1.17896700 1.29326600
vt 0.15748000 1.61699600
vt -1.39653000 1.05461100
vt -1.56653600 0.78004200
vt 0.15748000 1.94039500
vt -1.68319500 0.47891000
vt 0.15748000 2.26379500
vt -1.74253500 0.16147000
vt 0.15748000 2.58719400
vt -1.74253500 -0.16147000
vt 0.15748000 2.91059300
vt -1.68319500 -0.47891000
vt 0.15748000 3.23399200
vt 0.15748000 3.55739200
vt -1.56653600 -0.78004200
vt 0.15748000 3.88079100
vt -1.39653000 -1.05461100
vt -1.17896700 -1.29326600
vt 0.15748000 4.20419000
vt -0.92125600 -1.48788000
vt 0.15748000 4.52758900
vt -0.63217300 -1.63182600
vt 0.15748000 4.85098900
vt 0.15748000 5.17438800
vt -0.32156200 -1.72020300
vt -0.31750000 -5.49778700
vt -0.31750000 5.49778700
vt 0.00000000 -1.56000000
vt -0.31750000 5.17438800
vt -0.32156200 -1.53020300
vt -0.31750000 4.85098900
vt -0.63217300 -1.44182600
vt -0.31750000 4.52758900
vt -0.92125600 -1.29788000
vt -0.31750000 4.20419000
vt -1.17896700 -1.10326600
vt -1.39653000 -0.86461100
vt -0.31750000 3.88079100
vt -1.56653600 -0.59004200
vt -0.31750000 3.55739200
vt -1.68319500 -0.28891000
vt -0.31750000 3.23399200
vt -1.74253500 0.02853000
vt -0.31750000 2.91059300
vt -0.31750000 2.58719400
vt -1.74253500 0.35147000
vt -1.68319500 0.66891000
vt -0.31750000 2.26379500
vt -1.56653600 0.97004200
vt -0.31750000 1.94039500
vt -0.31750000 1.61699600
vt -1.39653000 1.24461100
vt -0.31750000 1.29359700
vt -1.17896700 1.48326600
vt -0.31750000 0.97019800
vt -0.92125600 1.67788000
vt -0.31750000 0.64679800
vt -0.63217300 1.82182600
vt -0.31750000 0.32339900
vt -0.32156200 1.91020300
vt -0.31750000 0.00000000
vt -0.00000000 1.94000000
vt -0.31750000 -0.32339900
vt 0.32156200 1.91020300
vt 0.63217300 1.82182600
vt -0.31750000 -0.64679800
vt 0.92125600 1.67788000
vt -0.31750000 -0.97019800
vt 1.17896700 1.48326600
vt -0.31750000 -1.29359700
vt -0.31750000 -1.61699600
vt 1.39653000 1.24461100
vt 1.56653600 0.97004200
vt -0.31750000 -1.94039500
vt 1.68319500 0.66891000
vt -0.31750000 -2.26379500
vt 1.74253500 0.35147000
vt -0.31750000 -2.58719400
vt 1.74253500 0.02853000
vt -0.31750000 -2.91059300
vt -0.31750000 -3.23399200
vt 1.68319500 -0.28891000
vt -0.31750000 -3.55739200
vt 1.56653600 -0.59004200
vt 1.39653000 -0.86461100
vt -0.31750000 -3.88079100
vt -0.31750000 -4.20419000
vt 1.17896700 -1.10326600
vt 0.92125600 -1.29788000
vt -0.31750000 -4.52758900
vt 0.63217300 -1.44182600
vt -0.31750000 -4.85098900
vt 0.32156200 -1.53020300
vt -0.31750000 -5.17438800
vt 0.10000000 -0.10468300
vt 2.02937500 0.73975500
vt 0.10000000 4.14795800
vt 1.99134700 0.79752300
vt 0.10000000 -0.03489400
vt 0.10000000 0.03489400
vt 1.93144300 0.83208900
vt 0.10000000 0.10468300
vt 1.86239900 0.83610400
vt 0.27096000 0.10000000
vt 0.10891800 0.10000000
vt -0.10000000 0.09204700
vt 1.70281800 0.80796600
vt -0.10000000 0.03068200
vt 1.64190800 0.80979500
vt 1.58675200 0.83570200
vt -0.10000000 -0.03068200
vt 1.54645200 0.88141100
vt 0.10000000 0.92210400
vt -0.10000000 -0.09204700
vt 0.10000000 1.23442300
vt 1.36884800 1.13782900
vt 0.10000000 1.54674200
vt 1.14921100 1.35930700
vt 0.10000000 1.85906100
vt 0.89428400 1.53904400
vt 0.10000000 2.17138000
vt 0.61189600 1.67152100
vt 0.10000000 2.48369900
vt 0.31071900 1.75267000
vt 0.00000000 1.78000000
vt 0.10000000 2.79601700
vt -0.31071900 1.75267000
vt 0.10000000 3.10833600
vt -0.61189600 1.67152100
vt 0.10000000 3.42065500
vt 0.10000000 3.73297400
vt -0.89428400 1.53904400
vt 0.10000000 4.04529300
vt -1.14921100 1.35930700
vt 0.10000000 4.35761200
vt -1.36884800 1.13782900
vt -1.54645200 0.88141100
vt 0.10000000 4.66993100
vt -0.10000000 0.09204700
vt -1.58675200 0.83570200
vt -0.10000000 0.03068200
vt -1.64190800 0.80979500
vt -0.10000000 -0.03068200
vt 0.28408200 0.10000000
vt -1.70281800 0.80796600
vt -0.10000000 -0.09204700
vt 0.10000000 -0.10468300
vt 0.12204000 0.10000000
vt -1.86239900 0.83610400
vt 0.10000000 -0.03489400
vt -1.93144300 0.83208900
vt 0.10000000 0.03489400
vt -1.99134700 0.79752300
vt 0.10000000 -4.14795800
vt -2.02937500 0.73975500
vt 0.10000000 0.10468300
vt -2.12410300 0.39215900
vt 0.10000000 -3.78726600
vt 0.10000000 -3.42657400
vt -2.15973800 0.03365200
vt -2.13528900 -0.32579000
vt 0.10000000 -3.06588200
vt 0.10000000 -2.70519000
vt -2.05143700 -0.67616900
vt -1.91051400 -1.00773700
vt 0.10000000 -2.34449800
vt -1.71644100 -1.31127000
vt 0.10000000 -1.98380600
vt -1.47461700 -1.57832400
vt 0.10000000 -1.62311400
vt -1.19176800 -1.80146800
vt 0.10000000 -1.26242200
vt 0.10000000 -0.90173000
vt -0.87576500 -1.97449600
vt 0.10000000 -0.54103800
vt -0.53539800 -2.09259400
vt 0.10000000 -0.18034600
vt -0.18013700 -2.15247600
vt 0.10000000 0.18034600
vt 0.18013700 -2.15247600
vt 0.10000000 0.54103800
vt 0.53539800 -2.09259400
vt 0.87576500 -1.97449600
vt 0.10000000 0.90173000
vt 1.19176800 -1.80146800
vt 0.10000000 1.26242200
vt 0.10000000 1.62311400
vt 1.47461700 -1.57832400
vt 1.71644100 -1.31127000
vt 0.10000000 1.98380600
vt 0.10000000 2.34449800
vt 1.91051400 -1.00773700
vt 2.05143700 -0.67616900
vt 0.10000000 2.70519000
vt 0.10000000 3.06588200
vt 2.13528900 -0.32579000
vt 0.10000000 3.42657400
vt 2.15973800 0.03365200
vt 2.12410300 0.39215900
vt 0.10000000 3.78726600
vt 0.00000000 8.78469500
vt 0.16874500 0.10000000
vt 2.84500000 0.16874500
vt -0.10000000 8.93783100
vt 0.00000000 0.10000000
vt 2.84500000 0.00000000
vt -0.10000000 8.53156600
vt 2.81604200 -0.40488600
vt 2.72975800 -0.80152900
vt -0.10000000 8.12530100
vt 2.58790300 -1.18185600
vt -0.10000000 7.71903600
vt 2.39336600 -1.53812300
vt -0.10000000 7.31277100
vt -0.10000000 6.90650600
vt 2.15010800 -1.86307900
vt -0.10000000 6.50024100
vt 1.86307900 -2.15010800
vt 1.53812300 -2.39336600
vt -0.10000000 6.09397600
vt -0.10000000 5.68771100
vt 1.18185600 -2.58790300
vt 0.80152900 -2.72975800
vt -0.10000000 5.28144600
vt 0.40488600 -2.81604200
vt -0.10000000 4.87518100
vt -0.10000000 4.46891600
vt 0.00000000 -2.84500000
vt -0.40488600 -2.81604200
vt -0.10000000 4.06265000
vt -0.10000000 3.65638500
vt -0.80152900 -2.72975800
vt -1.18185600 -2.58790300
vt -0.10000000 3.25012000
vt -1.53812300 -2.39336600
vt -0.10000000 2.84385500
vt -1.86307900 -2.15010800
vt -0.10000000 2.43759000
vt -2.15010800 -1.86307900
vt -0.10000000 2.03132500
vt -2.39336600 -1.53812300
vt -0.10000000 1.62506000
vt -2.58790300 -1.18185600
vt -0.10000000 1.21879500
vt -2.72975800 -0.80152900
vt -0.10000000 0.81253000
vt -0.10000000 0.40626500
vt -2.81604200 -0.40488600
vt -0.10000000 -0.00000000
vt 2.32894600 0.10000000
vt -2.84500000 -0.00000000
vt -0.00000000 0.16884400
vt -2.84500000 0.16874500
vt 2.16020100 0.10000000
vt -2.85000000 -0.00000000
vt -0.00000000 -0.00000000
vt -0.00000000 -0.27979800
vt -2.83627600 -0.27934900
vt -0.00000000 -0.55959600
vt -2.79523800 -0.55600700
vt -0.00000000 -0.83939400
vt -2.72728000 -0.82731100
vt -0.00000000 -1.11919200
vt -2.63305700 -1.09064800
vt -0.00000000 -1.39899000
vt -2.51347600 -1.34348100
vt -0.00000000 -1.67878900
vt -2.36968800 -1.58337500
vt -2.20308000 -1.80802100
vt -0.00000000 -1.95858700
vt -2.01525400 -2.01525400
vt 0.00000000 -2.23838500
vt 0.00000000 -2.51818300
vt -1.80802100 -2.20308000
vt -1.58337500 -2.36968800
vt 0.00000000 -2.79798100
vt 0.00000000 -3.07777900
vt -1.34348100 -2.51347600
vt 0.00000000 -3.35757700
vt -1.09064800 -2.63305700
vt 0.00000000 -3.63737500
vt -0.82731100 -2.72728000
vt -0.55600700 -2.79523800
vt 0.00000000 -3.91717300
vt 0.00000000 -4.19697100
vt -0.27934900 -2.83627600
vt 0.00000000 -2.85000000
vt 0.00000000 -4.47677000
vt 0.00000000 -4.75656800
vt 0.27934900 -2.83627600
vt 0.55600700 -2.79523800
vt 0.00000000 -5.03636600
vt 0.82731100 -2.72728000
vt 0.00000000 -5.31616400
vt 0.00000000 -5.59596200
vt 1.09064800 -2.63305700
vt 0.00000000 -5.87576000
vt 1.34348100 -2.51347600
vt 0.00000000 -6.15555800
vt 1.58337500 -2.36968800
vt 0.00000000 -6.43535600
vt 1.80802100 -2.20308000
vt 0.00000000 -6.71515400
vt 2.01525400 -2.01525400
vt 2.20308000 -1.80802100
vt -0.00000000 -6.99495200
vt 2.36968800 -1.58337500
vt -0.00000000 -7.27475000
vt -0.00000000 -7.55454900
vt 2.51347600 -1.34348100
vt 0.00000000 -7.83434700
vt 2.63305700 -1.09064800
vt 0.00000000 -8.11414500
vt 2.72728000 -0.82731100
vt 2.79523800 -0.55600700
vt 0.00000000 -8.39394300
vt 2.83627600 -0.27934900
vt 0.00000000 -8.67374100
vt 0.00000000 -8.95353900
vt 2.85000000 0.00000000
vt 0.00000000 8.95353900
vt 2.16020100 -0.00000000
vt 2.84500000 0.01824600
vt -0.10000000 0.16884400
vt 2.79136300 0.42464600
vt -0.10000000 0.57912300
vt 2.67997800 0.81914800
vt -0.10000000 0.98940100
vt 2.51315100 1.19359000
vt -0.10000000 1.39968000
vt -0.10000000 1.80995900
vt 2.29433100 1.54022500
vt -0.10000000 2.22023700
vt 2.02804600 1.85188200
vt -0.10000000 2.63051600
vt 1.71980500 2.12211400
vt -0.10000000 3.04079400
vt 1.37598400 2.34533100
vt -0.10000000 3.45107300
vt 1.00369800 2.51691400
vt -0.10000000 3.86135200
vt 0.61064600 2.63331300
vt 0.20496200 2.69212100
vt -0.10000000 4.27163000
vt -0.20496200 2.69212100
vt -0.10000000 4.68190900
vt -0.10000000 5.09218700
vt -0.61064600 2.63331300
vt -0.10000000 5.50246600
vt -1.00369800 2.51691400
vt -0.10000000 5.91274500
vt -1.37598400 2.34533100
vt -0.10000000 6.32302300
vt -1.71980500 2.12211400
vt -2.02804600 1.85188200
vt -0.10000000 6.73330200
vt -0.10000000 7.14358000
vt -2.29433100 1.54022500
vt -0.10000000 7.55385900
vt -2.51315100 1.19359000
vt -0.10000000 7.96413800
vt -2.67997800 0.81914800
vt -2.79136300 0.42464600
vt -0.10000000 8.37441600
vt -2.84500000 0.01824600
vt 0.16874500 -0.00000000
vt -0.10000000 8.78469500
vt -2.85000000 0.00000000
vt -4.70000000 -8.95353900
vt -4.70000000 8.95353900
vt -2.81962900 0.41496300
vt -4.70000000 8.53709500
vt -4.70000000 8.12065200
vt -2.72916200 0.82108200
vt -4.70000000 7.70420800
vt -2.58052700 1.20970200
vt -4.70000000 7.28776400
vt -2.37689400 1.57253800
vt -2.12260100 1.90185900
vt -4.70000000 6.87132100
vt -1.82306800 2.19064400
vt -4.70000000 6.45487700
vt -1.48468000 2.43274000
vt -4.70000000 6.03843300
vt -1.11464800 2.62298700
vt -4.70000000 5.62199000
vt -0.72086000 2.75732900
vt -4.70000000 5.20554600
vt -4.70000000 4.78910200
vt -0.31170800 2.83290300
vt 0.10408800 2.84809900
vt -4.70000000 4.37265900
vt 0.51766500 2.80259200
vt -4.70000000 3.95621500
vt -4.70000000 3.53977100
vt 0.92020900 2.69735300
vt -4.70000000 3.12332800
vt 1.30314100 2.53462500
vt 1.65829800 2.31787600
vt -4.70000000 2.70688400
vt 1.97811100 2.05172500
vt -4.70000000 2.29044000
vt -4.70000000 1.87399700
vt 2.25576500 1.74184500
vt 2.48534100 1.39484100
vt -4.70000000 1.45755300
vt -4.70000000 1.04110900
vt 2.66194600 1.01810800
vt 2.78181600 0.61967600
vt -4.70000000 0.62466600
vt -4.70000000 0.20822200
vt 2.84239700 0.20803700
vt -4.70000000 -0.20822200
vt 2.84239700 -0.20803700
vt -4.70000000 -0.62466600
vt 2.78181600 -0.61967600
vt 2.66194600 -1.01810800
vt -4.70000000 -1.04110900
vt 2.48534100 -1.39484100
vt -4.70000000 -1.45755300
vt 2.25576500 -1.74184500
vt -4.70000000 -1.87399700
vt -4.70000000 -2.29044000
vt 1.97811100 -2.05172500
vt 1.65829800 -2.31787600
vt -4.70000000 -2.70688400
vt 1.30314100 -2.53462500
vt -4.70000000 -3.12332800
vt -4.70000000 -3.53977100
vt 0.92020900 -2.69735300
vt -4.70000000 -3.95621500
vt 0.51766500 -2.80259200
vt -4.70000000 -4.37265900
vt 0.10408800 -2.84809900
vt -4.70000000 -4.78910200
vt -0.31170800 -2.83290300
vt -4.70000000 -5.20554600
vt -0.72086000 -2.75732900
vt -4.70000000 -5.62199000
vt -1.11464800 -2.62298700
vt -1.48468000 -2.43274000
vt -4.70000000 -6.03843300
vt -4.70000000 -6.45487700
vt -1.82306800 -2.19064400
vt -4.70000000 -6.87132100
vt -2.12260100 -1.90185900
vt -4.70000000 -7.28776400
vt -2.37689400 -1.57253800
vt -4.70000000 -7.70420800
vt -2.58052700 -1.20970200
vt -2.72916200 -0.82108200
vt -4.70000000 -8.12065200
vt -4.70000000 -8.53709500
vt -2.81962900 -0.41496300
vt -0.00000000 0.00000000
vt 2.32894600 -0.00000000
vt -2.84500000 2.17844700
vt 2.32894600 0.31750000
vt 2.84500000 2.17844700
vt -0.31750000 -0.00000000
vt 0.00000000 0.31750000
vt -0.31750000 8.93783100
vt 2.84500000 -0.15049900
vt 0.00000000 0.60188000
vt 2.84500000 2.17844700
vt 0.00000000 0.00000000
vt 0.00000000 0.45141000
vt 2.82111900 2.32635900
vt 2.75190100 2.45924100
vt -0.00000000 0.30094000
vt -0.00000000 0.15047000
vt 2.64438200 2.56358700
vt 0.00000000 5.09012100
vt 0.00000000 -0.00000000
vt 2.50948800 2.62879400
vt 0.00000000 4.36296100
vt 1.80491000 2.80776000
vt 0.00000000 3.63580100
vt 1.08793000 2.92775800
vt -0.00000000 2.90864100
vt 0.36347600 2.98796400
vt 0.00000000 2.18148000
vt -0.36347600 2.98796400
vt -1.08793000 2.92775800
vt -0.00000000 1.45432000
vt 0.00000000 0.72716000
vt -1.80491000 2.80776000
vt 0.00000000 0.00000000
vt -2.50948800 2.62879400
vt 0.00000000 0.60188000
vt -2.64438200 2.56358700
vt -0.00000000 0.45141000
vt -2.75190100 2.45924100
vt 0.00000000 0.30094000
vt 0.00000000 0.15047000
vt -2.82111900 2.32635900
vt 0.31750000 4.66993100
vt -0.31750000 0.09204700
vt -1.54645200 0.73091200
vt -1.58675200 0.68520300
vt -0.31750000 0.03068200
vt -1.64190800 0.65929600
vt -0.31750000 -0.03068200
vt -1.70281800 0.65746700
vt 0.28408200 0.31750000
vt -0.31750000 -0.09204700
vt 1.54645200 0.73091200
vt -0.31750000 -0.09204700
vt 0.31750000 0.92210400
vt 0.31750000 1.23442300
vt 1.36884800 0.98733000
vt 0.31750000 1.54674200
vt 1.14921100 1.20880700
vt 0.89428400 1.38854500
vt 0.31750000 1.85906100
vt 0.31750000 2.17138000
vt 0.61189600 1.52102200
vt 0.31071900 1.60217100
vt 0.31750000 2.48369900
vt -0.00000000 1.62950100
vt 0.31750000 2.79601700
vt 0.31750000 3.10833600
vt -0.31071900 1.60217100
vt -0.61189600 1.52102200
vt 0.31750000 3.42065500
vt -0.89428400 1.38854500
vt 0.31750000 3.73297400
vt -1.14921100 1.20880700
vt 0.31750000 4.04529300
vt -1.36884800 0.98733000
vt 0.31750000 4.35761200
vt 1.70281800 0.65746700
vt 0.10891800 0.31750000
vt -0.31750000 0.09204700
vt 1.64190800 0.65929600
vt -0.31750000 0.03068200
vt 1.58675200 0.68520300
vt -0.31750000 -0.03068200
vt 0.31750000 0.10468300
vt 0.27096000 0.31750000
vt 1.86239900 0.68560500
vt 2.50948800 2.62879400
vt -0.31750000 0.60188000
vt -0.31750000 0.00000000
vt -0.31750000 0.72716000
vt 1.80491000 2.80776000
vt 1.08793000 2.92775800
vt -0.31750000 1.45432000
vt 0.36347600 2.98796400
vt -0.31750000 2.18148000
vt -0.36347600 2.98796400
vt -0.31750000 2.90864100
vt -0.31750000 3.63580100
vt -1.08793000 2.92775800
vt -0.31750000 4.36296100
vt -1.80491000 2.80776000
vt -0.31750000 -0.00000000
vt -2.50948800 2.62879400
vt -0.31750000 5.09012100
vt -2.64438200 2.56358700
vt -0.31750000 0.15047000
vt -0.31750000 0.30094000
vt -2.75190100 2.45924100
vt -0.31750000 0.45141000
vt -2.82111900 2.32635900
vt -0.31750000 0.60188000
vt 0.00000000 0.31750000
vt -2.84500000 2.17844700
vt -2.84500000 -0.15049900
vt 2.32894600 0.31750000
vt -0.31750000 -0.00000000
vt -2.81604200 -0.55538500
vt -0.31750000 0.40626500
vt -2.72975800 -0.95202800
vt -0.31750000 0.81253000
vt -0.31750000 1.21879500
vt -2.58790300 -1.33235500
vt -0.31750000 1.62506000
vt -2.39336600 -1.68862200
vt -0.31750000 2.03132500
vt -2.15010800 -2.01357800
vt -0.31750000 2.43759000
vt -1.86307900 -2.30060700
vt -1.53812300 -2.54386500
vt -0.31750000 2.84385500
vt -0.31750000 3.25012000
vt -1.18185600 -2.73840200
vt -0.80152900 -2.88025700
vt -0.31750000 3.65638500
vt -0.31750000 4.06265000
vt -0.40488600 -2.96654100
vt -0.31750000 4.46891600
vt 0.00000000 -2.99549900
vt -0.31750000 4.87518100
vt 0.40488600 -2.96654100
vt -0.31750000 5.28144600
vt 0.80152900 -2.88025700
vt -0.31750000 5.68771100
vt 1.18185600 -2.73840200
vt -0.31750000 6.09397600
vt 1.53812300 -2.54386500
vt -0.31750000 6.50024100
vt 1.86307900 -2.30060700
vt 2.15010800 -2.01357800
vt -0.31750000 6.90650600
vt 2.39336600 -1.68862200
vt -0.31750000 7.31277100
vt -0.31750000 7.71903600
vt 2.58790300 -1.33235500
vt -0.31750000 8.12530100
vt 2.72975800 -0.95202800
vt 2.81604200 -0.55538500
vt -0.31750000 8.53156600
vt 2.82111900 2.32635900
vt -0.31750000 0.15047000
vt 2.75190100 2.45924100
vt -0.31750000 0.30094000
vt 2.64438200 2.56358700
vt -0.31750000 0.45141000
vt 0.31750000 0.03489400
vt 1.93144300 0.68159000
vt 1.99134700 0.64702400
vt 0.31750000 -0.03489400
vt 0.31750000 4.14795800
vt 0.31750000 -0.10468300
vt 2.02937500 0.58925600
vt 0.31750000 3.78726600
vt 2.12410300 0.24166000
vt 2.15973800 -0.11684700
vt 0.31750000 3.42657400
vt 2.13528900 -0.47628900
vt 0.31750000 3.06588200
vt 0.31750000 2.70519000
vt 2.05143700 -0.82666800
vt 1.91051400 -1.15823700
vt 0.31750000 2.34449800
vt 1.71644100 -1.46176900
vt 0.31750000 1.98380600
vt 1.47461700 -1.72882300
vt 0.31750000 1.62311400
vt 1.19176800 -1.95196800
vt 0.31750000 1.26242200
vt 0.31750000 0.90173000
vt 0.87576500 -2.12499500
vt 0.31750000 0.54103800
vt 0.53539800 -2.24309300
vt 0.31750000 0.18034600
vt 0.18013700 -2.30297500
vt 0.31750000 -0.18034600
vt -0.18013700 -2.30297500
vt -0.53539800 -2.24309300
vt 0.31750000 -0.54103800
vt 0.31750000 -0.90173000
vt -0.87576500 -2.12499500
vt -1.19176800 -1.95196800
vt 0.31750000 -1.26242200
vt 0.31750000 -1.62311400
vt -1.47461700 -1.72882300
vt 0.31750000 -1.98380600
vt -1.71644100 -1.46176900
vt -1.91051400 -1.15823700
vt 0.31750000 -2.34449800
vt -2.05143700 -0.82666800
vt 0.31750000 -2.70519000
vt -2.13528900 -0.47628900
vt 0.31750000 -3.06588200
vt 0.31750000 -3.42657400
vt -2.15973800 -0.11684700
vt -2.12410300 0.24166000
vt 0.31750000 -3.78726600
vt -2.02937500 0.58925600
vt 0.31750000 -4.14795800
vt 0.31750000 0.10468300
vt 0.31750000 0.03489400
vt -1.99134700 0.64702400
vt 0.31750000 -0.03489400
vt -1.93144300 0.68159000
vt 0.31750000 -0.10468300
vt 0.12204000 0.31750000
vt -1.86239900 0.68560500
f 4/4/4 138/138/138 1/1/1
f 1/1/1 138/138/138 70/70/70
f 2/2/2 71/71/71 68/68/68
f 68/68/68 71/71/71 73/73/73
f 68/68/68 73/73/73 67/67/67
f 67/67/67 73/73/73 75/75/75
f 67/67/67 75/75/75 65/65/65
f 65/65/65 75/75/75 77/77/77
f 65/65/65 77/77/77 63/63/63
f 63/63/63 77/77/77 79/79/79
f 63/63/63 79/79/79 60/60/60
f 60/60/60 79/79/79 82/82/82
f 60/60/60 82/82/82 58/58/58
f 58/58/58 82/82/82 84/84/84
f 58/58/58 84/84/84 57/57/57
f 57/57/57 84/84/84 86/86/86
f 57/57/57 86/86/86 55/55/55
f 55/55/55 86/86/86 88/88/88
f 55/55/55 88/88/88 53/53/53
f 53/53/53 88/88/88 89/89/89
f 53/53/53 89/89/89 51/51/51
f 51/51/51 89/89/89 92/92/92
f 51/51/51 92/92/92 49/49/49
f 49/49/49 92/92/92 94/94/94
f 49/49/49 94/94/94 46/46/46
f 46/46/46 94/94/94 95/95/95
f 46/46/46 95/95/95 44/44/44
f 44/44/44 95/95/95 97/97/97
f 44/44/44 97/97/97 43/43/43
f 43/43/43 97/97/97 99/99/99
f 43/43/43 99/99/99 40/40/40
f 40/40/40 99/99/99 101/101/101
f 40/40/40 101/101/101 38/38/38
f 38/38/38 101/101/101 103/103/103
f 38/38/38 103/103/103 37/37/37
f 37/37/37 103/103/103 105/105/105
f 37/37/37 105/105/105 35/35/35
f 35/35/35 105/105/105 107/107/107
f 35/35/35 107/107/107 33/33/33
f 33/33/33 107/107/107 110/110/110
f 33/33/33 110/110/110 30/30/30
f 30/30/30 110/110/110 112/112/112
f 30/30/30 112/112/112 28/28/28
f 28/28/28 112/112/112 114/114/114
f 28/28/28 114/114/114 27/27/27
f 27/27/27 114/114/114 115/115/115
f 27/27/27 115/115/115 25/25/25
f 25/25/25 115/115/115 118/118/118
f 25/25/25 118/118/118 22/22/22
f 22/22/22 118/118/118 120/120/120
f 22/22/22 120/120/120 21/21/21
f 21/21/21 120/120/120 122/122/122
f 21/21/21 122/122/122 18/18/18
f 18/18/18 122/122/122 124/124/124
f 18/18/18 124/124/124 16/16/16
f 16/16/16 124/124/124 125/125/125
f 16/16/16 125/125/125 15/15/15
f 15/15/15 125/125/125 127/127/127
f 15/15/15 127/127/127 13/13/13
f 13/13/13 127/127/127 130/130/130
f 13/13/13 130/130/130 11/11/11
f 11/11/11 130/130/130 131/131/131
f 11/11/11 131/131/131 8/8/8
f 8/8/8 131/131/131 134/134/134
f 8/8/8 134/134/134 7/7/7
f 7/7/7 134/134/134 136/136/136
f 7/7/7 136/136/136 4/4/4
f 4/4/4 136/136/136 138/138/138
f 72/72/72 137/137/137 74/74/74
f 74/74/74 137/137/137 76/76/76
f 76/76/76 137/137/137 135/135/135
f 76/76/76 135/135/135 78/78/78
f 78/78/78 135/135/135 133/133/133
f 78/78/78 133/133/133 80/80/80
f 80/80/80 133/133/133 132/132/132
f 80/80/80 132/132/132 81/81/81
f 81/81/81 132/132/132 83/83/83
f 83/83/83 132/132/132 85/85/85
f 85/85/85 132/132/132 87/87/87
f 87/87/87 132/132/132 90/90/90
f 90/90/90 132/132/132 91/91/91
f 91/91/91 132/132/132 93/93/93
f 93/93/93 132/132/132 96/96/96
f 96/96/96 132/132/132 98/98/98
f 98/98/98 132/132/132 100/100/100
f 100/100/100 132/132/132 129/129/129
f 100/100/100 129/129/129 102/102/102
f 102/102/102 129/129/129 104/104/104
f 104/104/104 129/129/129 106/106/106
f 106/106/106 129/129/129 108/108/108
f 108/108/108 129/129/129 109/109/109
f 109/109/109 129/129/129 111/111/111
f 111/111/111 129/129/129 113/113/113
f 113/113/113 129/129/129 116/116/116
f 116/116/116 129/129/129 128/128/128
f 116/116/116 128/128/128 117/117/117
f 117/117/117 128/128/128 126/126/126
f 117/117/117 126/126/126 119/119/119
f 119/119/119 126/126/126 123/123/123
f 119/119/119 123/123/123 121/121/121
f 142/142/142 147/147/147 140/140/140
f 140/140/140 147/147/147 23/23/23
f 140/140/140 23/23/23 243/243/243
f 243/243/243 23/23/23 20/20/20
f 243/243/243 20/20/20 242/242/242
f 242/242/242 20/20/20 19/19/19
f 242/242/242 19/19/19 240/240/240
f 240/240/240 19/19/19 17/17/17
f 240/240/240 17/17/17 237/237/237
f 237/237/237 17/17/17 14/14/14
f 237/237/237 14/14/14 236/236/236
f 236/236/236 14/14/14 12/12/12
f 236/236/236 12/12/12 233/233/233
f 233/233/233 12/12/12 10/10/10
f 233/233/233 10/10/10 232/232/232
f 232/232/232 10/10/10 229/229/229
f 229/229/229 10/10/10 9/9/9
f 229/229/229 9/9/9 227/227/227
f 227/227/227 9/9/9 6/6/6
f 227/227/227 6/6/6 226/226/226
f 226/226/226 6/6/6 5/5/5
f 226/226/226 5/5/5 224/224/224
f 224/224/224 5/5/5 3/3/3
f 224/224/224 3/3/3 222/222/222
f 222/222/222 3/3/3 69/69/69
f 222/222/222 69/69/69 220/220/220
f 220/220/220 69/69/69 66/66/66
f 220/220/220 66/66/66 218/218/218
f 218/218/218 66/66/66 64/64/64
f 218/218/218 64/64/64 215/215/215
f 215/215/215 64/64/64 62/62/62
f 215/215/215 62/62/62 213/213/213
f 213/213/213 62/62/62 211/211/211
f 211/211/211 62/62/62 61/61/61
f 211/211/211 61/61/61 209/209/209
f 209/209/209 61/61/61 59/59/59
f 209/209/209 59/59/59 208/208/208
f 208/208/208 59/59/59 56/56/56
f 208/208/208 56/56/56 205/205/205
f 205/205/205 56/56/56 54/54/54
f 205/205/205 54/54/54 204/204/204
f 204/204/204 54/54/54 52/52/52
f 204/204/204 52/52/52 201/201/201
f 201/201/201 52/52/52 50/50/50
f 201/201/201 50/50/50 199/199/199
f 199/199/199 50/50/50 193/193/193
f 199/199/199 193/193/193 197/197/197
f 197/197/197 193/193/193 195/195/195
f 142/142/142 145/145/145 147/147/147
f 147/147/147 151/151/151 23/23/23
f 23/23/23 151/151/151 153/153/153
f 23/23/23 153/153/153 24/24/24
f 24/24/24 153/153/153 154/154/154
f 24/24/24 154/154/154 156/156/156
f 24/24/24 156/156/156 26/26/26
f 26/26/26 156/156/156 160/160/160
f 26/26/26 160/160/160 29/29/29
f 29/29/29 160/160/160 162/162/162
f 29/29/29 162/162/162 31/31/31
f 31/31/31 162/162/162 164/164/164
f 31/31/31 164/164/164 32/32/32
f 32/32/32 164/164/164 166/166/166
f 32/32/32 166/166/166 34/34/34
f 34/34/34 166/166/166 168/168/168
f 34/34/34 168/168/168 36/36/36
f 36/36/36 168/168/168 169/169/169
f 36/36/36 169/169/169 171/171/171
f 36/36/36 171/171/171 39/39/39
f 39/39/39 171/171/171 173/173/173
f 39/39/39 173/173/173 41/41/41
f 41/41/41 173/173/173 176/176/176
f 41/41/41 176/176/176 42/42/42
f 42/42/42 176/176/176 178/178/178
f 42/42/42 178/178/178 45/45/45
f 45/45/45 178/178/178 180/180/180
f 45/45/45 180/180/180 47/47/47
f 47/47/47 180/180/180 181/181/181
f 47/47/47 181/181/181 48/48/48
f 48/48/48 181/181/181 184/184/184
f 48/48/48 184/184/184 186/186/186
f 48/48/48 186/186/186 50/50/50
f 50/50/50 186/186/186 189/189/189
f 50/50/50 189/189/189 193/193/193
f 247/247/247 250/250/250 364/364/364
f 364/364/364 250/250/250 361/361/361
f 361/361/361 250/250/250 252/252/252
f 361/361/361 252/252/252 359/359/359
f 359/359/359 252/252/252 253/253/253
f 359/359/359 253/253/253 358/358/358
f 358/358/358 253/253/253 356/356/356
f 356/356/356 253/253/253 255/255/255
f 356/356/356 255/255/255 354/354/354
f 354/354/354 255/255/255 257/257/257
f 354/354/354 257/257/257 351/351/351
f 351/351/351 257/257/257 349/349/349
f 349/349/349 257/257/257 260/260/260
f 349/349/349 260/260/260 348/348/348
f 348/348/348 260/260/260 262/262/262
f 348/348/348 262/262/262 346/346/346
f 346/346/346 262/262/262 263/263/263
f 346/346/346 263/263/263 344/344/344
f 344/344/344 263/263/263 342/342/342
f 342/342/342 263/263/263 266/266/266
f 342/342/342 266/266/266 340/340/340
f 340/340/340 266/266/266 267/267/267
f 340/340/340 267/267/267 337/337/337
f 337/337/337 267/267/267 335/335/335
f 335/335/335 267/267/267 269/269/269
f 335/335/335 269/269/269 334/334/334
f 334/334/334 269/269/269 272/272/272
f 334/334/334 272/272/272 331/331/331
f 331/331/331 272/272/272 330/330/330
f 330/330/330 272/272/272 273/273/273
f 330/330/330 273/273/273 327/327/327
f 327/327/327 273/273/273 276/276/276
f 327/327/327 276/276/276 326/326/326
f 326/326/326 276/276/276 324/324/324
f 324/324/324 276/276/276 277/277/277
f 324/324/324 277/277/277 322/322/322
f 322/322/322 277/277/277 279/279/279
f 322/322/322 279/279/279 319/319/319
f 319/319/319 279/279/279 318/318/318
f 318/318/318 279/279/279 281/281/281
f 318/318/318 281/281/281 315/315/315
f 315/315/315 281/281/281 283/283/283
f 315/315/315 283/283/283 313/313/313
f 313/313/313 283/283/283 285/285/285
f 313/313/313 285/285/285 312/312/312
f 312/312/312 285/285/285 310/310/310
f 310/310/310 285/285/285 287/287/287
f 310/310/310 287/287/287 308/308/308
f 308/308/308 287/287/287 289/289/289
f 308/308/308 289/289/289 306/306/306
f 306/306/306 289/289/289 304/304/304
f 304/304/304 289/289/289 292/292/292
f 304/304/304 292/292/292 302/302/302
f 302/302/302 292/292/292 295/295/295
f 302/302/302 295/295/295 299/299/299
f 299/299/299 295/295/295 297/297/297
f 245/245/245 365/365/365 411/411/411
f 411/411/411 365/365/365 414/414/414
f 411/411/411 414/414/414 416/416/416
f 363/363/363 362/362/362 413/413/413
f 413/413/413 362/362/362 497/497/497
f 497/497/497 362/362/362 360/360/360
f 497/497/497 360/360/360 496/496/496
f 496/496/496 360/360/360 357/357/357
f 496/496/496 357/357/357 355/355/355
f 496/496/496 355/355/355 493/493/493
f 493/493/493 355/355/355 353/353/353
f 493/493/493 353/353/353 491/491/491
f 491/491/491 353/353/353 352/352/352
f 491/491/491 352/352/352 350/350/350
f 491/491/491 350/350/350 489/489/489
f 489/489/489 350/350/350 347/347/347
f 489/489/489 347/347/347 487/487/487
f 487/487/487 347/347/347 345/345/345
f 487/487/487 345/345/345 343/343/343
f 487/487/487 343/343/343 486/486/486
f 486/486/486 343/343/343 341/341/341
f 486/486/486 341/341/341 483/483/483
f 483/483/483 341/341/341 339/339/339
f 483/483/483 339/339/339 338/338/338
f 483/483/483 338/338/338 481/481/481
f 481/481/481 338/338/338 336/336/336
f 481/481/481 336/336/336 479/479/479
f 479/479/479 336/336/336 333/333/333
f 479/479/479 333/333/333 332/332/332
f 479/479/479 332/332/332 477/477/477
f 477/477/477 332/332/332 329/329/329
f 477/477/477 329/329/329 475/475/475
f 475/475/475 329/329/329 328/328/328
f 475/475/475 328/328/328 325/325/325
f 475/475/475 325/325/325 473/473/473
f 473/473/473 325/325/325 323/323/323
f 473/473/473 323/323/323 472/472/472
f 472/472/472 323/323/323 321/321/321
f 472/472/472 321/321/321 320/320/320
f 472/472/472 320/320/320 470/470/470
f 470/470/470 320/320/320 317/317/317
f 470/470/470 317/317/317 467/467/467
f 467/467/467 317/317/317 316/316/316
f 467/467/467 316/316/316 314/314/314
f 467/467/467 314/314/314 466/466/466
f 466/466/466 314/314/314 311/311/311
f 466/466/466 311/311/311 464/464/464
f 464/464/464 311/311/311 309/309/309
f 464/464/464 309/309/309 307/307/307
f 464/464/464 307/307/307 462/462/462
f 462/462/462 307/307/307 305/305/305
f 462/462/462 305/305/305 459/459/459
f 459/459/459 305/305/305 303/303/303
f 459/459/459 303/303/303 301/301/301
f 459/459/459 301/301/301 457/457/457
f 457/457/457 301/301/301 300/300/300
f 457/457/457 300/300/300 455/455/455
f 455/455/455 300/300/300 368/368/368
f 455/455/455 368/368/368 370/370/370
f 300/300/300 296/296/296 368/368/368
f 455/455/455 370/370/370 454/454/454
f 454/454/454 370/370/370 372/372/372
f 454/454/454 372/372/372 451/451/451
f 451/451/451 372/372/372 374/374/374
f 451/451/451 374/374/374 450/450/450
f 450/450/450 374/374/374 375/375/375
f 450/450/450 375/375/375 447/447/447
f 447/447/447 375/375/375 377/377/377
f 447/447/447 377/377/377 446/446/446
f 446/446/446 377/377/377 379/379/379
f 446/446/446 379/379/379 444/444/444
f 444/444/444 379/379/379 381/381/381
f 444/444/444 381/381/381 441/441/441
f 441/441/441 381/381/381 383/383/383
f 441/441/441 383/383/383 439/439/439
f 439/439/439 383/383/383 385/385/385
f 439/439/439 385/385/385 438/438/438
f 438/438/438 385/385/385 388/388/388
f 438/438/438 388/388/388 436/436/436
f 436/436/436 388/388/388 390/390/390
f 436/436/436 390/390/390 433/433/433
f 433/433/433 390/390/390 391/391/391
f 433/433/433 391/391/391 432/432/432
f 432/432/432 391/391/391 393/393/393
f 432/432/432 393/393/393 430/430/430
f 430/430/430 393/393/393 395/395/395
f 430/430/430 395/395/395 428/428/428
f 428/428/428 395/395/395 397/397/397
f 428/428/428 397/397/397 426/426/426
f 426/426/426 397/397/397 400/400/400
f 426/426/426 400/400/400 424/424/424
f 424/424/424 400/400/400 401/401/401
f 424/424/424 401/401/401 421/421/421
f 421/421/421 401/401/401 403/403/403
f 421/421/421 403/403/403 419/419/419
f 419/419/419 403/403/403 405/405/405
f 419/419/419 405/405/405 417/417/417
f 417/417/417 405/405/405 408/408/408
f 417/417/417 408/408/408 416/416/416
f 416/416/416 408/408/408 411/411/411
f 412/412/412 498/498/498 415/415/415
f 415/415/415 498/498/498 418/418/418
f 418/418/418 498/498/498 495/495/495
f 418/418/418 495/495/495 420/420/420
f 420/420/420 495/495/495 422/422/422
f 422/422/422 495/495/495 423/423/423
f 423/423/423 495/495/495 494/494/494
f 423/423/423 494/494/494 425/425/425
f 425/425/425 494/494/494 427/427/427
f 427/427/427 494/494/494 429/429/429
f 429/429/429 494/494/494 431/431/431
f 431/431/431 494/494/494 434/434/434
f 434/434/434 494/494/494 435/435/435
f 435/435/435 494/494/494 437/437/437
f 437/437/437 494/494/494 440/440/440
f 440/440/440 494/494/494 442/442/442
f 442/442/442 494/494/494 443/443/443
f 443/443/443 494/494/494 445/445/445
f 445/445/445 494/494/494 448/448/448
f 448/448/448 494/494/494 449/449/449
f 449/449/449 494/494/494 452/452/452
f 452/452/452 494/494/494 453/453/453
f 453/453/453 494/494/494 456/456/456
f 456/456/456 494/494/494 458/458/458
f 458/458/458 494/494/494 460/460/460
f 460/460/460 494/494/494 461/461/461
f 461/461/461 494/494/494 463/463/463
f 463/463/463 494/494/494 492/492/492
f 463/463/463 492/492/492 465/465/465
f 465/465/465 492/492/492 490/490/490
f 465/465/465 490/490/490 468/468/468
f 468/468/468 490/490/490 488/488/488
f 468/468/468 488/488/488 469/469/469
f 469/469/469 488/488/488 485/485/485
f 469/469/469 485/485/485 471/471/471
f 471/471/471 485/485/485 484/484/484
f 471/471/471 484/484/484 474/474/474
f 474/474/474 484/484/484 482/482/482
f 474/474/474 482/482/482 476/476/476
f 476/476/476 482/482/482 480/480/480
f 476/476/476 480/480/480 478/478/478
f 249/249/249 246/246/246 505/505/505
f 505/505/505 246/246/246 502/502/502
f 502/502/502 246/246/246 500/500/500
f 500/500/500 246/246/246 410/410/410
f 409/409/409 407/407/407 501/501/501
f 501/501/501 407/407/407 406/406/406
f 501/501/501 406/406/406 404/404/404
f 404/404/404 402/402/402 501/501/501
f 501/501/501 402/402/402 399/399/399
f 501/501/501 399/399/399 398/398/398
f 396/396/396 533/533/533 398/398/398
f 398/398/398 533/533/533 535/535/535
f 398/398/398 535/535/535 537/537/537
f 533/533/533 396/396/396 531/531/531
f 531/531/531 396/396/396 394/394/394
f 531/531/531 394/394/394 528/528/528
f 528/528/528 394/394/394 392/392/392
f 528/528/528 392/392/392 527/527/527
f 527/527/527 392/392/392 389/389/389
f 527/527/527 389/389/389 387/387/387
f 527/527/527 387/387/387 525/525/525
f 525/525/525 387/387/387 386/386/386
f 525/525/525 386/386/386 523/523/523
f 523/523/523 386/386/386 384/384/384
f 523/523/523 384/384/384 521/521/521
f 521/521/521 384/384/384 382/382/382
f 521/521/521 382/382/382 519/519/519
f 519/519/519 382/382/382 380/380/380
f 519/519/519 380/380/380 516/516/516
f 516/516/516 380/380/380 513/513/513
f 513/513/513 380/380/380 512/512/512
f 512/512/512 380/380/380 509/509/509
f 509/509/509 380/380/380 378/378/378
f 509/509/509 378/378/378 376/376/376
f 376/376/376 373/373/373 509/509/509
f 509/509/509 373/373/373 371/371/371
f 509/509/509 371/371/371 369/369/369
f 369/369/369 367/367/367 509/509/509
f 537/537/537 540/540/540 398/398/398
f 398/398/398 540/540/540 501/501/501
f 550/550/550 190/190/190 547/547/547
f 547/547/547 190/190/190 187/187/187
f 547/547/547 187/187/187 545/545/545
f 545/545/545 187/187/187 185/185/185
f 545/545/545 185/185/185 542/542/542
f 542/542/542 185/185/185 183/183/183
f 541/541/541 182/182/182 575/575/575
f 575/575/575 182/182/182 179/179/179
f 575/575/575 179/179/179 573/573/573
f 573/573/573 179/179/179 177/177/177
f 573/573/573 177/177/177 571/571/571
f 571/571/571 177/177/177 175/175/175
f 571/571/571 175/175/175 569/569/569
f 569/569/569 175/175/175 174/174/174
f 569/569/569 174/174/174 566/566/566
f 566/566/566 174/174/174 172/172/172
f 566/566/566 172/172/172 565/565/565
f 565/565/565 172/172/172 170/170/170
f 565/565/565 170/170/170 563/563/563
f 563/563/563 170/170/170 167/167/167
f 563/563/563 167/167/167 560/560/560
f 560/560/560 167/167/167 165/165/165
f 560/560/560 165/165/165 559/559/559
f 559/559/559 165/165/165 163/163/163
f 559/559/559 163/163/163 556/556/556
f 556/556/556 163/163/163 161/161/161
f 556/556/556 161/161/161 554/554/554
f 554/554/554 161/161/161 159/159/159
f 554/554/554 159/159/159 553/553/553
f 553/553/553 159/159/159 157/157/157
f 552/552/552 158/158/158 582/582/582
f 582/582/582 158/158/158 155/155/155
f 582/582/582 155/155/155 580/580/580
f 580/580/580 155/155/155 152/152/152
f 580/580/580 152/152/152 578/578/578
f 578/578/578 152/152/152 150/150/150
f 149/149/149 148/148/148 577/577/577
f 577/577/577 148/148/148 584/584/584
f 590/590/590 555/555/555 586/586/586
f 586/586/586 555/555/555 503/503/503
f 586/586/586 503/503/503 662/662/662
f 662/662/662 503/503/503 660/660/660
f 660/660/660 503/503/503 658/658/658
f 591/591/591 558/558/558 590/590/590
f 590/590/590 558/558/558 557/557/557
f 590/590/590 557/557/557 555/555/555
f 558/558/558 591/591/591 561/561/561
f 561/561/561 591/591/591 593/593/593
f 561/561/561 593/593/593 562/562/562
f 562/562/562 593/593/593 564/564/564
f 564/564/564 593/593/593 595/595/595
f 564/564/564 595/595/595 567/567/567
f 567/567/567 595/595/595 568/568/568
f 568/568/568 595/595/595 598/598/598
f 568/568/568 598/598/598 570/570/570
f 570/570/570 598/598/598 600/600/600
f 570/570/570 600/600/600 572/572/572
f 572/572/572 600/600/600 574/574/574
f 574/574/574 600/600/600 602/602/602
f 574/574/574 602/602/602 612/612/612
f 612/612/612 602/602/602 604/604/604
f 612/612/612 604/604/604 607/607/607
f 607/607/607 609/609/609 612/612/612
f 613/613/613 715/715/715 612/612/612
f 612/612/612 715/715/715 719/719/719
f 612/612/612 719/719/719 721/721/721
f 616/616/616 709/709/709 613/613/613
f 613/613/613 709/709/709 712/712/712
f 613/613/613 712/712/712 713/713/713
f 616/616/616 618/618/618 709/709/709
f 709/709/709 618/618/618 707/707/707
f 707/707/707 618/618/618 621/621/621
f 707/707/707 621/621/621 705/705/705
f 705/705/705 621/621/621 623/623/623
f 705/705/705 623/623/623 704/704/704
f 704/704/704 623/623/623 625/625/625
f 704/704/704 625/625/625 702/702/702
f 702/702/702 625/625/625 627/627/627
f 702/702/702 627/627/627 699/699/699
f 699/699/699 627/627/627 628/628/628
f 699/699/699 628/628/628 631/631/631
f 699/699/699 631/631/631 698/698/698
f 698/698/698 631/631/631 632/632/632
f 698/698/698 632/632/632 695/695/695
f 695/695/695 632/632/632 635/635/635
f 695/695/695 635/635/635 694/694/694
f 694/694/694 635/635/635 637/637/637
f 694/694/694 637/637/637 692/692/692
f 692/692/692 637/637/637 639/639/639
f 692/692/692 639/639/639 690/690/690
f 690/690/690 639/639/639 641/641/641
f 690/690/690 641/641/641 688/688/688
f 688/688/688 641/641/641 643/643/643
f 688/688/688 643/643/643 685/685/685
f 685/685/685 643/643/643 645/645/645
f 685/685/685 645/645/645 647/647/647
f 685/685/685 647/647/647 683/683/683
f 683/683/683 647/647/647 648/648/648
f 683/683/683 648/648/648 681/681/681
f 681/681/681 648/648/648 650/650/650
f 681/681/681 650/650/650 679/679/679
f 679/679/679 650/650/650 653/653/653
f 679/679/679 653/653/653 678/678/678
f 678/678/678 653/653/653 655/655/655
f 678/678/678 655/655/655 675/675/675
f 675/675/675 655/655/655 656/656/656
f 675/675/675 656/656/656 507/507/507
f 503/503/503 670/670/670 507/507/507
f 507/507/507 670/670/670 672/672/672
f 507/507/507 672/672/672 673/673/673
f 581/581/581 579/579/579 551/551/551
f 551/551/551 579/579/579 576/576/576
f 551/551/551 576/576/576 585/585/585
f 551/551/551 585/585/585 555/555/555
f 555/555/555 585/585/585 665/665/665
f 555/555/555 665/665/665 503/503/503
f 503/503/503 665/665/665 666/666/666
f 503/503/503 666/666/666 670/670/670
f 673/673/673 675/675/675 507/507/507
f 713/713/713 715/715/715 613/613/613
f 612/612/612 721/721/721 574/574/574
f 574/574/574 721/721/721 724/724/724
f 574/574/574 724/724/724 543/543/543
f 543/543/543 724/724/724 548/548/548
f 543/543/543 548/548/548 546/546/546
f 546/546/546 544/544/544 543/543/543
f 583/583/583 146/146/146 664/664/664
f 664/664/664 146/146/146 144/144/144
f 664/664/664 144/144/144 667/667/667
f 667/667/667 144/144/144 143/143/143
f 667/667/667 143/143/143 669/669/669
f 669/669/669 143/143/143 139/139/139
f 668/668/668 141/141/141 671/671/671
f 671/671/671 141/141/141 244/244/244
f 671/671/671 244/244/244 674/674/674
f 674/674/674 244/244/244 241/241/241
f 674/674/674 241/241/241 676/676/676
f 676/676/676 241/241/241 239/239/239
f 676/676/676 239/239/239 677/677/677
f 677/677/677 239/239/239 238/238/238
f 677/677/677 238/238/238 680/680/680
f 680/680/680 238/238/238 235/235/235
f 680/680/680 235/235/235 682/682/682
f 682/682/682 235/235/235 234/234/234
f 682/682/682 234/234/234 684/684/684
f 684/684/684 234/234/234 231/231/231
f 684/684/684 231/231/231 686/686/686
f 686/686/686 231/231/231 230/230/230
f 686/686/686 230/230/230 687/687/687
f 687/687/687 230/230/230 228/228/228
f 687/687/687 228/228/228 689/689/689
f 689/689/689 228/228/228 225/225/225
f 689/689/689 225/225/225 691/691/691
f 691/691/691 225/225/225 223/223/223
f 691/691/691 223/223/223 693/693/693
f 693/693/693 223/223/223 221/221/221
f 693/693/693 221/221/221 696/696/696
f 696/696/696 221/221/221 219/219/219
f 696/696/696 219/219/219 697/697/697
f 697/697/697 219/219/219 217/217/217
f 697/697/697 217/217/217 700/700/700
f 700/700/700 217/217/217 216/216/216
f 700/700/700 216/216/216 701/701/701
f 701/701/701 216/216/216 214/214/214
f 701/701/701 214/214/214 703/703/703
f 703/703/703 214/214/214 212/212/212
f 703/703/703 212/212/212 706/706/706
f 706/706/706 212/212/212 210/210/210
f 706/706/706 210/210/210 708/708/708
f 708/708/708 210/210/210 207/207/207
f 708/708/708 207/207/207 710/710/710
f 710/710/710 207/207/207 206/206/206
f 710/710/710 206/206/206 711/711/711
f 711/711/711 206/206/206 203/203/203
f 711/711/711 203/203/203 714/714/714
f 714/714/714 203/203/203 202/202/202
f 714/714/714 202/202/202 716/716/716
f 716/716/716 202/202/202 198/198/198
f 717/717/717 200/200/200 718/718/718
f 718/718/718 200/200/200 196/196/196
f 718/718/718 196/196/196 720/720/720
f 720/720/720 196/196/196 194/194/194
f 720/720/720 194/194/194 722/722/722
f 722/722/722 194/194/194 191/191/191
f 192/192/192 188/188/188 723/723/723
f 723/723/723 188/188/188 549/549/549
f 504/504/504 499/499/499 659/659/659
f 659/659/659 499/499/499 539/539/539
f 659/659/659 539/539/539 661/661/661
f 661/661/661 539/539/539 538/538/538
f 661/661/661 538/538/538 663/663/663
f 663/663/663 538/538/538 536/536/536
f 663/663/663 536/536/536 587/587/587
f 587/587/587 536/536/536 534/534/534
f 615/615/615 293/293/293 617/617/617
f 617/617/617 293/293/293 291/291/291
f 617/617/617 291/291/291 619/619/619
f 619/619/619 291/291/291 290/290/290
f 619/619/619 290/290/290 620/620/620
f 620/620/620 290/290/290 288/288/288
f 620/620/620 288/288/288 622/622/622
f 622/622/622 288/288/288 286/286/286
f 622/622/622 286/286/286 624/624/624
f 624/624/624 286/286/286 284/284/284
f 624/624/624 284/284/284 626/626/626
f 626/626/626 284/284/284 282/282/282
f 626/626/626 282/282/282 629/629/629
f 629/629/629 282/282/282 280/280/280
f 629/629/629 280/280/280 630/630/630
f 630/630/630 280/280/280 278/278/278
f 630/630/630 278/278/278 633/633/633
f 633/633/633 278/278/278 275/275/275
f 633/633/633 275/275/275 634/634/634
f 634/634/634 275/275/275 274/274/274
f 634/634/634 274/274/274 636/636/636
f 636/636/636 274/274/274 271/271/271
f 636/636/636 271/271/271 638/638/638
f 638/638/638 271/271/271 270/270/270
f 638/638/638 270/270/270 640/640/640
f 640/640/640 270/270/270 268/268/268
f 640/640/640 268/268/268 642/642/642
f 642/642/642 268/268/268 265/265/265
f 642/642/642 265/265/265 644/644/644
f 644/644/644 265/265/265 264/264/264
f 644/644/644 264/264/264 646/646/646
f 646/646/646 264/264/264 261/261/261
f 646/646/646 261/261/261 649/649/649
f 649/649/649 261/261/261 259/259/259
f 649/649/649 259/259/259 651/651/651
f 651/651/651 259/259/259 258/258/258
f 651/651/651 258/258/258 652/652/652
f 652/652/652 258/258/258 256/256/256
f 652/652/652 256/256/256 654/654/654
f 654/654/654 256/256/256 254/254/254
f 654/654/654 254/254/254 657/657/657
f 657/657/657 254/254/254 251/251/251
f 657/657/657 251/251/251 506/506/506
f 506/506/506 251/251/251 248/248/248
f 294/294/294 614/614/614 298/298/298
f 298/298/298 614/614/614 611/611/611
f 298/298/298 611/611/611 510/510/510
f 510/510/510 366/366/366 298/298/298
f 601/601/601 518/518/518 605/605/605
f 605/605/605 518/518/518 515/515/515
f 605/605/605 515/515/515 606/606/606
f 606/606/606 515/515/515 514/514/514
f 606/606/606 514/514/514 608/608/608
f 608/608/608 514/514/514 511/511/511
f 608/608/608 511/511/511 610/610/610
f 610/610/610 511/511/511 508/508/508
f 588/588/588 532/532/532 589/589/589
f 589/589/589 532/532/532 530/530/530
f 589/589/589 530/530/530 592/592/592
f 592/592/592 530/530/530 529/529/529
f 592/592/592 529/529/529 594/594/594
f 594/594/594 529/529/529 526/526/526
f 594/594/594 526/526/526 596/596/596
f 596/596/596 526/526/526 524/524/524
f 596/596/596 524/524/524 597/597/597
f 597/597/597 524/524/524 522/522/522
f 597/597/597 522/522/522 599/599/599
f 599/599/599 522/522/522 520/520/520
f 599/599/599 520/520/520 603/603/603
f 603/603/603 520/520/520 517/517/517

