mtllib material.mtl
usemtl Opaque(245,245,246)
v 0.02347500 -0.00000000 -0.02325000
v 0.02347500 -0.00000000 -0.02325000
v 0.02347500 -0.00000000 -0.02325000
v 0.02347500 -0.00249100 -0.02342800
v 0.02347500 -0.00249100 -0.02342800
v 0.02347500 -0.00493000 -0.02395900
v 0.02347500 -0.00493000 -0.02395900
v 0.02347500 -0.00727000 -0.02483100
v 0.02347500 -0.00727000 -0.02483100
v 0.02347500 -0.00946100 -0.02602800
v 0.02347500 -0.00946100 -0.02602800
v 0.02347500 -0.01146000 -0.02752400
v 0.02347500 -0.01146000 -0.02752400
v 0.02347500 -0.01322600 -0.02929000
v 0.02347500 -0.01322600 -0.02929000
v 0.02347500 -0.01472200 -0.03128900
v 0.02347500 -0.01472200 -0.03128900
v 0.02347500 -0.01591900 -0.03348000
v 0.02347500 -0.01591900 -0.03348000
v 0.02347500 -0.01679100 -0.03582000
v 0.02347500 -0.01679100 -0.03582000
v 0.02347500 -0.01732200 -0.03825900
v 0.02347500 -0.01732200 -0.03825900
v 0.02347500 -0.01750000 -0.04075000
v 0.02347500 -0.01750000 -0.04075000
v 0.02347500 -0.01732200 -0.04324100
v 0.02347500 -0.01732200 -0.04324100
v 0.02347500 -0.01679100 -0.04568000
v 0.02347500 -0.01679100 -0.04568000
v 0.02347500 -0.01591900 -0.04802000
v 0.02347500 -0.01591900 -0.04802000
v 0.02347500 -0.01472200 -0.05021100
v 0.02347500 -0.01472200 -0.05021100
v 0.02347500 -0.01322600 -0.05221000
v 0.02347500 -0.01322600 -0.05221000
v 0.02347500 -0.01146000 -0.05397600
v 0.02347500 -0.01146000 -0.05397600
v 0.02347500 -0.00946100 -0.05547200
v 0.02347500 -0.00946100 -0.05547200
v 0.02347500 -0.00727000 -0.05666900
v 0.02347500 -0.00727000 -0.05666900
v 0.02347500 -0.00493000 -0.05754100
v 0.02347500 -0.00493000 -0.05754100
v 0.02347500 -0.00249100 -0.05807200
v 0.02347500 -0.00249100 -0.05807200
v 0.02347500 -0.00000000 -0.05825000
v 0.02347500 -0.00000000 -0.05825000
v 0.02347500 0.00249100 -0.05807200
v 0.02347500 0.00249100 -0.05807200
v 0.02347500 0.00493000 -0.05754100
v 0.02347500 0.00493000 -0.05754100
v 0.02347500 0.00727000 -0.05666900
v 0.02347500 0.00727000 -0.05666900
v 0.02347500 0.00946100 -0.05547200
v 0.02347500 0.00946100 -0.05547200
v 0.02347500 0.01146000 -0.05397600
v 0.02347500 0.01146000 -0.05397600
v 0.02347500 0.01322600 -0.05221000
v 0.02347500 0.01322600 -0.05221000
v 0.02347500 0.01472200 -0.05021100
v 0.02347500 0.01472200 -0.05021100
v 0.02347500 0.01591900 -0.04802000
v 0.02347500 0.01591900 -0.04802000
v 0.02347500 0.01679100 -0.04568000
v 0.02347500 0.01679100 -0.04568000
v 0.02347500 0.01732200 -0.04324100
v 0.02347500 0.01732200 -0.04324100
v 0.02347500 0.01750000 -0.04075000
v 0.02347500 0.01750000 -0.04075000
v 0.02347500 0.01732200 -0.03825900
v 0.02347500 0.01732200 -0.03825900
v 0.02347500 0.01679100 -0.03582000
v 0.02347500 0.01679100 -0.03582000
v 0.02347500 0.01591900 -0.03348000
v 0.02347500 0.01591900 -0.03348000
v 0.02347500 0.01472200 -0.03128900
v 0.02347500 0.01472200 -0.03128900
v 0.02347500 0.01322600 -0.02929000
v 0.02347500 0.01322600 -0.02929000
v 0.02347500 0.01146000 -0.02752400
v 0.02347500 0.01146000 -0.02752400
v 0.02347500 0.00946100 -0.02602800
v 0.02347500 0.00946100 -0.02602800
v 0.02347500 0.00727000 -0.02483100
v 0.02347500 0.00727000 -0.02483100
v 0.02347500 0.00493000 -0.02395900
v 0.02347500 0.00493000 -0.02395900
v 0.02347500 0.00249100 -0.02342800
v 0.02347500 0.00249100 -0.02342800
v 0.02947500 -0.00000000 -0.02325000
v 0.02947500 -0.00000000 -0.02325000
v 0.02947500 -0.00000000 -0.02325000
v 0.02947500 0.00249100 -0.02342800
v 0.02947500 0.00249100 -0.02342800
v 0.02947500 0.00493000 -0.02395900
v 0.02947500 0.00493000 -0.02395900
v 0.02947500 0.00727000 -0.02483100
v 0.02947500 0.00727000 -0.02483100
v 0.02947500 0.00946100 -0.02602800
v 0.02947500 0.00946100 -0.02602800
v 0.02947500 0.01146000 -0.02752400
v 0.02947500 0.01146000 -0.02752400
v 0.02947500 0.01322600 -0.02929000
v 0.02947500 0.01322600 -0.02929000
v 0.02947500 0.01472200 -0.03128900
v 0.02947500 0.01472200 -0.03128900
v 0.02947500 0.01591900 -0.03348000
v 0.02947500 0.01591900 -0.03348000
v 0.02947500 0.01679100 -0.03582000
v 0.02947500 0.01679100 -0.03582000
v 0.02947500 0.01732200 -0.03825900
v 0.02947500 0.01732200 -0.03825900
v 0.02947500 0.01750000 -0.04075000
v 0.02947500 0.01750000 -0.04075000
v 0.02947500 0.01732200 -0.04324100
v 0.02947500 0.01732200 -0.04324100
v 0.02947500 0.01679100 -0.04568000
v 0.02947500 0.01679100 -0.04568000
v 0.02947500 0.01591900 -0.04802000
v 0.02947500 0.01591900 -0.04802000
v 0.02947500 0.01472200 -0.05021100
v 0.02947500 0.01472200 -0.05021100
v 0.02947500 0.01322600 -0.05221000
v 0.02947500 0.01322600 -0.05221000
v 0.02947500 0.01146000 -0.05397600
v 0.02947500 0.01146000 -0.05397600
v 0.02947500 0.00946100 -0.05547200
v 0.02947500 0.00946100 -0.05547200
v 0.02947500 0.00727000 -0.05666900
v 0.02947500 0.00727000 -0.05666900
v 0.02947500 0.00493000 -0.05754100
v 0.02947500 0.00493000 -0.05754100
v 0.02947500 0.00249100 -0.05807200
v 0.02947500 0.00249100 -0.05807200
v 0.02947500 -0.00000000 -0.05825000
v 0.02947500 -0.00000000 -0.05825000
v 0.02947500 -0.00249100 -0.05807200
v 0.02947500 -0.00249100 -0.05807200
v 0.02947500 -0.00493000 -0.05754100
v 0.02947500 -0.00493000 -0.05754100
v 0.02947500 -0.00727000 -0.05666900
v 0.02947500 -0.00727000 -0.05666900
v 0.02947500 -0.00946100 -0.05547200
v 0.02947500 -0.00946100 -0.05547200
v 0.02947500 -0.01146000 -0.05397600
v 0.02947500 -0.01146000 -0.05397600
v 0.02947500 -0.01322600 -0.05221000
v 0.02947500 -0.01322600 -0.05221000
v 0.02947500 -0.01472200 -0.05021100
v 0.02947500 -0.01472200 -0.05021100
v 0.02947500 -0.01591900 -0.04802000
v 0.02947500 -0.01591900 -0.04802000
v 0.02947500 -0.01679100 -0.04568000
v 0.02947500 -0.01679100 -0.04568000
v 0.02947500 -0.01732200 -0.04324100
v 0.02947500 -0.01732200 -0.04324100
v 0.02947500 -0.01750000 -0.04075000
v 0.02947500 -0.01750000 -0.04075000
v 0.02947500 -0.01732200 -0.03825900
v 0.02947500 -0.01732200 -0.03825900
v 0.02947500 -0.01679100 -0.03582000
v 0.02947500 -0.01679100 -0.03582000
v 0.02947500 -0.01591900 -0.03348000
v 0.02947500 -0.01591900 -0.03348000
v 0.02947500 -0.01472200 -0.03128900
v 0.02947500 -0.01472200 -0.03128900
v 0.02947500 -0.01322600 -0.02929000
v 0.02947500 -0.01322600 -0.02929000
v 0.02947500 -0.01146000 -0.02752400
v 0.02947500 -0.01146000 -0.02752400
v 0.02947500 -0.00946100 -0.02602800
v 0.02947500 -0.00946100 -0.02602800
v 0.02947500 -0.00727000 -0.02483100
v 0.02947500 -0.00727000 -0.02483100
v 0.02947500 -0.00493000 -0.02395900
v 0.02947500 -0.00493000 -0.02395900
v 0.02947500 -0.00249100 -0.02342800
v 0.02947500 -0.00249100 -0.02342800
v -0.02540000 -0.00000000 -0.01225000
v -0.02540000 -0.00000000 -0.01225000
v -0.02540000 -0.00000000 -0.01225000
v -0.02540000 -0.00319100 -0.01242900
v -0.02540000 -0.00319100 -0.01242900
v -0.02540000 -0.00634200 -0.01296500
v -0.02540000 -0.00634200 -0.01296500
v -0.02540000 -0.00941300 -0.01384900
v -0.02540000 -0.00941300 -0.01384900
v -0.02540000 -0.01236600 -0.01507200
v -0.02540000 -0.01236600 -0.01507200
v -0.02540000 -0.01516300 -0.01661800
v -0.02540000 -0.01516300 -0.01661800
v -0.02540000 -0.01776900 -0.01846800
v -0.02540000 -0.01776900 -0.01846800
v -0.02540000 -0.02015300 -0.02059700
v -0.02540000 -0.02015300 -0.02059700
v -0.02540000 -0.02228200 -0.02298100
v -0.02540000 -0.02228200 -0.02298100
v -0.02540000 -0.02413200 -0.02558700
v -0.02540000 -0.02413200 -0.02558700
v -0.02540000 -0.02567800 -0.02838400
v -0.02540000 -0.02567800 -0.02838400
v -0.02540000 -0.02690100 -0.03133700
v -0.02540000 -0.02690100 -0.03133700
v -0.02540000 -0.02778500 -0.03440800
v -0.02540000 -0.02778500 -0.03440800
v -0.02540000 -0.02832100 -0.03755900
v -0.02540000 -0.02832100 -0.03755900
v -0.02540000 -0.02850000 -0.04075000
v -0.02540000 -0.02850000 -0.04075000
v -0.02540000 -0.02832100 -0.04394100
v -0.02540000 -0.02832100 -0.04394100
v -0.02540000 -0.02778500 -0.04709200
v -0.02540000 -0.02778500 -0.04709200
v -0.02540000 -0.02690100 -0.05016300
v -0.02540000 -0.02690100 -0.05016300
v -0.02540000 -0.02567800 -0.05311600
v -0.02540000 -0.02567800 -0.05311600
v -0.02540000 -0.02413200 -0.05591300
v -0.02540000 -0.02413200 -0.05591300
v -0.02540000 -0.02228200 -0.05851900
v -0.02540000 -0.02228200 -0.05851900
v -0.02540000 -0.02015300 -0.06090300
v -0.02540000 -0.02015300 -0.06090300
v -0.02540000 -0.01776900 -0.06303200
v -0.02540000 -0.01776900 -0.06303200
v -0.02540000 -0.01516300 -0.06488200
v -0.02540000 -0.01516300 -0.06488200
v -0.02540000 -0.01236600 -0.06642800
v -0.02540000 -0.01236600 -0.06642800
v -0.02540000 -0.00941300 -0.06765100
v -0.02540000 -0.00941300 -0.06765100
v -0.02540000 -0.00634200 -0.06853500
v -0.02540000 -0.00634200 -0.06853500
v -0.02540000 -0.00319100 -0.06907100
v -0.02540000 -0.00319100 -0.06907100
v -0.02540000 -0.00000000 -0.06925000
v -0.02540000 -0.00000000 -0.06925000
v -0.02540000 0.00319100 -0.06907100
v -0.02540000 0.00319100 -0.06907100
v -0.02540000 0.00634200 -0.06853500
v -0.02540000 0.00634200 -0.06853500
v -0.02540000 0.00941300 -0.06765100
v -0.02540000 0.00941300 -0.06765100
v -0.02540000 0.01236600 -0.06642800
v -0.02540000 0.01236600 -0.06642800
v -0.02540000 0.01516300 -0.06488200
v -0.02540000 0.01516300 -0.06488200
v -0.02540000 0.01776900 -0.06303200
v -0.02540000 0.01776900 -0.06303200
v -0.02540000 0.02015300 -0.06090300
v -0.02540000 0.02015300 -0.06090300
v -0.02540000 0.02228200 -0.05851900
v -0.02540000 0.02228200 -0.05851900
v -0.02540000 0.02413200 -0.05591300
v -0.02540000 0.02413200 -0.05591300
v -0.02540000 0.02567800 -0.05311600
v -0.02540000 0.02567800 -0.05311600
v -0.02540000 0.02690100 -0.05016300
v -0.02540000 0.02690100 -0.05016300
v -0.02540000 0.02778500 -0.04709200
v -0.02540000 0.02778500 -0.04709200
v -0.02540000 0.02832100 -0.04394100
v -0.02540000 0.02832100 -0.04394100
v -0.02540000 0.02850000 -0.04075000
v -0.02540000 0.02850000 -0.04075000
v -0.02540000 0.02832100 -0.03755900
v -0.02540000 0.02832100 -0.03755900
v -0.02540000 0.02778500 -0.03440800
v -0.02540000 0.02778500 -0.03440800
v -0.02540000 0.02690100 -0.03133700
v -0.02540000 0.02690100 -0.03133700
v -0.02540000 0.02567800 -0.02838400
v -0.02540000 0.02567800 -0.02838400
v -0.02540000 0.02413200 -0.02558700
v -0.02540000 0.02413200 -0.02558700
v -0.02540000 0.02228200 -0.02298100
v -0.02540000 0.02228200 -0.02298100
v -0.02540000 0.02015300 -0.02059700
v -0.02540000 0.02015300 -0.02059700
v -0.02540000 0.01776900 -0.01846800
v -0.02540000 0.01776900 -0.01846800
v -0.02540000 0.01516300 -0.01661800
v -0.02540000 0.01516300 -0.01661800
v -0.02540000 0.01236600 -0.01507200
v -0.02540000 0.01236600 -0.01507200
v -0.02540000 0.00941300 -0.01384900
v -0.02540000 0.00941300 -0.01384900
v -0.02540000 0.00634200 -0.01296500
v -0.02540000 0.00634200 -0.01296500
v -0.02540000 0.00319100 -0.01242900
v -0.02540000 0.00319100 -0.01242900
v 0.02347500 -0.00000000 -0.01225000
v 0.02347500 -0.00000000 -0.01225000
v 0.02347500 -0.00000000 -0.01225000
v 0.02347500 0.00319100 -0.01242900
v 0.02347500 0.00319100 -0.01242900
v 0.02347500 0.00634200 -0.01296500
v 0.02347500 0.00634200 -0.01296500
v 0.02347500 0.00941300 -0.01384900
v 0.02347500 0.00941300 -0.01384900
v 0.02347500 0.01236600 -0.01507200
v 0.02347500 0.01236600 -0.01507200
v 0.02347500 0.01516300 -0.01661800
v 0.02347500 0.01516300 -0.01661800
v 0.02347500 0.01776900 -0.01846800
v 0.02347500 0.01776900 -0.01846800
v 0.02347500 0.02015300 -0.02059700
v 0.02347500 0.02015300 -0.02059700
v 0.02347500 0.02228200 -0.02298100
v 0.02347500 0.02228200 -0.02298100
v 0.02347500 0.02413200 -0.02558700
v 0.02347500 0.02413200 -0.02558700
v 0.02347500 0.02567800 -0.02838400
v 0.02347500 0.02567800 -0.02838400
v 0.02347500 0.02690100 -0.03133700
v 0.02347500 0.02690100 -0.03133700
v 0.02347500 0.02778500 -0.03440800
v 0.02347500 0.02778500 -0.03440800
v 0.02347500 0.02832100 -0.03755900
v 0.02347500 0.02832100 -0.03755900
v 0.02347500 0.02850000 -0.04075000
v 0.02347500 0.02850000 -0.04075000
v 0.02347500 0.02832100 -0.04394100
v 0.02347500 0.02832100 -0.04394100
v 0.02347500 0.02778500 -0.04709200
v 0.02347500 0.02778500 -0.04709200
v 0.02347500 0.02690100 -0.05016300
v 0.02347500 0.02690100 -0.05016300
v 0.02347500 0.02567800 -0.05311600
v 0.02347500 0.02567800 -0.05311600
v 0.02347500 0.02413200 -0.05591300
v 0.02347500 0.02413200 -0.05591300
v 0.02347500 0.02228200 -0.05851900
v 0.02347500 0.02228200 -0.05851900
v 0.02347500 0.02015300 -0.06090300
v 0.02347500 0.02015300 -0.06090300
v 0.02347500 0.01776900 -0.06303200
v 0.02347500 0.01776900 -0.06303200
v 0.02347500 0.01516300 -0.06488200
v 0.02347500 0.01516300 -0.06488200
v 0.02347500 0.01236600 -0.06642800
v 0.02347500 0.01236600 -0.06642800
v 0.02347500 0.00941300 -0.06765100
v 0.02347500 0.00941300 -0.06765100
v 0.02347500 0.00634200 -0.06853500
v 0.02347500 0.00634200 -0.06853500
v 0.02347500 0.00319100 -0.06907100
v 0.02347500 0.00319100 -0.06907100
v 0.02347500 -0.00000000 -0.06925000
v 0.02347500 -0.00000000 -0.06925000
v 0.02347500 -0.00319100 -0.06907100
v 0.02347500 -0.00319100 -0.06907100
v 0.02347500 -0.00634200 -0.06853500
v 0.02347500 -0.00634200 -0.06853500
v 0.02347500 -0.00941300 -0.06765100
v 0.02347500 -0.00941300 -0.06765100
v 0.02347500 -0.01236600 -0.06642800
v 0.02347500 -0.01236600 -0.06642800
v 0.02347500 -0.01516300 -0.06488200
v 0.02347500 -0.01516300 -0.06488200
v 0.02347500 -0.01776900 -0.06303200
v 0.02347500 -0.01776900 -0.06303200
v 0.02347500 -0.02015300 -0.06090300
v 0.02347500 -0.02015300 -0.06090300
v 0.02347500 -0.02228200 -0.05851900
v 0.02347500 -0.02228200 -0.05851900
v 0.02347500 -0.02413200 -0.05591300
v 0.02347500 -0.02413200 -0.05591300
v 0.02347500 -0.02567800 -0.05311600
v 0.02347500 -0.02567800 -0.05311600
v 0.02347500 -0.02690100 -0.05016300
v 0.02347500 -0.02690100 -0.05016300
v 0.02347500 -0.02778500 -0.04709200
v 0.02347500 -0.02778500 -0.04709200
v 0.02347500 -0.02832100 -0.04394100
v 0.02347500 -0.02832100 -0.04394100
v 0.02347500 -0.02850000 -0.04075000
v 0.02347500 -0.02850000 -0.04075000
v 0.02347500 -0.02832100 -0.03755900
v 0.02347500 -0.02832100 -0.03755900
v 0.02347500 -0.02778500 -0.03440800
v 0.02347500 -0.02778500 -0.03440800
v 0.02347500 -0.02690100 -0.03133700
v 0.02347500 -0.02690100 -0.03133700
v 0.02347500 -0.02567800 -0.02838400
v 0.02347500 -0.02567800 -0.02838400
v 0.02347500 -0.02413200 -0.02558700
v 0.02347500 -0.02413200 -0.02558700
v 0.02347500 -0.02228200 -0.02298100
v 0.02347500 -0.02228200 -0.02298100
v 0.02347500 -0.02015300 -0.02059700
v 0.02347500 -0.02015300 -0.02059700
v 0.02347500 -0.01776900 -0.01846800
v 0.02347500 -0.01776900 -0.01846800
v 0.02347500 -0.01516300 -0.01661800
v 0.02347500 -0.01516300 -0.01661800
v 0.02347500 -0.01236600 -0.01507200
v 0.02347500 -0.01236600 -0.01507200
v 0.02347500 -0.00941300 -0.01384900
v 0.02347500 -0.00941300 -0.01384900
v 0.02347500 -0.00634200 -0.01296500
v 0.02347500 -0.00634200 -0.01296500
v 0.02347500 -0.00319100 -0.01242900
v 0.02347500 -0.00319100 -0.01242900
vn 0.00000000 -0.00000000 100.00000000
vn 0.00000000 -0.00000000 100.00000000
vn 100.00000000 -0.00000000 0.00000000
vn 0.00000000 -14.23148400 98.98214400
vn 100.00000000 -0.00000000 0.00000000
vn 100.00000000 -0.00000000 0.00000000
vn -0.00000000 -28.17325600 95.94929700
vn 100.00000000 -0.00000000 0.00000000
vn -0.00000000 -41.54150100 90.96320000
vn 100.00000000 -0.00000000 0.00000000
vn -0.00000000 -54.06408200 84.12535300
vn 100.00000000 -0.00000000 0.00000000
vn -0.00000000 -65.48607300 75.57495700
vn -0.00000000 -75.57495700 65.48607300
vn 100.00000000 -0.00000000 0.00000000
vn 100.00000000 -0.00000000 0.00000000
vn -0.00000000 -84.12535300 54.06408200
vn 100.00000000 -0.00000000 0.00000000
vn -0.00000000 -90.96320000 41.54150100
vn -0.00000000 -95.94929700 28.17325600
vn 100.00000000 -0.00000000 0.00000000
vn 100.00000000 -0.00000000 0.00000000
vn -0.00000000 -98.98214400 14.23148400
vn -0.00000000 -100.00000000 -0.00000000
vn 100.00000000 -0.00000000 0.00000000
vn 100.00000000 -0.00000000 0.00000000
vn -0.00000000 -98.98214400 -14.23148400
vn 100.00000000 -0.00000000 0.00000000
vn -0.00000000 -95.94929700 -28.17325600
vn 100.00000000 -0.00000000 0.00000000
vn -0.00000000 -90.96320000 -41.54150100
vn -0.00000000 -84.12535300 -54.06408200
vn 100.00000000 -0.00000000 0.00000000
vn -0.00000000 -75.57495700 -65.48607300
vn 100.00000000 -0.00000000 0.00000000
vn 100.00000000 -0.00000000 0.00000000
vn -0.00000000 -65.48607300 -75.57495700
vn -0.00000000 -54.06408200 -84.12535300
vn 100.00000000 -0.00000000 0.00000000
vn 100.00000000 -0.00000000 0.00000000
vn -0.00000000 -41.54150100 -90.96320000
vn 100.00000000 -0.00000000 0.00000000
vn -0.00000000 -28.17325600 -95.94929700
vn -0.00000000 -14.23148400 -98.98214400
vn 100.00000000 -0.00000000 0.00000000
vn 100.00000000 -0.00000000 0.00000000
vn -0.00000000 0.00000000 -100.00000000
vn 100.00000000 -0.00000000 0.00000000
vn -0.00000000 14.23148400 -98.98214400
vn 100.00000000 -0.00000000 0.00000000
vn 0.00000000 28.17325600 -95.94929700
vn 0.00000000 41.54150100 -90.96320000
vn 100.00000000 -0.00000000 0.00000000
vn 0.00000000 54.06408200 -84.12535300
vn 100.00000000 -0.00000000 0.00000000
vn 0.00000000 65.48607300 -75.57495700
vn 100.00000000 -0.00000000 0.00000000
vn 0.00000000 75.57495700 -65.48607300
vn 100.00000000 -0.00000000 0.00000000
vn 100.00000000 -0.00000000 0.00000000
vn 0.00000000 84.12535300 -54.06408200
vn 100.00000000 -0.00000000 0.00000000
vn 0.00000000 90.96320000 -41.54150100
vn 0.00000000 95.94929700 -28.17325600
vn 100.00000000 -0.00000000 0.00000000
vn 100.00000000 -0.00000000 0.00000000
vn 0.00000000 98.98214400 -14.23148400
vn 0.00000000 100.00000000 -0.00000000
vn 100.00000000 -0.00000000 0.00000000
vn 0.00000000 98.98214400 14.23148400
vn 100.00000000 -0.00000000 0.00000000
vn 0.00000000 95.94929700 28.17325600
vn 100.00000000 -0.00000000 0.00000000
vn 100.00000000 -0.00000000 0.00000000
vn 0.00000000 90.96320000 41.54150100
vn 100.00000000 -0.00000000 0.00000000
vn 0.00000000 84.12535300 54.06408200
vn 100.00000000 -0.00000000 0.00000000
vn 0.00000000 75.57495700 65.48607300
vn 0.00000000 65.48607300 75.57495700
vn 100.00000000 -0.00000000 0.00000000
vn 100.00000000 -0.00000000 0.00000000
vn 0.00000000 54.06408200 84.12535300
vn 100.00000000 -0.00000000 0.00000000
vn 0.00000000 41.54150100 90.96320000
vn 0.00000000 28.17325600 95.94929700
vn 100.00000000 -0.00000000 0.00000000
vn 100.00000000 -0.00000000 0.00000000
vn 0.00000000 14.23148400 98.98214400
vn 0.00000000 -0.00000000 100.00000000
vn 0.00000000 -0.00000000 100.00000000
vn 100.00000000 -0.00000000 -0.00000000
vn 100.00000000 -0.00000000 -0.00000000
vn 0.00000000 14.23148400 98.98214400
vn 0.00000000 28.17325600 95.94929700
vn 100.00000000 -0.00000000 -0.00000000
vn 100.00000000 -0.00000000 -0.00000000
vn 0.00000000 41.54150100 90.96320000
vn 0.00000000 54.06408200 84.12535300
vn 100.00000000 -0.00000000 -0.00000000
vn 0.00000000 65.48607300 75.57495700
vn 100.00000000 -0.00000000 -0.00000000
vn 100.00000000 -0.00000000 -0.00000000
vn 0.00000000 75.57495700 65.48607300
vn 100.00000000 -0.00000000 -0.00000000
vn 0.00000000 84.12535300 54.06408200
vn 100.00000000 -0.00000000 -0.00000000
vn 0.00000000 90.96320000 41.54150100
vn 0.00000000 95.94929700 28.17325600
vn 100.00000000 -0.00000000 -0.00000000
vn 100.00000000 -0.00000000 -0.00000000
vn 0.00000000 98.98214400 14.23148400
vn 100.00000000 -0.00000000 -0.00000000
vn 0.00000000 100.00000000 -0.00000000
vn 100.00000000 -0.00000000 -0.00000000
vn 0.00000000 98.98214400 -14.23148400
vn 0.00000000 95.94929700 -28.17325600
vn 100.00000000 -0.00000000 -0.00000000
vn 0.00000000 90.96320000 -41.54150100
vn 100.00000000 -0.00000000 -0.00000000
vn 0.00000000 84.12535300 -54.06408200
vn 100.00000000 -0.00000000 -0.00000000
vn 0.00000000 75.57495700 -65.48607300
vn 100.00000000 -0.00000000 -0.00000000
vn 100.00000000 -0.00000000 -0.00000000
vn 0.00000000 65.48607300 -75.57495700
vn 0.00000000 54.06408200 -84.12535300
vn 100.00000000 -0.00000000 -0.00000000
vn 100.00000000 -0.00000000 -0.00000000
vn 0.00000000 41.54150100 -90.96320000
vn 0.00000000 28.17325600 -95.94929700
vn 100.00000000 -0.00000000 -0.00000000
vn -0.00000000 14.23148400 -98.98214400
vn 100.00000000 -0.00000000 -0.00000000
vn -0.00000000 -0.00000000 -100.00000000
vn 100.00000000 -0.00000000 -0.00000000
vn -0.00000000 -14.23148400 -98.98214400
vn 100.00000000 -0.00000000 -0.00000000
vn 100.00000000 -0.00000000 -0.00000000
vn -0.00000000 -28.17325600 -95.94929700
vn -0.00000000 -41.54150100 -90.96320000
vn 100.00000000 -0.00000000 -0.00000000
vn -0.00000000 -54.06408200 -84.12535300
vn 100.00000000 -0.00000000 -0.00000000
vn -0.00000000 -65.48607300 -75.57495700
vn 100.00000000 -0.00000000 -0.00000000
vn -0.00000000 -75.57495700 -65.48607300
vn 100.00000000 -0.00000000 -0.00000000
vn 100.00000000 -0.00000000 -0.00000000
vn -0.00000000 -84.12535300 -54.06408200
vn 100.00000000 -0.00000000 -0.00000000
vn -0.00000000 -90.96320000 -41.54150100
vn 100.00000000 -0.00000000 -0.00000000
vn -0.00000000 -95.94929700 -28.17325600
vn 100.00000000 -0.00000000 -0.00000000
vn -0.00000000 -98.98214400 -14.23148400
vn -0.00000000 -100.00000000 -0.00000000
vn 100.00000000 -0.00000000 -0.00000000
vn 100.00000000 -0.00000000 -0.00000000
vn -0.00000000 -98.98214400 14.23148400
vn 100.00000000 -0.00000000 -0.00000000
vn -0.00000000 -95.94929700 28.17325600
vn -0.00000000 -90.96320000 41.54150100
vn 100.00000000 -0.00000000 -0.00000000
vn -0.00000000 -84.12535300 54.06408200
vn 100.00000000 -0.00000000 -0.00000000
vn 100.00000000 -0.00000000 -0.00000000
vn -0.00000000 -75.57495700 65.48607300
vn 100.00000000 -0.00000000 -0.00000000
vn -0.00000000 -65.48607300 75.57495700
vn 100.00000000 -0.00000000 -0.00000000
vn -0.00000000 -54.06408200 84.12535300
vn -0.00000000 -41.54150100 90.96320000
vn 100.00000000 -0.00000000 -0.00000000
vn -0.00000000 -28.17325600 95.94929700
vn 100.00000000 -0.00000000 -0.00000000
vn 100.00000000 -0.00000000 -0.00000000
vn 0.00000000 -14.23148400 98.98214400
vn -0.00000000 -0.00000000 100.00000000
vn -100.00000000 0.00000000 -0.00000000
vn -0.00000000 -0.00000000 100.00000000
vn -100.00000000 0.00000000 -0.00000000
vn -0.00000000 -11.19644800 99.37122100
vn -0.00000000 -22.25209300 97.49279100
vn -100.00000000 0.00000000 -0.00000000
vn -100.00000000 0.00000000 -0.00000000
vn -0.00000000 -33.02790600 94.38833300
vn -100.00000000 0.00000000 -0.00000000
vn -0.00000000 -43.38837400 90.09688700
vn -0.00000000 -53.20320800 84.67242000
vn -100.00000000 0.00000000 -0.00000000
vn -0.00000000 -62.34898000 78.18314800
vn -100.00000000 0.00000000 -0.00000000
vn -100.00000000 0.00000000 -0.00000000
vn -0.00000000 -70.71067800 70.71067800
vn -100.00000000 0.00000000 -0.00000000
vn -0.00000000 -78.18314800 62.34898000
vn -100.00000000 0.00000000 -0.00000000
vn -0.00000000 -84.67242000 53.20320800
vn -0.00000000 -90.09688700 43.38837400
vn -100.00000000 0.00000000 -0.00000000
vn -0.00000000 -94.38833300 33.02790600
vn -100.00000000 0.00000000 -0.00000000
vn -0.00000000 -97.49279100 22.25209300
vn -100.00000000 0.00000000 -0.00000000
vn -100.00000000 0.00000000 -0.00000000
vn -0.00000000 -99.37122100 11.19644800
vn -0.00000000 -100.00000000 -0.00000000
vn -100.00000000 0.00000000 -0.00000000
vn -100.00000000 0.00000000 -0.00000000
vn -0.00000000 -99.37122100 -11.19644800
vn -100.00000000 0.00000000 -0.00000000
vn -0.00000000 -97.49279100 -22.25209300
vn -100.00000000 0.00000000 -0.00000000
vn -0.00000000 -94.38833300 -33.02790600
vn -0.00000000 -90.09688700 -43.38837400
vn -100.00000000 0.00000000 -0.00000000
vn -0.00000000 -84.67242000 -53.20320800
vn -100.00000000 0.00000000 -0.00000000
vn -0.00000000 -78.18314800 -62.34898000
vn -100.00000000 0.00000000 -0.00000000
vn -0.00000000 -70.71067800 -70.71067800
vn -100.00000000 0.00000000 -0.00000000
vn -100.00000000 0.00000000 -0.00000000
vn -0.00000000 -62.34898000 -78.18314800
vn -100.00000000 0.00000000 -0.00000000
vn -0.00000000 -53.20320800 -84.67242000
vn -100.00000000 0.00000000 -0.00000000
vn -0.00000000 -43.38837400 -90.09688700
vn -100.00000000 0.00000000 -0.00000000
vn -0.00000000 -33.02790600 -94.38833300
vn -100.00000000 0.00000000 -0.00000000
vn -0.00000000 -22.25209300 -97.49279100
vn -100.00000000 0.00000000 -0.00000000
vn -0.00000000 -11.19644800 -99.37122100
vn -100.00000000 0.00000000 -0.00000000
vn 0.00000000 0.00000000 -100.00000000
vn 0.00000000 11.19644800 -99.37122100
vn -100.00000000 0.00000000 -0.00000000
vn -100.00000000 0.00000000 -0.00000000
vn 0.00000000 22.25209300 -97.49279100
vn -100.00000000 0.00000000 -0.00000000
vn 0.00000000 33.02790600 -94.38833300
vn 0.00000000 43.38837400 -90.09688700
vn -100.00000000 0.00000000 -0.00000000
vn -100.00000000 0.00000000 -0.00000000
vn 0.00000000 53.20320800 -84.67242000
vn -100.00000000 0.00000000 -0.00000000
vn 0.00000000 62.34898000 -78.18314800
vn -100.00000000 0.00000000 -0.00000000
vn 0.00000000 70.71067800 -70.71067800
vn 0.00000000 78.18314800 -62.34898000
vn -100.00000000 0.00000000 -0.00000000
vn 0.00000000 84.67242000 -53.20320800
vn -100.00000000 0.00000000 -0.00000000
vn -100.00000000 0.00000000 -0.00000000
vn 0.00000000 90.09688700 -43.38837400
vn 0.00000000 94.38833300 -33.02790600
vn -100.00000000 0.00000000 -0.00000000
vn 0.00000000 97.49279100 -22.25209300
vn -100.00000000 0.00000000 -0.00000000
vn 0.00000000 99.37122100 -11.19644800
vn -100.00000000 0.00000000 -0.00000000
vn -100.00000000 0.00000000 -0.00000000
vn 0.00000000 100.00000000 -0.00000000
vn 0.00000000 99.37122100 11.19644800
vn -100.00000000 0.00000000 -0.00000000
vn -100.00000000 0.00000000 -0.00000000
vn 0.00000000 97.49279100 22.25209300
vn -100.00000000 0.00000000 -0.00000000
vn 0.00000000 94.38833300 33.02790600
vn 0.00000000 90.09688700 43.38837400
vn -100.00000000 0.00000000 -0.00000000
vn -100.00000000 0.00000000 -0.00000000
vn 0.00000000 84.67242000 53.20320800
vn 0.00000000 78.18314800 62.34898000
vn -100.00000000 0.00000000 -0.00000000
vn 0.00000000 70.71067800 70.71067800
vn -100.00000000 0.00000000 -0.00000000
vn -100.00000000 0.00000000 -0.00000000
vn 0.00000000 62.34898000 78.18314800
vn 0.00000000 53.20320800 84.67242000
vn -100.00000000 0.00000000 -0.00000000
vn 0.00000000 43.38837400 90.09688700
vn -100.00000000 0.00000000 -0.00000000
vn -100.00000000 0.00000000 -0.00000000
vn 0.00000000 33.02790600 94.38833300
vn -100.00000000 0.00000000 -0.00000000
vn 0.00000000 22.25209300 97.49279100
vn -100.00000000 0.00000000 -0.00000000
vn 0.00000000 11.19644800 99.37122100
vn -0.00000000 -0.00000000 100.00000000
vn -0.00000000 -0.00000000 100.00000000
vn 100.00000000 -0.00000000 0.00000000
vn 0.00000000 11.19644800 99.37122100
vn 100.00000000 -0.00000000 0.00000000
vn 100.00000000 -0.00000000 0.00000000
vn 0.00000000 22.25209300 97.49279100
vn 0.00000000 33.02790600 94.38833300
vn 100.00000000 -0.00000000 0.00000000
vn 0.00000000 43.38837400 90.09688700
vn 100.00000000 -0.00000000 0.00000000
vn 100.00000000 -0.00000000 0.00000000
vn 0.00000000 53.20320800 84.67242000
vn 100.00000000 -0.00000000 0.00000000
vn 0.00000000 62.34898000 78.18314800
vn 100.00000000 -0.00000000 0.00000000
vn 0.00000000 70.71067800 70.71067800
vn 0.00000000 78.18314800 62.34898000
vn 100.00000000 -0.00000000 0.00000000
vn 100.00000000 -0.00000000 0.00000000
vn 0.00000000 84.67242000 53.20320800
vn 0.00000000 90.09688700 43.38837400
vn 100.00000000 -0.00000000 0.00000000
vn 0.00000000 94.38833300 33.02790600
vn 100.00000000 -0.00000000 0.00000000
vn 0.00000000 97.49279100 22.25209300
vn 100.00000000 -0.00000000 0.00000000
vn 100.00000000 -0.00000000 0.00000000
vn 0.00000000 99.37122100 11.19644800
vn 0.00000000 100.00000000 -0.00000000
vn 100.00000000 -0.00000000 0.00000000
vn 0.00000000 99.37122100 -11.19644800
vn 100.00000000 -0.00000000 0.00000000
vn 0.00000000 97.49279100 -22.25209300
vn 100.00000000 -0.00000000 0.00000000
vn 0.00000000 94.38833300 -33.02790600
vn 100.00000000 -0.00000000 0.00000000
vn 100.00000000 -0.00000000 0.00000000
vn 0.00000000 90.09688700 -43.38837400
vn 100.00000000 -0.00000000 0.00000000
vn 0.00000000 84.67242000 -53.20320800
vn 100.00000000 -0.00000000 0.00000000
vn 0.00000000 78.18314800 -62.34898000
vn 0.00000000 70.71067800 -70.71067800
vn 100.00000000 -0.00000000 0.00000000
vn 0.00000000 62.34898000 -78.18314800
vn 100.00000000 -0.00000000 0.00000000
vn 0.00000000 53.20320800 -84.67242000
vn 100.00000000 -0.00000000 0.00000000
vn 100.00000000 -0.00000000 0.00000000
vn 0.00000000 43.38837400 -90.09688700
vn 100.00000000 -0.00000000 0.00000000
vn 0.00000000 33.02790600 -94.38833300
vn 100.00000000 -0.00000000 0.00000000
vn 0.00000000 22.25209300 -97.49279100
vn 0.00000000 11.19644800 -99.37122100
vn 100.00000000 -0.00000000 0.00000000
vn 0.00000000 0.00000000 -100.00000000
vn 100.00000000 -0.00000000 0.00000000
vn -0.00000000 -11.19644800 -99.37122100
vn 100.00000000 -0.00000000 0.00000000
vn 100.00000000 -0.00000000 0.00000000
vn -0.00000000 -22.25209300 -97.49279100
vn 100.00000000 -0.00000000 0.00000000
vn -0.00000000 -33.02790600 -94.38833300
vn -0.00000000 -43.38837400 -90.09688700
vn 100.00000000 -0.00000000 0.00000000
vn -0.00000000 -53.20320800 -84.67242000
vn 100.00000000 -0.00000000 0.00000000
vn -0.00000000 -62.34898000 -78.18314800
vn 100.00000000 -0.00000000 0.00000000
vn 100.00000000 -0.00000000 0.00000000
vn -0.00000000 -70.71067800 -70.71067800
vn 100.00000000 -0.00000000 0.00000000
vn -0.00000000 -78.18314800 -62.34898000
vn 100.00000000 -0.00000000 0.00000000
vn -0.00000000 -84.67242000 -53.20320800
vn 100.00000000 -0.00000000 0.00000000
vn -0.00000000 -90.09688700 -43.38837400
vn 100.00000000 -0.00000000 0.00000000
vn -0.00000000 -94.38833300 -33.02790600
vn 100.00000000 -0.00000000 0.00000000
vn -0.00000000 -97.49279100 -22.25209300
vn 100.00000000 -0.00000000 0.00000000
vn -0.00000000 -99.37122100 -11.19644800
vn 100.00000000 -0.00000000 0.00000000
vn -0.00000000 -100.00000000 -0.00000000
vn 100.00000000 -0.00000000 0.00000000
vn -0.00000000 -99.37122100 11.19644800
vn -0.00000000 -97.49279100 22.25209300
vn 100.00000000 -0.00000000 0.00000000
vn -0.00000000 -94.38833300 33.02790600
vn 100.00000000 -0.00000000 0.00000000
vn 100.00000000 -0.00000000 0.00000000
vn -0.00000000 -90.09688700 43.38837400
vn 100.00000000 -0.00000000 0.00000000
vn -0.00000000 -84.67242000 53.20320800
vn -0.00000000 -78.18314800 62.34898000
vn 100.00000000 -0.00000000 0.00000000
vn 100.00000000 -0.00000000 0.00000000
vn -0.00000000 -70.71067800 70.71067800
vn -0.00000000 -62.34898000 78.18314800
vn 100.00000000 -0.00000000 0.00000000
vn -0.00000000 -53.20320800 84.67242000
vn 100.00000000 -0.00000000 0.00000000
vn -0.00000000 -43.38837400 90.09688700
vn 100.00000000 -0.00000000 0.00000000
vn -0.00000000 -33.02790600 94.38833300
vn 100.00000000 -0.00000000 0.00000000
vn -0.00000000 -22.25209300 97.49279100
vn 100.00000000 -0.00000000 0.00000000
vn -0.00000000 -11.19644800 99.37122100
vn 100.00000000 -0.00000000 0.00000000
vt 0.00000000 -5.49778700
vt 0.00000000 5.49778700
vt -1.75000000 0.00000000
vt 0.00000000 -5.24788800
vt -1.73218800 -0.24905100
vt -1.67911300 -0.49303200
vt -0.00000000 -4.99798800
vt -1.59185600 -0.72697600
vt 0.00000000 -4.74808900
vt -1.47219400 -0.94612100
vt 0.00000000 -4.49818900
vt -1.32256200 -1.14600600
vt 0.00000000 -4.24829000
vt 0.00000000 -3.99839100
vt -1.14600600 -1.32256200
vt -0.94612100 -1.47219400
vt -0.00000000 -3.74849100
vt -0.72697600 -1.59185600
vt -0.00000000 -3.49859200
vt -0.00000000 -3.24869200
vt -0.49303200 -1.67911300
vt -0.24905100 -1.73218800
vt 0.00000000 -2.99879300
vt 0.00000000 -2.74889400
vt 0.00000000 -1.75000000
vt 0.24905100 -1.73218800
vt 0.00000000 -2.49899400
vt 0.49303200 -1.67911300
vt -0.00000000 -2.24909500
vt 0.72697600 -1.59185600
vt -0.00000000 -1.99919500
vt -0.00000000 -1.74929600
vt 0.94612100 -1.47219400
vt -0.00000000 -1.49939600
vt 1.14600600 -1.32256200
vt 1.32256200 -1.14600600
vt -0.00000000 -1.24949700
vt -0.00000000 -0.99959800
vt 1.47219400 -0.94612100
vt 1.59185600 -0.72697600
vt 0.00000000 -0.74969800
vt 1.67911300 -0.49303200
vt -0.00000000 -0.49979900
vt -0.00000000 -0.24989900
vt 1.73218800 -0.24905100
vt 1.75000000 -0.00000000
vt -0.00000000 -0.00000000
vt 1.73218800 0.24905100
vt -0.00000000 0.24989900
vt 1.67911300 0.49303200
vt 0.00000000 0.49979900
vt -0.00000000 0.74969800
vt 1.59185600 0.72697600
vt -0.00000000 0.99959800
vt 1.47219400 0.94612100
vt -0.00000000 1.24949700
vt 1.32256200 1.14600600
vt -0.00000000 1.49939600
vt 1.14600600 1.32256200
vt 0.94612100 1.47219400
vt 0.00000000 1.74929600
vt 0.72697600 1.59185600
vt 0.00000000 1.99919500
vt 0.00000000 2.24909500
vt 0.49303200 1.67911300
vt 0.24905100 1.73218800
vt -0.00000000 2.49899400
vt -0.00000000 2.74889400
vt 0.00000000 1.75000000
vt -0.00000000 2.99879300
vt -0.24905100 1.73218800
vt 0.00000000 3.24869200
vt -0.49303200 1.67911300
vt -0.72697600 1.59185600
vt 0.00000000 3.49859200
vt -0.94612100 1.47219400
vt 0.00000000 3.74849100
vt -1.14600600 1.32256200
vt 0.00000000 3.99839100
vt 0.00000000 4.24829000
vt -1.32256200 1.14600600
vt -1.47219400 0.94612100
vt 0.00000000 4.49818900
vt -1.59185600 0.72697600
vt -0.00000000 4.74808900
vt 0.00000000 4.99798800
vt -1.67911300 0.49303200
vt -1.73218800 0.24905100
vt 0.00000000 5.24788800
vt -0.60000000 5.49778700
vt -0.60000000 -5.49778700
vt -1.75000000 0.00000000
vt -1.73218800 0.24905100
vt -0.60000000 5.24788800
vt -0.60000000 4.99798800
vt -1.67911300 0.49303200
vt -1.59185600 0.72697600
vt -0.60000000 4.74808900
vt -0.60000000 4.49818900
vt -1.47219400 0.94612100
vt -0.60000000 4.24829000
vt -1.32256200 1.14600600
vt -1.14600600 1.32256200
vt -0.60000000 3.99839100
vt -0.94612100 1.47219400
vt -0.60000000 3.74849100
vt -0.72697600 1.59185600
vt -0.60000000 3.49859200
vt -0.60000000 3.24869200
vt -0.49303200 1.67911300
vt -0.24905100 1.73218800
vt -0.60000000 2.99879300
vt -0.00000000 1.75000000
vt -0.60000000 2.74889400
vt 0.24905100 1.73218800
vt -0.60000000 2.49899400
vt -0.60000000 2.24909500
vt 0.49303200 1.67911300
vt -0.60000000 1.99919500
vt 0.72697600 1.59185600
vt -0.60000000 1.74929600
vt 0.94612100 1.47219400
vt -0.60000000 1.49939600
vt 1.14600600 1.32256200
vt 1.32256200 1.14600600
vt -0.60000000 1.24949700
vt -0.60000000 0.99959800
vt 1.47219400 0.94612100
vt 1.59185600 0.72697600
vt -0.60000000 0.74969800
vt -0.60000000 0.49979900
vt 1.67911300 0.49303200
vt -0.60000000 0.24989900
vt 1.73218800 0.24905100
vt -0.60000000 -0.00000000
vt 1.75000000 -0.00000000
vt -0.60000000 -0.24989900
vt 1.73218800 -0.24905100
vt 1.67911300 -0.49303200
vt -0.60000000 -0.49979900
vt -0.60000000 -0.74969800
vt 1.59185600 -0.72697600
vt -0.60000000 -0.99959800
vt 1.47219400 -0.94612100
vt -0.60000000 -1.24949700
vt 1.32256200 -1.14600600
vt -0.60000000 -1.49939600
vt 1.14600600 -1.32256200
vt 0.94612100 -1.47219400
vt -0.60000000 -1.74929600
vt 0.72697600 -1.59185600
vt -0.60000000 -1.99919500
vt 0.49303200 -1.67911300
vt -0.60000000 -2.24909500
vt 0.24905100 -1.73218800
vt -0.60000000 -2.49899400
vt -0.60000000 -2.74889400
vt 0.00000000 -1.75000000
vt -0.24905100 -1.73218800
vt -0.60000000 -2.99879300
vt -0.49303200 -1.67911300
vt -0.60000000 -3.24869200
vt -0.60000000 -3.49859200
vt -0.72697600 -1.59185600
vt -0.60000000 -3.74849100
vt -0.94612100 -1.47219400
vt -1.14600600 -1.32256200
vt -0.60000000 -3.99839100
vt -1.32256200 -1.14600600
vt -0.60000000 -4.24829000
vt -1.47219400 -0.94612100
vt -0.60000000 -4.49818900
vt -0.60000000 -4.74808900
vt -1.59185600 -0.72697600
vt -0.60000000 -4.99798800
vt -1.67911300 -0.49303200
vt -1.73218800 -0.24905100
vt -0.60000000 -5.24788800
vt -0.00000000 8.95353900
vt 2.85000000 0.00000000
vt -0.00000000 -8.95353900
vt 2.83208000 -0.31909900
vt -0.00000000 -8.63377000
vt 0.00000000 -8.31400100
vt 2.77854500 -0.63418500
vt 2.69006700 -0.94129500
vt 0.00000000 -7.99423100
vt 2.56776100 -1.23656900
vt -0.00000000 -7.67446200
vt -0.00000000 -7.35469300
vt 2.41316400 -1.51629100
vt 0.00000000 -7.03492400
vt 2.22822000 -1.77694600
vt 2.01525400 -2.01525400
vt 0.00000000 -6.71515400
vt 1.77694600 -2.22822000
vt -0.00000000 -6.39538500
vt 1.51629100 -2.41316400
vt -0.00000000 -6.07561600
vt -0.00000000 -5.75584700
vt 1.23656900 -2.56776100
vt -0.00000000 -5.43607700
vt 0.94129500 -2.69006700
vt -0.00000000 -5.11630800
vt 0.63418500 -2.77854500
vt 0.31909900 -2.83208000
vt -0.00000000 -4.79653900
vt -0.00000000 -4.47677000
vt 0.00000000 -2.85000000
vt -0.31909900 -2.83208000
vt -0.00000000 -4.15700000
vt -0.63418500 -2.77854500
vt -0.00000000 -3.83723100
vt -0.94129500 -2.69006700
vt -0.00000000 -3.51746200
vt -0.00000000 -3.19769300
vt -1.23656900 -2.56776100
vt 0.00000000 -2.87792300
vt -1.51629100 -2.41316400
vt 0.00000000 -2.55815400
vt -1.77694600 -2.22822000
vt 0.00000000 -2.23838500
vt -2.01525400 -2.01525400
vt -2.22822000 -1.77694600
vt 0.00000000 -1.91861600
vt -2.41316400 -1.51629100
vt -0.00000000 -1.59884600
vt -2.56776100 -1.23656900
vt 0.00000000 -1.27907700
vt -2.69006700 -0.94129500
vt 0.00000000 -0.95930800
vt -2.77854500 -0.63418500
vt 0.00000000 -0.63953900
vt -2.83208000 -0.31909900
vt -0.00000000 -0.31976900
vt -2.85000000 0.00000000
vt 0.00000000 0.00000000
vt 0.00000000 0.31976900
vt -2.83208000 0.31909900
vt -2.77854500 0.63418500
vt -0.00000000 0.63953900
vt -2.69006700 0.94129500
vt -0.00000000 0.95930800
vt 0.00000000 1.27907700
vt -2.56776100 1.23656900
vt -2.41316400 1.51629100
vt 0.00000000 1.59884600
vt -2.22822000 1.77694600
vt -0.00000000 1.91861600
vt -2.01525400 2.01525400
vt -0.00000000 2.23838500
vt 0.00000000 2.55815400
vt -1.77694600 2.22822000
vt 0.00000000 2.87792300
vt -1.51629100 2.41316400
vt -1.23656900 2.56776100
vt 0.00000000 3.19769300
vt 0.00000000 3.51746200
vt -0.94129500 2.69006700
vt 0.00000000 3.83723100
vt -0.63418500 2.77854500
vt 0.00000000 4.15700000
vt -0.31909900 2.83208000
vt -0.00000000 2.85000000
vt 0.00000000 4.47677000
vt 0.00000000 4.79653900
vt 0.31909900 2.83208000
vt 0.63418500 2.77854500
vt 0.00000000 5.11630800
vt 0.94129500 2.69006700
vt 0.00000000 5.43607700
vt 0.00000000 5.75584700
vt 1.23656900 2.56776100
vt 1.51629100 2.41316400
vt -0.00000000 6.07561600
vt -0.00000000 6.39538500
vt 1.77694600 2.22822000
vt -0.00000000 6.71515400
vt 2.01525400 2.01525400
vt 2.22822000 1.77694600
vt -0.00000000 7.03492400
vt 0.00000000 7.35469300
vt 2.41316400 1.51629100
vt -0.00000000 7.67446200
vt 2.56776100 1.23656900
vt 2.69006700 0.94129500
vt -0.00000000 7.99423100
vt 2.77854500 0.63418500
vt -0.00000000 8.31400100
vt 2.83208000 0.31909900
vt 0.00000000 8.63377000
vt -4.88750000 8.95353900
vt -4.88750000 -8.95353900
vt -2.85000000 0.00000000
vt -4.88750000 8.63377000
vt -2.83208000 0.31909900
vt -2.77854500 0.63418500
vt -4.88750000 8.31400100
vt -4.88750000 7.99423100
vt -2.69006700 0.94129500
vt -4.88750000 7.67446200
vt -2.56776100 1.23656900
vt -2.41316400 1.51629100
vt -4.88750000 7.35469300
vt -2.22822000 1.77694600
vt -4.88750000 7.03492400
vt -2.01525400 2.01525400
vt -4.88750000 6.71515400
vt -4.88750000 6.39538500
vt -1.77694600 2.22822000
vt -1.51629100 2.41316400
vt -4.88750000 6.07561600
vt -4.88750000 5.75584700
vt -1.23656900 2.56776100
vt -4.88750000 5.43607700
vt -0.94129500 2.69006700
vt -4.88750000 5.11630800
vt -0.63418500 2.77854500
vt -0.31909900 2.83208000
vt -4.88750000 4.79653900
vt -4.88750000 4.47677000
vt 0.00000000 2.85000000
vt -4.88750000 4.15700000
vt 0.31909900 2.83208000
vt -4.88750000 3.83723100
vt 0.63418500 2.77854500
vt -4.88750000 3.51746200
vt 0.94129500 2.69006700
vt 1.23656900 2.56776100
vt -4.88750000 3.19769300
vt 1.51629100 2.41316400
vt -4.88750000 2.87792300
vt 1.77694600 2.22822000
vt -4.88750000 2.55815400
vt -4.88750000 2.23838500
vt 2.01525400 2.01525400
vt -4.88750000 1.91861600
vt 2.22822000 1.77694600
vt -4.88750000 1.59884600
vt 2.41316400 1.51629100
vt 2.56776100 1.23656900
vt -4.88750000 1.27907700
vt 2.69006700 0.94129500
vt -4.88750000 0.95930800
vt 2.77854500 0.63418500
vt -4.88750000 0.63953900
vt -4.88750000 0.31976900
vt 2.83208000 0.31909900
vt -4.88750000 0.00000000
vt 2.85000000 0.00000000
vt -4.88750000 -0.31976900
vt 2.83208000 -0.31909900
vt 2.77854500 -0.63418500
vt -4.88750000 -0.63953900
vt 2.69006700 -0.94129500
vt -4.88750000 -0.95930800
vt -4.88750000 -1.27907700
vt 2.56776100 -1.23656900
vt -4.88750000 -1.59884600
vt 2.41316400 -1.51629100
vt -4.88750000 -1.91861600
vt 2.22822000 -1.77694600
vt 2.01525400 -2.01525400
vt -4.88750000 -2.23838500
vt 1.77694600 -2.22822000
vt -4.88750000 -2.55815400
vt 1.51629100 -2.41316400
vt -4.88750000 -2.87792300
vt 1.23656900 -2.56776100
vt -4.88750000 -3.19769300
vt 0.94129500 -2.69006700
vt -4.88750000 -3.51746200
vt 0.63418500 -2.77854500
vt -4.88750000 -3.83723100
vt 0.31909900 -2.83208000
vt -4.88750000 -4.15700000
vt -0.00000000 -2.85000000
vt -4.88750000 -4.47677000
vt -0.31909900 -2.83208000
vt -4.88750000 -4.79653900
vt -4.88750000 -5.11630800
vt -0.63418500 -2.77854500
vt -4.88750000 -5.43607700
vt -0.94129500 -2.69006700
vt -1.23656900 -2.56776100
vt -4.88750000 -5.75584700
vt -1.51629100 -2.41316400
vt -4.88750000 -6.07561600
vt -4.88750000 -6.39538500
vt -1.77694600 -2.22822000
vt -2.01525400 -2.01525400
vt -4.88750000 -6.71515400
vt -4.88750000 -7.03492400
vt -2.22822000 -1.77694600
vt -4.88750000 -7.35469300
vt -2.41316400 -1.51629100
vt -4.88750000 -7.67446200
vt -2.56776100 -1.23656900
vt -4.88750000 -7.99423100
vt -2.69006700 -0.94129500
vt -4.88750000 -8.31400100
vt -2.77854500 -0.63418500
vt -4.88750000 -8.63377000
vt -2.83208000 -0.31909900
f 4/4/4 178/178/178 1/1/1
f 1/1/1 178/178/178 91/91/91
f 2/2/2 90/90/90 89/89/89
f 89/89/89 90/90/90 94/94/94
f 89/89/89 94/94/94 86/86/86
f 86/86/86 94/94/94 95/95/95
f 86/86/86 95/95/95 85/85/85
f 85/85/85 95/95/95 98/98/98
f 85/85/85 98/98/98 83/83/83
f 83/83/83 98/98/98 99/99/99
f 83/83/83 99/99/99 80/80/80
f 80/80/80 99/99/99 101/101/101
f 80/80/80 101/101/101 79/79/79
f 79/79/79 101/101/101 104/104/104
f 79/79/79 104/104/104 77/77/77
f 77/77/77 104/104/104 106/106/106
f 77/77/77 106/106/106 75/75/75
f 75/75/75 106/106/106 108/108/108
f 75/75/75 108/108/108 72/72/72
f 72/72/72 108/108/108 109/109/109
f 72/72/72 109/109/109 70/70/70
f 70/70/70 109/109/109 112/112/112
f 70/70/70 112/112/112 68/68/68
f 68/68/68 112/112/112 114/114/114
f 68/68/68 114/114/114 67/67/67
f 67/67/67 114/114/114 116/116/116
f 67/67/67 116/116/116 64/64/64
f 64/64/64 116/116/116 117/117/117
f 64/64/64 117/117/117 63/63/63
f 63/63/63 117/117/117 119/119/119
f 63/63/63 119/119/119 61/61/61
f 61/61/61 119/119/119 121/121/121
f 61/61/61 121/121/121 58/58/58
f 58/58/58 121/121/121 123/123/123
f 58/58/58 123/123/123 56/56/56
f 56/56/56 123/123/123 126/126/126
f 56/56/56 126/126/126 54/54/54
f 54/54/54 126/126/126 127/127/127
f 54/54/54 127/127/127 52/52/52
f 52/52/52 127/127/127 130/130/130
f 52/52/52 130/130/130 51/51/51
f 51/51/51 130/130/130 131/131/131
f 51/51/51 131/131/131 49/49/49
f 49/49/49 131/131/131 133/133/133
f 49/49/49 133/133/133 47/47/47
f 47/47/47 133/133/133 135/135/135
f 47/47/47 135/135/135 44/44/44
f 44/44/44 135/135/135 137/137/137
f 44/44/44 137/137/137 43/43/43
f 43/43/43 137/137/137 140/140/140
f 43/43/43 140/140/140 41/41/41
f 41/41/41 140/140/140 141/141/141
f 41/41/41 141/141/141 38/38/38
f 38/38/38 141/141/141 143/143/143
f 38/38/38 143/143/143 37/37/37
f 37/37/37 143/143/143 145/145/145
f 37/37/37 145/145/145 34/34/34
f 34/34/34 145/145/145 147/147/147
f 34/34/34 147/147/147 32/32/32
f 32/32/32 147/147/147 150/150/150
f 32/32/32 150/150/150 31/31/31
f 31/31/31 150/150/150 152/152/152
f 31/31/31 152/152/152 29/29/29
f 29/29/29 152/152/152 154/154/154
f 29/29/29 154/154/154 27/27/27
f 27/27/27 154/154/154 156/156/156
f 27/27/27 156/156/156 24/24/24
f 24/24/24 156/156/156 157/157/157
f 24/24/24 157/157/157 23/23/23
f 23/23/23 157/157/157 160/160/160
f 23/23/23 160/160/160 20/20/20
f 20/20/20 160/160/160 162/162/162
f 20/20/20 162/162/162 19/19/19
f 19/19/19 162/162/162 163/163/163
f 19/19/19 163/163/163 17/17/17
f 17/17/17 163/163/163 165/165/165
f 17/17/17 165/165/165 14/14/14
f 14/14/14 165/165/165 168/168/168
f 14/14/14 168/168/168 13/13/13
f 13/13/13 168/168/168 170/170/170
f 13/13/13 170/170/170 11/11/11
f 11/11/11 170/170/170 172/172/172
f 11/11/11 172/172/172 9/9/9
f 9/9/9 172/172/172 173/173/173
f 9/9/9 173/173/173 7/7/7
f 7/7/7 173/173/173 175/175/175
f 7/7/7 175/175/175 4/4/4
f 4/4/4 175/175/175 178/178/178
f 177/177/177 138/138/138 92/92/92
f 92/92/92 138/138/138 136/136/136
f 92/92/92 136/136/136 93/93/93
f 93/93/93 136/136/136 134/134/134
f 93/93/93 134/134/134 96/96/96
f 96/96/96 134/134/134 132/132/132
f 96/96/96 132/132/132 97/97/97
f 97/97/97 132/132/132 129/129/129
f 97/97/97 129/129/129 100/100/100
f 100/100/100 129/129/129 128/128/128
f 100/100/100 128/128/128 102/102/102
f 102/102/102 128/128/128 125/125/125
f 102/102/102 125/125/125 103/103/103
f 103/103/103 125/125/125 124/124/124
f 103/103/103 124/124/124 105/105/105
f 105/105/105 124/124/124 122/122/122
f 105/105/105 122/122/122 107/107/107
f 107/107/107 122/122/122 120/120/120
f 107/107/107 120/120/120 110/110/110
f 110/110/110 120/120/120 118/118/118
f 110/110/110 118/118/118 111/111/111
f 111/111/111 118/118/118 115/115/115
f 111/111/111 115/115/115 113/113/113
f 138/138/138 177/177/177 139/139/139
f 139/139/139 177/177/177 176/176/176
f 139/139/139 176/176/176 142/142/142
f 142/142/142 176/176/176 174/174/174
f 142/142/142 174/174/174 144/144/144
f 144/144/144 174/174/174 171/171/171
f 144/144/144 171/171/171 146/146/146
f 146/146/146 171/171/171 169/169/169
f 146/146/146 169/169/169 148/148/148
f 148/148/148 169/169/169 167/167/167
f 148/148/148 167/167/167 149/149/149
f 149/149/149 167/167/167 166/166/166
f 149/149/149 166/166/166 151/151/151
f 151/151/151 166/166/166 164/164/164
f 151/151/151 164/164/164 153/153/153
f 153/153/153 164/164/164 161/161/161
f 153/153/153 161/161/161 155/155/155
f 155/155/155 161/161/161 159/159/159
f 155/155/155 159/159/159 158/158/158
f 183/183/183 403/403/403 181/181/181
f 181/181/181 403/403/403 293/293/293
f 179/179/179 292/292/292 291/291/291
f 291/291/291 292/292/292 295/295/295
f 291/291/291 295/295/295 289/289/289
f 289/289/289 295/295/295 298/298/298
f 289/289/289 298/298/298 287/287/287
f 287/287/287 298/298/298 299/299/299
f 287/287/287 299/299/299 284/284/284
f 284/284/284 299/299/299 301/301/301
f 284/284/284 301/301/301 282/282/282
f 282/282/282 301/301/301 304/304/304
f 282/282/282 304/304/304 281/281/281
f 281/281/281 304/304/304 306/306/306
f 281/281/281 306/306/306 278/278/278
f 278/278/278 306/306/306 308/308/308
f 278/278/278 308/308/308 276/276/276
f 276/276/276 308/308/308 309/309/309
f 276/276/276 309/309/309 275/275/275
f 275/275/275 309/309/309 312/312/312
f 275/275/275 312/312/312 272/272/272
f 272/272/272 312/312/312 313/313/313
f 272/272/272 313/313/313 271/271/271
f 271/271/271 313/313/313 315/315/315
f 271/271/271 315/315/315 269/269/269
f 269/269/269 315/315/315 317/317/317
f 269/269/269 317/317/317 266/266/266
f 266/266/266 317/317/317 320/320/320
f 266/266/266 320/320/320 265/265/265
f 265/265/265 320/320/320 321/321/321
f 265/265/265 321/321/321 262/262/262
f 262/262/262 321/321/321 323/323/323
f 262/262/262 323/323/323 260/260/260
f 260/260/260 323/323/323 325/325/325
f 260/260/260 325/325/325 258/258/258
f 258/258/258 325/325/325 327/327/327
f 258/258/258 327/327/327 257/257/257
f 257/257/257 327/327/327 330/330/330
f 257/257/257 330/330/330 254/254/254
f 254/254/254 330/330/330 332/332/332
f 254/254/254 332/332/332 252/252/252
f 252/252/252 332/332/332 334/334/334
f 252/252/252 334/334/334 251/251/251
f 251/251/251 334/334/334 335/335/335
f 251/251/251 335/335/335 249/249/249
f 249/249/249 335/335/335 337/337/337
f 249/249/249 337/337/337 247/247/247
f 247/247/247 337/337/337 339/339/339
f 247/247/247 339/339/339 244/244/244
f 244/244/244 339/339/339 342/342/342
f 244/244/244 342/342/342 243/243/243
f 243/243/243 342/342/342 344/344/344
f 243/243/243 344/344/344 241/241/241
f 241/241/241 344/344/344 346/346/346
f 241/241/241 346/346/346 238/238/238
f 238/238/238 346/346/346 347/347/347
f 238/238/238 347/347/347 237/237/237
f 237/237/237 347/347/347 349/349/349
f 237/237/237 349/349/349 235/235/235
f 235/235/235 349/349/349 351/351/351
f 235/235/235 351/351/351 233/233/233
f 233/233/233 351/351/351 354/354/354
f 233/233/233 354/354/354 231/231/231
f 231/231/231 354/354/354 356/356/356
f 231/231/231 356/356/356 229/229/229
f 229/229/229 356/356/356 357/357/357
f 229/229/229 357/357/357 227/227/227
f 227/227/227 357/357/357 359/359/359
f 227/227/227 359/359/359 225/225/225
f 225/225/225 359/359/359 361/361/361
f 225/225/225 361/361/361 222/222/222
f 222/222/222 361/361/361 364/364/364
f 222/222/222 364/364/364 220/220/220
f 220/220/220 364/364/364 366/366/366
f 220/220/220 366/366/366 218/218/218
f 218/218/218 366/366/366 368/368/368
f 218/218/218 368/368/368 216/216/216
f 216/216/216 368/368/368 370/370/370
f 216/216/216 370/370/370 215/215/215
f 215/215/215 370/370/370 372/372/372
f 215/215/215 372/372/372 213/213/213
f 213/213/213 372/372/372 374/374/374
f 213/213/213 374/374/374 211/211/211
f 211/211/211 374/374/374 376/376/376
f 211/211/211 376/376/376 208/208/208
f 208/208/208 376/376/376 378/378/378
f 208/208/208 378/378/378 207/207/207
f 207/207/207 378/378/378 380/380/380
f 207/207/207 380/380/380 204/204/204
f 204/204/204 380/380/380 381/381/381
f 204/204/204 381/381/381 202/202/202
f 202/202/202 381/381/381 383/383/383
f 202/202/202 383/383/383 200/200/200
f 200/200/200 383/383/383 386/386/386
f 200/200/200 386/386/386 199/199/199
f 199/199/199 386/386/386 388/388/388
f 199/199/199 388/388/388 197/197/197
f 197/197/197 388/388/388 389/389/389
f 197/197/197 389/389/389 195/195/195
f 195/195/195 389/389/389 392/392/392
f 195/195/195 392/392/392 192/192/192
f 192/192/192 392/392/392 393/393/393
f 192/192/192 393/393/393 190/190/190
f 190/190/190 393/393/393 395/395/395
f 190/190/190 395/395/395 189/189/189
f 189/189/189 395/395/395 397/397/397
f 189/189/189 397/397/397 187/187/187
f 187/187/187 397/397/397 399/399/399
f 187/187/187 399/399/399 184/184/184
f 184/184/184 399/399/399 401/401/401
f 184/184/184 401/401/401 183/183/183
f 183/183/183 401/401/401 403/403/403
f 296/296/296 294/294/294 3/3/3
f 3/3/3 294/294/294 404/404/404
f 3/3/3 404/404/404 5/5/5
f 5/5/5 404/404/404 402/402/402
f 5/5/5 402/402/402 6/6/6
f 6/6/6 402/402/402 400/400/400
f 6/6/6 400/400/400 8/8/8
f 8/8/8 400/400/400 398/398/398
f 8/8/8 398/398/398 10/10/10
f 10/10/10 398/398/398 396/396/396
f 10/10/10 396/396/396 394/394/394
f 10/10/10 394/394/394 12/12/12
f 12/12/12 394/394/394 391/391/391
f 12/12/12 391/391/391 15/15/15
f 15/15/15 391/391/391 390/390/390
f 15/15/15 390/390/390 16/16/16
f 16/16/16 390/390/390 387/387/387
f 16/16/16 387/387/387 385/385/385
f 16/16/16 385/385/385 18/18/18
f 18/18/18 385/385/385 384/384/384
f 18/18/18 384/384/384 21/21/21
f 21/21/21 384/384/384 382/382/382
f 21/21/21 382/382/382 22/22/22
f 22/22/22 382/382/382 379/379/379
f 22/22/22 379/379/379 25/25/25
f 25/25/25 379/379/379 377/377/377
f 25/25/25 377/377/377 375/375/375
f 25/25/25 375/375/375 26/26/26
f 26/26/26 375/375/375 373/373/373
f 26/26/26 373/373/373 28/28/28
f 28/28/28 373/373/373 371/371/371
f 28/28/28 371/371/371 30/30/30
f 30/30/30 371/371/371 369/369/369
f 30/30/30 369/369/369 33/33/33
f 33/33/33 369/369/369 367/367/367
f 33/33/33 367/367/367 365/365/365
f 33/33/33 365/365/365 35/35/35
f 35/35/35 365/365/365 363/363/363
f 35/35/35 363/363/363 36/36/36
f 36/36/36 363/363/363 362/362/362
f 36/36/36 362/362/362 39/39/39
f 39/39/39 362/362/362 360/360/360
f 39/39/39 360/360/360 358/358/358
f 39/39/39 358/358/358 40/40/40
f 40/40/40 358/358/358 355/355/355
f 40/40/40 355/355/355 42/42/42
f 42/42/42 355/355/355 353/353/353
f 42/42/42 353/353/353 45/45/45
f 45/45/45 353/353/353 352/352/352
f 45/45/45 352/352/352 46/46/46
f 46/46/46 352/352/352 350/350/350
f 46/46/46 350/350/350 348/348/348
f 46/46/46 348/348/348 48/48/48
f 48/48/48 348/348/348 345/345/345
f 48/48/48 345/345/345 50/50/50
f 50/50/50 345/345/345 343/343/343
f 50/50/50 343/343/343 53/53/53
f 53/53/53 343/343/343 341/341/341
f 53/53/53 341/341/341 55/55/55
f 55/55/55 341/341/341 340/340/340
f 55/55/55 340/340/340 338/338/338
f 55/55/55 338/338/338 57/57/57
f 57/57/57 338/338/338 336/336/336
f 57/57/57 336/336/336 59/59/59
f 59/59/59 336/336/336 333/333/333
f 59/59/59 333/333/333 60/60/60
f 60/60/60 333/333/333 331/331/331
f 60/60/60 331/331/331 329/329/329
f 60/60/60 329/329/329 62/62/62
f 62/62/62 329/329/329 328/328/328
f 62/62/62 328/328/328 65/65/65
f 65/65/65 328/328/328 326/326/326
f 65/65/65 326/326/326 66/66/66
f 66/66/66 326/326/326 324/324/324
f 66/66/66 324/324/324 69/69/69
f 69/69/69 324/324/324 322/322/322
f 69/69/69 322/322/322 319/319/319
f 69/69/69 319/319/319 71/71/71
f 71/71/71 319/319/319 318/318/318
f 71/71/71 318/318/318 73/73/73
f 73/73/73 318/318/318 316/316/316
f 73/73/73 316/316/316 74/74/74
f 74/74/74 316/316/316 314/314/314
f 74/74/74 314/314/314 76/76/76
f 76/76/76 314/314/314 311/311/311
f 76/76/76 311/311/311 310/310/310
f 76/76/76 310/310/310 78/78/78
f 78/78/78 310/310/310 307/307/307
f 78/78/78 307/307/307 81/81/81
f 81/81/81 307/307/307 305/305/305
f 81/81/81 305/305/305 82/82/82
f 82/82/82 305/305/305 303/303/303
f 82/82/82 303/303/303 302/302/302
f 82/82/82 302/302/302 84/84/84
f 84/84/84 302/302/302 300/300/300
f 84/84/84 300/300/300 87/87/87
f 87/87/87 300/300/300 297/297/297
f 87/87/87 297/297/297 88/88/88
f 88/88/88 297/297/297 296/296/296
f 88/88/88 296/296/296 3/3/3
f 290/290/290 239/239/239 180/180/180
f 180/180/180 239/239/239 236/236/236
f 180/180/180 236/236/236 182/182/182
f 182/182/182 236/236/236 234/234/234
f 182/182/182 234/234/234 185/185/185
f 185/185/185 234/234/234 232/232/232
f 185/185/185 232/232/232 186/186/186
f 186/186/186 232/232/232 230/230/230
f 186/186/186 230/230/230 188/188/188
f 188/188/188 230/230/230 228/228/228
f 188/188/188 228/228/228 191/191/191
f 191/191/191 228/228/228 226/226/226
f 191/191/191 226/226/226 193/193/193
f 193/193/193 226/226/226 224/224/224
f 193/193/193 224/224/224 194/194/194
f 194/194/194 224/224/224 223/223/223
f 194/194/194 223/223/223 196/196/196
f 196/196/196 223/223/223 221/221/221
f 196/196/196 221/221/221 198/198/198
f 198/198/198 221/221/221 219/219/219
f 198/198/198 219/219/219 201/201/201
f 201/201/201 219/219/219 217/217/217
f 201/201/201 217/217/217 203/203/203
f 203/203/203 217/217/217 214/214/214
f 203/203/203 214/214/214 205/205/205
f 205/205/205 214/214/214 212/212/212
f 205/205/205 212/212/212 206/206/206
f 206/206/206 212/212/212 210/210/210
f 206/206/206 210/210/210 209/209/209
f 239/239/239 290/290/290 240/240/240
f 240/240/240 290/290/290 288/288/288
f 240/240/240 288/288/288 242/242/242
f 242/242/242 288/288/288 286/286/286
f 242/242/242 286/286/286 245/245/245
f 245/245/245 286/286/286 285/285/285
f 245/245/245 285/285/285 246/246/246
f 246/246/246 285/285/285 283/283/283
f 246/246/246 283/283/283 248/248/248
f 248/248/248 283/283/283 280/280/280
f 248/248/248 280/280/280 250/250/250
f 250/250/250 280/280/280 279/279/279
f 250/250/250 279/279/279 253/253/253
f 253/253/253 279/279/279 277/277/277
f 253/253/253 277/277/277 255/255/255
f 255/255/255 277/277/277 274/274/274
f 255/255/255 274/274/274 256/256/256
f 256/256/256 274/274/274 273/273/273
f 256/256/256 273/273/273 259/259/259
f 259/259/259 273/273/273 270/270/270
f 259/259/259 270/270/270 261/261/261
f 261/261/261 270/270/270 268/268/268
f 261/261/261 268/268/268 263/263/263
f 263/263/263 268/268/268 267/267/267
f 263/263/263 267/267/267 264/264/264

