mtllib material.mtl
usemtl Opaque(247,66,66)
v -0.14429900 -0.03703500 0.12521200
v -0.14429900 -0.03933100 0.12526200
v -0.14429900 -0.04153700 0.12461900
v -0.14429900 -0.04344700 0.12334300
v -0.14429900 -0.04488400 0.12155200
v -0.14429900 -0.04408400 0.12108900
v -0.14429900 -0.04657100 0.11929200
v -0.14429900 -0.04624900 0.12233900
v -0.14429900 -0.04549500 0.12190400
v -0.14429900 -0.04392300 0.12386300
v -0.14429900 -0.04183500 0.12525800
v -0.14429900 -0.03942400 0.12596100
v -0.14429900 -0.03691200 0.12590600
v -0.14429900 -0.03256200 0.11292400
v -0.14429900 -0.03137100 0.11488700
v -0.14429900 -0.03082500 0.11711900
v -0.14429900 -0.03097500 0.11941100
v -0.14429900 -0.03180800 0.12155200
v -0.14429900 -0.03260800 0.12108900
v -0.14429900 -0.03292100 0.12414200
v -0.14429900 -0.03044300 0.12233900
v -0.14429900 -0.03119700 0.12190400
v -0.14429900 -0.03028600 0.11956300
v -0.14429900 -0.03012200 0.11705700
v -0.14429900 -0.03071900 0.11461700
v -0.14429900 -0.03202200 0.11247000
v -0.14429900 -0.04544100 0.11519400
v -0.14429900 -0.04433600 0.11318000
v -0.14429900 -0.04267600 0.11159200
v -0.14429900 -0.04061600 0.11057600
v -0.14429900 -0.03834600 0.11022700
v -0.14429900 -0.03834600 0.11115100
v -0.14429900 -0.03554600 0.10989600
v -0.14429900 -0.03834600 0.10865100
v -0.14429900 -0.03834600 0.10952100
v -0.14429900 -0.04082800 0.10990300
v -0.14429900 -0.04308100 0.11101400
v -0.14429900 -0.04489500 0.11275100
v -0.14429900 -0.04610300 0.11495300
v -0.12929900 -0.02684600 0.11777700
v -0.12929900 -0.02684600 0.11777700
v -0.12929900 -0.02684600 0.11777700
v -0.12929900 -0.02731200 0.12101600
v -0.12929900 -0.02731200 0.12101600
v -0.12929900 -0.02867200 0.12399400
v -0.12929900 -0.02867200 0.12399400
v -0.12929900 -0.03081500 0.12646800
v -0.12929900 -0.03081500 0.12646800
v -0.12929900 -0.03356900 0.12823700
v -0.12929900 -0.03356900 0.12823700
v -0.12929900 -0.03670900 0.12915900
v -0.12929900 -0.03670900 0.12915900
v -0.12929900 -0.03998300 0.12915900
v -0.12929900 -0.03998300 0.12915900
v -0.12929900 -0.04312300 0.12823700
v -0.12929900 -0.04312300 0.12823700
v -0.12929900 -0.04587700 0.12646800
v -0.12929900 -0.04587700 0.12646800
v -0.12929900 -0.04802000 0.12399400
v -0.12929900 -0.04802000 0.12399400
v -0.12929900 -0.04938000 0.12101600
v -0.12929900 -0.04938000 0.12101600
v -0.12929900 -0.04984600 0.11777700
v -0.12929900 -0.04984600 0.11777700
v -0.12929900 -0.04938000 0.11453700
v -0.12929900 -0.04938000 0.11453700
v -0.12929900 -0.04802000 0.11155900
v -0.12929900 -0.04802000 0.11155900
v -0.12929900 -0.04587700 0.10908500
v -0.12929900 -0.04587700 0.10908500
v -0.12929900 -0.04312300 0.10731600
v -0.12929900 -0.04312300 0.10731600
v -0.12929900 -0.03998300 0.10639400
v -0.12929900 -0.03998300 0.10639400
v -0.12929900 -0.03670900 0.10639400
v -0.12929900 -0.03670900 0.10639400
v -0.12929900 -0.03356900 0.10731600
v -0.12929900 -0.03356900 0.10731600
v -0.12929900 -0.03081500 0.10908500
v -0.12929900 -0.03081500 0.10908500
v -0.12929900 -0.02867200 0.11155900
v -0.12929900 -0.02867200 0.11155900
v -0.12929900 -0.02731200 0.11453700
v -0.12929900 -0.02731200 0.11453700
v -0.12929900 -0.04934600 0.11777700
v -0.12929900 -0.04934600 0.11777700
v -0.12929900 -0.04934600 0.11777700
v -0.12929900 -0.04885700 0.12101900
v -0.12929900 -0.04885700 0.12101900
v -0.12929900 -0.04743500 0.12397300
v -0.12929900 -0.04743500 0.12397300
v -0.12929900 -0.04520400 0.12637700
v -0.12929900 -0.04520400 0.12637700
v -0.12929900 -0.04236500 0.12801600
v -0.12929900 -0.04236500 0.12801600
v -0.12929900 -0.03916800 0.12874600
v -0.12929900 -0.03916800 0.12874600
v -0.12929900 -0.03589800 0.12850100
v -0.12929900 -0.03589800 0.12850100
v -0.12929900 -0.03284600 0.12730300
v -0.12929900 -0.03284600 0.12730300
v -0.12929900 -0.03028200 0.12525800
v -0.12929900 -0.03028200 0.12525800
v -0.12929900 -0.02843500 0.12254900
v -0.12929900 -0.02843500 0.12254900
v -0.12929900 -0.02746900 0.11941600
v -0.12929900 -0.02746900 0.11941600
v -0.12929900 -0.02746900 0.11613700
v -0.12929900 -0.02746900 0.11613700
v -0.12929900 -0.02843500 0.11300400
v -0.12929900 -0.02843500 0.11300400
v -0.12929900 -0.03028200 0.11029500
v -0.12929900 -0.03028200 0.11029500
v -0.12929900 -0.03284600 0.10825000
v -0.12929900 -0.03284600 0.10825000
v -0.12929900 -0.03589800 0.10705200
v -0.12929900 -0.03589800 0.10705200
v -0.12929900 -0.03916800 0.10680700
v -0.12929900 -0.03916800 0.10680700
v -0.12929900 -0.04236500 0.10753700
v -0.12929900 -0.04236500 0.10753700
v -0.12929900 -0.04520400 0.10917600
v -0.12929900 -0.04520400 0.10917600
v -0.12929900 -0.04743500 0.11158000
v -0.12929900 -0.04743500 0.11158000
v -0.12929900 -0.04885700 0.11453400
v -0.12929900 -0.04885700 0.11453400
v -0.14429900 -0.02834600 0.11777700
v -0.14429900 -0.02834600 0.11777700
v -0.14429900 -0.02834600 0.11777700
v -0.14429900 -0.02883500 0.11468600
v -0.14429900 -0.02883500 0.11468600
v -0.14429900 -0.03025600 0.11189900
v -0.14429900 -0.03025600 0.11189900
v -0.14429900 -0.03246800 0.10968600
v -0.14429900 -0.03246800 0.10968600
v -0.14429900 -0.03525600 0.10826600
v -0.14429900 -0.03525600 0.10826600
v -0.14429900 -0.03834600 0.10777700
v -0.14429900 -0.03834600 0.10777700
v -0.14429900 -0.04143600 0.10826600
v -0.14429900 -0.04143600 0.10826600
v -0.14429900 -0.04422400 0.10968600
v -0.14429900 -0.04422400 0.10968600
v -0.14429900 -0.04643600 0.11189900
v -0.14429900 -0.04643600 0.11189900
v -0.14429900 -0.04785700 0.11468600
v -0.14429900 -0.04785700 0.11468600
v -0.14429900 -0.04834600 0.11777700
v -0.14429900 -0.04834600 0.11777700
v -0.14429900 -0.04785700 0.12086700
v -0.14429900 -0.04785700 0.12086700
v -0.14429900 -0.04643600 0.12365400
v -0.14429900 -0.04643600 0.12365400
v -0.14429900 -0.04422400 0.12586700
v -0.14429900 -0.04422400 0.12586700
v -0.14429900 -0.04143600 0.12728700
v -0.14429900 -0.04143600 0.12728700
v -0.14429900 -0.03834600 0.12777700
v -0.14429900 -0.03834600 0.12777700
v -0.14429900 -0.03525600 0.12728700
v -0.14429900 -0.03525600 0.12728700
v -0.14429900 -0.03246800 0.12586700
v -0.14429900 -0.03246800 0.12586700
v -0.14429900 -0.03025600 0.12365400
v -0.14429900 -0.03025600 0.12365400
v -0.14429900 -0.02883500 0.12086700
v -0.14429900 -0.02883500 0.12086700
v -0.13729900 -0.04934600 0.11777700
v -0.13729900 -0.04934600 0.11777700
v -0.13729900 -0.04885700 0.11453400
v -0.13729900 -0.04743500 0.11158000
v -0.13729900 -0.04520400 0.10917600
v -0.13729900 -0.04236500 0.10753700
v -0.13729900 -0.03916800 0.10680700
v -0.13729900 -0.03589800 0.10705200
v -0.13729900 -0.03284600 0.10825000
v -0.13729900 -0.03028200 0.11029500
v -0.13729900 -0.02843500 0.11300400
v -0.13729900 -0.02746900 0.11613700
v -0.13729900 -0.02746900 0.11941600
v -0.13729900 -0.02843500 0.12254900
v -0.13729900 -0.03028200 0.12525800
v -0.13729900 -0.03284600 0.12730300
v -0.13729900 -0.03589800 0.12850100
v -0.13729900 -0.03916800 0.12874600
v -0.13729900 -0.04236500 0.12801600
v -0.13729900 -0.04520400 0.12637700
v -0.13729900 -0.04743500 0.12397300
v -0.13729900 -0.04885700 0.12101900
v -0.13892400 -0.02636000 0.11777700
v -0.13892400 -0.02636000 0.11777700
v -0.13892400 -0.02636000 0.11777700
v -0.13892400 -0.02636000 0.11777700
v -0.13892400 -0.02684500 0.11440000
v -0.13892400 -0.02684500 0.11440000
v -0.13892400 -0.02826300 0.11129600
v -0.13892400 -0.02826300 0.11129600
v -0.13892400 -0.03049700 0.10871800
v -0.13892400 -0.03049700 0.10871800
v -0.13892400 -0.03336700 0.10687400
v -0.13892400 -0.03336700 0.10687400
v -0.13892400 -0.03664000 0.10591200
v -0.13892400 -0.03664000 0.10591200
v -0.13892400 -0.04005200 0.10591200
v -0.13892400 -0.04005200 0.10591200
v -0.13892400 -0.04332500 0.10687400
v -0.13892400 -0.04332500 0.10687400
v -0.13892400 -0.04619500 0.10871800
v -0.13892400 -0.04619500 0.10871800
v -0.13892400 -0.04842900 0.11129600
v -0.13892400 -0.04842900 0.11129600
v -0.13892400 -0.04984700 0.11440000
v -0.13892400 -0.04984700 0.11440000
v -0.13892400 -0.05033200 0.11777700
v -0.13892400 -0.05033200 0.11777700
v -0.13892400 -0.04984700 0.12115300
v -0.13892400 -0.04984700 0.12115300
v -0.13892400 -0.04842900 0.12425700
v -0.13892400 -0.04842900 0.12425700
v -0.13892400 -0.04619500 0.12683500
v -0.13892400 -0.04619500 0.12683500
v -0.13892400 -0.04332500 0.12868000
v -0.13892400 -0.04332500 0.12868000
v -0.13892400 -0.04005200 0.12964100
v -0.13892400 -0.04005200 0.12964100
v -0.13892400 -0.03664000 0.12964100
v -0.13892400 -0.03664000 0.12964100
v -0.13892400 -0.03336700 0.12868000
v -0.13892400 -0.03336700 0.12868000
v -0.13892400 -0.03049700 0.12683500
v -0.13892400 -0.03049700 0.12683500
v -0.13892400 -0.02826300 0.12425700
v -0.13892400 -0.02826300 0.12425700
v -0.13892400 -0.02684500 0.12115300
v -0.13892400 -0.02684500 0.12115300
v -0.14046300 -0.02597500 0.11777700
v -0.14046300 -0.02597500 0.11777700
v -0.14203100 -0.02621900 0.11777700
v -0.14203100 -0.02621900 0.11777700
v -0.14338000 -0.02705300 0.11777700
v -0.14338000 -0.02705300 0.11777700
v -0.14046300 -0.02647600 0.11429100
v -0.14203100 -0.02671000 0.11436000
v -0.14338000 -0.02751000 0.11459500
v -0.14046300 -0.02793900 0.11108800
v -0.14203100 -0.02814400 0.11122000
v -0.14338000 -0.02884600 0.11167100
v -0.14046300 -0.03024500 0.10842700
v -0.14203100 -0.03040400 0.10861200
v -0.14338000 -0.03095100 0.10924200
v -0.14046300 -0.03320700 0.10652400
v -0.14203100 -0.03330800 0.10674500
v -0.14338000 -0.03365500 0.10750400
v -0.14046300 -0.03658500 0.10553200
v -0.14203100 -0.03662000 0.10577300
v -0.14338000 -0.03673900 0.10659800
v -0.14046300 -0.04010700 0.10553200
v -0.14203100 -0.04007200 0.10577300
v -0.14338000 -0.03995300 0.10659800
v -0.14046300 -0.04348500 0.10652400
v -0.14203100 -0.04338400 0.10674500
v -0.14338000 -0.04303700 0.10750400
v -0.14046300 -0.04644700 0.10842700
v -0.14203100 -0.04628800 0.10861200
v -0.14338000 -0.04574100 0.10924200
v -0.14046300 -0.04875300 0.11108800
v -0.14203100 -0.04854800 0.11122000
v -0.14338000 -0.04784600 0.11167100
v -0.14046300 -0.05021600 0.11429100
v -0.14203100 -0.04998200 0.11436000
v -0.14338000 -0.04918200 0.11459500
v -0.14046300 -0.05071700 0.11777700
v -0.14203100 -0.05047300 0.11777700
v -0.14338000 -0.04963900 0.11777700
v -0.14046300 -0.05021600 0.12126200
v -0.14203100 -0.04998200 0.12119300
v -0.14338000 -0.04918200 0.12095800
v -0.14046300 -0.04875300 0.12446500
v -0.14203100 -0.04854800 0.12433300
v -0.14338000 -0.04784600 0.12388200
v -0.14046300 -0.04644700 0.12712600
v -0.14203100 -0.04628800 0.12694200
v -0.14338000 -0.04574100 0.12631100
v -0.14046300 -0.04348500 0.12903000
v -0.14203100 -0.04338400 0.12880800
v -0.14338000 -0.04303700 0.12804900
v -0.14046300 -0.04010700 0.13002200
v -0.14203100 -0.04007200 0.12978000
v -0.14338000 -0.03995300 0.12895500
v -0.14046300 -0.03658500 0.13002200
v -0.14203100 -0.03662000 0.12978000
v -0.14338000 -0.03673900 0.12895500
v -0.14046300 -0.03320700 0.12903000
v -0.14203100 -0.03330800 0.12880800
v -0.14338000 -0.03365500 0.12804900
v -0.14046300 -0.03024500 0.12712600
v -0.14203100 -0.03040400 0.12694200
v -0.14338000 -0.03095100 0.12631100
v -0.14046300 -0.02793900 0.12446500
v -0.14203100 -0.02814400 0.12433300
v -0.14338000 -0.02884600 0.12388200
v -0.14046300 -0.02647600 0.12126200
v -0.14203100 -0.02671000 0.12119300
v -0.14338000 -0.02751000 0.12095800
v -0.13677300 -0.02684600 0.11777700
v -0.13677300 -0.02684600 0.11777700
v -0.13677300 -0.02684600 0.11777700
v -0.13677300 -0.02684600 0.11777700
v -0.13677300 -0.02731200 0.11453700
v -0.13677300 -0.02731200 0.11453700
v -0.13677300 -0.02867200 0.11155900
v -0.13677300 -0.02867200 0.11155900
v -0.13677300 -0.03081500 0.10908500
v -0.13677300 -0.03081500 0.10908500
v -0.13677300 -0.03356900 0.10731600
v -0.13677300 -0.03356900 0.10731600
v -0.13677300 -0.03670900 0.10639400
v -0.13677300 -0.03670900 0.10639400
v -0.13677300 -0.03998300 0.10639400
v -0.13677300 -0.03998300 0.10639400
v -0.13677300 -0.04312300 0.10731600
v -0.13677300 -0.04312300 0.10731600
v -0.13677300 -0.04587700 0.10908500
v -0.13677300 -0.04587700 0.10908500
v -0.13677300 -0.04802000 0.11155900
v -0.13677300 -0.04802000 0.11155900
v -0.13677300 -0.04938000 0.11453700
v -0.13677300 -0.04938000 0.11453700
v -0.13677300 -0.04984600 0.11777700
v -0.13677300 -0.04984600 0.11777700
v -0.13677300 -0.04938000 0.12101600
v -0.13677300 -0.04938000 0.12101600
v -0.13677300 -0.04802000 0.12399400
v -0.13677300 -0.04802000 0.12399400
v -0.13677300 -0.04587700 0.12646800
v -0.13677300 -0.04587700 0.12646800
v -0.13677300 -0.04312300 0.12823700
v -0.13677300 -0.04312300 0.12823700
v -0.13677300 -0.03998300 0.12915900
v -0.13677300 -0.03998300 0.12915900
v -0.13677300 -0.03670900 0.12915900
v -0.13677300 -0.03670900 0.12915900
v -0.13677300 -0.03356900 0.12823700
v -0.13677300 -0.03356900 0.12823700
v -0.13677300 -0.03081500 0.12646800
v -0.13677300 -0.03081500 0.12646800
v -0.13677300 -0.02867200 0.12399400
v -0.13677300 -0.02867200 0.12399400
v -0.13677300 -0.02731200 0.12101600
v -0.13677300 -0.02731200 0.12101600
vn -100.00000000 -0.00000000 0.00000000
vn -100.00000000 -0.00000000 0.00000000
vn -100.00000000 -0.00000000 0.00000000
vn -100.00000000 -0.00000000 0.00000000
vn -100.00000000 -0.00000000 0.00000000
vn -100.00000000 -0.00000000 0.00000000
vn -100.00000000 -0.00000000 0.00000000
vn -100.00000000 -0.00000000 0.00000000
vn -100.00000000 -0.00000000 0.00000000
vn -100.00000000 -0.00000000 0.00000000
vn -100.00000000 -0.00000000 0.00000000
vn -100.00000000 -0.00000000 0.00000000
vn -100.00000000 -0.00000000 0.00000000
vn -100.00000000 -0.00000000 0.00000000
vn -100.00000000 -0.00000000 0.00000000
vn -100.00000000 -0.00000000 0.00000000
vn -100.00000000 -0.00000000 0.00000000
vn -100.00000000 -0.00000000 0.00000000
vn -100.00000000 -0.00000000 0.00000000
vn -100.00000000 -0.00000000 0.00000000
vn -100.00000000 -0.00000000 0.00000000
vn -100.00000000 -0.00000000 0.00000000
vn -100.00000000 -0.00000000 0.00000000
vn -100.00000000 -0.00000000 0.00000000
vn -100.00000000 -0.00000000 0.00000000
vn -100.00000000 -0.00000000 0.00000000
vn -100.00000000 -0.00000000 0.00000000
vn -100.00000000 -0.00000000 0.00000000
vn -100.00000000 -0.00000000 0.00000000
vn -100.00000000 -0.00000000 0.00000000
vn -100.00000000 -0.00000000 0.00000000
vn -100.00000000 -0.00000000 0.00000000
vn -100.00000000 -0.00000000 0.00000000
vn -100.00000000 -0.00000000 0.00000000
vn -100.00000000 -0.00000000 0.00000000
vn -100.00000000 -0.00000000 0.00000000
vn -100.00000000 -0.00000000 0.00000000
vn -100.00000000 -0.00000000 0.00000000
vn -100.00000000 -0.00000000 0.00000000
vn 100.00000000 0.00000000 -0.00000000
vn -0.00000000 100.00000000 -0.00000000
vn -0.00000000 100.00000000 -0.00000000
vn -0.00000000 95.94929700 28.17325600
vn 100.00000000 0.00000000 -0.00000000
vn 100.00000000 0.00000000 -0.00000000
vn -0.00000000 84.12535300 54.06408200
vn 100.00000000 0.00000000 -0.00000000
vn -0.00000000 65.48607300 75.57495700
vn 100.00000000 0.00000000 -0.00000000
vn -0.00000000 41.54150100 90.96320000
vn 100.00000000 0.00000000 -0.00000000
vn 0.00000000 14.23148400 98.98214400
vn 100.00000000 0.00000000 -0.00000000
vn 0.00000000 -14.23148400 98.98214400
vn 100.00000000 0.00000000 -0.00000000
vn 0.00000000 -41.54150100 90.96320000
vn 100.00000000 0.00000000 -0.00000000
vn 0.00000000 -65.48607300 75.57495700
vn 100.00000000 0.00000000 -0.00000000
vn 0.00000000 -84.12535300 54.06408200
vn 0.00000000 -95.94929700 28.17325600
vn 100.00000000 0.00000000 -0.00000000
vn 0.00000000 -100.00000000 0.00000000
vn 100.00000000 0.00000000 -0.00000000
vn 100.00000000 0.00000000 -0.00000000
vn 0.00000000 -95.94929700 -28.17325600
vn 100.00000000 0.00000000 -0.00000000
vn 0.00000000 -84.12535300 -54.06408200
vn 100.00000000 0.00000000 -0.00000000
vn 0.00000000 -65.48607300 -75.57495700
vn 100.00000000 0.00000000 -0.00000000
vn 0.00000000 -41.54150100 -90.96320000
vn 100.00000000 0.00000000 -0.00000000
vn -0.00000000 -14.23148400 -98.98214400
vn 100.00000000 0.00000000 -0.00000000
vn -0.00000000 14.23148400 -98.98214400
vn 100.00000000 0.00000000 -0.00000000
vn -0.00000000 41.54150100 -90.96320000
vn 100.00000000 0.00000000 -0.00000000
vn -0.00000000 65.48607300 -75.57495700
vn -0.00000000 84.12535300 -54.06408200
vn 100.00000000 0.00000000 -0.00000000
vn -0.00000000 95.94929700 -28.17325600
vn 100.00000000 0.00000000 -0.00000000
vn -0.00000000 100.00000000 0.00000000
vn -0.00000000 100.00000000 0.00000000
vn 100.00000000 0.00000000 -0.00000000
vn 100.00000000 0.00000000 -0.00000000
vn -0.00000000 95.55728100 -29.47551700
vn 100.00000000 0.00000000 -0.00000000
vn -0.00000000 82.62387700 -56.33200600
vn -0.00000000 62.34898000 -78.18314800
vn 100.00000000 0.00000000 -0.00000000
vn 100.00000000 0.00000000 -0.00000000
vn -0.00000000 36.53410200 -93.08737500
vn 100.00000000 0.00000000 -0.00000000
vn -0.00000000 7.47300900 -99.72038000
vn 100.00000000 0.00000000 -0.00000000
vn 0.00000000 -22.25209300 -97.49279100
vn 100.00000000 0.00000000 -0.00000000
vn 0.00000000 -50.00000000 -86.60254000
vn 100.00000000 0.00000000 -0.00000000
vn 0.00000000 -73.30518700 -68.01727400
vn 0.00000000 -90.09688700 -43.38837400
vn 100.00000000 0.00000000 -0.00000000
vn 0.00000000 -98.88308300 -14.90422700
vn 100.00000000 0.00000000 -0.00000000
vn 100.00000000 0.00000000 -0.00000000
vn 0.00000000 -98.88308300 14.90422700
vn 0.00000000 -90.09688700 43.38837400
vn 100.00000000 0.00000000 -0.00000000
vn 0.00000000 -73.30518700 68.01727400
vn 100.00000000 0.00000000 -0.00000000
vn 0.00000000 -50.00000000 86.60254000
vn 100.00000000 0.00000000 -0.00000000
vn 0.00000000 -22.25209300 97.49279100
vn 100.00000000 0.00000000 -0.00000000
vn 0.00000000 7.47300900 99.72038000
vn 100.00000000 0.00000000 -0.00000000
vn -0.00000000 36.53410200 93.08737500
vn 100.00000000 0.00000000 -0.00000000
vn -0.00000000 62.34898000 78.18314800
vn 100.00000000 0.00000000 -0.00000000
vn -0.00000000 82.62387700 56.33200600
vn 100.00000000 0.00000000 -0.00000000
vn -0.00000000 95.55728100 29.47551700
vn 100.00000000 0.00000000 -0.00000000
vn -91.37619700 40.62500000 0.00000000
vn -91.37619700 40.62500000 0.00000000
vn -100.00000000 -0.00000000 0.00000000
vn -91.37619700 38.63667100 -12.55381500
vn -100.00000000 -0.00000000 0.00000000
vn -91.37619700 32.86631500 -23.87877600
vn -100.00000000 -0.00000000 0.00000000
vn -100.00000000 -0.00000000 0.00000000
vn -91.37619700 23.87877600 -32.86631500
vn -91.37619700 12.55381500 -38.63667100
vn -100.00000000 -0.00000000 0.00000000
vn -91.37619700 -0.00000000 -40.62500000
vn -100.00000000 -0.00000000 0.00000000
vn -91.37619700 -12.55381500 -38.63667100
vn -100.00000000 -0.00000000 0.00000000
vn -91.37619700 -23.87877600 -32.86631500
vn -100.00000000 -0.00000000 0.00000000
vn -100.00000000 -0.00000000 0.00000000
vn -91.37619700 -32.86631500 -23.87877600
vn -100.00000000 -0.00000000 0.00000000
vn -91.37619700 -38.63667100 -12.55381500
vn -100.00000000 -0.00000000 0.00000000
vn -91.37619700 -40.62500000 0.00000000
vn -91.37619700 -38.63667100 12.55381500
vn -100.00000000 -0.00000000 0.00000000
vn -91.37619700 -32.86631500 23.87877600
vn -100.00000000 -0.00000000 0.00000000
vn -91.37619700 -23.87877600 32.86631500
vn -100.00000000 -0.00000000 0.00000000
vn -100.00000000 -0.00000000 0.00000000
vn -91.37619700 -12.55381500 38.63667100
vn -100.00000000 -0.00000000 0.00000000
vn -91.37619700 -0.00000000 40.62500000
vn -100.00000000 -0.00000000 0.00000000
vn -91.37619700 12.55381500 38.63667100
vn -91.37619700 23.87877600 32.86631500
vn -100.00000000 -0.00000000 0.00000000
vn -91.37619700 32.86631500 23.87877600
vn -100.00000000 -0.00000000 0.00000000
vn -91.37619700 38.63667100 12.55381500
vn -100.00000000 -0.00000000 0.00000000
vn -0.00000000 100.00000000 0.00000000
vn -0.00000000 100.00000000 0.00000000
vn -0.00000000 95.55728100 29.47551700
vn -0.00000000 82.62387700 56.33200600
vn -0.00000000 62.34898000 78.18314800
vn -0.00000000 36.53410200 93.08737500
vn 0.00000000 7.47300900 99.72038000
vn 0.00000000 -22.25209300 97.49279100
vn 0.00000000 -50.00000000 86.60254000
vn 0.00000000 -73.30518700 68.01727400
vn 0.00000000 -90.09688700 43.38837400
vn 0.00000000 -98.88308300 14.90422700
vn 0.00000000 -98.88308300 -14.90422700
vn 0.00000000 -90.09688700 -43.38837400
vn 0.00000000 -73.30518700 -68.01727400
vn 0.00000000 -50.00000000 -86.60254000
vn 0.00000000 -22.25209300 -97.49279100
vn -0.00000000 7.47300900 -99.72038000
vn -0.00000000 36.53410200 -93.08737500
vn -0.00000000 62.34898000 -78.18314800
vn -0.00000000 82.62387700 -56.33200600
vn -0.00000000 95.55728100 -29.47551700
vn 43.01072900 90.27777800 -0.00000000
vn 43.01072900 90.27777800 -0.00000000
vn 43.01072900 90.27777800 -0.00000000
vn 43.01072900 90.27777800 -0.00000000
vn 43.01072900 86.62089300 -25.43418900
vn 43.01072900 86.62089300 -25.43418900
vn 43.01072900 75.94649900 -48.80785200
vn 43.01072900 75.94649900 -48.80785200
vn 43.01072900 59.11937200 -68.22739200
vn 43.01072900 59.11937200 -68.22739200
vn 43.01072900 37.50274400 -82.11955500
vn 43.01072900 37.50274400 -82.11955500
vn 43.01072900 12.84786700 -89.35888000
vn 43.01072900 12.84786700 -89.35888000
vn 43.01072900 -12.84786700 -89.35888000
vn 43.01072900 -12.84786700 -89.35888000
vn 43.01072900 -37.50274400 -82.11955500
vn 43.01072900 -37.50274400 -82.11955500
vn 43.01072900 -59.11937200 -68.22739200
vn 43.01072900 -59.11937200 -68.22739200
vn 43.01072900 -75.94649900 -48.80785200
vn 43.01072900 -75.94649900 -48.80785200
vn 43.01072900 -86.62089300 -25.43418900
vn 43.01072900 -86.62089300 -25.43418900
vn 43.01072900 -90.27777800 -0.00000000
vn 43.01072900 -90.27777800 -0.00000000
vn 43.01072900 -86.62089300 25.43418900
vn 43.01072900 -86.62089300 25.43418900
vn 43.01072900 -75.94649900 48.80785200
vn 43.01072900 -75.94649900 48.80785200
vn 43.01072900 -59.11937200 68.22739200
vn 43.01072900 -59.11937200 68.22739200
vn 43.01072900 -37.50274400 82.11955500
vn 43.01072900 -37.50274400 82.11955500
vn 43.01072900 -12.84786700 89.35888000
vn 43.01072900 -12.84786700 89.35888000
vn 43.01072900 12.84786700 89.35888000
vn 43.01072900 12.84786700 89.35888000
vn 43.01072900 37.50274400 82.11955500
vn 43.01072900 37.50274400 82.11955500
vn 43.01072900 59.11937200 68.22739200
vn 43.01072900 59.11937200 68.22739200
vn 43.01072900 75.94649900 48.80785200
vn 43.01072900 75.94649900 48.80785200
vn 43.01072900 86.62089300 25.43418900
vn 43.01072900 86.62089300 25.43418900
vn 4.53306900 99.89720400 -0.00000000
vn 4.53306900 99.89720400 -0.00000000
vn -34.65767200 93.80216300 -0.00000000
vn -34.65767200 93.80216300 -0.00000000
vn -68.39654000 72.95144500 0.00000000
vn -68.39654000 72.95144500 0.00000000
vn 4.53306900 95.85066500 -28.14429500
vn -34.65767200 90.00251600 -26.42712300
vn -68.39654000 69.99639900 -20.55279700
vn 4.53306900 84.03887500 -54.00850600
vn -34.65767200 78.91140100 -50.71327800
vn -68.39654000 61.37066100 -39.44052900
vn 4.53306900 65.41875600 -75.49726900
vn -34.65767200 61.42735300 -70.89094500
vn -68.39654000 47.77303700 -55.13302300
vn 4.53306900 41.49879800 -90.86969300
vn -34.65767200 38.96682700 -85.32544900
vn -68.39654000 30.30512500 -66.35896800
vn 4.53306900 14.21685400 -98.88039400
vn -34.65767200 13.34944000 -92.84739200
vn -68.39654000 10.38207300 -72.20890400
vn 4.53306900 -14.21685400 -98.88039400
vn -34.65767200 -13.34944000 -92.84739200
vn -68.39654000 -10.38207300 -72.20890400
vn 4.53306900 -41.49879800 -90.86969300
vn -34.65767200 -38.96682700 -85.32544900
vn -68.39654000 -30.30512500 -66.35896800
vn 4.53306900 -65.41875600 -75.49726900
vn -34.65767200 -61.42735300 -70.89094500
vn -68.39654000 -47.77303700 -55.13302300
vn 4.53306900 -84.03887500 -54.00850600
vn -34.65767200 -78.91140100 -50.71327800
vn -68.39654000 -61.37066100 -39.44052900
vn 4.53306900 -95.85066500 -28.14429500
vn -34.65767200 -90.00251600 -26.42712300
vn -68.39654000 -69.99639900 -20.55279700
vn 4.53306900 -99.89720400 -0.00000000
vn -34.65767200 -93.80216300 0.00000000
vn -68.39654000 -72.95144500 0.00000000
vn 4.53306900 -95.85066500 28.14429500
vn -34.65767200 -90.00251600 26.42712300
vn -68.39654000 -69.99639900 20.55279700
vn 4.53306900 -84.03887500 54.00850600
vn -34.65767200 -78.91140100 50.71327800
vn -68.39654000 -61.37066100 39.44052900
vn 4.53306900 -65.41875600 75.49726900
vn -34.65767200 -61.42735300 70.89094500
vn -68.39654000 -47.77303700 55.13302300
vn 4.53306900 -41.49879800 90.86969300
vn -34.65767200 -38.96682700 85.32544900
vn -68.39654000 -30.30512500 66.35896800
vn 4.53306900 -14.21685400 98.88039400
vn -34.65767200 -13.34944000 92.84739200
vn -68.39654000 -10.38207300 72.20890400
vn 4.53306900 14.21685400 98.88039400
vn -34.65767200 13.34944000 92.84739200
vn -68.39654000 10.38207300 72.20890400
vn 4.53306900 41.49879800 90.86969300
vn -34.65767200 38.96682700 85.32544900
vn -68.39654000 30.30512500 66.35896800
vn 4.53306900 65.41875600 75.49726900
vn -34.65767200 61.42735300 70.89094500
vn -68.39654000 47.77303700 55.13302300
vn 4.53306900 84.03887500 54.00850600
vn -34.65767200 78.91140100 50.71327800
vn -68.39654000 61.37066100 39.44052900
vn 4.53306900 95.85066500 28.14429500
vn -34.65767200 90.00251600 26.42712300
vn -68.39654000 69.99639900 20.55279700
vn -0.00000000 100.00000000 -0.00000000
vn -0.00000000 100.00000000 -0.00000000
vn -0.00000000 100.00000000 -0.00000000
vn -0.00000000 100.00000000 -0.00000000
vn -0.00000000 95.94929700 -28.17325600
vn -0.00000000 95.94929700 -28.17325600
vn -0.00000000 84.12535300 -54.06408200
vn -0.00000000 84.12535300 -54.06408200
vn -0.00000000 65.48607300 -75.57495700
vn -0.00000000 65.48607300 -75.57495700
vn -0.00000000 41.54150100 -90.96320000
vn -0.00000000 41.54150100 -90.96320000
vn 0.00000000 14.23148400 -98.98214400
vn 0.00000000 14.23148400 -98.98214400
vn 0.00000000 -14.23148400 -98.98214400
vn 0.00000000 -14.23148400 -98.98214400
vn 0.00000000 -41.54150100 -90.96320000
vn 0.00000000 -41.54150100 -90.96320000
vn 0.00000000 -65.48607300 -75.57495700
vn 0.00000000 -65.48607300 -75.57495700
vn 0.00000000 -84.12535300 -54.06408200
vn 0.00000000 -84.12535300 -54.06408200
vn 0.00000000 -95.94929700 -28.17325600
vn 0.00000000 -95.94929700 -28.17325600
vn 0.00000000 -100.00000000 -0.00000000
vn 0.00000000 -100.00000000 -0.00000000
vn 0.00000000 -95.94929700 28.17325600
vn 0.00000000 -95.94929700 28.17325600
vn 0.00000000 -84.12535300 54.06408200
vn 0.00000000 -84.12535300 54.06408200
vn 0.00000000 -65.48607300 75.57495700
vn 0.00000000 -65.48607300 75.57495700
vn 0.00000000 -41.54150100 90.96320000
vn 0.00000000 -41.54150100 90.96320000
vn 0.00000000 -14.23148400 98.98214400
vn 0.00000000 -14.23148400 98.98214400
vn 0.00000000 14.23148400 98.98214400
vn 0.00000000 14.23148400 98.98214400
vn 0.00000000 41.54150100 90.96320000
vn 0.00000000 41.54150100 90.96320000
vn 0.00000000 65.48607300 75.57495700
vn 0.00000000 65.48607300 75.57495700
vn -0.00000000 84.12535300 54.06408200
vn -0.00000000 84.12535300 54.06408200
vn -0.00000000 95.94929700 28.17325600
vn -0.00000000 95.94929700 28.17325600
vt -0.13110400 -0.25647000
vt 0.09854700 -0.25145900
vt 0.31907700 -0.31573800
vt 0.51007100 -0.44335600
vt 0.65384900 -0.62250000
vt 0.57376400 -0.66873700
vt 0.82247500 -0.84846000
vt 0.79027100 -0.54373700
vt 0.71492200 -0.58724000
vt 0.55771300 -0.39136300
vt 0.34888000 -0.25182500
vt 0.10775200 -0.18154200
vt -0.14335000 -0.18702100
vt -0.57836400 -1.48530500
vt -0.69752900 -1.28892600
vt -0.75212700 -1.06580300
vt -0.73710300 -0.83658800
vt -0.65384900 -0.62250000
vt -0.57376400 -0.66873700
vt -0.54247500 -0.36348600
vt -0.79027100 -0.54373700
vt -0.71492200 -0.58724000
vt -0.80595200 -0.82132500
vt -0.82237900 -1.07194900
vt -0.76268100 -1.31591300
vt -0.63238500 -1.53063400
vt 0.70946800 -1.25822500
vt 0.59898200 -1.45961500
vt 0.43305000 -1.61846000
vt 0.22703300 -1.72005600
vt -0.00000000 -1.75500000
vt 0.00000000 -1.66252600
vt -0.28000000 -1.78805400
vt -0.00000000 -1.91252600
vt -0.00000000 -1.82552000
vt 0.24823900 -1.78731300
vt 0.47349900 -1.67622700
vt 0.65492900 -1.50254500
vt 0.77573500 -1.28234500
vt 1.15000000 -1.02250000
vt 1.50000000 -3.61283200
vt 1.50000000 3.61283200
vt 1.50000000 3.28439200
vt 1.10341700 -0.69850800
vt 0.96744200 -0.40076300
vt 1.50000000 2.95595300
vt 0.75309000 -0.15338800
vt 1.50000000 2.62751400
vt 0.47772700 0.02357700
vt 1.50000000 2.29907500
vt 0.16366200 0.11579500
vt 1.50000000 1.97063500
vt -0.16366200 0.11579500
vt 1.50000000 1.64219600
vt -0.47772700 0.02357700
vt 1.50000000 1.31375700
vt -0.75309000 -0.15338800
vt 1.50000000 0.98531800
vt -0.96744200 -0.40076300
vt 1.50000000 0.65687800
vt 1.50000000 0.32843900
vt -1.10341700 -0.69850800
vt 1.50000000 0.00000000
vt -1.15000000 -1.02250000
vt -1.10341700 -1.34649200
vt 1.50000000 -0.32843900
vt -0.96744200 -1.64423700
vt 1.50000000 -0.65687800
vt -0.75309000 -1.89161200
vt 1.50000000 -0.98531800
vt -0.47772700 -2.06857700
vt 1.50000000 -1.31375700
vt -0.16366200 -2.16079500
vt 1.50000000 -1.64219600
vt 0.16366200 -2.16079500
vt 1.50000000 -1.97063500
vt 0.47772700 -2.06857700
vt 1.50000000 -2.29907500
vt 0.75309000 -1.89161200
vt 1.50000000 -2.62751400
vt 1.50000000 -2.95595300
vt 0.96744200 -1.64423700
vt 1.50000000 -3.28439200
vt 1.10341700 -1.34649200
vt 0.80000000 -3.45575200
vt 0.80000000 3.45575200
vt -1.10000000 -1.02250000
vt -1.05113000 -0.69826900
vt 0.80000000 3.12663300
vt -0.90886300 -0.40284800
vt 0.80000000 2.79751300
vt 0.80000000 2.46839400
vt -0.68583900 -0.16248500
vt -0.40187500 0.00146100
vt 0.80000000 2.13927500
vt -0.08220300 0.07442400
vt 0.80000000 1.81015600
vt 0.24477300 0.04992100
vt 0.80000000 1.48103700
vt 0.55000000 -0.06987200
vt 0.80000000 1.15191700
vt 0.80635700 -0.27431000
vt 0.80000000 0.82279800
vt 0.80000000 0.49367900
vt 0.99106600 -0.54522800
vt 0.80000000 0.16456000
vt 1.08771400 -0.85855400
vt 1.08771400 -1.18644600
vt 0.80000000 -0.16456000
vt 0.80000000 -0.49367900
vt 0.99106600 -1.49977200
vt 0.80000000 -0.82279800
vt 0.80635700 -1.77069000
vt 0.80000000 -1.15191700
vt 0.55000000 -1.97512800
vt 0.80000000 -1.48103700
vt 0.24477300 -2.09492100
vt 0.80000000 -1.81015600
vt -0.08220300 -2.11942400
vt 0.80000000 -2.13927500
vt -0.40187500 -2.04646100
vt 0.80000000 -2.46839400
vt -0.68583900 -1.88251500
vt 0.80000000 -2.79751300
vt -0.90886300 -1.64215200
vt 0.80000000 -3.12663300
vt -1.05113000 -1.34673100
vt -0.46098000 3.80983700
vt -0.46098000 -3.80983700
vt -1.00000000 -1.00000000
vt -0.46098000 -3.42885300
vt -0.95105700 -1.30901700
vt -0.46098000 -3.04786900
vt -0.80901700 -1.58778500
vt -0.58778500 -1.80901700
vt -0.46098000 -2.66688600
vt -0.46098000 -2.28590200
vt -0.30901700 -1.95105700
vt -0.46098000 -1.90491800
vt -0.00000000 -2.00000000
vt -0.46098000 -1.52393500
vt 0.30901700 -1.95105700
vt -0.46098000 -1.14295100
vt 0.58778500 -1.80901700
vt 0.80901700 -1.58778500
vt -0.46098000 -0.76196700
vt 0.95105700 -1.30901700
vt -0.46098000 -0.38098400
vt 1.00000000 -1.00000000
vt -0.46098000 -0.00000000
vt -0.46098000 0.38098400
vt 0.95105700 -0.69098300
vt -0.46098000 0.76196700
vt 0.80901700 -0.41221500
vt -0.46098000 1.14295100
vt 0.58778500 -0.19098300
vt 0.30901700 -0.04894300
vt -0.46098000 1.52393500
vt -0.00000000 0.00000000
vt -0.46098000 1.90491800
vt -0.30901700 -0.04894300
vt -0.46098000 2.28590200
vt -0.46098000 2.66688600
vt -0.58778500 -0.19098300
vt -0.46098000 3.04786900
vt -0.80901700 -0.41221500
vt -0.46098000 3.42885300
vt -0.95105700 -0.69098300
vt 0.00000000 3.45575200
vt 0.00000000 -3.45575200
vt -0.00000000 -3.12663300
vt -0.00000000 -2.79751300
vt -0.00000000 -2.46839400
vt -0.00000000 -2.13927500
vt 0.00000000 -1.81015600
vt 0.00000000 -1.48103700
vt 0.00000000 -1.15191700
vt 0.00000000 -0.82279800
vt 0.00000000 -0.49367900
vt 0.00000000 -0.16456000
vt 0.00000000 0.16456000
vt 0.00000000 0.49367900
vt 0.00000000 0.82279800
vt 0.00000000 1.15191700
vt 0.00000000 1.48103700
vt -0.00000000 1.81015600
vt -0.00000000 2.13927500
vt -0.00000000 2.46839400
vt -0.00000000 2.79751300
vt -0.00000000 3.12663300
vt 1.34849100 3.65148600
vt 1.34849100 -3.65148600
vt 0.17784500 3.80983700
vt 0.17784500 -3.80983700
vt 0.17784500 -3.46348800
vt 1.34849100 -3.31953300
vt 1.34849100 -2.98758000
vt 0.17784500 -3.11713900
vt 0.17784500 -2.77079000
vt 1.34849100 -2.65562600
vt 0.17784500 -2.42444100
vt 1.34849100 -2.32367300
vt 0.17784500 -2.07809300
vt 1.34849100 -1.99172000
vt 0.17784500 -1.73174400
vt 1.34849100 -1.65976600
vt 0.17784500 -1.38539500
vt 1.34849100 -1.32781300
vt 1.34849100 -0.99586000
vt 0.17784500 -1.03904600
vt 1.34849100 -0.66390700
vt 0.17784500 -0.69269800
vt 0.17784500 -0.34634900
vt 1.34849100 -0.33195300
vt 1.34849100 -0.00000000
vt 0.17784500 0.00000000
vt 0.17784500 0.34634900
vt 1.34849100 0.33195300
vt 0.17784500 0.69269800
vt 1.34849100 0.66390700
vt 0.17784500 1.03904600
vt 1.34849100 0.99586000
vt 0.17784500 1.38539500
vt 1.34849100 1.32781300
vt 0.17784500 1.73174400
vt 1.34849100 1.65976600
vt 1.34849100 1.99172000
vt 0.17784500 2.07809300
vt 0.17784500 2.42444100
vt 1.34849100 2.32367300
vt 0.17784500 2.77079000
vt 1.34849100 2.65562600
vt 1.34849100 2.98758000
vt 0.17784500 3.11713900
vt 1.34849100 3.31953300
vt 0.17784500 3.46348800
vt 0.01813800 3.80983700
vt 0.01813800 -3.80983700
vt -0.14156800 3.80983700
vt -0.14156800 -3.80983700
vt -0.30127400 3.80983700
vt -0.30127400 -3.80983700
vt 0.01813800 -3.46348800
vt -0.14156800 -3.46348800
vt -0.30127400 -3.46348800
vt 0.01813800 -3.11713900
vt -0.14156800 -3.11713900
vt -0.30127400 -3.11713900
vt 0.01813800 -2.77079000
vt -0.14156800 -2.77079000
vt -0.30127400 -2.77079000
vt 0.01813800 -2.42444100
vt -0.14156800 -2.42444100
vt -0.30127400 -2.42444100
vt 0.01813800 -2.07809300
vt -0.14156800 -2.07809300
vt -0.30127400 -2.07809300
vt 0.01813800 -1.73174400
vt -0.14156800 -1.73174400
vt -0.30127400 -1.73174400
vt 0.01813800 -1.38539500
vt -0.14156800 -1.38539500
vt -0.30127400 -1.38539500
vt 0.01813800 -1.03904600
vt -0.14156800 -1.03904600
vt -0.30127400 -1.03904600
vt 0.01813800 -0.69269800
vt -0.14156800 -0.69269800
vt -0.30127400 -0.69269800
vt 0.01813800 -0.34634900
vt -0.14156800 -0.34634900
vt -0.30127400 -0.34634900
vt 0.01813800 0.00000000
vt -0.14156800 -0.00000000
vt -0.30127400 -0.00000000
vt 0.01813800 0.34634900
vt -0.14156800 0.34634900
vt -0.30127400 0.34634900
vt 0.01813800 0.69269800
vt -0.14156800 0.69269800
vt -0.30127400 0.69269800
vt 0.01813800 1.03904600
vt -0.14156800 1.03904600
vt -0.30127400 1.03904600
vt 0.01813800 1.38539500
vt -0.14156800 1.38539500
vt -0.30127400 1.38539500
vt 0.01813800 1.73174400
vt -0.14156800 1.73174400
vt -0.30127400 1.73174400
vt 0.01813800 2.07809300
vt -0.14156800 2.07809300
vt -0.30127400 2.07809300
vt 0.01813800 2.42444100
vt -0.14156800 2.42444100
vt -0.30127400 2.42444100
vt 0.01813800 2.77079000
vt -0.14156800 2.77079000
vt -0.30127400 2.77079000
vt 0.01813800 3.11713900
vt -0.14156800 3.11713900
vt -0.30127400 3.11713900
vt 0.01813800 3.46348800
vt -0.14156800 3.46348800
vt -0.30127400 3.46348800
vt 1.57079600 -3.65148600
vt 1.57079600 3.65148600
vt 0.75260100 3.61283200
vt 0.75260100 -3.61283200
vt 1.57079600 -3.31953300
vt 0.75260100 -3.28439200
vt 0.75260100 -2.95595300
vt 1.57079600 -2.98758000
vt 0.75260100 -2.62751400
vt 1.57079600 -2.65562600
vt 0.75260100 -2.29907500
vt 1.57079600 -2.32367300
vt 0.75260100 -1.97063500
vt 1.57079600 -1.99172000
vt 0.75260100 -1.64219600
vt 1.57079600 -1.65976600
vt 0.75260100 -1.31375700
vt 1.57079600 -1.32781300
vt 0.75260100 -0.98531800
vt 1.57079600 -0.99586000
vt 0.75260100 -0.65687800
vt 1.57079600 -0.66390700
vt 0.75260100 -0.32843900
vt 1.57079600 -0.33195300
vt 0.75260100 0.00000000
vt 1.57079600 -0.00000000
vt 0.75260100 0.32843900
vt 1.57079600 0.33195300
vt 0.75260100 0.65687800
vt 1.57079600 0.66390700
vt 0.75260100 0.98531800
vt 1.57079600 0.99586000
vt 0.75260100 1.31375700
vt 1.57079600 1.32781300
vt 0.75260100 1.64219600
vt 1.57079600 1.65976600
vt 0.75260100 1.97063500
vt 1.57079600 1.99172000
vt 0.75260100 2.29907500
vt 1.57079600 2.32367300
vt 0.75260100 2.62751400
vt 1.57079600 2.65562600
vt 0.75260100 2.95595300
vt 1.57079600 2.98758000
vt 0.75260100 3.28439200
vt 1.57079600 3.31953300
f 44/44/44 107/107/107 40/40/40
f 40/40/40 107/107/107 108/108/108
f 40/40/40 108/108/108 84/84/84
f 84/84/84 108/108/108 111/111/111
f 84/84/84 111/111/111 82/82/82
f 82/82/82 111/111/111 113/113/113
f 82/82/82 113/113/113 79/79/79
f 79/79/79 113/113/113 115/115/115
f 79/79/79 115/115/115 77/77/77
f 77/77/77 115/115/115 117/117/117
f 77/77/77 117/117/117 75/75/75
f 75/75/75 117/117/117 119/119/119
f 75/75/75 119/119/119 73/73/73
f 73/73/73 119/119/119 121/121/121
f 73/73/73 121/121/121 71/71/71
f 71/71/71 121/121/121 123/123/123
f 71/71/71 123/123/123 69/69/69
f 69/69/69 123/123/123 125/125/125
f 69/69/69 125/125/125 67/67/67
f 67/67/67 125/125/125 127/127/127
f 67/67/67 127/127/127 65/65/65
f 65/65/65 127/127/127 87/87/87
f 65/65/65 87/87/87 64/64/64
f 64/64/64 87/87/87 62/62/62
f 62/62/62 87/87/87 88/88/88
f 62/62/62 88/88/88 59/59/59
f 59/59/59 88/88/88 90/90/90
f 59/59/59 90/90/90 57/57/57
f 57/57/57 90/90/90 93/93/93
f 57/57/57 93/93/93 55/55/55
f 55/55/55 93/93/93 94/94/94
f 55/55/55 94/94/94 53/53/53
f 53/53/53 94/94/94 96/96/96
f 53/53/53 96/96/96 51/51/51
f 51/51/51 96/96/96 98/98/98
f 51/51/51 98/98/98 49/49/49
f 49/49/49 98/98/98 100/100/100
f 49/49/49 100/100/100 47/47/47
f 47/47/47 100/100/100 102/102/102
f 47/47/47 102/102/102 45/45/45
f 45/45/45 102/102/102 105/105/105
f 45/45/45 105/105/105 44/44/44
f 44/44/44 105/105/105 107/107/107
f 132/132/132 24/24/24 130/130/130
f 130/130/130 24/24/24 23/23/23
f 130/130/130 23/23/23 168/168/168
f 168/168/168 23/23/23 22/22/22
f 168/168/168 22/22/22 21/21/21
f 24/24/24 132/132/132 25/25/25
f 25/25/25 132/132/132 134/134/134
f 25/25/25 134/134/134 26/26/26
f 26/26/26 134/134/134 135/135/135
f 26/26/26 135/135/135 14/14/14
f 14/14/14 135/135/135 33/33/33
f 14/14/14 33/33/33 32/32/32
f 135/135/135 138/138/138 33/33/33
f 33/33/33 138/138/138 34/34/34
f 34/34/34 138/138/138 140/140/140
f 34/34/34 140/140/140 142/142/142
f 144/144/144 37/37/37 142/142/142
f 142/142/142 37/37/37 36/36/36
f 142/142/142 36/36/36 34/34/34
f 34/34/34 36/36/36 35/35/35
f 37/37/37 144/144/144 38/38/38
f 38/38/38 144/144/144 145/145/145
f 38/38/38 145/145/145 39/39/39
f 39/39/39 145/145/145 147/147/147
f 39/39/39 147/147/147 149/149/149
f 152/152/152 7/7/7 149/149/149
f 149/149/149 7/7/7 27/27/27
f 149/149/149 27/27/27 39/39/39
f 7/7/7 152/152/152 8/8/8
f 8/8/8 152/152/152 154/154/154
f 8/8/8 154/154/154 10/10/10
f 10/10/10 154/154/154 156/156/156
f 10/10/10 156/156/156 11/11/11
f 11/11/11 156/156/156 157/157/157
f 11/11/11 157/157/157 12/12/12
f 12/12/12 157/157/157 159/159/159
f 12/12/12 159/159/159 13/13/13
f 13/13/13 159/159/159 161/161/161
f 13/13/13 161/161/161 20/20/20
f 20/20/20 161/161/161 164/164/164
f 20/20/20 164/164/164 166/166/166
f 20/20/20 166/166/166 21/21/21
f 21/21/21 166/166/166 168/168/168
f 5/5/5 4/4/4 6/6/6
f 6/6/6 4/4/4 3/3/3
f 6/6/6 3/3/3 2/2/2
f 6/6/6 2/2/2 19/19/19
f 19/19/19 2/2/2 1/1/1
f 19/19/19 1/1/1 20/20/20
f 20/20/20 1/1/1 13/13/13
f 10/10/10 9/9/9 8/8/8
f 7/7/7 6/6/6 27/27/27
f 27/27/27 6/6/6 28/28/28
f 28/28/28 6/6/6 32/32/32
f 28/28/28 32/32/32 29/29/29
f 29/29/29 32/32/32 30/30/30
f 30/30/30 32/32/32 31/31/31
f 18/18/18 17/17/17 19/19/19
f 19/19/19 17/17/17 16/16/16
f 19/19/19 16/16/16 15/15/15
f 19/19/19 15/15/15 32/32/32
f 32/32/32 15/15/15 14/14/14
f 32/32/32 6/6/6 19/19/19
f 126/126/126 171/171/171 85/85/85
f 85/85/85 171/171/171 170/170/170
f 86/86/86 169/169/169 89/89/89
f 89/89/89 169/169/169 190/190/190
f 89/89/89 190/190/190 91/91/91
f 91/91/91 190/190/190 189/189/189
f 91/91/91 189/189/189 92/92/92
f 92/92/92 189/189/189 188/188/188
f 92/92/92 188/188/188 95/95/95
f 95/95/95 188/188/188 187/187/187
f 95/95/95 187/187/187 97/97/97
f 97/97/97 187/187/187 186/186/186
f 97/97/97 186/186/186 99/99/99
f 99/99/99 186/186/186 185/185/185
f 99/99/99 185/185/185 101/101/101
f 101/101/101 185/185/185 184/184/184
f 101/101/101 184/184/184 103/103/103
f 103/103/103 184/184/184 183/183/183
f 103/103/103 183/183/183 104/104/104
f 104/104/104 183/183/183 182/182/182
f 104/104/104 182/182/182 106/106/106
f 106/106/106 182/182/182 181/181/181
f 106/106/106 181/181/181 109/109/109
f 109/109/109 181/181/181 180/180/180
f 109/109/109 180/180/180 110/110/110
f 110/110/110 180/180/180 179/179/179
f 110/110/110 179/179/179 112/112/112
f 112/112/112 179/179/179 178/178/178
f 112/112/112 178/178/178 114/114/114
f 114/114/114 178/178/178 177/177/177
f 114/114/114 177/177/177 116/116/116
f 116/116/116 177/177/177 176/176/176
f 116/116/116 176/176/176 118/118/118
f 118/118/118 176/176/176 175/175/175
f 118/118/118 175/175/175 120/120/120
f 120/120/120 175/175/175 174/174/174
f 120/120/120 174/174/174 122/122/122
f 122/122/122 174/174/174 173/173/173
f 122/122/122 173/173/173 124/124/124
f 124/124/124 173/173/173 172/172/172
f 124/124/124 172/172/172 126/126/126
f 126/126/126 172/172/172 171/171/171
f 195/195/195 243/243/243 194/194/194
f 194/194/194 243/243/243 238/238/238
f 193/193/193 237/237/237 236/236/236
f 236/236/236 237/237/237 303/303/303
f 236/236/236 303/303/303 234/234/234
f 234/234/234 303/303/303 300/300/300
f 234/234/234 300/300/300 231/231/231
f 231/231/231 300/300/300 297/297/297
f 231/231/231 297/297/297 229/229/229
f 229/229/229 297/297/297 294/294/294
f 229/229/229 294/294/294 228/228/228
f 228/228/228 294/294/294 291/291/291
f 228/228/228 291/291/291 225/225/225
f 225/225/225 291/291/291 288/288/288
f 225/225/225 288/288/288 223/223/223
f 223/223/223 288/288/288 285/285/285
f 223/223/223 285/285/285 221/221/221
f 221/221/221 285/285/285 282/282/282
f 221/221/221 282/282/282 219/219/219
f 219/219/219 282/282/282 279/279/279
f 219/219/219 279/279/279 217/217/217
f 217/217/217 279/279/279 276/276/276
f 217/217/217 276/276/276 216/216/216
f 216/216/216 276/276/276 273/273/273
f 216/216/216 273/273/273 213/213/213
f 213/213/213 273/273/273 270/270/270
f 213/213/213 270/270/270 212/212/212
f 212/212/212 270/270/270 267/267/267
f 212/212/212 267/267/267 210/210/210
f 210/210/210 267/267/267 264/264/264
f 210/210/210 264/264/264 207/207/207
f 207/207/207 264/264/264 261/261/261
f 207/207/207 261/261/261 205/205/205
f 205/205/205 261/261/261 258/258/258
f 205/205/205 258/258/258 203/203/203
f 203/203/203 258/258/258 255/255/255
f 203/203/203 255/255/255 201/201/201
f 201/201/201 255/255/255 252/252/252
f 201/201/201 252/252/252 199/199/199
f 199/199/199 252/252/252 249/249/249
f 199/199/199 249/249/249 198/198/198
f 198/198/198 249/249/249 246/246/246
f 198/198/198 246/246/246 195/195/195
f 195/195/195 246/246/246 243/243/243
f 167/167/167 305/305/305 128/128/128
f 128/128/128 305/305/305 241/241/241
f 129/129/129 242/242/242 245/245/245
f 245/245/245 242/242/242 240/240/240
f 245/245/245 240/240/240 244/244/244
f 244/244/244 240/240/240 238/238/238
f 244/244/244 238/238/238 243/243/243
f 305/305/305 167/167/167 302/302/302
f 302/302/302 167/167/167 165/165/165
f 302/302/302 165/165/165 299/299/299
f 299/299/299 165/165/165 163/163/163
f 299/299/299 163/163/163 296/296/296
f 296/296/296 163/163/163 162/162/162
f 296/296/296 162/162/162 293/293/293
f 293/293/293 162/162/162 160/160/160
f 293/293/293 160/160/160 290/290/290
f 290/290/290 160/160/160 158/158/158
f 290/290/290 158/158/158 287/287/287
f 287/287/287 158/158/158 155/155/155
f 287/287/287 155/155/155 284/284/284
f 284/284/284 155/155/155 153/153/153
f 284/284/284 153/153/153 281/281/281
f 281/281/281 153/153/153 151/151/151
f 281/281/281 151/151/151 278/278/278
f 278/278/278 151/151/151 150/150/150
f 278/278/278 150/150/150 275/275/275
f 275/275/275 150/150/150 272/272/272
f 275/275/275 272/272/272 271/271/271
f 271/271/271 272/272/272 268/268/268
f 271/271/271 268/268/268 267/267/267
f 267/267/267 268/268/268 264/264/264
f 150/150/150 148/148/148 272/272/272
f 272/272/272 148/148/148 269/269/269
f 272/272/272 269/269/269 268/268/268
f 268/268/268 269/269/269 265/265/265
f 268/268/268 265/265/265 264/264/264
f 264/264/264 265/265/265 261/261/261
f 148/148/148 146/146/146 269/269/269
f 269/269/269 146/146/146 266/266/266
f 269/269/269 266/266/266 265/265/265
f 265/265/265 266/266/266 262/262/262
f 265/265/265 262/262/262 261/261/261
f 261/261/261 262/262/262 258/258/258
f 146/146/146 143/143/143 266/266/266
f 266/266/266 143/143/143 263/263/263
f 266/266/266 263/263/263 262/262/262
f 262/262/262 263/263/263 259/259/259
f 262/262/262 259/259/259 258/258/258
f 258/258/258 259/259/259 255/255/255
f 143/143/143 141/141/141 263/263/263
f 263/263/263 141/141/141 260/260/260
f 263/263/263 260/260/260 259/259/259
f 259/259/259 260/260/260 256/256/256
f 259/259/259 256/256/256 255/255/255
f 255/255/255 256/256/256 252/252/252
f 141/141/141 139/139/139 260/260/260
f 260/260/260 139/139/139 257/257/257
f 260/260/260 257/257/257 256/256/256
f 256/256/256 257/257/257 253/253/253
f 256/256/256 253/253/253 252/252/252
f 252/252/252 253/253/253 249/249/249
f 139/139/139 137/137/137 257/257/257
f 257/257/257 137/137/137 254/254/254
f 257/257/257 254/254/254 253/253/253
f 253/253/253 254/254/254 250/250/250
f 253/253/253 250/250/250 249/249/249
f 249/249/249 250/250/250 246/246/246
f 137/137/137 136/136/136 254/254/254
f 254/254/254 136/136/136 251/251/251
f 254/254/254 251/251/251 250/250/250
f 250/250/250 251/251/251 247/247/247
f 250/250/250 247/247/247 246/246/246
f 246/246/246 247/247/247 243/243/243
f 136/136/136 133/133/133 251/251/251
f 251/251/251 133/133/133 248/248/248
f 251/251/251 248/248/248 247/247/247
f 247/247/247 248/248/248 244/244/244
f 247/247/247 244/244/244 243/243/243
f 133/133/133 131/131/131 248/248/248
f 248/248/248 131/131/131 245/245/245
f 248/248/248 245/245/245 244/244/244
f 131/131/131 129/129/129 245/245/245
f 237/237/237 239/239/239 303/303/303
f 303/303/303 239/239/239 304/304/304
f 303/303/303 304/304/304 300/300/300
f 300/300/300 304/304/304 301/301/301
f 300/300/300 301/301/301 297/297/297
f 297/297/297 301/301/301 298/298/298
f 297/297/297 298/298/298 294/294/294
f 294/294/294 298/298/298 295/295/295
f 294/294/294 295/295/295 291/291/291
f 291/291/291 295/295/295 292/292/292
f 291/291/291 292/292/292 288/288/288
f 288/288/288 292/292/292 289/289/289
f 288/288/288 289/289/289 285/285/285
f 285/285/285 289/289/289 286/286/286
f 285/285/285 286/286/286 282/282/282
f 282/282/282 286/286/286 283/283/283
f 282/282/282 283/283/283 279/279/279
f 279/279/279 283/283/283 280/280/280
f 279/279/279 280/280/280 276/276/276
f 276/276/276 280/280/280 277/277/277
f 276/276/276 277/277/277 273/273/273
f 273/273/273 277/277/277 274/274/274
f 273/273/273 274/274/274 270/270/270
f 270/270/270 274/274/274 271/271/271
f 270/270/270 271/271/271 267/267/267
f 239/239/239 241/241/241 304/304/304
f 304/304/304 241/241/241 305/305/305
f 304/304/304 305/305/305 301/301/301
f 301/301/301 305/305/305 302/302/302
f 301/301/301 302/302/302 298/298/298
f 298/298/298 302/302/302 299/299/299
f 298/298/298 299/299/299 295/295/295
f 295/295/295 299/299/299 296/296/296
f 295/295/295 296/296/296 292/292/292
f 292/292/292 296/296/296 293/293/293
f 292/292/292 293/293/293 289/289/289
f 289/289/289 293/293/293 290/290/290
f 289/289/289 290/290/290 286/286/286
f 286/286/286 290/290/290 287/287/287
f 286/286/286 287/287/287 283/283/283
f 283/283/283 287/287/287 284/284/284
f 283/283/283 284/284/284 280/280/280
f 280/280/280 284/284/284 281/281/281
f 280/280/280 281/281/281 277/277/277
f 277/277/277 281/281/281 278/278/278
f 277/277/277 278/278/278 274/274/274
f 274/274/274 278/278/278 275/275/275
f 274/274/274 275/275/275 271/271/271
f 310/310/310 192/192/192 306/306/306
f 307/307/307 191/191/191 235/235/235
f 307/307/307 235/235/235 351/351/351
f 351/351/351 235/235/235 233/233/233
f 351/351/351 233/233/233 349/349/349
f 349/349/349 233/233/233 232/232/232
f 349/349/349 232/232/232 347/347/347
f 347/347/347 232/232/232 230/230/230
f 347/347/347 230/230/230 345/345/345
f 345/345/345 230/230/230 227/227/227
f 345/345/345 227/227/227 343/343/343
f 343/343/343 227/227/227 226/226/226
f 343/343/343 226/226/226 341/341/341
f 341/341/341 226/226/226 224/224/224
f 341/341/341 224/224/224 339/339/339
f 339/339/339 224/224/224 222/222/222
f 339/339/339 222/222/222 337/337/337
f 337/337/337 222/222/222 220/220/220
f 337/337/337 220/220/220 335/335/335
f 335/335/335 220/220/220 218/218/218
f 335/335/335 218/218/218 333/333/333
f 333/333/333 218/218/218 215/215/215
f 333/333/333 215/215/215 331/331/331
f 331/331/331 215/215/215 214/214/214
f 331/331/331 214/214/214 329/329/329
f 329/329/329 214/214/214 211/211/211
f 329/329/329 211/211/211 327/327/327
f 327/327/327 211/211/211 209/209/209
f 327/327/327 209/209/209 325/325/325
f 325/325/325 209/209/209 208/208/208
f 325/325/325 208/208/208 323/323/323
f 323/323/323 208/208/208 206/206/206
f 323/323/323 206/206/206 321/321/321
f 321/321/321 206/206/206 204/204/204
f 321/321/321 204/204/204 319/319/319
f 319/319/319 204/204/204 202/202/202
f 319/319/319 202/202/202 317/317/317
f 317/317/317 202/202/202 200/200/200
f 317/317/317 200/200/200 315/315/315
f 315/315/315 200/200/200 197/197/197
f 315/315/315 197/197/197 313/313/313
f 313/313/313 197/197/197 196/196/196
f 313/313/313 196/196/196 310/310/310
f 310/310/310 196/196/196 192/192/192
f 83/83/83 311/311/311 41/41/41
f 41/41/41 311/311/311 309/309/309
f 42/42/42 308/308/308 43/43/43
f 43/43/43 308/308/308 350/350/350
f 43/43/43 350/350/350 46/46/46
f 46/46/46 350/350/350 348/348/348
f 46/46/46 348/348/348 48/48/48
f 48/48/48 348/348/348 346/346/346
f 48/48/48 346/346/346 50/50/50
f 50/50/50 346/346/346 344/344/344
f 50/50/50 344/344/344 52/52/52
f 52/52/52 344/344/344 342/342/342
f 52/52/52 342/342/342 54/54/54
f 54/54/54 342/342/342 340/340/340
f 54/54/54 340/340/340 56/56/56
f 56/56/56 340/340/340 338/338/338
f 56/56/56 338/338/338 58/58/58
f 58/58/58 338/338/338 336/336/336
f 58/58/58 336/336/336 60/60/60
f 60/60/60 336/336/336 334/334/334
f 60/60/60 334/334/334 61/61/61
f 61/61/61 334/334/334 332/332/332
f 61/61/61 332/332/332 63/63/63
f 63/63/63 332/332/332 330/330/330
f 63/63/63 330/330/330 66/66/66
f 66/66/66 330/330/330 328/328/328
f 66/66/66 328/328/328 68/68/68
f 68/68/68 328/328/328 326/326/326
f 68/68/68 326/326/326 70/70/70
f 70/70/70 326/326/326 324/324/324
f 70/70/70 324/324/324 72/72/72
f 72/72/72 324/324/324 322/322/322
f 72/72/72 322/322/322 74/74/74
f 74/74/74 322/322/322 320/320/320
f 74/74/74 320/320/320 76/76/76
f 76/76/76 320/320/320 318/318/318
f 76/76/76 318/318/318 78/78/78
f 78/78/78 318/318/318 316/316/316
f 78/78/78 316/316/316 80/80/80
f 80/80/80 316/316/316 314/314/314
f 80/80/80 314/314/314 81/81/81
f 81/81/81 314/314/314 312/312/312
f 81/81/81 312/312/312 83/83/83
f 83/83/83 312/312/312 311/311/311

