mtllib material.mtl
usemtl Opaque(255,174,33)
v -0.12564900 0.04365400 0.11777700
v -0.12564900 0.04365400 0.11777700
v -0.12564900 0.04365400 0.11777700
v -0.12564900 0.04319700 0.11548000
v -0.12564900 0.04319700 0.11548000
v -0.12564900 0.04189700 0.11353400
v -0.12564900 0.04189700 0.11353400
v -0.12564900 0.03995000 0.11223300
v -0.12564900 0.03995000 0.11223300
v -0.12564900 0.03765400 0.11177700
v -0.12564900 0.03765400 0.11177700
v -0.12564900 0.03535800 0.11223300
v -0.12564900 0.03535800 0.11223300
v -0.12564900 0.03341100 0.11353400
v -0.12564900 0.03341100 0.11353400
v -0.12564900 0.03211100 0.11548000
v -0.12564900 0.03211100 0.11548000
v -0.12564900 0.03165400 0.11777700
v -0.12564900 0.03165400 0.11777700
v -0.12564900 0.03211100 0.12007300
v -0.12564900 0.03211100 0.12007300
v -0.12564900 0.03341100 0.12201900
v -0.12564900 0.03341100 0.12201900
v -0.12564900 0.03535800 0.12332000
v -0.12564900 0.03535800 0.12332000
v -0.12564900 0.03765400 0.12377700
v -0.12564900 0.03765400 0.12377700
v -0.12564900 0.03995000 0.12332000
v -0.12564900 0.03995000 0.12332000
v -0.12564900 0.04189700 0.12201900
v -0.12564900 0.04189700 0.12201900
v -0.12564900 0.04319700 0.12007300
v -0.12564900 0.04319700 0.12007300
v -0.12394900 0.04365400 0.11777700
v -0.12394900 0.04365400 0.11777700
v -0.12394900 0.04319700 0.12007300
v -0.12394900 0.04189700 0.12201900
v -0.12394900 0.03995000 0.12332000
v -0.12394900 0.03765400 0.12377700
v -0.12394900 0.03535800 0.12332000
v -0.12394900 0.03341100 0.12201900
v -0.12394900 0.03211100 0.12007300
v -0.12394900 0.03165400 0.11777700
v -0.12394900 0.03211100 0.11548000
v -0.12394900 0.03341100 0.11353400
v -0.12394900 0.03535800 0.11223300
v -0.12394900 0.03765400 0.11177700
v -0.12394900 0.03995000 0.11223300
v -0.12394900 0.04189700 0.11353400
v -0.12394900 0.04319700 0.11548000
v -0.12564900 0.03075400 0.11777700
v -0.12564900 0.03122000 0.11528400
v -0.12564900 0.03255500 0.11312800
v -0.12564900 0.03457800 0.11160000
v -0.12564900 0.03701700 0.11090600
v -0.12564900 0.03954200 0.11114000
v -0.12564900 0.04181200 0.11227000
v -0.12564900 0.04352100 0.11414400
v -0.12564900 0.04443700 0.11650900
v -0.12564900 0.04443700 0.11904400
v -0.12564900 0.04352100 0.12140900
v -0.12564900 0.04181200 0.12328300
v -0.12564900 0.03954200 0.12441300
v -0.12564900 0.03701700 0.12464700
v -0.12564900 0.03457800 0.12395300
v -0.12564900 0.03255500 0.12242500
v -0.12564900 0.03122000 0.12026900
vn 0.00000000 -100.00000000 0.00000000
vn 0.00000000 -100.00000000 0.00000000
vn -100.00000000 -0.00000000 0.00000000
vn 0.00000000 -92.38795300 38.26834300
vn -100.00000000 -0.00000000 0.00000000
vn -100.00000000 -0.00000000 0.00000000
vn 0.00000000 -70.71067800 70.71067800
vn -100.00000000 -0.00000000 0.00000000
vn 0.00000000 -38.26834300 92.38795300
vn -100.00000000 -0.00000000 0.00000000
vn 0.00000000 -0.00000000 100.00000000
vn -100.00000000 -0.00000000 0.00000000
vn -0.00000000 38.26834300 92.38795300
vn -100.00000000 -0.00000000 0.00000000
vn -0.00000000 70.71067800 70.71067800
vn -0.00000000 92.38795300 38.26834300
vn -100.00000000 -0.00000000 0.00000000
vn -0.00000000 100.00000000 0.00000000
vn -100.00000000 -0.00000000 0.00000000
vn -0.00000000 92.38795300 -38.26834300
vn -100.00000000 -0.00000000 0.00000000
vn -0.00000000 70.71067800 -70.71067800
vn -100.00000000 -0.00000000 0.00000000
vn -100.00000000 -0.00000000 0.00000000
vn -0.00000000 38.26834300 -92.38795300
vn -100.00000000 -0.00000000 0.00000000
vn -0.00000000 -0.00000000 -100.00000000
vn 0.00000000 -38.26834300 -92.38795300
vn -100.00000000 -0.00000000 0.00000000
vn 0.00000000 -70.71067800 -70.71067800
vn -100.00000000 -0.00000000 0.00000000
vn -100.00000000 -0.00000000 0.00000000
vn 0.00000000 -92.38795300 -38.26834300
vn 0.00000000 -100.00000000 0.00000000
vn 0.00000000 -100.00000000 0.00000000
vn 0.00000000 -92.38795300 -38.26834300
vn 0.00000000 -70.71067800 -70.71067800
vn 0.00000000 -38.26834300 -92.38795300
vn -0.00000000 0.00000000 -100.00000000
vn -0.00000000 38.26834300 -92.38795300
vn -0.00000000 70.71067800 -70.71067800
vn -0.00000000 92.38795300 -38.26834300
vn -0.00000000 100.00000000 0.00000000
vn -0.00000000 92.38795300 38.26834300
vn -0.00000000 70.71067800 70.71067800
vn -0.00000000 38.26834300 92.38795300
vn 0.00000000 0.00000000 100.00000000
vn 0.00000000 -38.26834300 92.38795300
vn 0.00000000 -70.71067800 70.71067800
vn 0.00000000 -92.38795300 38.26834300
vn -100.00000000 -0.00000000 0.00000000
vn -100.00000000 -0.00000000 0.00000000
vn -100.00000000 -0.00000000 0.00000000
vn -100.00000000 -0.00000000 0.00000000
vn -100.00000000 -0.00000000 0.00000000
vn -100.00000000 -0.00000000 0.00000000
vn -100.00000000 -0.00000000 0.00000000
vn -100.00000000 -0.00000000 0.00000000
vn -100.00000000 -0.00000000 0.00000000
vn -100.00000000 -0.00000000 0.00000000
vn -100.00000000 -0.00000000 0.00000000
vn -100.00000000 -0.00000000 0.00000000
vn -100.00000000 -0.00000000 0.00000000
vn -100.00000000 -0.00000000 0.00000000
vn -100.00000000 -0.00000000 0.00000000
vn -100.00000000 -0.00000000 0.00000000
vn -100.00000000 -0.00000000 0.00000000
vt 0.17000000 -1.88495600
vt 0.17000000 1.88495600
vt -0.60000000 -0.00000000
vt 0.17000000 -1.64933600
vt -0.55432800 -0.22961000
vt -0.42426400 -0.42426400
vt 0.17000000 -1.41371700
vt -0.22961000 -0.55432800
vt 0.17000000 -1.17809700
vt 0.00000000 -0.60000000
vt 0.17000000 -0.94247800
vt 0.22961000 -0.55432800
vt 0.17000000 -0.70685800
vt 0.42426400 -0.42426400
vt 0.17000000 -0.47123900
vt 0.17000000 -0.23561900
vt 0.55432800 -0.22961000
vt 0.17000000 -0.00000000
vt 0.60000000 -0.00000000
vt 0.17000000 0.23561900
vt 0.55432800 0.22961000
vt 0.17000000 0.47123900
vt 0.42426400 0.42426400
vt 0.22961000 0.55432800
vt 0.17000000 0.70685800
vt 0.00000000 0.60000000
vt 0.17000000 0.94247800
vt 0.17000000 1.17809700
vt -0.22961000 0.55432800
vt 0.17000000 1.41371700
vt -0.42426400 0.42426400
vt -0.55432800 0.22961000
vt 0.17000000 1.64933600
vt 0.00000000 -1.88495600
vt 0.00000000 1.88495600
vt -0.00000000 1.64933600
vt -0.00000000 1.41371700
vt -0.00000000 1.17809700
vt 0.00000000 0.94247800
vt 0.00000000 0.70685800
vt 0.00000000 0.47123900
vt 0.00000000 0.23561900
vt 0.00000000 -0.00000000
vt 0.00000000 -0.23561900
vt 0.00000000 -0.47123900
vt 0.00000000 -0.70685800
vt -0.00000000 -0.94247800
vt -0.00000000 -1.17809700
vt -0.00000000 -1.41371700
vt -0.00000000 -1.64933600
vt 0.69000000 -0.00000000
vt 0.64340600 -0.24925700
vt 0.50991600 -0.46485000
vt 0.30755900 -0.61766300
vt 0.06366500 -0.68705700
vt -0.18882700 -0.66366000
vt -0.41581800 -0.55063200
vt -0.58665000 -0.36323800
vt -0.67825100 -0.12678700
vt -0.67825100 0.12678700
vt -0.58665000 0.36323800
vt -0.41581800 0.55063200
vt -0.18882700 0.66366000
vt 0.06366500 0.68705700
vt 0.30755900 0.61766300
vt 0.50991600 0.46485000
vt 0.64340600 0.24925700
f 4/4/4 50/50/50 1/1/1
f 1/1/1 50/50/50 34/34/34
f 2/2/2 35/35/35 33/33/33
f 33/33/33 35/35/35 36/36/36
f 33/33/33 36/36/36 30/30/30
f 30/30/30 36/36/36 37/37/37
f 30/30/30 37/37/37 28/28/28
f 28/28/28 37/37/37 38/38/38
f 28/28/28 38/38/38 27/27/27
f 27/27/27 38/38/38 39/39/39
f 27/27/27 39/39/39 25/25/25
f 25/25/25 39/39/39 40/40/40
f 25/25/25 40/40/40 22/22/22
f 22/22/22 40/40/40 41/41/41
f 22/22/22 41/41/41 20/20/20
f 20/20/20 41/41/41 42/42/42
f 20/20/20 42/42/42 18/18/18
f 18/18/18 42/42/42 43/43/43
f 18/18/18 43/43/43 16/16/16
f 16/16/16 43/43/43 44/44/44
f 16/16/16 44/44/44 15/15/15
f 15/15/15 44/44/44 45/45/45
f 15/15/15 45/45/45 13/13/13
f 13/13/13 45/45/45 46/46/46
f 13/13/13 46/46/46 11/11/11
f 11/11/11 46/46/46 47/47/47
f 11/11/11 47/47/47 9/9/9
f 9/9/9 47/47/47 48/48/48
f 9/9/9 48/48/48 7/7/7
f 7/7/7 48/48/48 49/49/49
f 7/7/7 49/49/49 4/4/4
f 4/4/4 49/49/49 50/50/50
f 52/52/52 51/51/51 19/19/19
f 19/19/19 51/51/51 67/67/67
f 19/19/19 67/67/67 21/21/21
f 21/21/21 67/67/67 66/66/66
f 21/21/21 66/66/66 23/23/23
f 23/23/23 66/66/66 65/65/65
f 23/23/23 65/65/65 24/24/24
f 24/24/24 65/65/65 64/64/64
f 24/24/24 64/64/64 26/26/26
f 26/26/26 64/64/64 63/63/63
f 26/26/26 63/63/63 29/29/29
f 29/29/29 63/63/63 62/62/62
f 29/29/29 62/62/62 31/31/31
f 31/31/31 62/62/62 61/61/61
f 31/31/31 61/61/61 32/32/32
f 32/32/32 61/61/61 60/60/60
f 32/32/32 60/60/60 3/3/3
f 3/3/3 60/60/60 59/59/59
f 3/3/3 59/59/59 5/5/5
f 5/5/5 59/59/59 58/58/58
f 5/5/5 58/58/58 6/6/6
f 6/6/6 58/58/58 57/57/57
f 6/6/6 57/57/57 8/8/8
f 8/8/8 57/57/57 56/56/56
f 8/8/8 56/56/56 10/10/10
f 10/10/10 56/56/56 55/55/55
f 10/10/10 55/55/55 12/12/12
f 12/12/12 55/55/55 54/54/54
f 12/12/12 54/54/54 14/14/14
f 14/14/14 54/54/54 53/53/53
f 14/14/14 53/53/53 17/17/17
f 17/17/17 53/53/53 52/52/52
f 17/17/17 52/52/52 19/19/19

