mtllib material.mtl
usemtl Opaque(137,137,137)
v -0.01444000 -0.03320000 0.02850000
v -0.01444000 -0.03320000 0.02850000
v -0.01444000 -0.03320000 0.02850000
v -0.01427700 -0.03320000 0.02942300
v -0.01427700 -0.03320000 0.02942300
v -0.01380800 -0.03320000 0.03023600
v -0.01380800 -0.03320000 0.03023600
v -0.01309000 -0.03320000 0.03083800
v -0.01309000 -0.03320000 0.03083800
v -0.01220900 -0.03320000 0.03115900
v -0.01220900 -0.03320000 0.03115900
v -0.01127100 -0.03320000 0.03115900
v -0.01127100 -0.03320000 0.03115900
v -0.01039000 -0.03320000 0.03083800
v -0.01039000 -0.03320000 0.03083800
v -0.00967200 -0.03320000 0.03023600
v -0.00967200 -0.03320000 0.03023600
v -0.00920300 -0.03320000 0.02942300
v -0.00920300 -0.03320000 0.02942300
v -0.00904000 -0.03320000 0.02850000
v -0.00904000 -0.03320000 0.02850000
v -0.00920300 -0.03320000 0.02757700
v -0.00920300 -0.03320000 0.02757700
v -0.00967200 -0.03320000 0.02676400
v -0.00967200 -0.03320000 0.02676400
v -0.01039000 -0.03320000 0.02616200
v -0.01039000 -0.03320000 0.02616200
v -0.01127100 -0.03320000 0.02584100
v -0.01127100 -0.03320000 0.02584100
v -0.01220900 -0.03320000 0.02584100
v -0.01220900 -0.03320000 0.02584100
v -0.01309000 -0.03320000 0.02616200
v -0.01309000 -0.03320000 0.02616200
v -0.01380800 -0.03320000 0.02676400
v -0.01380800 -0.03320000 0.02676400
v -0.01427700 -0.03320000 0.02757700
v -0.01427700 -0.03320000 0.02757700
v -0.01444000 0.03400000 0.02850000
v -0.01444000 0.03400000 0.02850000
v -0.01444000 0.03400000 0.02850000
v -0.01427700 0.03400000 0.02757700
v -0.01427700 0.03400000 0.02757700
v -0.01380800 0.03400000 0.02676400
v -0.01380800 0.03400000 0.02676400
v -0.01309000 0.03400000 0.02616200
v -0.01309000 0.03400000 0.02616200
v -0.01220900 0.03400000 0.02584100
v -0.01220900 0.03400000 0.02584100
v -0.01127100 0.03400000 0.02584100
v -0.01127100 0.03400000 0.02584100
v -0.01039000 0.03400000 0.02616200
v -0.01039000 0.03400000 0.02616200
v -0.00967200 0.03400000 0.02676400
v -0.00967200 0.03400000 0.02676400
v -0.00920300 0.03400000 0.02757700
v -0.00920300 0.03400000 0.02757700
v -0.00904000 0.03400000 0.02850000
v -0.00904000 0.03400000 0.02850000
v -0.00920300 0.03400000 0.02942300
v -0.00920300 0.03400000 0.02942300
v -0.00967200 0.03400000 0.03023600
v -0.00967200 0.03400000 0.03023600
v -0.01039000 0.03400000 0.03083800
v -0.01039000 0.03400000 0.03083800
v -0.01127100 0.03400000 0.03115900
v -0.01127100 0.03400000 0.03115900
v -0.01220900 0.03400000 0.03115900
v -0.01220900 0.03400000 0.03115900
v -0.01309000 0.03400000 0.03083800
v -0.01309000 0.03400000 0.03083800
v -0.01380800 0.03400000 0.03023600
v -0.01380800 0.03400000 0.03023600
v -0.01427700 0.03400000 0.02942300
v -0.01427700 0.03400000 0.02942300
v -0.01444000 0.01720000 0.02850000
v -0.01444000 0.01720000 0.02850000
v -0.01444000 0.00040000 0.02850000
v -0.01444000 0.00040000 0.02850000
v -0.01444000 -0.01640000 0.02850000
v -0.01444000 -0.01640000 0.02850000
v -0.01427700 0.01720000 0.02942300
v -0.01427700 0.00040000 0.02942300
v -0.01427700 -0.01640000 0.02942300
v -0.01380800 0.01720000 0.03023600
v -0.01380800 0.00040000 0.03023600
v -0.01380800 -0.01640000 0.03023600
v -0.01309000 0.01720000 0.03083800
v -0.01309000 0.00040000 0.03083800
v -0.01309000 -0.01640000 0.03083800
v -0.01220900 0.01720000 0.03115900
v -0.01220900 0.00040000 0.03115900
v -0.01220900 -0.01640000 0.03115900
v -0.01127100 0.01720000 0.03115900
v -0.01127100 0.00040000 0.03115900
v -0.01127100 -0.01640000 0.03115900
v -0.01039000 0.01720000 0.03083800
v -0.01039000 0.00040000 0.03083800
v -0.01039000 -0.01640000 0.03083800
v -0.00967200 0.01720000 0.03023600
v -0.00967200 0.00040000 0.03023600
v -0.00967200 -0.01640000 0.03023600
v -0.00920300 0.01720000 0.02942300
v -0.00920300 0.00040000 0.02942300
v -0.00920300 -0.01640000 0.02942300
v -0.00904000 0.01720000 0.02850000
v -0.00904000 0.00040000 0.02850000
v -0.00904000 -0.01640000 0.02850000
v -0.00920300 0.01720000 0.02757700
v -0.00920300 0.00040000 0.02757700
v -0.00920300 -0.01640000 0.02757700
v -0.00967200 0.01720000 0.02676400
v -0.00967200 0.00040000 0.02676400
v -0.00967200 -0.01640000 0.02676400
v -0.01039000 0.01720000 0.02616200
v -0.01039000 0.00040000 0.02616200
v -0.01039000 -0.01640000 0.02616200
v -0.01127100 0.01720000 0.02584100
v -0.01127100 0.00040000 0.02584100
v -0.01127100 -0.01640000 0.02584100
v -0.01220900 0.01720000 0.02584100
v -0.01220900 0.00040000 0.02584100
v -0.01220900 -0.01640000 0.02584100
v -0.01309000 0.01720000 0.02616200
v -0.01309000 0.00040000 0.02616200
v -0.01309000 -0.01640000 0.02616200
v -0.01380800 0.01720000 0.02676400
v -0.01380800 0.00040000 0.02676400
v -0.01380800 -0.01640000 0.02676400
v -0.01427700 0.01720000 0.02757700
v -0.01427700 0.00040000 0.02757700
v -0.01427700 -0.01640000 0.02757700
v -0.00000000 0.00500000 0.00000000
v -0.00000000 0.00500000 0.00000000
v -0.00000000 0.00500000 0.00000000
v -0.00000000 0.00483000 0.00129400
v -0.00000000 0.00483000 0.00129400
v -0.00000000 0.00433000 0.00250000
v -0.00000000 0.00433000 0.00250000
v 0.00000000 0.00353600 0.00353600
v 0.00000000 0.00353600 0.00353600
v 0.00000000 0.00250000 0.00433000
v 0.00000000 0.00250000 0.00433000
v 0.00000000 0.00129400 0.00483000
v 0.00000000 0.00129400 0.00483000
v 0.00000000 -0.00000000 0.00500000
v 0.00000000 -0.00000000 0.00500000
v 0.00000000 -0.00129400 0.00483000
v 0.00000000 -0.00129400 0.00483000
v 0.00000000 -0.00250000 0.00433000
v 0.00000000 -0.00250000 0.00433000
v 0.00000000 -0.00353600 0.00353600
v 0.00000000 -0.00353600 0.00353600
v 0.00000000 -0.00433000 0.00250000
v 0.00000000 -0.00433000 0.00250000
v 0.00000000 -0.00483000 0.00129400
v 0.00000000 -0.00483000 0.00129400
v 0.00000000 -0.00500000 -0.00000000
v 0.00000000 -0.00500000 -0.00000000
v 0.00000000 -0.00483000 -0.00129400
v 0.00000000 -0.00483000 -0.00129400
v 0.00000000 -0.00433000 -0.00250000
v 0.00000000 -0.00433000 -0.00250000
v -0.00000000 -0.00353600 -0.00353600
v -0.00000000 -0.00353600 -0.00353600
v -0.00000000 -0.00250000 -0.00433000
v -0.00000000 -0.00250000 -0.00433000
v -0.00000000 -0.00129400 -0.00483000
v -0.00000000 -0.00129400 -0.00483000
v -0.00000000 -0.00000000 -0.00500000
v -0.00000000 -0.00000000 -0.00500000
v -0.00000000 0.00129400 -0.00483000
v -0.00000000 0.00129400 -0.00483000
v -0.00000000 0.00250000 -0.00433000
v -0.00000000 0.00250000 -0.00433000
v -0.00000000 0.00353600 -0.00353600
v -0.00000000 0.00353600 -0.00353600
v -0.00000000 0.00433000 -0.00250000
v -0.00000000 0.00433000 -0.00250000
v -0.00000000 0.00483000 -0.00129400
v -0.00000000 0.00483000 -0.00129400
v -0.00254000 0.00500000 0.00000000
v -0.00254000 0.00500000 0.00000000
v -0.00254000 0.00500000 0.00000000
v -0.00254000 0.00483000 -0.00129400
v -0.00254000 0.00483000 -0.00129400
v -0.00254000 0.00433000 -0.00250000
v -0.00254000 0.00433000 -0.00250000
v -0.00254000 0.00353600 -0.00353600
v -0.00254000 0.00353600 -0.00353600
v -0.00254000 0.00250000 -0.00433000
v -0.00254000 0.00250000 -0.00433000
v -0.00254000 0.00129400 -0.00483000
v -0.00254000 0.00129400 -0.00483000
v -0.00254000 -0.00000000 -0.00500000
v -0.00254000 -0.00000000 -0.00500000
v -0.00254000 -0.00129400 -0.00483000
v -0.00254000 -0.00129400 -0.00483000
v -0.00254000 -0.00250000 -0.00433000
v -0.00254000 -0.00250000 -0.00433000
v -0.00254000 -0.00353600 -0.00353600
v -0.00254000 -0.00353600 -0.00353600
v -0.00254000 -0.00433000 -0.00250000
v -0.00254000 -0.00433000 -0.00250000
v -0.00254000 -0.00483000 -0.00129400
v -0.00254000 -0.00483000 -0.00129400
v -0.00254000 -0.00500000 0.00000000
v -0.00254000 -0.00500000 0.00000000
v -0.00254000 -0.00483000 0.00129400
v -0.00254000 -0.00483000 0.00129400
v -0.00254000 -0.00433000 0.00250000
v -0.00254000 -0.00433000 0.00250000
v -0.00254000 -0.00353600 0.00353600
v -0.00254000 -0.00353600 0.00353600
v -0.00254000 -0.00250000 0.00433000
v -0.00254000 -0.00250000 0.00433000
v -0.00254000 -0.00129400 0.00483000
v -0.00254000 -0.00129400 0.00483000
v -0.00254000 -0.00000000 0.00500000
v -0.00254000 -0.00000000 0.00500000
v -0.00254000 0.00129400 0.00483000
v -0.00254000 0.00129400 0.00483000
v -0.00254000 0.00250000 0.00433000
v -0.00254000 0.00250000 0.00433000
v -0.00254000 0.00353600 0.00353600
v -0.00254000 0.00353600 0.00353600
v -0.00254000 0.00433000 0.00250000
v -0.00254000 0.00433000 0.00250000
v -0.00254000 0.00483000 0.00129400
v -0.00254000 0.00483000 0.00129400
v -0.02274000 -0.03320000 0.03550000
v -0.02274000 -0.03320000 0.03550000
v -0.02274000 -0.03320000 0.03550000
v -0.02274000 -0.03320000 0.03159300
v -0.02274000 -0.03320000 0.03159300
v -0.02274000 -0.03320000 0.03159300
v -0.02017800 -0.03320000 0.03005200
v -0.02017800 -0.03320000 0.03005200
v -0.01775400 -0.03320000 0.02830400
v -0.01775400 -0.03320000 0.02830400
v -0.01548200 -0.03320000 0.02636000
v -0.01548200 -0.03320000 0.02636000
v -0.01338000 -0.03320000 0.02423500
v -0.01338000 -0.03320000 0.02423500
v -0.01146100 -0.03320000 0.02194300
v -0.01146100 -0.03320000 0.02194300
v -0.00973900 -0.03320000 0.01950000
v -0.00973900 -0.03320000 0.01950000
v -0.00973900 -0.03320000 0.01950000
v -0.00729000 -0.03320000 0.01950000
v -0.00729000 -0.03320000 0.01950000
v -0.00729000 -0.03320000 0.01950000
v -0.00729000 -0.03320000 -0.02250000
v -0.00729000 -0.03320000 -0.02250000
v -0.00729000 -0.03320000 -0.02250000
v -0.00729000 -0.03320000 -0.02250000
v -0.04000000 -0.03320000 -0.02250000
v -0.04000000 -0.03320000 -0.02250000
v -0.04000000 -0.03320000 -0.02250000
v -0.04281400 -0.03320000 -0.02232300
v -0.04281400 -0.03320000 -0.02232300
v -0.04558400 -0.03320000 -0.02179600
v -0.04558400 -0.03320000 -0.02179600
v -0.04826600 -0.03320000 -0.02092600
v -0.04826600 -0.03320000 -0.02092600
v -0.05081900 -0.03320000 -0.01972800
v -0.05081900 -0.03320000 -0.01972800
v -0.05320100 -0.03320000 -0.01822000
v -0.05320100 -0.03320000 -0.01822000
v -0.05537700 -0.03320000 -0.01642600
v -0.05537700 -0.03320000 -0.01642600
v -0.05731000 -0.03320000 -0.01437400
v -0.05731000 -0.03320000 -0.01437400
v -0.05897200 -0.03320000 -0.01209600
v -0.05897200 -0.03320000 -0.01209600
v -0.06033600 -0.03320000 -0.00962800
v -0.06033600 -0.03320000 -0.00962800
v -0.06138100 -0.03320000 -0.00700900
v -0.06138100 -0.03320000 -0.00700900
v -0.06208900 -0.03320000 -0.00427900
v -0.06208900 -0.03320000 -0.00427900
v -0.06245100 -0.03320000 -0.00148300
v -0.06245100 -0.03320000 -0.00148300
v -0.06246000 -0.03320000 0.00133700
v -0.06246000 -0.03320000 0.00133700
v -0.06211700 -0.03320000 0.00413500
v -0.06211700 -0.03320000 0.00413500
v -0.06142600 -0.03320000 0.00686900
v -0.06142600 -0.03320000 0.00686900
v -0.06039800 -0.03320000 0.00949500
v -0.06039800 -0.03320000 0.00949500
v -0.05905100 -0.03320000 0.01197200
v -0.05905100 -0.03320000 0.01197200
v -0.05740400 -0.03320000 0.01426100
v -0.05740400 -0.03320000 0.01426100
v -0.05740400 -0.03320000 0.01426100
v -0.04600100 -0.03320000 0.02817600
v -0.04600100 -0.03320000 0.02817600
v -0.04600100 -0.03320000 0.02817600
v -0.04428100 -0.03320000 0.03002400
v -0.04428100 -0.03320000 0.03002400
v -0.04234100 -0.03320000 0.03164100
v -0.04234100 -0.03320000 0.03164100
v -0.04021300 -0.03320000 0.03300000
v -0.04021300 -0.03320000 0.03300000
v -0.03793100 -0.03320000 0.03408100
v -0.03793100 -0.03320000 0.03408100
v -0.03553100 -0.03320000 0.03486500
v -0.03553100 -0.03320000 0.03486500
v -0.03305100 -0.03320000 0.03534100
v -0.03305100 -0.03320000 0.03534100
v -0.03053100 -0.03320000 0.03550000
v -0.03053100 -0.03320000 0.03550000
v -0.03053100 -0.03320000 0.03550000
v -0.00254000 -0.02845000 0.01950000
v -0.00254000 -0.02845000 0.01950000
v -0.00254000 -0.02845000 0.01950000
v -0.00270200 -0.02968000 0.01950000
v -0.00270200 -0.02968000 0.01950000
v -0.00317600 -0.03082500 0.01950000
v -0.00317600 -0.03082500 0.01950000
v -0.00393100 -0.03180900 0.01950000
v -0.00393100 -0.03180900 0.01950000
v -0.00491500 -0.03256400 0.01950000
v -0.00491500 -0.03256400 0.01950000
v -0.00606000 -0.03303800 0.01950000
v -0.00606000 -0.03303800 0.01950000
v -0.00973900 0.03400000 0.01950000
v -0.00973900 0.03400000 0.01950000
v -0.00973900 0.03400000 0.01950000
v -0.00729000 0.03400000 0.01950000
v -0.00729000 0.03400000 0.01950000
v -0.00729000 0.03400000 0.01950000
v -0.00606000 0.03383800 0.01950000
v -0.00606000 0.03383800 0.01950000
v -0.00491500 0.03336400 0.01950000
v -0.00491500 0.03336400 0.01950000
v -0.00393100 0.03260900 0.01950000
v -0.00393100 0.03260900 0.01950000
v -0.00317600 0.03162500 0.01950000
v -0.00317600 0.03162500 0.01950000
v -0.00270200 0.03048000 0.01950000
v -0.00270200 0.03048000 0.01950000
v -0.00254000 0.02925000 0.01950000
v -0.00254000 0.02925000 0.01950000
v -0.00254000 0.02925000 0.01950000
v -0.02274000 0.03400000 0.03550000
v -0.02274000 0.03400000 0.03550000
v -0.02274000 0.03400000 0.03550000
v -0.02274000 0.03400000 0.03159300
v -0.02274000 0.03400000 0.03159300
v -0.02274000 0.03400000 0.03159300
v -0.02017800 0.03400000 0.03005200
v -0.02017800 0.03400000 0.03005200
v -0.01775400 0.03400000 0.02830400
v -0.01775400 0.03400000 0.02830400
v -0.01548200 0.03400000 0.02636000
v -0.01548200 0.03400000 0.02636000
v -0.01338000 0.03400000 0.02423500
v -0.01338000 0.03400000 0.02423500
v -0.01146100 0.03400000 0.02194300
v -0.01146100 0.03400000 0.02194300
v -0.03053100 0.03654000 0.03550000
v -0.03053100 0.03654000 0.03550000
v -0.03053100 0.03654000 0.03550000
v -0.03305100 0.03654000 0.03534100
v -0.03305100 0.03654000 0.03534100
v -0.03553100 0.03654000 0.03486500
v -0.03553100 0.03654000 0.03486500
v -0.03793100 0.03654000 0.03408100
v -0.03793100 0.03654000 0.03408100
v -0.04021300 0.03654000 0.03300000
v -0.04021300 0.03654000 0.03300000
v -0.04234100 0.03654000 0.03164100
v -0.04234100 0.03654000 0.03164100
v -0.04428100 0.03654000 0.03002400
v -0.04428100 0.03654000 0.03002400
v -0.04600100 0.03654000 0.02817600
v -0.04600100 0.03654000 0.02817600
v -0.04600100 0.03654000 0.02817600
v -0.04600100 0.03400000 0.02817600
v -0.04600100 0.03400000 0.02817600
v -0.04600100 0.03400000 0.02817600
v -0.04428100 0.03400000 0.03002400
v -0.04428100 0.03400000 0.03002400
v -0.04234100 0.03400000 0.03164100
v -0.04234100 0.03400000 0.03164100
v -0.04021300 0.03400000 0.03300000
v -0.04021300 0.03400000 0.03300000
v -0.03793100 0.03400000 0.03408100
v -0.03793100 0.03400000 0.03408100
v -0.03553100 0.03400000 0.03486500
v -0.03553100 0.03400000 0.03486500
v -0.03305100 0.03400000 0.03534100
v -0.03305100 0.03400000 0.03534100
v -0.03053100 0.03400000 0.03550000
v -0.03053100 0.03400000 0.03550000
v -0.03053100 0.03400000 0.03550000
v -0.05740400 0.03400000 0.01426100
v -0.05740400 0.03400000 0.01426100
v -0.05740400 0.03400000 0.01426100
v -0.05905100 0.03400000 0.01197200
v -0.05905100 0.03400000 0.01197200
v -0.06039800 0.03400000 0.00949500
v -0.06039800 0.03400000 0.00949500
v -0.06142600 0.03400000 0.00686900
v -0.06142600 0.03400000 0.00686900
v -0.06211700 0.03400000 0.00413500
v -0.06211700 0.03400000 0.00413500
v -0.06246000 0.03400000 0.00133700
v -0.06246000 0.03400000 0.00133700
v -0.06245100 0.03400000 -0.00148300
v -0.06245100 0.03400000 -0.00148300
v -0.06208900 0.03400000 -0.00427900
v -0.06208900 0.03400000 -0.00427900
v -0.06138100 0.03400000 -0.00700900
v -0.06138100 0.03400000 -0.00700900
v -0.06033600 0.03400000 -0.00962800
v -0.06033600 0.03400000 -0.00962800
v -0.05897200 0.03400000 -0.01209600
v -0.05897200 0.03400000 -0.01209600
v -0.05731000 0.03400000 -0.01437400
v -0.05731000 0.03400000 -0.01437400
v -0.05537700 0.03400000 -0.01642600
v -0.05537700 0.03400000 -0.01642600
v -0.05320100 0.03400000 -0.01822000
v -0.05320100 0.03400000 -0.01822000
v -0.05081900 0.03400000 -0.01972800
v -0.05081900 0.03400000 -0.01972800
v -0.04826600 0.03400000 -0.02092600
v -0.04826600 0.03400000 -0.02092600
v -0.04558400 0.03400000 -0.02179600
v -0.04558400 0.03400000 -0.02179600
v -0.04281400 0.03400000 -0.02232300
v -0.04281400 0.03400000 -0.02232300
v -0.04000000 0.03400000 -0.02250000
v -0.04000000 0.03400000 -0.02250000
v -0.04000000 0.03400000 -0.02250000
v -0.00729000 0.03400000 -0.02250000
v -0.00729000 0.03400000 -0.02250000
v -0.00729000 0.03400000 -0.02250000
v -0.00729000 0.03400000 -0.02250000
v -0.04600100 -0.03574000 0.02817600
v -0.04600100 -0.03574000 0.02817600
v -0.04600100 -0.03574000 0.02817600
v -0.04428100 -0.03574000 0.03002400
v -0.04428100 -0.03574000 0.03002400
v -0.04234100 -0.03574000 0.03164100
v -0.04234100 -0.03574000 0.03164100
v -0.04021300 -0.03574000 0.03300000
v -0.04021300 -0.03574000 0.03300000
v -0.03793100 -0.03574000 0.03408100
v -0.03793100 -0.03574000 0.03408100
v -0.03553100 -0.03574000 0.03486500
v -0.03553100 -0.03574000 0.03486500
v -0.03305100 -0.03574000 0.03534100
v -0.03305100 -0.03574000 0.03534100
v -0.03053100 -0.03574000 0.03550000
v -0.03053100 -0.03574000 0.03550000
v -0.03053100 -0.03574000 0.03550000
v -0.05740400 -0.03574000 0.01426100
v -0.05740400 -0.03574000 0.01426100
v -0.05740400 -0.03574000 0.01426100
v -0.05905100 -0.03574000 0.01197200
v -0.05905100 -0.03574000 0.01197200
v -0.06039800 -0.03574000 0.00949500
v -0.06039800 -0.03574000 0.00949500
v -0.06142600 -0.03574000 0.00686900
v -0.06142600 -0.03574000 0.00686900
v -0.06211700 -0.03574000 0.00413500
v -0.06211700 -0.03574000 0.00413500
v -0.06246000 -0.03574000 0.00133700
v -0.06246000 -0.03574000 0.00133700
v -0.06245100 -0.03574000 -0.00148300
v -0.06245100 -0.03574000 -0.00148300
v -0.06208900 -0.03574000 -0.00427900
v -0.06208900 -0.03574000 -0.00427900
v -0.06138100 -0.03574000 -0.00700900
v -0.06138100 -0.03574000 -0.00700900
v -0.06033600 -0.03574000 -0.00962800
v -0.06033600 -0.03574000 -0.00962800
v -0.05897200 -0.03574000 -0.01209600
v -0.05897200 -0.03574000 -0.01209600
v -0.05731000 -0.03574000 -0.01437400
v -0.05731000 -0.03574000 -0.01437400
v -0.05537700 -0.03574000 -0.01642600
v -0.05537700 -0.03574000 -0.01642600
v -0.05320100 -0.03574000 -0.01822000
v -0.05320100 -0.03574000 -0.01822000
v -0.05081900 -0.03574000 -0.01972800
v -0.05081900 -0.03574000 -0.01972800
v -0.04826600 -0.03574000 -0.02092600
v -0.04826600 -0.03574000 -0.02092600
v -0.04558400 -0.03574000 -0.02179600
v -0.04558400 -0.03574000 -0.02179600
v -0.04281400 -0.03574000 -0.02232300
v -0.04281400 -0.03574000 -0.02232300
v -0.04000000 -0.03574000 -0.02250000
v -0.04000000 -0.03574000 -0.02250000
v -0.04000000 -0.03574000 -0.02250000
v -0.00729000 -0.03574000 -0.02250000
v -0.00729000 -0.03574000 -0.02250000
v -0.00729000 -0.03574000 -0.02250000
v -0.00729000 -0.03574000 -0.02250000
v -0.00729000 -0.03574000 0.03550000
v -0.00729000 -0.03574000 0.03550000
v -0.00729000 -0.03574000 0.03550000
v -0.00729000 -0.03320000 0.03550000
v -0.00586800 -0.03560000 0.03550000
v -0.00586800 -0.03560000 0.03550000
v -0.00450000 -0.03518500 0.03550000
v -0.00450000 -0.03518500 0.03550000
v -0.00324000 -0.03451100 0.03550000
v -0.00324000 -0.03451100 0.03550000
v -0.00213500 -0.03360500 0.03550000
v -0.00213500 -0.03360500 0.03550000
v -0.00122900 -0.03250000 0.03550000
v -0.00122900 -0.03250000 0.03550000
v -0.00055500 -0.03124000 0.03550000
v -0.00055500 -0.03124000 0.03550000
v -0.00014000 -0.02987200 0.03550000
v -0.00014000 -0.02987200 0.03550000
v 0.00000000 -0.02845000 0.03550000
v 0.00000000 -0.02845000 0.03550000
v 0.00000000 -0.02845000 0.03550000
v -0.00254000 -0.02845000 0.03550000
v -0.00000000 0.02925000 0.03550000
v -0.00000000 0.02925000 0.03550000
v -0.00000000 0.02925000 0.03550000
v -0.00254000 0.02925000 0.03550000
v -0.00014000 0.03067200 0.03550000
v -0.00014000 0.03067200 0.03550000
v -0.00055500 0.03204000 0.03550000
v -0.00055500 0.03204000 0.03550000
v -0.00122900 0.03330000 0.03550000
v -0.00122900 0.03330000 0.03550000
v -0.00213500 0.03440500 0.03550000
v -0.00213500 0.03440500 0.03550000
v -0.00324000 0.03531100 0.03550000
v -0.00324000 0.03531100 0.03550000
v -0.00450000 0.03598500 0.03550000
v -0.00450000 0.03598500 0.03550000
v -0.00586800 0.03640000 0.03550000
v -0.00586800 0.03640000 0.03550000
v -0.00729000 0.03654000 0.03550000
v -0.00729000 0.03654000 0.03550000
v -0.00729000 0.03654000 0.03550000
v -0.00729000 0.03400000 0.03550000
v -0.05740400 0.03654000 0.01426100
v -0.05740400 0.03654000 0.01426100
v -0.05740400 0.03654000 0.01426100
v -0.05905100 0.03654000 0.01197200
v -0.05905100 0.03654000 0.01197200
v -0.06039800 0.03654000 0.00949500
v -0.06039800 0.03654000 0.00949500
v -0.06142600 0.03654000 0.00686900
v -0.06142600 0.03654000 0.00686900
v -0.06211700 0.03654000 0.00413500
v -0.06211700 0.03654000 0.00413500
v -0.06246000 0.03654000 0.00133700
v -0.06246000 0.03654000 0.00133700
v -0.06245100 0.03654000 -0.00148300
v -0.06245100 0.03654000 -0.00148300
v -0.06208900 0.03654000 -0.00427900
v -0.06208900 0.03654000 -0.00427900
v -0.06138100 0.03654000 -0.00700900
v -0.06138100 0.03654000 -0.00700900
v -0.06033600 0.03654000 -0.00962800
v -0.06033600 0.03654000 -0.00962800
v -0.05897200 0.03654000 -0.01209600
v -0.05897200 0.03654000 -0.01209600
v -0.05731000 0.03654000 -0.01437400
v -0.05731000 0.03654000 -0.01437400
v -0.05537700 0.03654000 -0.01642600
v -0.05537700 0.03654000 -0.01642600
v -0.05320100 0.03654000 -0.01822000
v -0.05320100 0.03654000 -0.01822000
v -0.05081900 0.03654000 -0.01972800
v -0.05081900 0.03654000 -0.01972800
v -0.04826600 0.03654000 -0.02092600
v -0.04826600 0.03654000 -0.02092600
v -0.04558400 0.03654000 -0.02179600
v -0.04558400 0.03654000 -0.02179600
v -0.04281400 0.03654000 -0.02232300
v -0.04281400 0.03654000 -0.02232300
v -0.04000000 0.03654000 -0.02250000
v -0.04000000 0.03654000 -0.02250000
v -0.04000000 0.03654000 -0.02250000
v -0.00729000 0.03654000 -0.02250000
v -0.00729000 0.03654000 -0.02250000
v -0.00729000 0.03654000 -0.02250000
v -0.00729000 0.03654000 -0.02250000
v -0.00586800 -0.03560000 -0.02250000
v -0.00586800 -0.03560000 -0.02250000
v -0.00450000 -0.03518500 -0.02250000
v -0.00450000 -0.03518500 -0.02250000
v -0.00324000 -0.03451100 -0.02250000
v -0.00324000 -0.03451100 -0.02250000
v -0.00213500 -0.03360500 -0.02250000
v -0.00213500 -0.03360500 -0.02250000
v -0.00122900 -0.03250000 -0.02250000
v -0.00122900 -0.03250000 -0.02250000
v -0.00055500 -0.03124000 -0.02250000
v -0.00055500 -0.03124000 -0.02250000
v -0.00014000 -0.02987200 -0.02250000
v -0.00014000 -0.02987200 -0.02250000
v -0.00000000 -0.02845000 -0.02250000
v -0.00000000 -0.02845000 -0.02250000
v -0.00000000 -0.02845000 -0.02250000
v -0.00000000 -0.02845000 -0.02250000
v -0.00586800 -0.03560000 0.00650000
v -0.00450000 -0.03518500 0.00650000
v -0.00324000 -0.03451100 0.00650000
v -0.00213500 -0.03360500 0.00650000
v -0.00122900 -0.03250000 0.00650000
v -0.00055500 -0.03124000 0.00650000
v -0.00014000 -0.02987200 0.00650000
v -0.00606000 -0.03303800 -0.02250000
v -0.00606000 -0.03303800 -0.02250000
v -0.00491500 -0.03256400 -0.02250000
v -0.00491500 -0.03256400 -0.02250000
v -0.00393100 -0.03180900 -0.02250000
v -0.00393100 -0.03180900 -0.02250000
v -0.00317600 -0.03082500 -0.02250000
v -0.00317600 -0.03082500 -0.02250000
v -0.00270200 -0.02968000 -0.02250000
v -0.00270200 -0.02968000 -0.02250000
v -0.00254000 -0.02845000 -0.02250000
v -0.00254000 -0.02845000 -0.02250000
v -0.00254000 -0.02845000 -0.02250000
v -0.00254000 -0.02845000 -0.02250000
v -0.00606000 -0.03303800 -0.00150000
v -0.00491500 -0.03256400 -0.00150000
v -0.00393100 -0.03180900 -0.00150000
v -0.00317600 -0.03082500 -0.00150000
v -0.00270200 -0.02968000 -0.00150000
v -0.00000000 0.02925000 -0.02250000
v -0.00000000 0.02925000 -0.02250000
v -0.00000000 0.02925000 -0.02250000
v -0.00000000 0.02925000 -0.02250000
v -0.00014000 0.03067200 -0.02250000
v -0.00014000 0.03067200 -0.02250000
v -0.00055500 0.03204000 -0.02250000
v -0.00055500 0.03204000 -0.02250000
v -0.00122900 0.03330000 -0.02250000
v -0.00122900 0.03330000 -0.02250000
v -0.00213500 0.03440500 -0.02250000
v -0.00213500 0.03440500 -0.02250000
v -0.00324000 0.03531100 -0.02250000
v -0.00324000 0.03531100 -0.02250000
v -0.00450000 0.03598500 -0.02250000
v -0.00450000 0.03598500 -0.02250000
v -0.00586800 0.03640000 -0.02250000
v -0.00586800 0.03640000 -0.02250000
v -0.00586800 0.03640000 0.00650000
v -0.00450000 0.03598500 0.00650000
v -0.00324000 0.03531100 0.00650000
v -0.00213500 0.03440500 0.00650000
v -0.00122900 0.03330000 0.00650000
v -0.00055500 0.03204000 0.00650000
v -0.00014000 0.03067200 0.00650000
v -0.00254000 0.02925000 -0.02250000
v -0.00254000 0.02925000 -0.02250000
v -0.00254000 0.02925000 -0.02250000
v -0.00254000 0.02925000 -0.02250000
v -0.00270200 0.03048000 -0.02250000
v -0.00270200 0.03048000 -0.02250000
v -0.00317600 0.03162500 -0.02250000
v -0.00317600 0.03162500 -0.02250000
v -0.00393100 0.03260900 -0.02250000
v -0.00393100 0.03260900 -0.02250000
v -0.00491500 0.03336400 -0.02250000
v -0.00491500 0.03336400 -0.02250000
v -0.00606000 0.03383800 -0.02250000
v -0.00606000 0.03383800 -0.02250000
v -0.00270200 0.03048000 -0.00150000
v -0.00317600 0.03162500 -0.00150000
v -0.00393100 0.03260900 -0.00150000
v -0.00491500 0.03336400 -0.00150000
v -0.00606000 0.03383800 -0.00150000
vn 100.00000000 0.00000000 -0.00000000
vn 100.00000000 0.00000000 -0.00000000
vn -0.00000000 100.00000000 -0.00000000
vn 93.96926200 0.00000000 -34.20201400
vn -0.00000000 100.00000000 -0.00000000
vn -0.00000000 100.00000000 -0.00000000
vn 76.60444400 0.00000000 -64.27876100
vn 50.00000000 0.00000000 -86.60254000
vn -0.00000000 100.00000000 -0.00000000
vn 17.36481800 -0.00000000 -98.48077500
vn -0.00000000 100.00000000 -0.00000000
vn -17.36481800 -0.00000000 -98.48077500
vn -0.00000000 100.00000000 -0.00000000
vn -50.00000000 -0.00000000 -86.60254000
vn -0.00000000 100.00000000 -0.00000000
vn -0.00000000 100.00000000 -0.00000000
vn -76.60444400 -0.00000000 -64.27876100
vn -93.96926200 -0.00000000 -34.20201400
vn -0.00000000 100.00000000 -0.00000000
vn -100.00000000 -0.00000000 0.00000000
vn -0.00000000 100.00000000 -0.00000000
vn -0.00000000 100.00000000 -0.00000000
vn -93.96926200 -0.00000000 34.20201400
vn -76.60444400 -0.00000000 64.27876100
vn -0.00000000 100.00000000 -0.00000000
vn -50.00000000 -0.00000000 86.60254000
vn -0.00000000 100.00000000 -0.00000000
vn -0.00000000 100.00000000 -0.00000000
vn -17.36481800 0.00000000 98.48077500
vn -0.00000000 100.00000000 -0.00000000
vn 17.36481800 0.00000000 98.48077500
vn 50.00000000 0.00000000 86.60254000
vn -0.00000000 100.00000000 -0.00000000
vn -0.00000000 100.00000000 -0.00000000
vn 76.60444400 0.00000000 64.27876100
vn -0.00000000 100.00000000 -0.00000000
vn 93.96926200 0.00000000 34.20201400
vn 100.00000000 0.00000000 -0.00000000
vn 0.00000000 -100.00000000 -0.00000000
vn 100.00000000 0.00000000 -0.00000000
vn 0.00000000 -100.00000000 -0.00000000
vn 93.96926200 0.00000000 34.20201400
vn 76.60444400 0.00000000 64.27876100
vn 0.00000000 -100.00000000 -0.00000000
vn 0.00000000 -100.00000000 -0.00000000
vn 50.00000000 0.00000000 86.60254000
vn 17.36481800 0.00000000 98.48077500
vn 0.00000000 -100.00000000 -0.00000000
vn -17.36481800 0.00000000 98.48077500
vn 0.00000000 -100.00000000 -0.00000000
vn 0.00000000 -100.00000000 -0.00000000
vn -50.00000000 -0.00000000 86.60254000
vn 0.00000000 -100.00000000 -0.00000000
vn -76.60444400 -0.00000000 64.27876100
vn -93.96926200 -0.00000000 34.20201400
vn 0.00000000 -100.00000000 -0.00000000
vn -100.00000000 -0.00000000 -0.00000000
vn 0.00000000 -100.00000000 -0.00000000
vn 0.00000000 -100.00000000 -0.00000000
vn -93.96926200 -0.00000000 -34.20201400
vn 0.00000000 -100.00000000 -0.00000000
vn -76.60444400 -0.00000000 -64.27876100
vn -50.00000000 -0.00000000 -86.60254000
vn 0.00000000 -100.00000000 -0.00000000
vn -17.36481800 -0.00000000 -98.48077500
vn 0.00000000 -100.00000000 -0.00000000
vn 0.00000000 -100.00000000 -0.00000000
vn 17.36481800 -0.00000000 -98.48077500
vn 0.00000000 -100.00000000 -0.00000000
vn 50.00000000 0.00000000 -86.60254000
vn 0.00000000 -100.00000000 -0.00000000
vn 76.60444400 0.00000000 -64.27876100
vn 0.00000000 -100.00000000 -0.00000000
vn 93.96926200 0.00000000 -34.20201400
vn 100.00000000 0.00000000 -0.00000000
vn 100.00000000 0.00000000 -0.00000000
vn 100.00000000 0.00000000 -0.00000000
vn 100.00000000 0.00000000 -0.00000000
vn 100.00000000 0.00000000 -0.00000000
vn 100.00000000 0.00000000 -0.00000000
vn 93.96926200 0.00000000 -34.20201400
vn 93.96926200 0.00000000 -34.20201400
vn 93.96926200 0.00000000 -34.20201400
vn 76.60444400 0.00000000 -64.27876100
vn 76.60444400 0.00000000 -64.27876100
vn 76.60444400 0.00000000 -64.27876100
vn 50.00000000 0.00000000 -86.60254000
vn 50.00000000 0.00000000 -86.60254000
vn 50.00000000 0.00000000 -86.60254000
vn 17.36481800 -0.00000000 -98.48077500
vn 17.36481800 -0.00000000 -98.48077500
vn 17.36481800 -0.00000000 -98.48077500
vn -17.36481800 -0.00000000 -98.48077500
vn -17.36481800 -0.00000000 -98.48077500
vn -17.36481800 -0.00000000 -98.48077500
vn -50.00000000 -0.00000000 -86.60254000
vn -50.00000000 -0.00000000 -86.60254000
vn -50.00000000 -0.00000000 -86.60254000
vn -76.60444400 -0.00000000 -64.27876100
vn -76.60444400 -0.00000000 -64.27876100
vn -76.60444400 -0.00000000 -64.27876100
vn -93.96926200 -0.00000000 -34.20201400
vn -93.96926200 -0.00000000 -34.20201400
vn -93.96926200 -0.00000000 -34.20201400
vn -100.00000000 -0.00000000 0.00000000
vn -100.00000000 -0.00000000 0.00000000
vn -100.00000000 -0.00000000 0.00000000
vn -93.96926200 -0.00000000 34.20201400
vn -93.96926200 -0.00000000 34.20201400
vn -93.96926200 -0.00000000 34.20201400
vn -76.60444400 -0.00000000 64.27876100
vn -76.60444400 -0.00000000 64.27876100
vn -76.60444400 -0.00000000 64.27876100
vn -50.00000000 -0.00000000 86.60254000
vn -50.00000000 -0.00000000 86.60254000
vn -50.00000000 -0.00000000 86.60254000
vn -17.36481800 0.00000000 98.48077500
vn -17.36481800 0.00000000 98.48077500
vn -17.36481800 0.00000000 98.48077500
vn 17.36481800 0.00000000 98.48077500
vn 17.36481800 0.00000000 98.48077500
vn 17.36481800 0.00000000 98.48077500
vn 50.00000000 0.00000000 86.60254000
vn 50.00000000 0.00000000 86.60254000
vn 50.00000000 0.00000000 86.60254000
vn 76.60444400 0.00000000 64.27876100
vn 76.60444400 0.00000000 64.27876100
vn 76.60444400 0.00000000 64.27876100
vn 93.96926200 0.00000000 34.20201400
vn 93.96926200 0.00000000 34.20201400
vn 93.96926200 0.00000000 34.20201400
vn 0.00000000 -100.00000000 -0.00000000
vn 0.00000000 -100.00000000 -0.00000000
vn 100.00000000 0.00000000 -0.00000000
vn 0.00000000 -96.59258300 -25.88190500
vn 100.00000000 0.00000000 -0.00000000
vn 0.00000000 -86.60254000 -50.00000000
vn 100.00000000 0.00000000 -0.00000000
vn 0.00000000 -70.71067800 -70.71067800
vn 100.00000000 0.00000000 -0.00000000
vn -0.00000000 -50.00000000 -86.60254000
vn 100.00000000 0.00000000 -0.00000000
vn -0.00000000 -25.88190500 -96.59258300
vn 100.00000000 0.00000000 -0.00000000
vn -0.00000000 0.00000000 -100.00000000
vn 100.00000000 0.00000000 -0.00000000
vn 100.00000000 0.00000000 -0.00000000
vn -0.00000000 25.88190500 -96.59258300
vn 100.00000000 0.00000000 -0.00000000
vn -0.00000000 50.00000000 -86.60254000
vn 100.00000000 0.00000000 -0.00000000
vn -0.00000000 70.71067800 -70.71067800
vn 100.00000000 0.00000000 -0.00000000
vn -0.00000000 86.60254000 -50.00000000
vn -0.00000000 96.59258300 -25.88190500
vn 100.00000000 0.00000000 -0.00000000
vn 100.00000000 0.00000000 -0.00000000
vn -0.00000000 100.00000000 0.00000000
vn 100.00000000 0.00000000 -0.00000000
vn -0.00000000 96.59258300 25.88190500
vn 100.00000000 0.00000000 -0.00000000
vn -0.00000000 86.60254000 50.00000000
vn -0.00000000 70.71067800 70.71067800
vn 100.00000000 0.00000000 -0.00000000
vn 0.00000000 50.00000000 86.60254000
vn 100.00000000 0.00000000 -0.00000000
vn 100.00000000 0.00000000 -0.00000000
vn 0.00000000 25.88190500 96.59258300
vn 100.00000000 0.00000000 -0.00000000
vn 0.00000000 0.00000000 100.00000000
vn 100.00000000 0.00000000 -0.00000000
vn 0.00000000 -25.88190500 96.59258300
vn 0.00000000 -50.00000000 86.60254000
vn 100.00000000 0.00000000 -0.00000000
vn 100.00000000 0.00000000 -0.00000000
vn 0.00000000 -70.71067800 70.71067800
vn 0.00000000 -86.60254000 50.00000000
vn 100.00000000 0.00000000 -0.00000000
vn 100.00000000 0.00000000 -0.00000000
vn 0.00000000 -96.59258300 25.88190500
vn 0.00000000 -100.00000000 -0.00000000
vn -100.00000000 -0.00000000 0.00000000
vn 0.00000000 -100.00000000 -0.00000000
vn -100.00000000 -0.00000000 0.00000000
vn 0.00000000 -96.59258300 25.88190500
vn 0.00000000 -86.60254000 50.00000000
vn -100.00000000 -0.00000000 0.00000000
vn 0.00000000 -70.71067800 70.71067800
vn -100.00000000 -0.00000000 0.00000000
vn 0.00000000 -50.00000000 86.60254000
vn -100.00000000 -0.00000000 0.00000000
vn 0.00000000 -25.88190500 96.59258300
vn -100.00000000 -0.00000000 0.00000000
vn -100.00000000 -0.00000000 0.00000000
vn 0.00000000 0.00000000 100.00000000
vn 0.00000000 25.88190500 96.59258300
vn -100.00000000 -0.00000000 0.00000000
vn -100.00000000 -0.00000000 0.00000000
vn 0.00000000 50.00000000 86.60254000
vn -0.00000000 70.71067800 70.71067800
vn -100.00000000 -0.00000000 0.00000000
vn -100.00000000 -0.00000000 0.00000000
vn -0.00000000 86.60254000 50.00000000
vn -0.00000000 96.59258300 25.88190500
vn -100.00000000 -0.00000000 0.00000000
vn -100.00000000 -0.00000000 0.00000000
vn -0.00000000 100.00000000 0.00000000
vn -100.00000000 -0.00000000 0.00000000
vn -0.00000000 96.59258300 -25.88190500
vn -100.00000000 -0.00000000 0.00000000
vn -0.00000000 86.60254000 -50.00000000
vn -0.00000000 70.71067800 -70.71067800
vn -100.00000000 -0.00000000 0.00000000
vn -100.00000000 -0.00000000 0.00000000
vn -0.00000000 50.00000000 -86.60254000
vn -100.00000000 -0.00000000 0.00000000
vn -0.00000000 25.88190500 -96.59258300
vn -100.00000000 -0.00000000 0.00000000
vn -0.00000000 0.00000000 -100.00000000
vn -100.00000000 -0.00000000 0.00000000
vn -0.00000000 -25.88190500 -96.59258300
vn -100.00000000 -0.00000000 0.00000000
vn -0.00000000 -50.00000000 -86.60254000
vn -100.00000000 -0.00000000 0.00000000
vn 0.00000000 -70.71067800 -70.71067800
vn -100.00000000 -0.00000000 0.00000000
vn 0.00000000 -86.60254000 -50.00000000
vn -100.00000000 -0.00000000 0.00000000
vn 0.00000000 -96.59258300 -25.88190500
vn -0.00000000 100.00000000 -0.00000000
vn -100.00000000 0.00000000 0.00000000
vn 0.00000000 0.00000000 100.00000000
vn -47.94444400 -0.00000000 -87.75722300
vn -0.00000000 100.00000000 -0.00000000
vn -100.00000000 0.00000000 0.00000000
vn -55.05984000 -0.00000000 -83.47702700
vn -0.00000000 100.00000000 -0.00000000
vn -0.00000000 100.00000000 -0.00000000
vn -61.79560400 -0.00000000 -78.62126500
vn -68.10529300 -0.00000000 -73.22341800
vn -0.00000000 100.00000000 -0.00000000
vn -73.94540400 -0.00000000 -67.32070400
vn -0.00000000 100.00000000 -0.00000000
vn -79.27567000 -0.00000000 -60.95382000
vn -0.00000000 100.00000000 -0.00000000
vn -84.05933800 -0.00000000 -54.16666700
vn -0.00000000 -0.00000000 -100.00000000
vn -0.00000000 100.00000000 -0.00000000
vn -0.00000000 -0.00000000 -100.00000000
vn -0.00000000 100.00000000 -0.00000000
vn -0.00000000 100.00000000 -0.00000000
vn -0.00000000 -0.00000000 -100.00000000
vn -0.00000000 -0.00000000 -100.00000000
vn -0.00000000 100.00000000 -0.00000000
vn -0.00000000 100.00000000 -0.00000000
vn 0.00000000 0.00000000 -100.00000000
vn -0.00000000 100.00000000 -0.00000000
vn 0.00000000 0.00000000 -100.00000000
vn -12.50746900 0.00000000 -99.21473300
vn -0.00000000 100.00000000 -0.00000000
vn -0.00000000 100.00000000 -0.00000000
vn -24.81850500 -0.00000000 -96.87126400
vn -0.00000000 100.00000000 -0.00000000
vn -36.73975700 -0.00000000 -93.00639900
vn -48.08399900 -0.00000000 -87.68083600
vn -0.00000000 100.00000000 -0.00000000
vn -58.67306500 -0.00000000 -80.97821600
vn -0.00000000 100.00000000 -0.00000000
vn -68.34065000 -0.00000000 -73.00380500
vn -0.00000000 100.00000000 -0.00000000
vn -76.93492200 -0.00000000 -63.88284400
vn -0.00000000 100.00000000 -0.00000000
vn -0.00000000 100.00000000 -0.00000000
vn -84.32090500 -0.00000000 -53.75858100
vn -0.00000000 100.00000000 -0.00000000
vn -90.38259800 -0.00000000 -42.79002100
vn -0.00000000 100.00000000 -0.00000000
vn -95.02480200 -0.00000000 -31.14942900
vn -0.00000000 100.00000000 -0.00000000
vn -98.17460900 -0.00000000 -19.01962500
vn -0.00000000 100.00000000 -0.00000000
vn -99.78255000 -0.00000000 -6.59111100
vn -99.82337100 -0.00000000 5.94091900
vn -0.00000000 100.00000000 -0.00000000
vn -0.00000000 100.00000000 -0.00000000
vn -98.29643300 -0.00000000 18.37964500
vn -95.22571500 -0.00000000 30.52971200
vn -0.00000000 100.00000000 -0.00000000
vn -90.65944400 -0.00000000 42.20029900
vn -0.00000000 100.00000000 -0.00000000
vn -84.66933500 -0.00000000 53.20811600
vn -0.00000000 100.00000000 -0.00000000
vn -77.34946600 -0.00000000 63.38028200
vn -77.34946600 -0.00000000 63.38028200
vn -0.00000000 100.00000000 -0.00000000
vn -77.34946600 -0.00000000 63.38028200
vn -0.00000000 100.00000000 -0.00000000
vn -77.34946600 -0.00000000 63.38028200
vn -68.74724000 -0.00000000 72.62105100
vn -0.00000000 100.00000000 -0.00000000
vn -0.00000000 100.00000000 -0.00000000
vn -59.04925100 0.00000000 80.70431200
vn -0.00000000 100.00000000 -0.00000000
vn -48.41007500 0.00000000 87.50122700
vn -36.99929000 0.00000000 92.90345800
vn -0.00000000 100.00000000 -0.00000000
vn -24.99877300 0.00000000 96.82490000
vn -0.00000000 100.00000000 -0.00000000
vn -12.59980100 0.00000000 99.20304900
vn -0.00000000 100.00000000 -0.00000000
vn -0.00000000 100.00000000 -0.00000000
vn 0.00000000 0.00000000 100.00000000
vn 0.00000000 0.00000000 100.00000000
vn -0.00000000 -0.00000000 -100.00000000
vn -100.00000000 0.00000000 0.00000000
vn -100.00000000 0.00000000 0.00000000
vn -0.00000000 -0.00000000 -100.00000000
vn -96.59258300 25.88190500 0.00000000
vn -86.60254000 50.00000000 0.00000000
vn -0.00000000 -0.00000000 -100.00000000
vn -70.71067800 70.71067800 0.00000000
vn -0.00000000 -0.00000000 -100.00000000
vn -50.00000000 86.60254000 -0.00000000
vn -0.00000000 -0.00000000 -100.00000000
vn -0.00000000 -0.00000000 -100.00000000
vn -25.88190500 96.59258300 -0.00000000
vn -84.05933800 -0.00000000 -54.16666700
vn -0.00000000 -0.00000000 -100.00000000
vn 0.00000000 -100.00000000 -0.00000000
vn -0.00000000 -0.00000000 -100.00000000
vn 0.00000000 -100.00000000 -0.00000000
vn 0.00000000 -100.00000000 -0.00000000
vn -25.88190500 -96.59258300 -0.00000000
vn -0.00000000 -0.00000000 -100.00000000
vn -50.00000000 -86.60254000 0.00000000
vn -0.00000000 -0.00000000 -100.00000000
vn -70.71067800 -70.71067800 0.00000000
vn -0.00000000 -0.00000000 -100.00000000
vn -0.00000000 -0.00000000 -100.00000000
vn -86.60254000 -50.00000000 0.00000000
vn -96.59258300 -25.88190500 0.00000000
vn -0.00000000 -0.00000000 -100.00000000
vn -0.00000000 -0.00000000 -100.00000000
vn -100.00000000 -0.00000000 0.00000000
vn -100.00000000 -0.00000000 0.00000000
vn -100.00000000 0.00000000 0.00000000
vn 0.00000000 0.00000000 100.00000000
vn 0.00000000 -100.00000000 -0.00000000
vn 0.00000000 -100.00000000 -0.00000000
vn -100.00000000 0.00000000 0.00000000
vn -47.94444400 -0.00000000 -87.75722300
vn 0.00000000 -100.00000000 -0.00000000
vn -55.05984000 -0.00000000 -83.47702700
vn 0.00000000 -100.00000000 -0.00000000
vn -61.79560400 -0.00000000 -78.62126500
vn 0.00000000 -100.00000000 -0.00000000
vn -68.10529300 -0.00000000 -73.22341800
vn -73.94540400 -0.00000000 -67.32070400
vn 0.00000000 -100.00000000 -0.00000000
vn 0.00000000 -100.00000000 -0.00000000
vn -79.27567000 -0.00000000 -60.95382000
vn 0.00000000 0.00000000 100.00000000
vn 0.00000000 0.00000000 100.00000000
vn -0.00000000 100.00000000 0.00000000
vn -12.59980100 0.00000000 99.20304900
vn -0.00000000 100.00000000 0.00000000
vn -24.99877300 0.00000000 96.82490000
vn -0.00000000 100.00000000 0.00000000
vn -0.00000000 100.00000000 0.00000000
vn -36.99929000 0.00000000 92.90345800
vn -0.00000000 100.00000000 0.00000000
vn -48.41007500 0.00000000 87.50122700
vn -59.04925100 0.00000000 80.70431200
vn -0.00000000 100.00000000 0.00000000
vn -68.74724000 -0.00000000 72.62105100
vn -0.00000000 100.00000000 0.00000000
vn -77.34946600 -0.00000000 63.38028200
vn -77.34946600 -0.00000000 63.38028200
vn -0.00000000 100.00000000 0.00000000
vn -77.34946600 -0.00000000 63.38028200
vn -77.34946600 -0.00000000 63.38028200
vn 0.00000000 -100.00000000 -0.00000000
vn -68.74724000 -0.00000000 72.62105100
vn 0.00000000 -100.00000000 -0.00000000
vn -59.04925100 0.00000000 80.70431200
vn 0.00000000 -100.00000000 -0.00000000
vn -48.41007500 0.00000000 87.50122700
vn 0.00000000 -100.00000000 -0.00000000
vn -36.99929000 0.00000000 92.90345800
vn 0.00000000 -100.00000000 -0.00000000
vn -24.99877300 0.00000000 96.82490000
vn 0.00000000 -100.00000000 -0.00000000
vn -12.59980100 0.00000000 99.20304900
vn 0.00000000 -100.00000000 -0.00000000
vn 0.00000000 0.00000000 100.00000000
vn 0.00000000 -100.00000000 -0.00000000
vn 0.00000000 0.00000000 100.00000000
vn 0.00000000 -100.00000000 -0.00000000
vn -77.34946600 -0.00000000 63.38028200
vn -77.34946600 -0.00000000 63.38028200
vn -84.66933500 -0.00000000 53.20811600
vn 0.00000000 -100.00000000 -0.00000000
vn -90.65944400 -0.00000000 42.20029900
vn 0.00000000 -100.00000000 -0.00000000
vn 0.00000000 -100.00000000 -0.00000000
vn -95.22571500 -0.00000000 30.52971200
vn -98.29643300 -0.00000000 18.37964500
vn 0.00000000 -100.00000000 -0.00000000
vn 0.00000000 -100.00000000 -0.00000000
vn -99.82337100 -0.00000000 5.94091900
vn 0.00000000 -100.00000000 -0.00000000
vn -99.78255000 -0.00000000 -6.59111100
vn -98.17460900 -0.00000000 -19.01962500
vn 0.00000000 -100.00000000 -0.00000000
vn -95.02480200 -0.00000000 -31.14942900
vn 0.00000000 -100.00000000 -0.00000000
vn -90.38259800 -0.00000000 -42.79002100
vn 0.00000000 -100.00000000 -0.00000000
vn -84.32090500 -0.00000000 -53.75858100
vn 0.00000000 -100.00000000 -0.00000000
vn -76.93492200 -0.00000000 -63.88284400
vn 0.00000000 -100.00000000 -0.00000000
vn -68.34065000 -0.00000000 -73.00380500
vn 0.00000000 -100.00000000 -0.00000000
vn -58.67306500 -0.00000000 -80.97821600
vn 0.00000000 -100.00000000 -0.00000000
vn -48.08399900 -0.00000000 -87.68083600
vn 0.00000000 -100.00000000 -0.00000000
vn 0.00000000 -100.00000000 -0.00000000
vn -36.73975700 -0.00000000 -93.00639900
vn -24.81850500 -0.00000000 -96.87126400
vn 0.00000000 -100.00000000 -0.00000000
vn -12.50746900 0.00000000 -99.21473300
vn 0.00000000 -100.00000000 -0.00000000
vn -0.00000000 0.00000000 -100.00000000
vn 0.00000000 -100.00000000 -0.00000000
vn -0.00000000 0.00000000 -100.00000000
vn 0.00000000 -100.00000000 -0.00000000
vn 0.00000000 -100.00000000 -0.00000000
vn -0.00000000 0.00000000 -100.00000000
vn -0.00000000 0.00000000 -100.00000000
vn -77.34946600 -0.00000000 63.38028200
vn 0.00000000 -100.00000000 0.00000000
vn -77.34946600 -0.00000000 63.38028200
vn -68.74724000 -0.00000000 72.62105100
vn 0.00000000 -100.00000000 0.00000000
vn -59.04925100 0.00000000 80.70431200
vn 0.00000000 -100.00000000 0.00000000
vn -48.41007500 0.00000000 87.50122700
vn 0.00000000 -100.00000000 0.00000000
vn 0.00000000 -100.00000000 0.00000000
vn -36.99929000 0.00000000 92.90345800
vn -24.99877300 0.00000000 96.82490000
vn 0.00000000 -100.00000000 0.00000000
vn 0.00000000 -100.00000000 0.00000000
vn -12.59980100 0.00000000 99.20304900
vn 0.00000000 0.00000000 100.00000000
vn 0.00000000 0.00000000 100.00000000
vn 0.00000000 -100.00000000 0.00000000
vn 0.00000000 -100.00000000 0.00000000
vn -77.34946600 -0.00000000 63.38028200
vn -77.34946600 -0.00000000 63.38028200
vn 0.00000000 -100.00000000 0.00000000
vn -84.66933500 -0.00000000 53.20811600
vn 0.00000000 -100.00000000 0.00000000
vn -90.65944400 -0.00000000 42.20029900
vn 0.00000000 -100.00000000 0.00000000
vn -95.22571500 -0.00000000 30.52971200
vn -98.29643300 -0.00000000 18.37964500
vn 0.00000000 -100.00000000 0.00000000
vn 0.00000000 -100.00000000 0.00000000
vn -99.82337100 -0.00000000 5.94091900
vn 0.00000000 -100.00000000 0.00000000
vn -99.78255000 -0.00000000 -6.59111100
vn 0.00000000 -100.00000000 0.00000000
vn -98.17460900 -0.00000000 -19.01962500
vn 0.00000000 -100.00000000 0.00000000
vn -95.02480200 -0.00000000 -31.14942900
vn 0.00000000 -100.00000000 0.00000000
vn -90.38259800 -0.00000000 -42.79002100
vn -84.32090500 -0.00000000 -53.75858100
vn 0.00000000 -100.00000000 0.00000000
vn -76.93492200 -0.00000000 -63.88284400
vn 0.00000000 -100.00000000 0.00000000
vn -68.34065000 -0.00000000 -73.00380500
vn 0.00000000 -100.00000000 0.00000000
vn -58.67306500 -0.00000000 -80.97821600
vn 0.00000000 -100.00000000 0.00000000
vn 0.00000000 -100.00000000 0.00000000
vn -48.08399900 -0.00000000 -87.68083600
vn -36.73975700 -0.00000000 -93.00639900
vn 0.00000000 -100.00000000 0.00000000
vn -24.81850500 -0.00000000 -96.87126400
vn 0.00000000 -100.00000000 0.00000000
vn -12.50746900 0.00000000 -99.21473300
vn 0.00000000 -100.00000000 0.00000000
vn 0.00000000 0.00000000 -100.00000000
vn 0.00000000 0.00000000 -100.00000000
vn 0.00000000 -100.00000000 0.00000000
vn -0.00000000 -0.00000000 -100.00000000
vn 0.00000000 -100.00000000 0.00000000
vn -0.00000000 -0.00000000 -100.00000000
vn 0.00000000 -100.00000000 0.00000000
vn 0.00000000 -100.00000000 0.00000000
vn 0.00000000 -100.00000000 0.00000000
vn 0.00000000 0.00000000 100.00000000
vn 0.00000000 0.00000000 100.00000000
vn 19.50903200 -98.07852800 0.00000000
vn 0.00000000 0.00000000 100.00000000
vn 38.26834300 -92.38795300 0.00000000
vn 0.00000000 0.00000000 100.00000000
vn 55.55702300 -83.14696100 0.00000000
vn 0.00000000 0.00000000 100.00000000
vn 70.71067800 -70.71067800 -0.00000000
vn 0.00000000 0.00000000 100.00000000
vn 0.00000000 0.00000000 100.00000000
vn 83.14696100 -55.55702300 -0.00000000
vn 92.38795300 -38.26834300 -0.00000000
vn 0.00000000 0.00000000 100.00000000
vn 0.00000000 0.00000000 100.00000000
vn 98.07852800 -19.50903200 -0.00000000
vn 100.00000000 -0.00000000 -0.00000000
vn 0.00000000 0.00000000 100.00000000
vn 100.00000000 -0.00000000 -0.00000000
vn 0.00000000 0.00000000 100.00000000
vn 0.00000000 0.00000000 100.00000000
vn 100.00000000 0.00000000 -0.00000000
vn 100.00000000 0.00000000 -0.00000000
vn 0.00000000 0.00000000 100.00000000
vn 98.07852800 19.50903200 -0.00000000
vn 0.00000000 0.00000000 100.00000000
vn 0.00000000 0.00000000 100.00000000
vn 92.38795300 38.26834300 -0.00000000
vn 0.00000000 0.00000000 100.00000000
vn 83.14696100 55.55702300 -0.00000000
vn 0.00000000 0.00000000 100.00000000
vn 70.71067800 70.71067800 -0.00000000
vn 0.00000000 0.00000000 100.00000000
vn 55.55702300 83.14696100 -0.00000000
vn 38.26834300 92.38795300 -0.00000000
vn 0.00000000 0.00000000 100.00000000
vn 19.50903200 98.07852800 0.00000000
vn 0.00000000 0.00000000 100.00000000
vn 0.00000000 0.00000000 100.00000000
vn -0.00000000 100.00000000 0.00000000
vn -0.00000000 100.00000000 0.00000000
vn 0.00000000 0.00000000 100.00000000
vn -0.00000000 100.00000000 0.00000000
vn -77.34946600 -0.00000000 63.38028200
vn -77.34946600 -0.00000000 63.38028200
vn -84.66933500 -0.00000000 53.20811600
vn -0.00000000 100.00000000 0.00000000
vn -90.65944400 -0.00000000 42.20029900
vn -0.00000000 100.00000000 0.00000000
vn -0.00000000 100.00000000 0.00000000
vn -95.22571500 -0.00000000 30.52971200
vn -0.00000000 100.00000000 0.00000000
vn -98.29643300 -0.00000000 18.37964500
vn -0.00000000 100.00000000 0.00000000
vn -99.82337100 -0.00000000 5.94091900
vn -0.00000000 100.00000000 0.00000000
vn -99.78255000 -0.00000000 -6.59111100
vn -0.00000000 100.00000000 0.00000000
vn -98.17460900 -0.00000000 -19.01962500
vn -0.00000000 100.00000000 0.00000000
vn -95.02480200 -0.00000000 -31.14942900
vn -90.38259800 -0.00000000 -42.79002100
vn -0.00000000 100.00000000 0.00000000
vn -0.00000000 100.00000000 0.00000000
vn -84.32090500 -0.00000000 -53.75858100
vn -0.00000000 100.00000000 0.00000000
vn -76.93492200 -0.00000000 -63.88284400
vn -0.00000000 100.00000000 0.00000000
vn -68.34065000 -0.00000000 -73.00380500
vn -58.67306500 -0.00000000 -80.97821600
vn -0.00000000 100.00000000 0.00000000
vn -48.08399900 -0.00000000 -87.68083600
vn -0.00000000 100.00000000 0.00000000
vn -0.00000000 100.00000000 0.00000000
vn -36.73975700 -0.00000000 -93.00639900
vn -24.81850500 -0.00000000 -96.87126400
vn -0.00000000 100.00000000 0.00000000
vn -0.00000000 100.00000000 0.00000000
vn -12.50746900 0.00000000 -99.21473300
vn -0.00000000 100.00000000 0.00000000
vn -0.00000000 0.00000000 -100.00000000
vn -0.00000000 0.00000000 -100.00000000
vn -0.00000000 0.00000000 -100.00000000
vn -0.00000000 100.00000000 0.00000000
vn -0.00000000 100.00000000 0.00000000
vn -0.00000000 0.00000000 -100.00000000
vn -0.00000000 -0.00000000 -100.00000000
vn 19.50903200 -98.07852800 0.00000000
vn 38.26834300 -92.38795300 0.00000000
vn -0.00000000 -0.00000000 -100.00000000
vn -0.00000000 -0.00000000 -100.00000000
vn 55.55702300 -83.14696100 0.00000000
vn 70.71067800 -70.71067800 -0.00000000
vn -0.00000000 -0.00000000 -100.00000000
vn 83.14696100 -55.55702300 -0.00000000
vn -0.00000000 -0.00000000 -100.00000000
vn -0.00000000 -0.00000000 -100.00000000
vn 92.38795300 -38.26834300 -0.00000000
vn -0.00000000 -0.00000000 -100.00000000
vn 98.07852800 -19.50903200 -0.00000000
vn -0.00000000 -0.00000000 -100.00000000
vn 100.00000000 0.00000000 -0.00000000
vn 100.00000000 0.00000000 -0.00000000
vn -0.00000000 -0.00000000 -100.00000000
vn 19.50903200 -98.07852800 0.00000000
vn 38.26834300 -92.38795300 0.00000000
vn 55.55702300 -83.14696100 0.00000000
vn 70.71067800 -70.71067800 -0.00000000
vn 83.14696100 -55.55702300 -0.00000000
vn 92.38795300 -38.26834300 -0.00000000
vn 98.07852800 -19.50903200 -0.00000000
vn -0.00000000 -0.00000000 -100.00000000
vn -25.88190500 96.59258300 -0.00000000
vn -50.00000000 86.60254000 -0.00000000
vn -0.00000000 -0.00000000 -100.00000000
vn -0.00000000 -0.00000000 -100.00000000
vn -70.71067800 70.71067800 0.00000000
vn -0.00000000 -0.00000000 -100.00000000
vn -86.60254000 50.00000000 0.00000000
vn -96.59258300 25.88190500 0.00000000
vn -0.00000000 -0.00000000 -100.00000000
vn -100.00000000 -0.00000000 0.00000000
vn -0.00000000 -0.00000000 -100.00000000
vn -100.00000000 -0.00000000 0.00000000
vn -0.00000000 -0.00000000 -100.00000000
vn -25.88190500 96.59258300 -0.00000000
vn -50.00000000 86.60254000 -0.00000000
vn -70.71067800 70.71067800 0.00000000
vn -86.60254000 50.00000000 0.00000000
vn -96.59258300 25.88190500 0.00000000
vn 100.00000000 -0.00000000 -0.00000000
vn 100.00000000 -0.00000000 -0.00000000
vn -0.00000000 0.00000000 -100.00000000
vn -0.00000000 0.00000000 -100.00000000
vn -0.00000000 0.00000000 -100.00000000
vn 98.07852800 19.50903200 -0.00000000
vn 92.38795300 38.26834300 -0.00000000
vn -0.00000000 0.00000000 -100.00000000
vn 83.14696100 55.55702300 -0.00000000
vn -0.00000000 0.00000000 -100.00000000
vn 70.71067800 70.71067800 -0.00000000
vn -0.00000000 0.00000000 -100.00000000
vn 55.55702300 83.14696100 -0.00000000
vn -0.00000000 0.00000000 -100.00000000
vn 38.26834300 92.38795300 -0.00000000
vn -0.00000000 0.00000000 -100.00000000
vn -0.00000000 0.00000000 -100.00000000
vn 19.50903200 98.07852800 0.00000000
vn 19.50903200 98.07852800 0.00000000
vn 38.26834300 92.38795300 -0.00000000
vn 55.55702300 83.14696100 -0.00000000
vn 70.71067800 70.71067800 -0.00000000
vn 83.14696100 55.55702300 -0.00000000
vn 92.38795300 38.26834300 -0.00000000
vn 98.07852800 19.50903200 -0.00000000
vn -100.00000000 0.00000000 0.00000000
vn -100.00000000 0.00000000 0.00000000
vn -0.00000000 0.00000000 -100.00000000
vn -0.00000000 0.00000000 -100.00000000
vn -96.59258300 -25.88190500 0.00000000
vn -0.00000000 0.00000000 -100.00000000
vn -0.00000000 0.00000000 -100.00000000
vn -86.60254000 -50.00000000 0.00000000
vn -70.71067800 -70.71067800 0.00000000
vn -0.00000000 0.00000000 -100.00000000
vn -0.00000000 0.00000000 -100.00000000
vn -50.00000000 -86.60254000 0.00000000
vn -0.00000000 0.00000000 -100.00000000
vn -25.88190500 -96.59258300 -0.00000000
vn -96.59258300 -25.88190500 0.00000000
vn -86.60254000 -50.00000000 0.00000000
vn -70.71067800 -70.71067800 0.00000000
vn -50.00000000 -86.60254000 0.00000000
vn -25.88190500 -96.59258300 -0.00000000
vt -6.70000000 0.84823000
vt -6.70000000 -0.84823000
vt -1.97562500 2.85000000
vt -6.70000000 -0.75398200
vt -1.99190800 2.94234500
vt -2.03879300 3.02355300
vt -6.70000000 -0.65973400
vt -6.70000000 -0.56548700
vt -2.11062500 3.08382700
vt -6.70000000 -0.47123900
vt -2.19874000 3.11589800
vt -6.70000000 -0.37699100
vt -2.29251000 3.11589800
vt -6.70000000 -0.28274300
vt -2.38062500 3.08382700
vt -2.45245700 3.02355300
vt -6.70000000 -0.18849600
vt -6.70000000 -0.09424800
vt -2.49934200 2.94234500
vt -6.70000000 0.00000000
vt -2.51562500 2.85000000
vt -2.49934200 2.75765500
vt -6.70000000 0.09424800
vt -6.70000000 0.18849600
vt -2.45245700 2.67644700
vt -6.70000000 0.28274300
vt -2.38062500 2.61617300
vt -2.29251000 2.58410200
vt -6.70000000 0.37699100
vt -2.19874000 2.58410200
vt -6.70000000 0.47123900
vt -6.70000000 0.56548700
vt -2.11062500 2.61617300
vt -2.03879300 2.67644700
vt -6.70000000 0.65973400
vt -1.99190800 2.75765500
vt -6.70000000 0.75398200
vt 0.02000000 0.84823000
vt 1.97562500 2.85000000
vt 0.02000000 -0.84823000
vt 1.99190800 2.75765500
vt 0.02000000 0.75398200
vt 0.02000000 0.65973400
vt 2.03879300 2.67644700
vt 2.11062500 2.61617300
vt 0.02000000 0.56548700
vt 0.02000000 0.47123900
vt 2.19874000 2.58410200
vt 0.02000000 0.37699100
vt 2.29251000 2.58410200
vt 2.38062500 2.61617300
vt 0.02000000 0.28274300
vt 2.45245700 2.67644700
vt 0.02000000 0.18849600
vt 0.02000000 0.09424800
vt 2.49934200 2.75765500
vt 0.02000000 -0.00000000
vt 2.51562500 2.85000000
vt 2.49934200 2.94234500
vt 0.02000000 -0.09424800
vt 2.45245700 3.02355300
vt 0.02000000 -0.18849600
vt 0.02000000 -0.28274300
vt 2.38062500 3.08382700
vt 0.02000000 -0.37699100
vt 2.29251000 3.11589800
vt 2.19874000 3.11589800
vt 0.02000000 -0.47123900
vt 2.11062500 3.08382700
vt 0.02000000 -0.56548700
vt 2.03879300 3.02355300
vt 0.02000000 -0.65973400
vt 1.99190800 2.94234500
vt 0.02000000 -0.75398200
vt -1.66000000 0.84823000
vt -1.66000000 -0.84823000
vt -3.34000000 0.84823000
vt -3.34000000 -0.84823000
vt -5.02000000 0.84823000
vt -5.02000000 -0.84823000
vt -1.66000000 -0.75398200
vt -3.34000000 -0.75398200
vt -5.02000000 -0.75398200
vt -1.66000000 -0.65973400
vt -3.34000000 -0.65973400
vt -5.02000000 -0.65973400
vt -1.66000000 -0.56548700
vt -3.34000000 -0.56548700
vt -5.02000000 -0.56548700
vt -1.66000000 -0.47123900
vt -3.34000000 -0.47123900
vt -5.02000000 -0.47123900
vt -1.66000000 -0.37699100
vt -3.34000000 -0.37699100
vt -5.02000000 -0.37699100
vt -1.66000000 -0.28274300
vt -3.34000000 -0.28274300
vt -5.02000000 -0.28274300
vt -1.66000000 -0.18849600
vt -3.34000000 -0.18849600
vt -5.02000000 -0.18849600
vt -1.66000000 -0.09424800
vt -3.34000000 -0.09424800
vt -5.02000000 -0.09424800
vt -1.66000000 0.00000000
vt -3.34000000 0.00000000
vt -5.02000000 0.00000000
vt -1.66000000 0.09424800
vt -3.34000000 0.09424800
vt -5.02000000 0.09424800
vt -1.66000000 0.18849600
vt -3.34000000 0.18849600
vt -5.02000000 0.18849600
vt -1.66000000 0.28274300
vt -3.34000000 0.28274300
vt -5.02000000 0.28274300
vt -1.66000000 0.37699100
vt -3.34000000 0.37699100
vt -5.02000000 0.37699100
vt -1.66000000 0.47123900
vt -3.34000000 0.47123900
vt -5.02000000 0.47123900
vt -1.66000000 0.56548700
vt -3.34000000 0.56548700
vt -5.02000000 0.56548700
vt -1.66000000 0.65973400
vt -3.34000000 0.65973400
vt -5.02000000 0.65973400
vt -1.66000000 0.75398200
vt -3.34000000 0.75398200
vt -5.02000000 0.75398200
vt 0.25400000 -1.57079600
vt 0.25400000 1.57079600
vt 0.46000000 0.00000000
vt 0.25400000 -1.43989700
vt 0.44296300 0.12941000
vt 0.25400000 -1.30899700
vt 0.39301300 0.25000000
vt 0.25400000 -1.17809700
vt 0.31355300 0.35355300
vt 0.25400000 -1.04719800
vt 0.21000000 0.43301300
vt 0.25400000 -0.91629800
vt 0.08941000 0.48296300
vt 0.25400000 -0.78539800
vt -0.04000000 0.50000000
vt -0.16941000 0.48296300
vt 0.25400000 -0.65449800
vt -0.29000000 0.43301300
vt 0.25400000 -0.52359900
vt -0.39355300 0.35355300
vt 0.25400000 -0.39269900
vt -0.47301300 0.25000000
vt 0.25400000 -0.26179900
vt 0.25400000 -0.13090000
vt -0.52296300 0.12941000
vt -0.54000000 -0.00000000
vt 0.25400000 0.00000000
vt -0.52296300 -0.12941000
vt 0.25400000 0.13090000
vt -0.47301300 -0.25000000
vt 0.25400000 0.26179900
vt 0.25400000 0.39269900
vt -0.39355300 -0.35355300
vt 0.25400000 0.52359900
vt -0.29000000 -0.43301300
vt -0.16941000 -0.48296300
vt 0.25400000 0.65449800
vt -0.04000000 -0.50000000
vt 0.25400000 0.78539800
vt 0.08941000 -0.48296300
vt 0.25400000 0.91629800
vt 0.25400000 1.04719800
vt 0.21000000 -0.43301300
vt 0.31355300 -0.35355300
vt 0.25400000 1.17809700
vt 0.25400000 1.30899700
vt 0.39301300 -0.25000000
vt 0.44296300 -0.12941000
vt 0.25400000 1.43989700
vt 0.00000000 1.57079600
vt -0.46000000 0.00000000
vt 0.00000000 -1.57079600
vt -0.44296300 -0.12941000
vt -0.00000000 1.43989700
vt 0.00000000 1.30899700
vt -0.39301300 -0.25000000
vt 0.00000000 1.17809700
vt -0.31355300 -0.35355300
vt 0.00000000 1.04719800
vt -0.21000000 -0.43301300
vt -0.00000000 0.91629800
vt -0.08941000 -0.48296300
vt 0.04000000 -0.50000000
vt -0.00000000 0.78539800
vt -0.00000000 0.65449800
vt 0.16941000 -0.48296300
vt 0.29000000 -0.43301300
vt -0.00000000 0.52359900
vt -0.00000000 0.39269900
vt 0.39355300 -0.35355300
vt 0.47301300 -0.25000000
vt 0.00000000 0.26179900
vt -0.00000000 0.13090000
vt 0.52296300 -0.12941000
vt 0.54000000 -0.00000000
vt -0.00000000 -0.00000000
vt 0.52296300 0.12941000
vt 0.00000000 -0.13090000
vt 0.47301300 0.25000000
vt -0.00000000 -0.26179900
vt -0.00000000 -0.39269900
vt 0.39355300 0.35355300
vt 0.29000000 0.43301300
vt -0.00000000 -0.52359900
vt 0.16941000 0.48296300
vt 0.00000000 -0.65449800
vt 0.04000000 0.50000000
vt 0.00000000 -0.78539800
vt -0.08941000 0.48296300
vt 0.00000000 -0.91629800
vt -0.21000000 0.43301300
vt 0.00000000 -1.04719800
vt -0.31355300 0.35355300
vt 0.00000000 -1.17809700
vt -0.39301300 0.25000000
vt -0.00000000 -1.30899700
vt -0.44296300 0.12941000
vt 0.00000000 -1.43989700
vt -1.14562500 3.55000000
vt -6.70000000 0.00000000
vt 4.72600000 0.00000000
vt -3.32000000 -3.85478900
vt -1.14562500 3.15926000
vt -6.70000000 0.39074000
vt -3.32000000 -3.55577500
vt -1.40177900 3.00517300
vt -1.64426700 2.83036600
vt -3.32000000 -3.25676200
vt -3.32000000 -2.95774800
vt -1.87141500 2.63604300
vt -3.32000000 -2.65873400
vt -2.08165900 2.42354500
vt -3.32000000 -2.35972100
vt -2.27354900 2.19433800
vt -3.32000000 -2.06070700
vt 3.36000000 -0.30013600
vt -2.44576100 1.95000000
vt 3.36000000 -0.54502000
vt -1.95000000 0.74609700
vt -2.69064500 1.95000000
vt -0.88973000 -0.00000000
vt -0.00000000 0.25400000
vt 2.25000000 0.74609700
vt -2.69064500 -2.25000000
vt -4.16075000 -0.00000000
vt 0.58037500 -2.25000000
vt 6.97400000 -2.53941300
vt 6.97400000 -2.25725600
vt 0.86179300 -2.23233100
vt 1.13879200 -2.17960300
vt 6.97400000 -1.97509900
vt 1.40702000 -2.09264400
vt 6.97400000 -1.69294200
vt 6.97400000 -1.41078500
vt 1.66226500 -1.97281900
vt 6.97400000 -1.12862800
vt 1.90051900 -1.82201000
vt 6.97400000 -0.84647100
vt 2.11804000 -1.64258600
vt 6.97400000 -0.56431400
vt 2.31141100 -1.43736400
vt 2.47759600 -1.20956800
vt 6.97400000 -0.28215700
vt 2.61398400 -0.96277500
vt 6.97400000 0.00000000
vt 2.71843300 -0.70086200
vt 6.97400000 0.28215700
vt 2.78930400 -0.42794200
vt 6.97400000 0.56431400
vt 2.82548300 -0.14830000
vt 6.97400000 0.84647100
vt 6.97400000 1.12862800
vt 2.82640100 0.13367100
vt 2.79204500 0.41354200
vt 6.97400000 1.41078500
vt 6.97400000 1.69294200
vt 2.72295400 0.68691900
vt 6.97400000 1.97509900
vt 2.62021300 0.94950700
vt 6.97400000 2.25725600
vt 2.48543500 1.19718300
vt -2.74590600 0.25400000
vt 6.97400000 2.53941300
vt 2.32073800 1.42605600
vt 0.12700000 0.88433700
vt 1.18050000 2.81760600
vt -0.94686400 0.25400000
vt 0.12700000 0.63166900
vt 1.00845600 3.00242100
vt 0.81449600 3.16408600
vt 0.12700000 0.37900100
vt 0.60171300 3.30002500
vt 0.12700000 0.12633400
vt 0.12700000 -0.12633400
vt 0.37349700 3.40806900
vt 0.12700000 -0.37900100
vt 0.13348700 3.48649800
vt 0.12700000 -0.63166900
vt -0.11449300 3.53406100
vt -0.36648900 3.55000000
vt 0.12700000 -0.88433700
vt 3.94686400 0.00000000
vt 2.88502000 -1.02000000
vt -1.95000000 0.00000000
vt 2.88502000 1.95000000
vt 3.00795400 -1.00381500
vt -1.95000000 0.12434900
vt -1.95000000 0.24869900
vt 3.12251000 -0.95636500
vt -1.95000000 0.37304800
vt 3.22088200 -0.88088200
vt -1.95000000 0.49739800
vt 3.29636500 -0.78251000
vt 3.34381500 -0.66795400
vt -1.95000000 0.62174700
vt 3.40000000 -2.06070700
vt -3.36000000 -0.30013600
vt 2.44576100 1.95000000
vt -3.36000000 -0.54502000
vt 1.95000000 0.74609700
vt 2.69064500 1.95000000
vt 1.95000000 0.62174700
vt -3.34381500 -0.66795400
vt 1.95000000 0.49739800
vt -3.29636500 -0.78251000
vt 1.95000000 0.37304800
vt -3.22088200 -0.88088200
vt -3.12251000 -0.95636500
vt 1.95000000 0.24869900
vt 1.95000000 0.12434900
vt -3.00795400 -1.00381500
vt -2.88502000 -1.02000000
vt -2.88502000 1.95000000
vt 1.95000000 0.00000000
vt 0.02000000 -0.00000000
vt 4.72600000 6.72000000
vt 1.14562500 3.55000000
vt 1.14562500 3.15926000
vt 0.02000000 0.39074000
vt 3.40000000 -3.85478900
vt 1.40177900 3.00517300
vt 3.40000000 -3.55577500
vt 1.64426700 2.83036600
vt 3.40000000 -3.25676200
vt 1.87141500 2.63604300
vt 3.40000000 -2.95774800
vt 3.40000000 -2.65873400
vt 2.08165900 2.42354500
vt 2.27354900 2.19433800
vt 3.40000000 -2.35972100
vt 3.94686400 6.97400000
vt 0.25400000 -0.88433700
vt -0.36648900 3.55000000
vt 0.25400000 -0.63166900
vt -0.11449300 3.53406100
vt 0.25400000 -0.37900100
vt 0.13348700 3.48649800
vt 0.37349700 3.40806900
vt 0.25400000 -0.12633400
vt 0.60171300 3.30002500
vt 0.25400000 0.12633400
vt 0.25400000 0.37900100
vt 0.81449600 3.16408600
vt 0.25400000 0.63166900
vt 1.00845600 3.00242100
vt 0.25400000 0.88433700
vt -0.94686400 0.25400000
vt 1.18050000 2.81760600
vt 0.00000000 0.88433700
vt -0.94686400 0.00000000
vt -1.18050000 2.81760600
vt -0.00000000 0.63166900
vt -1.00845600 3.00242100
vt -0.00000000 0.37900100
vt -0.81449600 3.16408600
vt -0.00000000 0.12633400
vt -0.60171300 3.30002500
vt -0.00000000 -0.12633400
vt -0.37349700 3.40806900
vt -0.00000000 -0.37900100
vt -0.13348700 3.48649800
vt -0.00000000 -0.63166900
vt 0.11449300 3.53406100
vt 3.94686400 6.72000000
vt 0.36648900 3.55000000
vt -0.00000000 -0.88433700
vt -2.32073800 1.42605600
vt 0.25400000 2.53941300
vt -2.74590600 -0.00000000
vt 0.25400000 2.25725600
vt -2.48543500 1.19718300
vt 0.25400000 1.97509900
vt -2.62021300 0.94950700
vt -2.72295400 0.68691900
vt 0.25400000 1.69294200
vt 0.25400000 1.41078500
vt -2.79204500 0.41354200
vt -2.82640100 0.13367100
vt 0.25400000 1.12862800
vt -2.82548300 -0.14830000
vt 0.25400000 0.84647100
vt 0.25400000 0.56431400
vt -2.78930400 -0.42794200
vt 0.25400000 0.28215700
vt -2.71843300 -0.70086200
vt 0.25400000 -0.00000000
vt -2.61398400 -0.96277500
vt 0.25400000 -0.28215700
vt -2.47759600 -1.20956800
vt 0.25400000 -0.56431400
vt -2.31141100 -1.43736400
vt 0.25400000 -0.84647100
vt -2.11804000 -1.64258600
vt 0.25400000 -1.12862800
vt -1.90051900 -1.82201000
vt 0.25400000 -1.41078500
vt -1.66226500 -1.97281900
vt -1.40702000 -2.09264400
vt 0.25400000 -1.69294200
vt 0.25400000 -1.97509900
vt -1.13879200 -2.17960300
vt 0.25400000 -2.25725600
vt -0.86179300 -2.23233100
vt -3.00000000 0.00000000
vt -0.58037500 -2.25000000
vt 0.25400000 -2.53941300
vt 2.69064500 -2.25000000
vt -2.25000000 0.74609700
vt -6.27102000 0.00000000
vt -0.00000000 0.00000000
vt -0.94686400 0.00000000
vt -1.18050000 2.81760600
vt -0.12700000 0.88433700
vt -0.12700000 0.63166900
vt -1.00845600 3.00242100
vt -0.12700000 0.37900100
vt -0.81449600 3.16408600
vt -0.12700000 0.12633400
vt -0.60171300 3.30002500
vt -0.37349700 3.40806900
vt -0.12700000 -0.12633400
vt -0.12700000 -0.37900100
vt -0.13348700 3.48649800
vt 0.11449300 3.53406100
vt -0.12700000 -0.63166900
vt 3.94686400 -0.25400000
vt -0.12700000 -0.88433700
vt 0.36648900 3.55000000
vt -2.32073800 1.42605600
vt 7.22800000 2.53941300
vt -2.74590600 0.00000000
vt -2.48543500 1.19718300
vt 7.22800000 2.25725600
vt -2.62021300 0.94950700
vt 7.22800000 1.97509900
vt -2.72295400 0.68691900
vt 7.22800000 1.69294200
vt 7.22800000 1.41078500
vt -2.79204500 0.41354200
vt -2.82640100 0.13367100
vt 7.22800000 1.12862800
vt -2.82548300 -0.14830000
vt 7.22800000 0.84647100
vt -2.78930400 -0.42794200
vt 7.22800000 0.56431400
vt -2.71843300 -0.70086200
vt 7.22800000 0.28215700
vt -2.61398400 -0.96277500
vt 7.22800000 -0.00000000
vt 7.22800000 -0.28215700
vt -2.47759600 -1.20956800
vt 7.22800000 -0.56431400
vt -2.31141100 -1.43736400
vt 7.22800000 -0.84647100
vt -2.11804000 -1.64258600
vt 7.22800000 -1.12862800
vt -1.90051900 -1.82201000
vt -1.66226500 -1.97281900
vt 7.22800000 -1.41078500
vt 7.22800000 -1.69294200
vt -1.40702000 -2.09264400
vt 7.22800000 -1.97509900
vt -1.13879200 -2.17960300
vt 7.22800000 -2.25725600
vt -0.86179300 -2.23233100
vt 7.22800000 -2.53941300
vt -4.16075000 0.25400000
vt -0.58037500 -2.25000000
vt -0.00000000 0.00000000
vt 2.69064500 -2.25000000
vt -0.88973000 0.25400000
vt -2.25000000 1.14507900
vt 3.55000000 1.14507900
vt 2.69064500 3.55000000
vt 6.27102000 -0.25400000
vt 6.27102000 0.00000000
vt 3.55000000 1.00194400
vt 6.41323700 -0.23999300
vt 3.55000000 0.85880900
vt 6.54998900 -0.19851000
vt 3.55000000 0.71567400
vt 6.67602000 -0.13114500
vt 3.55000000 0.57254000
vt 6.78648700 -0.04048700
vt 6.87714500 0.06998000
vt 3.55000000 0.42940500
vt 3.55000000 0.28627000
vt 6.94451000 0.19601100
vt 6.98599300 0.33276300
vt 3.55000000 0.14313500
vt 3.55000000 0.00000000
vt 7.00000000 0.47498000
vt -2.88502000 3.55000000
vt 6.74600000 0.47498000
vt 7.00000000 6.24502000
vt 2.88502000 3.55000000
vt -3.55000000 0.00000000
vt 6.74600000 6.24502000
vt -3.55000000 0.14313500
vt 6.98599300 6.38723700
vt 6.94451000 6.52398900
vt -3.55000000 0.28627000
vt 6.87714500 6.65002000
vt -3.55000000 0.42940500
vt 6.78648700 6.76048700
vt -3.55000000 0.57254000
vt 6.67602000 6.85114500
vt -3.55000000 0.71567400
vt -3.55000000 0.85880900
vt 6.54998900 6.91851000
vt -3.55000000 1.00194400
vt 6.41323700 6.95999300
vt 6.27102000 6.97400000
vt -3.55000000 1.14507900
vt -2.69064500 3.55000000
vt 6.27102000 6.72000000
vt 2.32073800 1.42605600
vt -2.74590600 0.25400000
vt 0.00000000 2.53941300
vt 0.00000000 2.25725600
vt 2.48543500 1.19718300
vt 0.00000000 1.97509900
vt 2.62021300 0.94950700
vt 2.72295400 0.68691900
vt 0.00000000 1.69294200
vt 2.79204500 0.41354200
vt 0.00000000 1.41078500
vt 2.82640100 0.13367100
vt 0.00000000 1.12862800
vt 2.82548300 -0.14830000
vt 0.00000000 0.84647100
vt 2.78930400 -0.42794200
vt 0.00000000 0.56431400
vt 2.71843300 -0.70086200
vt 0.00000000 0.28215700
vt 0.00000000 0.00000000
vt 2.61398400 -0.96277500
vt 2.47759600 -1.20956800
vt 0.00000000 -0.28215700
vt 2.31141100 -1.43736400
vt 0.00000000 -0.56431400
vt 2.11804000 -1.64258600
vt 0.00000000 -0.84647100
vt -0.00000000 -1.12862800
vt 1.90051900 -1.82201000
vt -0.00000000 -1.41078500
vt 1.66226500 -1.97281900
vt 1.40702000 -2.09264400
vt -0.00000000 -1.69294200
vt -0.00000000 -1.97509900
vt 1.13879200 -2.17960300
vt 0.86179300 -2.23233100
vt -0.00000000 -2.25725600
vt 0.58037500 -2.25000000
vt -3.00000000 0.25400000
vt 0.00000000 -2.53941300
vt -6.27102000 0.25400000
vt 2.25000000 1.14507900
vt -2.69064500 -2.25000000
vt -0.00000000 0.25400000
vt -0.14221700 0.01400700
vt -2.25000000 1.00194400
vt -2.25000000 0.85880900
vt -0.27896900 0.05549000
vt -0.40500000 0.12285500
vt -2.25000000 0.71567400
vt -2.25000000 0.57254000
vt -0.51546700 0.21351300
vt -2.25000000 0.42940500
vt -0.60612500 0.32398000
vt -0.67349000 0.45001100
vt -2.25000000 0.28627000
vt -0.71497300 0.58676300
vt -2.25000000 0.14313500
vt -0.72898000 0.72898000
vt -2.25000000 -0.00000000
vt -2.88502000 -2.25000000
vt -0.47498000 -0.00000000
vt 0.65000000 1.00194400
vt 0.65000000 0.85880900
vt 0.65000000 0.71567400
vt 0.65000000 0.57254000
vt 0.65000000 0.42940500
vt 0.65000000 0.28627000
vt 0.65000000 0.14313500
vt -0.12293400 0.27018500
vt 2.25000000 0.62174700
vt 2.25000000 0.49739800
vt -0.23749000 0.31763500
vt -0.33586200 0.39311800
vt 2.25000000 0.37304800
vt -0.41134500 0.49149000
vt 2.25000000 0.24869900
vt 2.25000000 0.12434900
vt -0.45879500 0.60604600
vt 2.25000000 -0.00000000
vt -0.47498000 0.25400000
vt 2.88502000 -2.25000000
vt -0.47498000 0.72898000
vt 0.15000000 0.62174700
vt 0.15000000 0.49739800
vt 0.15000000 0.37304800
vt 0.15000000 0.24869900
vt 0.15000000 0.12434900
vt 2.25000000 -0.00000000
vt 2.88502000 -2.25000000
vt -0.72898000 -0.47498000
vt -6.24502000 -0.00000000
vt -0.71497300 -0.33276300
vt 2.25000000 0.14313500
vt 2.25000000 0.28627000
vt -0.67349000 -0.19601100
vt 2.25000000 0.42940500
vt -0.60612500 -0.06998000
vt 2.25000000 0.57254000
vt -0.51546700 0.04048700
vt 2.25000000 0.71567400
vt -0.40500000 0.13114500
vt 2.25000000 0.85880900
vt -0.27896900 0.19851000
vt -0.14221700 0.23999300
vt 2.25000000 1.00194400
vt -0.65000000 1.00194400
vt -0.65000000 0.85880900
vt -0.65000000 0.71567400
vt -0.65000000 0.57254000
vt -0.65000000 0.42940500
vt -0.65000000 0.28627000
vt -0.65000000 0.14313500
vt -2.25000000 -0.00000000
vt -2.88502000 -2.25000000
vt -6.24502000 0.25400000
vt -0.47498000 -0.47498000
vt -2.25000000 0.12434900
vt -0.45879500 -0.35204600
vt -0.41134500 -0.23749000
vt -2.25000000 0.24869900
vt -2.25000000 0.37304800
vt -0.33586200 -0.13911800
vt -0.23749000 -0.06363500
vt -2.25000000 0.49739800
vt -0.12293400 -0.01618500
vt -2.25000000 0.62174700
vt -0.15000000 0.12434900
vt -0.15000000 0.24869900
vt -0.15000000 0.37304800
vt -0.15000000 0.49739800
vt -0.15000000 0.62174700
f 5/5/5 19/19/19 3/3/3
f 3/3/3 19/19/19 21/21/21
f 3/3/3 21/21/21 36/36/36
f 36/36/36 21/21/21 22/22/22
f 36/36/36 22/22/22 34/34/34
f 34/34/34 22/22/22 25/25/25
f 34/34/34 25/25/25 33/33/33
f 33/33/33 25/25/25 27/27/27
f 33/33/33 27/27/27 30/30/30
f 30/30/30 27/27/27 28/28/28
f 19/19/19 5/5/5 16/16/16
f 16/16/16 5/5/5 6/6/6
f 16/16/16 6/6/6 15/15/15
f 15/15/15 6/6/6 9/9/9
f 15/15/15 9/9/9 13/13/13
f 13/13/13 9/9/9 11/11/11
f 41/41/41 56/56/56 39/39/39
f 39/39/39 56/56/56 58/58/58
f 39/39/39 58/58/58 73/73/73
f 73/73/73 58/58/58 59/59/59
f 73/73/73 59/59/59 71/71/71
f 71/71/71 59/59/59 61/61/61
f 71/71/71 61/61/61 69/69/69
f 69/69/69 61/61/61 64/64/64
f 69/69/69 64/64/64 67/67/67
f 67/67/67 64/64/64 66/66/66
f 56/56/56 41/41/41 53/53/53
f 53/53/53 41/41/41 44/44/44
f 53/53/53 44/44/44 51/51/51
f 51/51/51 44/44/44 45/45/45
f 51/51/51 45/45/45 50/50/50
f 50/50/50 45/45/45 48/48/48
f 74/74/74 81/81/81 40/40/40
f 40/40/40 81/81/81 76/76/76
f 38/38/38 75/75/75 42/42/42
f 42/42/42 75/75/75 129/129/129
f 42/42/42 129/129/129 43/43/43
f 43/43/43 129/129/129 126/126/126
f 43/43/43 126/126/126 46/46/46
f 46/46/46 126/126/126 123/123/123
f 46/46/46 123/123/123 47/47/47
f 47/47/47 123/123/123 120/120/120
f 47/47/47 120/120/120 49/49/49
f 49/49/49 120/120/120 117/117/117
f 49/49/49 117/117/117 52/52/52
f 52/52/52 117/117/117 114/114/114
f 52/52/52 114/114/114 54/54/54
f 54/54/54 114/114/114 111/111/111
f 54/54/54 111/111/111 55/55/55
f 55/55/55 111/111/111 108/108/108
f 55/55/55 108/108/108 57/57/57
f 57/57/57 108/108/108 105/105/105
f 57/57/57 105/105/105 60/60/60
f 60/60/60 105/105/105 102/102/102
f 60/60/60 102/102/102 62/62/62
f 62/62/62 102/102/102 99/99/99
f 62/62/62 99/99/99 63/63/63
f 63/63/63 99/99/99 96/96/96
f 63/63/63 96/96/96 65/65/65
f 65/65/65 96/96/96 93/93/93
f 65/65/65 93/93/93 68/68/68
f 68/68/68 93/93/93 90/90/90
f 68/68/68 90/90/90 70/70/70
f 70/70/70 90/90/90 87/87/87
f 70/70/70 87/87/87 72/72/72
f 72/72/72 87/87/87 84/84/84
f 72/72/72 84/84/84 74/74/74
f 74/74/74 84/84/84 81/81/81
f 37/37/37 131/131/131 1/1/1
f 1/1/1 131/131/131 79/79/79
f 2/2/2 80/80/80 4/4/4
f 4/4/4 80/80/80 83/83/83
f 4/4/4 83/83/83 7/7/7
f 7/7/7 83/83/83 86/86/86
f 7/7/7 86/86/86 8/8/8
f 8/8/8 86/86/86 89/89/89
f 8/8/8 89/89/89 10/10/10
f 10/10/10 89/89/89 92/92/92
f 10/10/10 92/92/92 12/12/12
f 12/12/12 92/92/92 95/95/95
f 12/12/12 95/95/95 14/14/14
f 14/14/14 95/95/95 98/98/98
f 14/14/14 98/98/98 17/17/17
f 17/17/17 98/98/98 101/101/101
f 17/17/17 101/101/101 18/18/18
f 18/18/18 101/101/101 104/104/104
f 18/18/18 104/104/104 20/20/20
f 20/20/20 104/104/104 107/107/107
f 20/20/20 107/107/107 23/23/23
f 23/23/23 107/107/107 110/110/110
f 23/23/23 110/110/110 24/24/24
f 24/24/24 110/110/110 113/113/113
f 24/24/24 113/113/113 26/26/26
f 26/26/26 113/113/113 116/116/116
f 26/26/26 116/116/116 29/29/29
f 29/29/29 116/116/116 119/119/119
f 29/29/29 119/119/119 31/31/31
f 31/31/31 119/119/119 122/122/122
f 31/31/31 122/122/122 32/32/32
f 32/32/32 122/122/122 125/125/125
f 32/32/32 125/125/125 35/35/35
f 35/35/35 125/125/125 128/128/128
f 35/35/35 128/128/128 37/37/37
f 37/37/37 128/128/128 131/131/131
f 75/75/75 77/77/77 129/129/129
f 129/129/129 77/77/77 130/130/130
f 129/129/129 130/130/130 126/126/126
f 126/126/126 130/130/130 127/127/127
f 126/126/126 127/127/127 123/123/123
f 123/123/123 127/127/127 124/124/124
f 123/123/123 124/124/124 120/120/120
f 120/120/120 124/124/124 121/121/121
f 120/120/120 121/121/121 117/117/117
f 117/117/117 121/121/121 118/118/118
f 117/117/117 118/118/118 114/114/114
f 114/114/114 118/118/118 115/115/115
f 114/114/114 115/115/115 111/111/111
f 111/111/111 115/115/115 112/112/112
f 111/111/111 112/112/112 108/108/108
f 108/108/108 112/112/112 109/109/109
f 108/108/108 109/109/109 105/105/105
f 105/105/105 109/109/109 106/106/106
f 105/105/105 106/106/106 102/102/102
f 102/102/102 106/106/106 103/103/103
f 102/102/102 103/103/103 99/99/99
f 99/99/99 103/103/103 100/100/100
f 99/99/99 100/100/100 96/96/96
f 96/96/96 100/100/100 97/97/97
f 96/96/96 97/97/97 93/93/93
f 93/93/93 97/97/97 94/94/94
f 93/93/93 94/94/94 90/90/90
f 90/90/90 94/94/94 91/91/91
f 90/90/90 91/91/91 87/87/87
f 87/87/87 91/91/91 88/88/88
f 87/87/87 88/88/88 84/84/84
f 84/84/84 88/88/88 85/85/85
f 84/84/84 85/85/85 81/81/81
f 81/81/81 85/85/85 82/82/82
f 81/81/81 82/82/82 76/76/76
f 76/76/76 82/82/82 78/78/78
f 77/77/77 79/79/79 130/130/130
f 130/130/130 79/79/79 131/131/131
f 130/130/130 131/131/131 127/127/127
f 127/127/127 131/131/131 128/128/128
f 127/127/127 128/128/128 124/124/124
f 124/124/124 128/128/128 125/125/125
f 124/124/124 125/125/125 121/121/121
f 121/121/121 125/125/125 122/122/122
f 121/121/121 122/122/122 118/118/118
f 118/118/118 122/122/122 119/119/119
f 118/118/118 119/119/119 115/115/115
f 115/115/115 119/119/119 116/116/116
f 115/115/115 116/116/116 112/112/112
f 112/112/112 116/116/116 113/113/113
f 112/112/112 113/113/113 109/109/109
f 109/109/109 113/113/113 110/110/110
f 109/109/109 110/110/110 106/106/106
f 106/106/106 110/110/110 107/107/107
f 106/106/106 107/107/107 103/103/103
f 103/103/103 107/107/107 104/104/104
f 103/103/103 104/104/104 100/100/100
f 100/100/100 104/104/104 101/101/101
f 100/100/100 101/101/101 97/97/97
f 97/97/97 101/101/101 98/98/98
f 97/97/97 98/98/98 94/94/94
f 94/94/94 98/98/98 95/95/95
f 94/94/94 95/95/95 91/91/91
f 91/91/91 95/95/95 92/92/92
f 91/91/91 92/92/92 88/88/88
f 88/88/88 92/92/92 89/89/89
f 88/88/88 89/89/89 85/85/85
f 85/85/85 89/89/89 86/86/86
f 85/85/85 86/86/86 82/82/82
f 82/82/82 86/86/86 83/83/83
f 82/82/82 83/83/83 78/78/78
f 78/78/78 83/83/83 80/80/80
f 135/135/135 229/229/229 132/132/132
f 132/132/132 229/229/229 183/183/183
f 133/133/133 181/181/181 180/180/180
f 180/180/180 181/181/181 185/185/185
f 180/180/180 185/185/185 177/177/177
f 177/177/177 185/185/185 186/186/186
f 177/177/177 186/186/186 176/176/176
f 176/176/176 186/186/186 188/188/188
f 176/176/176 188/188/188 173/173/173
f 173/173/173 188/188/188 190/190/190
f 173/173/173 190/190/190 172/172/172
f 172/172/172 190/190/190 192/192/192
f 172/172/172 192/192/192 170/170/170
f 170/170/170 192/192/192 195/195/195
f 170/170/170 195/195/195 168/168/168
f 168/168/168 195/195/195 196/196/196
f 168/168/168 196/196/196 165/165/165
f 165/165/165 196/196/196 199/199/199
f 165/165/165 199/199/199 163/163/163
f 163/163/163 199/199/199 200/200/200
f 163/163/163 200/200/200 162/162/162
f 162/162/162 200/200/200 203/203/203
f 162/162/162 203/203/203 160/160/160
f 160/160/160 203/203/203 204/204/204
f 160/160/160 204/204/204 158/158/158
f 158/158/158 204/204/204 207/207/207
f 158/158/158 207/207/207 155/155/155
f 155/155/155 207/207/207 209/209/209
f 155/155/155 209/209/209 154/154/154
f 154/154/154 209/209/209 211/211/211
f 154/154/154 211/211/211 152/152/152
f 152/152/152 211/211/211 212/212/212
f 152/152/152 212/212/212 150/150/150
f 150/150/150 212/212/212 215/215/215
f 150/150/150 215/215/215 148/148/148
f 148/148/148 215/215/215 217/217/217
f 148/148/148 217/217/217 145/145/145
f 145/145/145 217/217/217 219/219/219
f 145/145/145 219/219/219 143/143/143
f 143/143/143 219/219/219 221/221/221
f 143/143/143 221/221/221 141/141/141
f 141/141/141 221/221/221 223/223/223
f 141/141/141 223/223/223 139/139/139
f 139/139/139 223/223/223 225/225/225
f 139/139/139 225/225/225 137/137/137
f 137/137/137 225/225/225 227/227/227
f 137/137/137 227/227/227 135/135/135
f 135/135/135 227/227/227 229/229/229
f 230/230/230 234/234/234 311/311/311
f 311/311/311 234/234/234 310/310/310
f 310/310/310 234/234/234 308/308/308
f 308/308/308 234/234/234 306/306/306
f 306/306/306 234/234/234 303/303/303
f 303/303/303 234/234/234 301/301/301
f 301/301/301 234/234/234 300/300/300
f 300/300/300 234/234/234 297/297/297
f 297/297/297 234/234/234 237/237/237
f 297/297/297 237/237/237 238/238/238
f 238/238/238 241/241/241 297/297/297
f 297/297/297 241/241/241 243/243/243
f 297/297/297 243/243/243 245/245/245
f 297/297/297 245/245/245 257/257/257
f 257/257/257 245/245/245 248/248/248
f 257/257/257 248/248/248 255/255/255
f 255/255/255 248/248/248 251/251/251
f 297/297/297 257/257/257 295/295/295
f 295/295/295 257/257/257 260/260/260
f 295/295/295 260/260/260 261/261/261
f 261/261/261 263/263/263 295/295/295
f 295/295/295 263/263/263 266/266/266
f 295/295/295 266/266/266 268/268/268
f 268/268/268 270/270/270 295/295/295
f 295/295/295 270/270/270 272/272/272
f 295/295/295 272/272/272 273/273/273
f 295/295/295 273/273/273 292/292/292
f 292/292/292 273/273/273 275/275/275
f 292/292/292 275/275/275 290/290/290
f 290/290/290 275/275/275 277/277/277
f 290/290/290 277/277/277 288/288/288
f 288/288/288 277/277/277 279/279/279
f 288/288/288 279/279/279 285/285/285
f 285/285/285 279/279/279 281/281/281
f 285/285/285 281/281/281 284/284/284
f 317/317/317 320/320/320 314/314/314
f 314/314/314 320/320/320 338/338/338
f 314/314/314 338/338/338 339/339/339
f 320/320/320 322/322/322 338/338/338
f 338/338/338 322/322/322 336/336/336
f 336/336/336 322/322/322 324/324/324
f 336/336/336 324/324/324 334/334/334
f 334/334/334 324/324/324 325/325/325
f 334/334/334 325/325/325 330/330/330
f 330/330/330 325/325/325 249/249/249
f 330/330/330 249/249/249 328/328/328
f 328/328/328 249/249/249 247/247/247
f 342/342/342 343/343/343 339/339/339
f 339/339/339 343/343/343 314/314/314
f 231/231/231 346/346/346 235/235/235
f 235/235/235 346/346/346 350/350/350
f 327/327/327 246/246/246 361/361/361
f 361/361/361 246/246/246 244/244/244
f 361/361/361 244/244/244 242/242/242
f 361/361/361 242/242/242 358/358/358
f 358/358/358 242/242/242 240/240/240
f 358/358/358 240/240/240 357/357/357
f 357/357/357 240/240/240 239/239/239
f 357/357/357 239/239/239 355/355/355
f 355/355/355 239/239/239 236/236/236
f 355/355/355 236/236/236 353/353/353
f 353/353/353 236/236/236 351/351/351
f 351/351/351 236/236/236 233/233/233
f 397/397/397 363/363/363 393/393/393
f 393/393/393 363/363/363 365/365/365
f 393/393/393 365/365/365 391/391/391
f 391/391/391 365/365/365 367/367/367
f 391/391/391 367/367/367 389/389/389
f 389/389/389 367/367/367 370/370/370
f 389/389/389 370/370/370 387/387/387
f 387/387/387 370/370/370 372/372/372
f 387/387/387 372/372/372 385/385/385
f 385/385/385 372/372/372 373/373/373
f 385/385/385 373/373/373 383/383/383
f 383/383/383 373/373/373 375/375/375
f 383/383/383 375/375/375 380/380/380
f 380/380/380 375/375/375 377/377/377
f 348/348/348 396/396/396 349/349/349
f 349/349/349 396/396/396 394/394/394
f 349/349/349 394/394/394 392/392/392
f 392/392/392 390/390/390 349/349/349
f 349/349/349 390/390/390 388/388/388
f 349/349/349 388/388/388 386/386/386
f 386/386/386 384/384/384 349/349/349
f 349/349/349 384/384/384 382/382/382
f 349/349/349 382/382/382 352/352/352
f 352/352/352 382/382/382 354/354/354
f 354/354/354 382/382/382 356/356/356
f 356/356/356 382/382/382 359/359/359
f 359/359/359 382/382/382 360/360/360
f 360/360/360 382/382/382 436/436/436
f 360/360/360 436/436/436 329/329/329
f 329/329/329 436/436/436 438/438/438
f 329/329/329 438/438/438 332/332/332
f 382/382/382 398/398/398 436/436/436
f 436/436/436 398/398/398 434/434/434
f 434/434/434 398/398/398 432/432/432
f 432/432/432 398/398/398 429/429/429
f 429/429/429 398/398/398 428/428/428
f 428/428/428 398/398/398 426/426/426
f 426/426/426 398/398/398 424/424/424
f 424/424/424 398/398/398 422/422/422
f 422/422/422 398/398/398 420/420/420
f 420/420/420 398/398/398 402/402/402
f 420/420/420 402/402/402 418/418/418
f 418/418/418 402/402/402 404/404/404
f 418/418/418 404/404/404 416/416/416
f 416/416/416 404/404/404 405/405/405
f 416/416/416 405/405/405 414/414/414
f 414/414/414 405/405/405 408/408/408
f 414/414/414 408/408/408 411/411/411
f 411/411/411 408/408/408 409/409/409
f 458/458/458 312/312/312 456/456/456
f 456/456/456 312/312/312 309/309/309
f 456/456/456 309/309/309 453/453/453
f 453/453/453 309/309/309 307/307/307
f 453/453/453 307/307/307 452/452/452
f 452/452/452 307/307/307 305/305/305
f 452/452/452 305/305/305 449/449/449
f 449/449/449 305/305/305 304/304/304
f 449/449/449 304/304/304 447/447/447
f 447/447/447 304/304/304 302/302/302
f 447/447/447 302/302/302 445/445/445
f 445/445/445 302/302/302 299/299/299
f 445/445/445 299/299/299 444/444/444
f 444/444/444 299/299/299 296/296/296
f 455/455/455 443/443/443 459/459/459
f 459/459/459 443/443/443 499/499/499
f 459/459/459 499/499/499 501/501/501
f 455/455/455 454/454/454 443/443/443
f 443/443/443 454/454/454 451/451/451
f 443/443/443 451/451/451 450/450/450
f 450/450/450 448/448/448 443/443/443
f 443/443/443 448/448/448 446/446/446
f 443/443/443 460/460/460 499/499/499
f 499/499/499 460/460/460 496/496/496
f 496/496/496 460/460/460 494/494/494
f 494/494/494 460/460/460 492/492/492
f 492/492/492 460/460/460 489/489/489
f 489/489/489 460/460/460 488/488/488
f 488/488/488 460/460/460 486/486/486
f 486/486/486 460/460/460 484/484/484
f 484/484/484 460/460/460 482/482/482
f 482/482/482 460/460/460 463/463/463
f 482/482/482 463/463/463 479/479/479
f 479/479/479 463/463/463 465/465/465
f 479/479/479 465/465/465 477/477/477
f 477/477/477 465/465/465 467/467/467
f 477/477/477 467/467/467 475/475/475
f 475/475/475 467/467/467 470/470/470
f 475/475/475 470/470/470 473/473/473
f 473/473/473 470/470/470 471/471/471
f 501/501/501 505/505/505 459/459/459
f 313/313/313 457/457/457 232/232/232
f 232/232/232 457/457/457 506/506/506
f 232/232/232 506/506/506 507/507/507
f 506/506/506 509/509/509 507/507/507
f 507/507/507 509/509/509 511/511/511
f 507/507/507 511/511/511 525/525/525
f 525/525/525 511/511/511 513/513/513
f 525/525/525 513/513/513 515/515/515
f 515/515/515 516/516/516 525/525/525
f 525/525/525 516/516/516 519/519/519
f 525/525/525 519/519/519 520/520/520
f 520/520/520 523/523/523 525/525/525
f 523/523/523 529/529/529 525/525/525
f 525/525/525 529/529/529 547/547/547
f 525/525/525 547/547/547 507/507/507
f 507/507/507 547/547/547 232/232/232
f 523/523/523 526/526/526 529/529/529
f 526/526/526 531/531/531 529/529/529
f 529/529/529 531/531/531 532/532/532
f 529/529/529 532/532/532 534/534/534
f 534/534/534 536/536/536 529/529/529
f 529/529/529 536/536/536 538/538/538
f 529/529/529 538/538/538 541/541/541
f 529/529/529 541/541/541 547/547/547
f 547/547/547 541/541/541 543/543/543
f 547/547/547 543/543/543 544/544/544
f 232/232/232 547/547/547 347/347/347
f 347/347/347 547/547/547 544/544/544
f 347/347/347 544/544/544 362/362/362
f 362/362/362 395/395/395 347/347/347
f 378/378/378 549/549/549 381/381/381
f 381/381/381 549/549/549 400/400/400
f 298/298/298 293/293/293 442/442/442
f 442/442/442 293/293/293 462/462/462
f 399/399/399 550/550/550 401/401/401
f 401/401/401 550/550/550 551/551/551
f 401/401/401 551/551/551 403/403/403
f 403/403/403 551/551/551 553/553/553
f 403/403/403 553/553/553 406/406/406
f 406/406/406 553/553/553 556/556/556
f 406/406/406 556/556/556 407/407/407
f 407/407/407 556/556/556 558/558/558
f 407/407/407 558/558/558 410/410/410
f 410/410/410 558/558/558 560/560/560
f 410/410/410 560/560/560 412/412/412
f 412/412/412 560/560/560 562/562/562
f 412/412/412 562/562/562 413/413/413
f 413/413/413 562/562/562 564/564/564
f 413/413/413 564/564/564 415/415/415
f 415/415/415 564/564/564 566/566/566
f 415/415/415 566/566/566 417/417/417
f 417/417/417 566/566/566 567/567/567
f 417/417/417 567/567/567 419/419/419
f 419/419/419 567/567/567 570/570/570
f 419/419/419 570/570/570 421/421/421
f 421/421/421 570/570/570 572/572/572
f 421/421/421 572/572/572 423/423/423
f 423/423/423 572/572/572 574/574/574
f 423/423/423 574/574/574 425/425/425
f 425/425/425 574/574/574 575/575/575
f 425/425/425 575/575/575 427/427/427
f 427/427/427 575/575/575 577/577/577
f 427/427/427 577/577/577 430/430/430
f 430/430/430 577/577/577 580/580/580
f 430/430/430 580/580/580 431/431/431
f 431/431/431 580/580/580 581/581/581
f 431/431/431 581/581/581 433/433/433
f 433/433/433 581/581/581 584/584/584
f 433/433/433 584/584/584 437/437/437
f 437/437/437 584/584/584 587/587/587
f 461/461/461 294/294/294 464/464/464
f 464/464/464 294/294/294 291/291/291
f 464/464/464 291/291/291 466/466/466
f 466/466/466 291/291/291 289/289/289
f 466/466/466 289/289/289 468/468/468
f 468/468/468 289/289/289 287/287/287
f 468/468/468 287/287/287 469/469/469
f 469/469/469 287/287/287 286/286/286
f 469/469/469 286/286/286 472/472/472
f 472/472/472 286/286/286 283/283/283
f 472/472/472 283/283/283 474/474/474
f 474/474/474 283/283/283 282/282/282
f 474/474/474 282/282/282 476/476/476
f 476/476/476 282/282/282 280/280/280
f 476/476/476 280/280/280 478/478/478
f 478/478/478 280/280/280 278/278/278
f 478/478/478 278/278/278 480/480/480
f 480/480/480 278/278/278 276/276/276
f 480/480/480 276/276/276 481/481/481
f 481/481/481 276/276/276 274/274/274
f 481/481/481 274/274/274 483/483/483
f 483/483/483 274/274/274 271/271/271
f 483/483/483 271/271/271 485/485/485
f 485/485/485 271/271/271 269/269/269
f 485/485/485 269/269/269 487/487/487
f 487/487/487 269/269/269 267/267/267
f 487/487/487 267/267/267 490/490/490
f 490/490/490 267/267/267 265/265/265
f 490/490/490 265/265/265 491/491/491
f 491/491/491 265/265/265 264/264/264
f 491/491/491 264/264/264 493/493/493
f 493/493/493 264/264/264 262/262/262
f 493/493/493 262/262/262 495/495/495
f 495/495/495 262/262/262 259/259/259
f 495/495/495 259/259/259 497/497/497
f 497/497/497 259/259/259 258/258/258
f 586/586/586 588/588/588 435/435/435
f 435/435/435 588/588/588 440/440/440
f 508/508/508 504/504/504 610/610/610
f 610/610/610 504/504/504 503/503/503
f 610/610/610 503/503/503 593/593/593
f 610/610/610 593/593/593 611/611/611
f 611/611/611 593/593/593 594/594/594
f 611/611/611 594/594/594 612/612/612
f 612/612/612 594/594/594 597/597/597
f 612/612/612 597/597/597 613/613/613
f 613/613/613 597/597/597 598/598/598
f 613/613/613 598/598/598 614/614/614
f 614/614/614 598/598/598 600/600/600
f 614/614/614 600/600/600 615/615/615
f 615/615/615 600/600/600 603/603/603
f 615/615/615 603/603/603 616/616/616
f 616/616/616 603/603/603 605/605/605
f 616/616/616 605/605/605 607/607/607
f 607/607/607 522/522/522 616/616/616
f 616/616/616 522/522/522 521/521/521
f 616/616/616 521/521/521 615/615/615
f 615/615/615 521/521/521 518/518/518
f 615/615/615 518/518/518 614/614/614
f 614/614/614 518/518/518 517/517/517
f 614/614/614 517/517/517 613/613/613
f 613/613/613 517/517/517 514/514/514
f 613/613/613 514/514/514 612/612/612
f 612/612/612 514/514/514 512/512/512
f 612/612/612 512/512/512 611/611/611
f 611/611/611 512/512/512 510/510/510
f 611/611/611 510/510/510 610/610/610
f 610/610/610 510/510/510 508/508/508
f 256/256/256 252/252/252 498/498/498
f 498/498/498 252/252/252 502/502/502
f 500/500/500 253/253/253 592/592/592
f 592/592/592 253/253/253 617/617/617
f 592/592/592 617/617/617 595/595/595
f 595/595/595 617/617/617 620/620/620
f 595/595/595 620/620/620 596/596/596
f 596/596/596 620/620/620 621/621/621
f 596/596/596 621/621/621 599/599/599
f 599/599/599 621/621/621 601/601/601
f 601/601/601 621/621/621 623/623/623
f 601/601/601 623/623/623 602/602/602
f 602/602/602 623/623/623 626/626/626
f 602/602/602 626/626/626 604/604/604
f 604/604/604 626/626/626 630/630/630
f 604/604/604 630/630/630 606/606/606
f 254/254/254 250/250/250 631/631/631
f 631/631/631 250/250/250 326/326/326
f 631/631/631 326/326/326 632/632/632
f 632/632/632 326/326/326 323/323/323
f 632/632/632 323/323/323 633/633/633
f 633/633/633 323/323/323 321/321/321
f 633/633/633 321/321/321 634/634/634
f 634/634/634 321/321/321 319/319/319
f 634/634/634 319/319/319 635/635/635
f 635/635/635 319/319/319 318/318/318
f 635/635/635 318/318/318 315/315/315
f 315/315/315 627/627/627 635/635/635
f 635/635/635 627/627/627 625/625/625
f 635/635/635 625/625/625 634/634/634
f 634/634/634 625/625/625 624/624/624
f 634/634/634 624/624/624 633/633/633
f 633/633/633 624/624/624 622/622/622
f 633/633/633 622/622/622 632/632/632
f 632/632/632 622/622/622 619/619/619
f 632/632/632 619/619/619 631/631/631
f 631/631/631 619/619/619 618/618/618
f 631/631/631 618/618/618 254/254/254
f 653/653/653 589/589/589 654/654/654
f 654/654/654 589/589/589 545/545/545
f 654/654/654 545/545/545 542/542/542
f 654/654/654 542/542/542 655/655/655
f 655/655/655 542/542/542 540/540/540
f 655/655/655 540/540/540 656/656/656
f 656/656/656 540/540/540 539/539/539
f 656/656/656 539/539/539 657/657/657
f 657/657/657 539/539/539 537/537/537
f 657/657/657 537/537/537 658/658/658
f 658/658/658 537/537/537 535/535/535
f 658/658/658 535/535/535 659/659/659
f 659/659/659 535/535/535 533/533/533
f 659/659/659 533/533/533 660/660/660
f 660/660/660 533/533/533 530/530/530
f 660/660/660 530/530/530 528/528/528
f 528/528/528 636/636/636 660/660/660
f 660/660/660 636/636/636 641/641/641
f 660/660/660 641/641/641 659/659/659
f 659/659/659 641/641/641 642/642/642
f 659/659/659 642/642/642 658/658/658
f 658/658/658 642/642/642 644/644/644
f 658/658/658 644/644/644 657/657/657
f 657/657/657 644/644/644 646/646/646
f 657/657/657 646/646/646 656/656/656
f 656/656/656 646/646/646 648/648/648
f 656/656/656 648/648/648 655/655/655
f 655/655/655 648/648/648 650/650/650
f 655/655/655 650/650/650 654/654/654
f 654/654/654 650/650/650 653/653/653
f 591/591/591 652/652/652 441/441/441
f 441/441/441 652/652/652 673/673/673
f 673/673/673 652/652/652 651/651/651
f 673/673/673 651/651/651 671/671/671
f 671/671/671 651/651/651 649/649/649
f 671/671/671 649/649/649 670/670/670
f 670/670/670 649/649/649 647/647/647
f 670/670/670 647/647/647 645/645/645
f 670/670/670 645/645/645 667/667/667
f 667/667/667 645/645/645 643/643/643
f 667/667/667 643/643/643 666/666/666
f 666/666/666 643/643/643 640/640/640
f 666/666/666 640/640/640 664/664/664
f 664/664/664 640/640/640 638/638/638
f 661/661/661 345/345/345 675/675/675
f 675/675/675 345/345/345 341/341/341
f 675/675/675 341/341/341 676/676/676
f 676/676/676 341/341/341 340/340/340
f 676/676/676 340/340/340 677/677/677
f 677/677/677 340/340/340 337/337/337
f 677/677/677 337/337/337 678/678/678
f 678/678/678 337/337/337 335/335/335
f 678/678/678 335/335/335 679/679/679
f 679/679/679 335/335/335 333/333/333
f 679/679/679 333/333/333 331/331/331
f 331/331/331 439/439/439 679/679/679
f 679/679/679 439/439/439 674/674/674
f 679/679/679 674/674/674 678/678/678
f 678/678/678 674/674/674 672/672/672
f 678/678/678 672/672/672 677/677/677
f 677/677/677 672/672/672 669/669/669
f 677/677/677 669/669/669 676/676/676
f 676/676/676 669/669/669 668/668/668
f 676/676/676 668/668/668 675/675/675
f 675/675/675 668/668/668 665/665/665
f 675/675/675 665/665/665 661/661/661
f 376/376/376 374/374/374 379/379/379
f 379/379/379 374/374/374 371/371/371
f 379/379/379 371/371/371 369/369/369
f 369/369/369 368/368/368 379/379/379
f 379/379/379 368/368/368 366/366/366
f 379/379/379 366/366/366 364/364/364
f 546/546/546 590/590/590 364/364/364
f 364/364/364 590/590/590 585/585/585
f 364/364/364 585/585/585 379/379/379
f 379/379/379 585/585/585 548/548/548
f 548/548/548 585/585/585 583/583/583
f 548/548/548 583/583/583 582/582/582
f 582/582/582 579/579/579 548/548/548
f 548/548/548 579/579/579 578/578/578
f 548/548/548 578/578/578 576/576/576
f 576/576/576 573/573/573 548/548/548
f 548/548/548 573/573/573 571/571/571
f 548/548/548 571/571/571 569/569/569
f 548/548/548 569/569/569 552/552/552
f 552/552/552 569/569/569 568/568/568
f 552/552/552 568/568/568 554/554/554
f 554/554/554 568/568/568 565/565/565
f 554/554/554 565/565/565 555/555/555
f 555/555/555 565/565/565 563/563/563
f 555/555/555 563/563/563 557/557/557
f 557/557/557 563/563/563 561/561/561
f 557/557/557 561/561/561 559/559/559
f 628/628/628 663/663/663 609/609/609
f 609/609/609 663/663/663 639/639/639
f 608/608/608 156/156/156 524/524/524
f 524/524/524 156/156/156 153/153/153
f 524/524/524 153/153/153 151/151/151
f 637/637/637 169/169/169 608/608/608
f 608/608/608 169/169/169 167/167/167
f 608/608/608 167/167/167 166/166/166
f 527/527/527 136/136/136 637/637/637
f 637/637/637 136/136/136 134/134/134
f 637/637/637 134/134/134 179/179/179
f 524/524/524 146/146/146 527/527/527
f 527/527/527 146/146/146 144/144/144
f 527/527/527 144/144/144 142/142/142
f 179/179/179 178/178/178 637/637/637
f 637/637/637 178/178/178 175/175/175
f 637/637/637 175/175/175 174/174/174
f 174/174/174 171/171/171 637/637/637
f 637/637/637 171/171/171 169/169/169
f 166/166/166 164/164/164 608/608/608
f 608/608/608 164/164/164 161/161/161
f 608/608/608 161/161/161 159/159/159
f 159/159/159 157/157/157 608/608/608
f 608/608/608 157/157/157 156/156/156
f 151/151/151 149/149/149 524/524/524
f 524/524/524 149/149/149 147/147/147
f 524/524/524 147/147/147 146/146/146
f 142/142/142 140/140/140 527/527/527
f 527/527/527 140/140/140 138/138/138
f 527/527/527 138/138/138 136/136/136
f 344/344/344 218/218/218 316/316/316
f 316/316/316 218/218/218 216/216/216
f 316/316/316 216/216/216 214/214/214
f 662/662/662 182/182/182 344/344/344
f 344/344/344 182/182/182 228/228/228
f 344/344/344 228/228/228 226/226/226
f 629/629/629 194/194/194 662/662/662
f 662/662/662 194/194/194 193/193/193
f 662/662/662 193/193/193 191/191/191
f 316/316/316 206/206/206 629/629/629
f 629/629/629 206/206/206 205/205/205
f 629/629/629 205/205/205 202/202/202
f 226/226/226 224/224/224 344/344/344
f 344/344/344 224/224/224 222/222/222
f 344/344/344 222/222/222 220/220/220
f 220/220/220 218/218/218 344/344/344
f 214/214/214 213/213/213 316/316/316
f 316/316/316 213/213/213 210/210/210
f 316/316/316 210/210/210 208/208/208
f 208/208/208 206/206/206 316/316/316
f 202/202/202 201/201/201 629/629/629
f 629/629/629 201/201/201 198/198/198
f 629/629/629 198/198/198 197/197/197
f 197/197/197 194/194/194 629/629/629
f 191/191/191 189/189/189 662/662/662
f 662/662/662 189/189/189 187/187/187
f 662/662/662 187/187/187 184/184/184
f 184/184/184 182/182/182 662/662/662

