mtllib material.mtl
usemtl Opaque(245,245,246)
v 0.28726800 -0.00295000 0.07500000
v 0.28726800 -0.00295000 0.07500000
v 0.28726800 -0.00295000 0.07500000
v 0.28685900 -0.00295000 0.07876200
v 0.28685900 -0.00295000 0.07876200
v 0.28565100 -0.00295000 0.08234800
v 0.28565100 -0.00295000 0.08234800
v 0.28370000 -0.00295000 0.08559100
v 0.28370000 -0.00295000 0.08559100
v 0.28109800 -0.00295000 0.08833800
v 0.28109800 -0.00295000 0.08833800
v 0.27796600 -0.00295000 0.09046100
v 0.27796600 -0.00295000 0.09046100
v 0.27445000 -0.00295000 0.09186200
v 0.27445000 -0.00295000 0.09186200
v 0.27071600 -0.00295000 0.09247400
v 0.27071600 -0.00295000 0.09247400
v 0.26693700 -0.00295000 0.09226900
v 0.26693700 -0.00295000 0.09226900
v 0.26329100 -0.00295000 0.09125700
v 0.26329100 -0.00295000 0.09125700
v 0.25994800 -0.00295000 0.08948500
v 0.25994800 -0.00295000 0.08948500
v 0.25706300 -0.00295000 0.08703500
v 0.25706300 -0.00295000 0.08703500
v 0.25477300 -0.00295000 0.08402200
v 0.25477300 -0.00295000 0.08402200
v 0.25318400 -0.00295000 0.08058800
v 0.25318400 -0.00295000 0.08058800
v 0.25237100 -0.00295000 0.07689200
v 0.25237100 -0.00295000 0.07689200
v 0.25237100 -0.00295000 0.07310800
v 0.25237100 -0.00295000 0.07310800
v 0.25318400 -0.00295000 0.06941200
v 0.25318400 -0.00295000 0.06941200
v 0.25477300 -0.00295000 0.06597800
v 0.25477300 -0.00295000 0.06597800
v 0.25706300 -0.00295000 0.06296500
v 0.25706300 -0.00295000 0.06296500
v 0.25994800 -0.00295000 0.06051500
v 0.25994800 -0.00295000 0.06051500
v 0.26329100 -0.00295000 0.05874300
v 0.26329100 -0.00295000 0.05874300
v 0.26693700 -0.00295000 0.05773100
v 0.26693700 -0.00295000 0.05773100
v 0.27071600 -0.00295000 0.05752600
v 0.27071600 -0.00295000 0.05752600
v 0.27445000 -0.00295000 0.05813800
v 0.27445000 -0.00295000 0.05813800
v 0.27796600 -0.00295000 0.05953900
v 0.27796600 -0.00295000 0.05953900
v 0.28109800 -0.00295000 0.06166200
v 0.28109800 -0.00295000 0.06166200
v 0.28370000 -0.00295000 0.06440900
v 0.28370000 -0.00295000 0.06440900
v 0.28565100 -0.00295000 0.06765200
v 0.28565100 -0.00295000 0.06765200
v 0.28685900 -0.00295000 0.07123800
v 0.28685900 -0.00295000 0.07123800
v 0.28726800 -0.00870000 0.07500000
v 0.28726800 -0.00870000 0.07500000
v 0.28726800 -0.00870000 0.07500000
v 0.28685900 -0.00870000 0.07123800
v 0.28685900 -0.00870000 0.07123800
v 0.28565100 -0.00870000 0.06765200
v 0.28565100 -0.00870000 0.06765200
v 0.28370000 -0.00870000 0.06440900
v 0.28370000 -0.00870000 0.06440900
v 0.28109800 -0.00870000 0.06166200
v 0.28109800 -0.00870000 0.06166200
v 0.27796600 -0.00870000 0.05953900
v 0.27796600 -0.00870000 0.05953900
v 0.27445000 -0.00870000 0.05813800
v 0.27445000 -0.00870000 0.05813800
v 0.27071600 -0.00870000 0.05752600
v 0.27071600 -0.00870000 0.05752600
v 0.26693700 -0.00870000 0.05773100
v 0.26693700 -0.00870000 0.05773100
v 0.26329100 -0.00870000 0.05874300
v 0.26329100 -0.00870000 0.05874300
v 0.25994800 -0.00870000 0.06051500
v 0.25994800 -0.00870000 0.06051500
v 0.25706300 -0.00870000 0.06296500
v 0.25706300 -0.00870000 0.06296500
v 0.25477300 -0.00870000 0.06597800
v 0.25477300 -0.00870000 0.06597800
v 0.25318400 -0.00870000 0.06941200
v 0.25318400 -0.00870000 0.06941200
v 0.25237100 -0.00870000 0.07310800
v 0.25237100 -0.00870000 0.07310800
v 0.25237100 -0.00870000 0.07689200
v 0.25237100 -0.00870000 0.07689200
v 0.25318400 -0.00870000 0.08058800
v 0.25318400 -0.00870000 0.08058800
v 0.25477300 -0.00870000 0.08402200
v 0.25477300 -0.00870000 0.08402200
v 0.25706300 -0.00870000 0.08703500
v 0.25706300 -0.00870000 0.08703500
v 0.25994800 -0.00870000 0.08948500
v 0.25994800 -0.00870000 0.08948500
v 0.26329100 -0.00870000 0.09125700
v 0.26329100 -0.00870000 0.09125700
v 0.26693700 -0.00870000 0.09226900
v 0.26693700 -0.00870000 0.09226900
v 0.27071600 -0.00870000 0.09247400
v 0.27071600 -0.00870000 0.09247400
v 0.27445000 -0.00870000 0.09186200
v 0.27445000 -0.00870000 0.09186200
v 0.27796600 -0.00870000 0.09046100
v 0.27796600 -0.00870000 0.09046100
v 0.28109800 -0.00870000 0.08833800
v 0.28109800 -0.00870000 0.08833800
v 0.28370000 -0.00870000 0.08559100
v 0.28370000 -0.00870000 0.08559100
v 0.28565100 -0.00870000 0.08234800
v 0.28565100 -0.00870000 0.08234800
v 0.28685900 -0.00870000 0.07876200
v 0.28685900 -0.00870000 0.07876200
v 0.26476800 -0.00870000 0.09479300
v 0.26476800 -0.00870000 0.09479300
v 0.26476800 -0.00870000 0.09479300
v 0.26492800 -0.00870000 0.09546600
v 0.26492800 -0.00870000 0.09546600
v 0.26537200 -0.00870000 0.09599600
v 0.26537200 -0.00870000 0.09599600
v 0.26600700 -0.00870000 0.09627000
v 0.26600700 -0.00870000 0.09627000
v 0.26600700 -0.00870000 0.09627000
v 0.27015600 -0.00870000 0.09659700
v 0.27015600 -0.00870000 0.09659700
v 0.27429000 -0.00870000 0.09612100
v 0.27429000 -0.00870000 0.09612100
v 0.27825600 -0.00870000 0.09486200
v 0.27825600 -0.00870000 0.09486200
v 0.28190800 -0.00870000 0.09286600
v 0.28190800 -0.00870000 0.09286600
v 0.28510800 -0.00870000 0.09020700
v 0.28510800 -0.00870000 0.09020700
v 0.28774000 -0.00870000 0.08698300
v 0.28774000 -0.00870000 0.08698300
v 0.28970400 -0.00870000 0.08331400
v 0.28970400 -0.00870000 0.08331400
v 0.29092900 -0.00870000 0.07933700
v 0.29092900 -0.00870000 0.07933700
v 0.29136800 -0.00870000 0.07519900
v 0.29136800 -0.00870000 0.07519900
v 0.29100500 -0.00870000 0.07105300
v 0.29100500 -0.00870000 0.07105300
v 0.28985400 -0.00870000 0.06705400
v 0.28985400 -0.00870000 0.06705400
v 0.28795700 -0.00870000 0.06335000
v 0.28795700 -0.00870000 0.06335000
v 0.28538600 -0.00870000 0.06007800
v 0.28538600 -0.00870000 0.06007800
v 0.28223500 -0.00870000 0.05736100
v 0.28223500 -0.00870000 0.05736100
v 0.27862100 -0.00870000 0.05529700
v 0.27862100 -0.00870000 0.05529700
v 0.27467800 -0.00870000 0.05396500
v 0.27467800 -0.00870000 0.05396500
v 0.27055400 -0.00870000 0.05341400
v 0.27055400 -0.00870000 0.05341400
v 0.26640000 -0.00870000 0.05366400
v 0.26640000 -0.00870000 0.05366400
v 0.26237100 -0.00870000 0.05470600
v 0.26237100 -0.00870000 0.05470600
v 0.26237100 -0.00870000 0.05470600
v 0.26179300 -0.00870000 0.05508700
v 0.26179300 -0.00870000 0.05508700
v 0.26144800 -0.00870000 0.05568600
v 0.26144800 -0.00870000 0.05568600
v 0.26140700 -0.00870000 0.05637600
v 0.26140700 -0.00870000 0.05637600
v 0.26140700 -0.00870000 0.05637600
v 0.26168900 -0.00870000 0.05797200
v 0.26168900 -0.00870000 0.05797200
v 0.26168900 -0.00870000 0.05797200
v 0.26167000 -0.00870000 0.05858100
v 0.26167000 -0.00870000 0.05858100
v 0.26141100 -0.00870000 0.05913200
v 0.26141100 -0.00870000 0.05913200
v 0.26095400 -0.00870000 0.05953500
v 0.26095400 -0.00870000 0.05953500
v 0.26095400 -0.00870000 0.05953500
v 0.25796000 -0.00870000 0.06168000
v 0.25796000 -0.00870000 0.06168000
v 0.25547200 -0.00870000 0.06439600
v 0.25547200 -0.00870000 0.06439600
v 0.25359600 -0.00870000 0.06756500
v 0.25359600 -0.00870000 0.06756500
v 0.25241200 -0.00870000 0.07105200
v 0.25241200 -0.00870000 0.07105200
v 0.25197100 -0.00870000 0.07470900
v 0.25197100 -0.00870000 0.07470900
v 0.25229200 -0.00870000 0.07837800
v 0.25229200 -0.00870000 0.07837800
v 0.25336100 -0.00870000 0.08190200
v 0.25336100 -0.00870000 0.08190200
v 0.25513300 -0.00870000 0.08513100
v 0.25513300 -0.00870000 0.08513100
v 0.25753100 -0.00870000 0.08792600
v 0.25753100 -0.00870000 0.08792600
v 0.26045300 -0.00870000 0.09016800
v 0.26045300 -0.00870000 0.09016800
v 0.26377400 -0.00870000 0.09176000
v 0.26377400 -0.00870000 0.09176000
v 0.26377400 -0.00870000 0.09176000
v 0.26429400 -0.00870000 0.09207800
v 0.26429400 -0.00870000 0.09207800
v 0.26464500 -0.00870000 0.09257600
v 0.26464500 -0.00870000 0.09257600
v 0.26476800 -0.00870000 0.09317300
v 0.26476800 -0.00870000 0.09317300
v 0.26476800 -0.00870000 0.09317300
v 0.24126800 -0.00870000 0.07500000
v 0.24126800 -0.00870000 0.07500000
v 0.24126800 -0.00870000 0.07500000
v 0.24170100 -0.00870000 0.07005100
v 0.24170100 -0.00870000 0.07005100
v 0.24298700 -0.00870000 0.06525200
v 0.24298700 -0.00870000 0.06525200
v 0.24508700 -0.00870000 0.06075000
v 0.24508700 -0.00870000 0.06075000
v 0.24793600 -0.00870000 0.05668100
v 0.24793600 -0.00870000 0.05668100
v 0.25144900 -0.00870000 0.05316800
v 0.25144900 -0.00870000 0.05316800
v 0.25551800 -0.00870000 0.05031800
v 0.25551800 -0.00870000 0.05031800
v 0.26002100 -0.00870000 0.04821900
v 0.26002100 -0.00870000 0.04821900
v 0.26481900 -0.00870000 0.04693300
v 0.26481900 -0.00870000 0.04693300
v 0.26976800 -0.00870000 0.04650000
v 0.26976800 -0.00870000 0.04650000
v 0.27471700 -0.00870000 0.04693300
v 0.27471700 -0.00870000 0.04693300
v 0.27951600 -0.00870000 0.04821900
v 0.27951600 -0.00870000 0.04821900
v 0.28401800 -0.00870000 0.05031800
v 0.28401800 -0.00870000 0.05031800
v 0.28808800 -0.00870000 0.05316800
v 0.28808800 -0.00870000 0.05316800
v 0.29160100 -0.00870000 0.05668100
v 0.29160100 -0.00870000 0.05668100
v 0.29445000 -0.00870000 0.06075000
v 0.29445000 -0.00870000 0.06075000
v 0.29655000 -0.00870000 0.06525200
v 0.29655000 -0.00870000 0.06525200
v 0.29783500 -0.00870000 0.07005100
v 0.29783500 -0.00870000 0.07005100
v 0.29826800 -0.00870000 0.07500000
v 0.29826800 -0.00870000 0.07500000
v 0.29783500 -0.00870000 0.07994900
v 0.29783500 -0.00870000 0.07994900
v 0.29655000 -0.00870000 0.08474800
v 0.29655000 -0.00870000 0.08474800
v 0.29445000 -0.00870000 0.08925000
v 0.29445000 -0.00870000 0.08925000
v 0.29160100 -0.00870000 0.09331900
v 0.29160100 -0.00870000 0.09331900
v 0.28808800 -0.00870000 0.09683200
v 0.28808800 -0.00870000 0.09683200
v 0.28401800 -0.00870000 0.09968200
v 0.28401800 -0.00870000 0.09968200
v 0.27951600 -0.00870000 0.10178100
v 0.27951600 -0.00870000 0.10178100
v 0.27471700 -0.00870000 0.10306700
v 0.27471700 -0.00870000 0.10306700
v 0.26976800 -0.00870000 0.10350000
v 0.26976800 -0.00870000 0.10350000
v 0.26481900 -0.00870000 0.10306700
v 0.26481900 -0.00870000 0.10306700
v 0.26002100 -0.00870000 0.10178100
v 0.26002100 -0.00870000 0.10178100
v 0.25551800 -0.00870000 0.09968200
v 0.25551800 -0.00870000 0.09968200
v 0.25144900 -0.00870000 0.09683200
v 0.25144900 -0.00870000 0.09683200
v 0.24793600 -0.00870000 0.09331900
v 0.24793600 -0.00870000 0.09331900
v 0.24508700 -0.00870000 0.08925000
v 0.24508700 -0.00870000 0.08925000
v 0.24298700 -0.00870000 0.08474800
v 0.24298700 -0.00870000 0.08474800
v 0.24170100 -0.00870000 0.07994900
v 0.24170100 -0.00870000 0.07994900
v 0.24126800 -0.05430000 0.07500000
v 0.24126800 -0.05430000 0.07500000
v 0.24126800 -0.05430000 0.07500000
v 0.24170100 -0.05430000 0.07994900
v 0.24170100 -0.05430000 0.07994900
v 0.24298700 -0.05430000 0.08474800
v 0.24298700 -0.05430000 0.08474800
v 0.24508700 -0.05430000 0.08925000
v 0.24508700 -0.05430000 0.08925000
v 0.24793600 -0.05430000 0.09331900
v 0.24793600 -0.05430000 0.09331900
v 0.25144900 -0.05430000 0.09683200
v 0.25144900 -0.05430000 0.09683200
v 0.25551800 -0.05430000 0.09968200
v 0.25551800 -0.05430000 0.09968200
v 0.26002100 -0.05430000 0.10178100
v 0.26002100 -0.05430000 0.10178100
v 0.26481900 -0.05430000 0.10306700
v 0.26481900 -0.05430000 0.10306700
v 0.26976800 -0.05430000 0.10350000
v 0.26976800 -0.05430000 0.10350000
v 0.27471700 -0.05430000 0.10306700
v 0.27471700 -0.05430000 0.10306700
v 0.27951600 -0.05430000 0.10178100
v 0.27951600 -0.05430000 0.10178100
v 0.28401800 -0.05430000 0.09968200
v 0.28401800 -0.05430000 0.09968200
v 0.28808800 -0.05430000 0.09683200
v 0.28808800 -0.05430000 0.09683200
v 0.29160100 -0.05430000 0.09331900
v 0.29160100 -0.05430000 0.09331900
v 0.29445000 -0.05430000 0.08925000
v 0.29445000 -0.05430000 0.08925000
v 0.29655000 -0.05430000 0.08474800
v 0.29655000 -0.05430000 0.08474800
v 0.29783500 -0.05430000 0.07994900
v 0.29783500 -0.05430000 0.07994900
v 0.29826800 -0.05430000 0.07500000
v 0.29826800 -0.05430000 0.07500000
v 0.29783500 -0.05430000 0.07005100
v 0.29783500 -0.05430000 0.07005100
v 0.29655000 -0.05430000 0.06525200
v 0.29655000 -0.05430000 0.06525200
v 0.29445000 -0.05430000 0.06075000
v 0.29445000 -0.05430000 0.06075000
v 0.29160100 -0.05430000 0.05668100
v 0.29160100 -0.05430000 0.05668100
v 0.28808800 -0.05430000 0.05316800
v 0.28808800 -0.05430000 0.05316800
v 0.28401800 -0.05430000 0.05031800
v 0.28401800 -0.05430000 0.05031800
v 0.27951600 -0.05430000 0.04821900
v 0.27951600 -0.05430000 0.04821900
v 0.27471700 -0.05430000 0.04693300
v 0.27471700 -0.05430000 0.04693300
v 0.26976800 -0.05430000 0.04650000
v 0.26976800 -0.05430000 0.04650000
v 0.26481900 -0.05430000 0.04693300
v 0.26481900 -0.05430000 0.04693300
v 0.26002100 -0.05430000 0.04821900
v 0.26002100 -0.05430000 0.04821900
v 0.25551800 -0.05430000 0.05031800
v 0.25551800 -0.05430000 0.05031800
v 0.25144900 -0.05430000 0.05316800
v 0.25144900 -0.05430000 0.05316800
v 0.24793600 -0.05430000 0.05668100
v 0.24793600 -0.05430000 0.05668100
v 0.24508700 -0.05430000 0.06075000
v 0.24508700 -0.05430000 0.06075000
v 0.24298700 -0.05430000 0.06525200
v 0.24298700 -0.05430000 0.06525200
v 0.24170100 -0.05430000 0.07005100
v 0.24170100 -0.05430000 0.07005100
v 0.26237100 -0.00552500 0.05470600
v 0.26237100 -0.00552500 0.05470600
v 0.26237100 -0.00552500 0.05470600
v 0.26179300 -0.00552500 0.05508700
v 0.26179300 -0.00552500 0.05508700
v 0.26144800 -0.00552500 0.05568600
v 0.26144800 -0.00552500 0.05568600
v 0.26140700 -0.00552500 0.05637600
v 0.26140700 -0.00552500 0.05637600
v 0.26140700 -0.00552500 0.05637600
v 0.26168900 -0.00552500 0.05797200
v 0.26168900 -0.00552500 0.05797200
v 0.26168900 -0.00552500 0.05797200
v 0.26167000 -0.00552500 0.05858100
v 0.26167000 -0.00552500 0.05858100
v 0.26141100 -0.00552500 0.05913200
v 0.26141100 -0.00552500 0.05913200
v 0.26095400 -0.00552500 0.05953500
v 0.26095400 -0.00552500 0.05953500
v 0.26095400 -0.00552500 0.05953500
v 0.25796000 -0.00552500 0.06168000
v 0.25796000 -0.00552500 0.06168000
v 0.25547200 -0.00552500 0.06439600
v 0.25547200 -0.00552500 0.06439600
v 0.25359600 -0.00552500 0.06756500
v 0.25359600 -0.00552500 0.06756500
v 0.25241200 -0.00552500 0.07105200
v 0.25241200 -0.00552500 0.07105200
v 0.25197100 -0.00552500 0.07470900
v 0.25197100 -0.00552500 0.07470900
v 0.25229200 -0.00552500 0.07837800
v 0.25229200 -0.00552500 0.07837800
v 0.25336100 -0.00552500 0.08190200
v 0.25336100 -0.00552500 0.08190200
v 0.25513300 -0.00552500 0.08513100
v 0.25513300 -0.00552500 0.08513100
v 0.25753100 -0.00552500 0.08792600
v 0.25753100 -0.00552500 0.08792600
v 0.26045300 -0.00552500 0.09016800
v 0.26045300 -0.00552500 0.09016800
v 0.26377400 -0.00552500 0.09176000
v 0.26377400 -0.00552500 0.09176000
v 0.26377400 -0.00552500 0.09176000
v 0.22962300 -0.00552500 0.05209100
v 0.22962300 -0.00552500 0.05209100
v 0.22962300 -0.00552500 0.05209100
v 0.22732100 -0.00552500 0.05287300
v 0.22732100 -0.00552500 0.05287300
v 0.22542600 -0.00552500 0.05439400
v 0.22542600 -0.00552500 0.05439400
v 0.22416400 -0.00552500 0.05647300
v 0.22416400 -0.00552500 0.05647300
v 0.22369000 -0.00552500 0.05885700
v 0.22369000 -0.00552500 0.05885700
v 0.22369000 -0.00552500 0.05885700
v 0.22303000 -0.00552500 0.08912000
v 0.22303000 -0.00552500 0.08912000
v 0.22303000 -0.00552500 0.08912000
v 0.22340000 -0.00552500 0.09152200
v 0.22340000 -0.00552500 0.09152200
v 0.22457000 -0.00552500 0.09365400
v 0.22457000 -0.00552500 0.09365400
v 0.22639700 -0.00552500 0.09525700
v 0.22639700 -0.00552500 0.09525700
v 0.22866300 -0.00552500 0.09613800
v 0.22866300 -0.00552500 0.09613800
v 0.22866300 -0.00552500 0.09613800
v 0.26416000 -0.00552500 0.10319800
v 0.26416000 -0.00552500 0.10319800
v 0.26416000 -0.00552500 0.10319800
v 0.26914200 -0.00552500 0.10374300
v 0.26914200 -0.00552500 0.10374300
v 0.27414300 -0.00552500 0.10341500
v 0.27414300 -0.00552500 0.10341500
v 0.27901000 -0.00552500 0.10222400
v 0.27901000 -0.00552500 0.10222400
v 0.28359700 -0.00552500 0.10020600
v 0.28359700 -0.00552500 0.10020600
v 0.28776400 -0.00552500 0.09742100
v 0.28776400 -0.00552500 0.09742100
v 0.29138400 -0.00552500 0.09395600
v 0.29138400 -0.00552500 0.09395600
v 0.29434700 -0.00552500 0.08991400
v 0.29434700 -0.00552500 0.08991400
v 0.29656400 -0.00552500 0.08542000
v 0.29656400 -0.00552500 0.08542000
v 0.29796600 -0.00552500 0.08060800
v 0.29796600 -0.00552500 0.08060800
v 0.29851200 -0.00552500 0.07562700
v 0.29851200 -0.00552500 0.07562700
v 0.29818400 -0.00552500 0.07062600
v 0.29818400 -0.00552500 0.07062600
v 0.29699200 -0.00552500 0.06575800
v 0.29699200 -0.00552500 0.06575800
v 0.29497400 -0.00552500 0.06117100
v 0.29497400 -0.00552500 0.06117100
v 0.29219000 -0.00552500 0.05700400
v 0.29219000 -0.00552500 0.05700400
v 0.28872400 -0.00552500 0.05338400
v 0.28872400 -0.00552500 0.05338400
v 0.28468300 -0.00552500 0.05042100
v 0.28468300 -0.00552500 0.05042100
v 0.28018800 -0.00552500 0.04820500
v 0.28018800 -0.00552500 0.04820500
v 0.27537700 -0.00552500 0.04680200
v 0.27537700 -0.00552500 0.04680200
v 0.27039500 -0.00552500 0.04625700
v 0.27039500 -0.00552500 0.04625700
v 0.26539400 -0.00552500 0.04658500
v 0.26539400 -0.00552500 0.04658500
v 0.26539400 -0.00552500 0.04658500
v 0.26640000 -0.00552500 0.05366400
v 0.26640000 -0.00552500 0.05366400
v 0.27055400 -0.00552500 0.05341400
v 0.27055400 -0.00552500 0.05341400
v 0.27467800 -0.00552500 0.05396500
v 0.27467800 -0.00552500 0.05396500
v 0.27862100 -0.00552500 0.05529700
v 0.27862100 -0.00552500 0.05529700
v 0.28223500 -0.00552500 0.05736100
v 0.28223500 -0.00552500 0.05736100
v 0.28538600 -0.00552500 0.06007800
v 0.28538600 -0.00552500 0.06007800
v 0.28795700 -0.00552500 0.06335000
v 0.28795700 -0.00552500 0.06335000
v 0.28985400 -0.00552500 0.06705400
v 0.28985400 -0.00552500 0.06705400
v 0.29100500 -0.00552500 0.07105300
v 0.29100500 -0.00552500 0.07105300
v 0.29136800 -0.00552500 0.07519900
v 0.29136800 -0.00552500 0.07519900
v 0.29092900 -0.00552500 0.07933700
v 0.29092900 -0.00552500 0.07933700
v 0.28970400 -0.00552500 0.08331400
v 0.28970400 -0.00552500 0.08331400
v 0.28774000 -0.00552500 0.08698300
v 0.28774000 -0.00552500 0.08698300
v 0.28510800 -0.00552500 0.09020700
v 0.28510800 -0.00552500 0.09020700
v 0.28190800 -0.00552500 0.09286600
v 0.28190800 -0.00552500 0.09286600
v 0.27825600 -0.00552500 0.09486200
v 0.27825600 -0.00552500 0.09486200
v 0.27429000 -0.00552500 0.09612100
v 0.27429000 -0.00552500 0.09612100
v 0.27015600 -0.00552500 0.09659700
v 0.27015600 -0.00552500 0.09659700
v 0.26600700 -0.00552500 0.09627000
v 0.26600700 -0.00552500 0.09627000
v 0.26600700 -0.00552500 0.09627000
v 0.26537200 -0.00552500 0.09599600
v 0.26537200 -0.00552500 0.09599600
v 0.26492800 -0.00552500 0.09546600
v 0.26492800 -0.00552500 0.09546600
v 0.26476800 -0.00552500 0.09479300
v 0.26476800 -0.00552500 0.09479300
v 0.26476800 -0.00552500 0.09479300
v 0.26476800 -0.00552500 0.09317300
v 0.26476800 -0.00552500 0.09317300
v 0.26476800 -0.00552500 0.09317300
v 0.26464500 -0.00552500 0.09257600
v 0.26464500 -0.00552500 0.09257600
v 0.26429400 -0.00552500 0.09207800
v 0.26429400 -0.00552500 0.09207800
v 0.22962300 -0.00870000 0.05209100
v 0.22962300 -0.00870000 0.05209100
v 0.22962300 -0.00870000 0.05209100
v 0.22732100 -0.00870000 0.05287300
v 0.22732100 -0.00870000 0.05287300
v 0.22542600 -0.00870000 0.05439400
v 0.22542600 -0.00870000 0.05439400
v 0.22416400 -0.00870000 0.05647300
v 0.22416400 -0.00870000 0.05647300
v 0.22369000 -0.00870000 0.05885700
v 0.22369000 -0.00870000 0.05885700
v 0.22369000 -0.00870000 0.05885700
v 0.26539400 -0.00870000 0.04658500
v 0.26539400 -0.00870000 0.04658500
v 0.26539400 -0.00870000 0.04658500
v 0.22303000 -0.00870000 0.08912000
v 0.22303000 -0.00870000 0.08912000
v 0.22303000 -0.00870000 0.08912000
v 0.22340000 -0.00870000 0.09152200
v 0.22340000 -0.00870000 0.09152200
v 0.22457000 -0.00870000 0.09365400
v 0.22457000 -0.00870000 0.09365400
v 0.22639700 -0.00870000 0.09525700
v 0.22639700 -0.00870000 0.09525700
v 0.22866300 -0.00870000 0.09613800
v 0.22866300 -0.00870000 0.09613800
v 0.22866300 -0.00870000 0.09613800
v 0.26416000 -0.00870000 0.10319800
v 0.26416000 -0.00870000 0.10319800
v 0.26416000 -0.00870000 0.10319800
v 0.26914200 -0.00870000 0.10374300
v 0.26914200 -0.00870000 0.10374300
v 0.27414300 -0.00870000 0.10341500
v 0.27414300 -0.00870000 0.10341500
v 0.27901000 -0.00870000 0.10222400
v 0.27901000 -0.00870000 0.10222400
v 0.28359700 -0.00870000 0.10020600
v 0.28359700 -0.00870000 0.10020600
v 0.28776400 -0.00870000 0.09742100
v 0.28776400 -0.00870000 0.09742100
v 0.29138400 -0.00870000 0.09395600
v 0.29138400 -0.00870000 0.09395600
v 0.29434700 -0.00870000 0.08991400
v 0.29434700 -0.00870000 0.08991400
v 0.29656400 -0.00870000 0.08542000
v 0.29656400 -0.00870000 0.08542000
v 0.29796600 -0.00870000 0.08060800
v 0.29796600 -0.00870000 0.08060800
v 0.29851200 -0.00870000 0.07562700
v 0.29851200 -0.00870000 0.07562700
v 0.29818400 -0.00870000 0.07062600
v 0.29818400 -0.00870000 0.07062600
v 0.29699200 -0.00870000 0.06575800
v 0.29699200 -0.00870000 0.06575800
v 0.29497400 -0.00870000 0.06117100
v 0.29497400 -0.00870000 0.06117100
v 0.29219000 -0.00870000 0.05700400
v 0.29219000 -0.00870000 0.05700400
v 0.28872400 -0.00870000 0.05338400
v 0.28872400 -0.00870000 0.05338400
v 0.28468300 -0.00870000 0.05042100
v 0.28468300 -0.00870000 0.05042100
v 0.28018800 -0.00870000 0.04820500
v 0.28018800 -0.00870000 0.04820500
v 0.27537700 -0.00870000 0.04680200
v 0.27537700 -0.00870000 0.04680200
v 0.27039500 -0.00870000 0.04625700
v 0.27039500 -0.00870000 0.04625700
vn 0.00000000 100.00000000 0.00000000
vn 100.00000000 -0.00000000 0.00000000
vn 100.00000000 -0.00000000 0.00000000
vn 97.66205600 -0.00000000 21.49704400
vn 0.00000000 100.00000000 0.00000000
vn 0.00000000 100.00000000 0.00000000
vn 90.75754200 -0.00000000 41.98891000
vn 0.00000000 100.00000000 0.00000000
vn 79.60930700 -0.00000000 60.51742200
vn 0.00000000 100.00000000 0.00000000
vn 64.73862800 -0.00000000 76.21620600
vn 0.00000000 100.00000000 0.00000000
vn 46.84084400 -0.00000000 88.35120400
vn 26.75283400 -0.00000000 96.35499900
vn 0.00000000 100.00000000 0.00000000
vn 5.41389100 -0.00000000 99.85334100
vn 0.00000000 100.00000000 0.00000000
vn 0.00000000 100.00000000 0.00000000
vn -16.17820000 0.00000000 98.68265200
vn 0.00000000 100.00000000 0.00000000
vn -37.01381600 0.00000000 92.89767200
vn -56.11870700 0.00000000 82.76890000
vn 0.00000000 100.00000000 0.00000000
vn -72.59954900 0.00000000 68.76994600
vn 0.00000000 100.00000000 0.00000000
vn 0.00000000 100.00000000 0.00000000
vn -85.68571800 0.00000000 51.55538600
vn 0.00000000 100.00000000 0.00000000
vn -94.76531700 0.00000000 31.93015300
vn 0.00000000 100.00000000 0.00000000
vn -99.41379600 0.00000000 10.81190200
vn -99.41379600 0.00000000 -10.81190200
vn 0.00000000 100.00000000 0.00000000
vn 0.00000000 100.00000000 0.00000000
vn -94.76531700 0.00000000 -31.93015300
vn 0.00000000 100.00000000 0.00000000
vn -85.68571800 0.00000000 -51.55538600
vn -72.59954900 0.00000000 -68.76994600
vn 0.00000000 100.00000000 0.00000000
vn -56.11870700 0.00000000 -82.76890000
vn 0.00000000 100.00000000 0.00000000
vn -37.01381600 0.00000000 -92.89767200
vn 0.00000000 100.00000000 0.00000000
vn 0.00000000 100.00000000 0.00000000
vn -16.17820000 0.00000000 -98.68265200
vn 0.00000000 100.00000000 0.00000000
vn 5.41389100 0.00000000 -99.85334100
vn 0.00000000 100.00000000 0.00000000
vn 26.75283400 0.00000000 -96.35499900
vn 0.00000000 100.00000000 0.00000000
vn 46.84084400 0.00000000 -88.35120400
vn 0.00000000 100.00000000 0.00000000
vn 64.73862800 0.00000000 -76.21620600
vn 79.60930700 0.00000000 -60.51742200
vn 0.00000000 100.00000000 0.00000000
vn 90.75754200 0.00000000 -41.98891000
vn 0.00000000 100.00000000 0.00000000
vn 0.00000000 100.00000000 0.00000000
vn 97.66205600 0.00000000 -21.49704400
vn 100.00000000 -0.00000000 0.00000000
vn -0.00000000 100.00000000 0.00000000
vn 100.00000000 -0.00000000 0.00000000
vn 97.66205600 0.00000000 -21.49704400
vn -0.00000000 100.00000000 0.00000000
vn -0.00000000 100.00000000 0.00000000
vn 90.75754200 0.00000000 -41.98891000
vn 79.60930700 0.00000000 -60.51742200
vn -0.00000000 100.00000000 0.00000000
vn 64.73862800 0.00000000 -76.21620600
vn -0.00000000 100.00000000 0.00000000
vn -0.00000000 100.00000000 0.00000000
vn 46.84084400 0.00000000 -88.35120400
vn -0.00000000 100.00000000 0.00000000
vn 26.75283400 0.00000000 -96.35499900
vn -0.00000000 100.00000000 0.00000000
vn 5.41389100 0.00000000 -99.85334100
vn -0.00000000 100.00000000 0.00000000
vn -16.17820000 0.00000000 -98.68265200
vn -0.00000000 100.00000000 0.00000000
vn -37.01381600 0.00000000 -92.89767200
vn -0.00000000 100.00000000 0.00000000
vn -56.11870700 0.00000000 -82.76890000
vn -0.00000000 100.00000000 0.00000000
vn -72.59954900 0.00000000 -68.76994600
vn -85.68571800 0.00000000 -51.55538600
vn -0.00000000 100.00000000 0.00000000
vn -0.00000000 100.00000000 0.00000000
vn -94.76531700 0.00000000 -31.93015300
vn -99.41379600 0.00000000 -10.81190200
vn -0.00000000 100.00000000 0.00000000
vn -0.00000000 100.00000000 0.00000000
vn -99.41379600 0.00000000 10.81190200
vn -94.76531700 0.00000000 31.93015300
vn -0.00000000 100.00000000 0.00000000
vn -0.00000000 100.00000000 0.00000000
vn -85.68571800 0.00000000 51.55538600
vn -0.00000000 100.00000000 0.00000000
vn -72.59954900 0.00000000 68.76994600
vn -56.11870700 0.00000000 82.76890000
vn -0.00000000 100.00000000 0.00000000
vn -37.01381600 0.00000000 92.89767200
vn -0.00000000 100.00000000 0.00000000
vn -16.17820000 0.00000000 98.68265200
vn -0.00000000 100.00000000 0.00000000
vn 5.41389100 -0.00000000 99.85334100
vn -0.00000000 100.00000000 0.00000000
vn -0.00000000 100.00000000 0.00000000
vn 26.75283400 -0.00000000 96.35499900
vn -0.00000000 100.00000000 0.00000000
vn 46.84084400 -0.00000000 88.35120400
vn 64.73862800 -0.00000000 76.21620600
vn -0.00000000 100.00000000 0.00000000
vn 79.60930700 -0.00000000 60.51742200
vn -0.00000000 100.00000000 0.00000000
vn 90.75754200 -0.00000000 41.98891000
vn -0.00000000 100.00000000 0.00000000
vn -0.00000000 100.00000000 0.00000000
vn 97.66205600 -0.00000000 21.49704400
vn 100.00000000 0.00000000 -0.00000000
vn 100.00000000 0.00000000 -0.00000000
vn -0.00000000 100.00000000 0.00000000
vn 89.37057300 0.00000000 -44.86536300
vn -0.00000000 100.00000000 0.00000000
vn 59.74198500 0.00000000 -80.19286300
vn -0.00000000 100.00000000 0.00000000
vn -0.00000000 100.00000000 0.00000000
vn 17.41293500 0.00000000 -98.47227900
vn 17.41293500 0.00000000 -98.47227900
vn -0.00000000 100.00000000 0.00000000
vn -1.79337400 0.00000000 -99.98391800
vn -20.93311900 0.00000000 -97.78448000
vn -0.00000000 100.00000000 0.00000000
vn -0.00000000 100.00000000 0.00000000
vn -39.29589500 0.00000000 -91.95560100
vn -0.00000000 100.00000000 0.00000000
vn -56.20013600 0.00000000 -82.71363100
vn -0.00000000 100.00000000 0.00000000
vn -71.01841100 0.00000000 -70.40160000
vn -0.00000000 100.00000000 0.00000000
vn -83.20071400 0.00000000 -55.47649200
vn -0.00000000 100.00000000 0.00000000
vn -92.29487800 0.00000000 -38.49227800
vn -97.96335800 0.00000000 -20.07935500
vn -0.00000000 100.00000000 0.00000000
vn -99.99575700 0.00000000 -0.92115300
vn -0.00000000 100.00000000 0.00000000
vn -98.31664100 -0.00000000 18.27124000
vn -0.00000000 100.00000000 0.00000000
vn -92.98833100 -0.00000000 36.78546300
vn -0.00000000 100.00000000 0.00000000
vn -84.20859800 -0.00000000 53.93433100
vn -0.00000000 100.00000000 0.00000000
vn -72.30331600 -0.00000000 69.08133200
vn -0.00000000 100.00000000 0.00000000
vn -0.00000000 100.00000000 0.00000000
vn -57.71437200 -0.00000000 81.66426000
vn -0.00000000 100.00000000 0.00000000
vn -40.98325800 -0.00000000 91.21607600
vn -22.73097900 -0.00000000 97.38225000
vn -0.00000000 100.00000000 0.00000000
vn -0.00000000 100.00000000 0.00000000
vn -3.63500100 -0.00000000 99.93391200
vn -0.00000000 100.00000000 0.00000000
vn 15.59589700 -0.00000000 98.77635400
vn -0.00000000 100.00000000 0.00000000
vn 34.24792500 -0.00000000 93.95253900
vn 34.24792500 -0.00000000 93.95253900
vn 72.75971400 -0.00000000 68.60046600
vn -0.00000000 100.00000000 0.00000000
vn -0.00000000 100.00000000 0.00000000
vn 95.80362100 -0.00000000 28.66472000
vn 98.48077500 0.00000000 -17.36481800
vn -0.00000000 100.00000000 0.00000000
vn 98.48077500 0.00000000 -17.36481800
vn 98.48077500 0.00000000 -17.36481800
vn -0.00000000 100.00000000 0.00000000
vn 98.48077500 0.00000000 -17.36481800
vn -0.00000000 100.00000000 0.00000000
vn 97.26155800 -0.00000000 23.24197600
vn -0.00000000 100.00000000 0.00000000
vn 79.99031000 -0.00000000 60.01291700
vn 49.51747700 -0.00000000 86.87933900
vn 49.51747700 -0.00000000 86.87933900
vn -0.00000000 100.00000000 0.00000000
vn -0.00000000 100.00000000 0.00000000
vn 66.33701300 -0.00000000 74.82914400
vn -0.00000000 100.00000000 0.00000000
vn 80.31663500 -0.00000000 59.57548300
vn 90.85786900 -0.00000000 41.77137200
vn -0.00000000 100.00000000 0.00000000
vn 97.50944300 -0.00000000 22.17901300
vn -0.00000000 100.00000000 0.00000000
vn -0.00000000 100.00000000 0.00000000
vn 99.98659800 -0.00000000 1.63716100
vn -0.00000000 100.00000000 0.00000000
vn 98.18328700 0.00000000 -18.97477900
vn 92.17671000 0.00000000 -38.77440100
vn -0.00000000 100.00000000 0.00000000
vn 82.22401200 0.00000000 -56.91407500
vn -0.00000000 100.00000000 0.00000000
vn 68.75127000 0.00000000 -72.61723500
vn -0.00000000 100.00000000 0.00000000
vn 52.33526000 0.00000000 -85.21162200
vn -0.00000000 100.00000000 0.00000000
vn 33.67875600 0.00000000 -94.15806600
vn 33.67875600 0.00000000 -94.15806600
vn -0.00000000 100.00000000 0.00000000
vn 68.35394400 0.00000000 -72.99135800
vn -0.00000000 100.00000000 0.00000000
vn 91.74800900 0.00000000 -39.77817000
vn -0.00000000 100.00000000 0.00000000
vn 100.00000000 0.00000000 -0.00000000
vn 100.00000000 0.00000000 -0.00000000
vn -0.00000000 100.00000000 0.00000000
vn -100.00000000 -0.00000000 0.00000000
vn -100.00000000 -0.00000000 0.00000000
vn 0.00000000 -100.00000000 -0.00000000
vn -98.48077500 0.00000000 -17.36481800
vn 0.00000000 -100.00000000 -0.00000000
vn 0.00000000 -100.00000000 -0.00000000
vn -93.96926200 0.00000000 -34.20201400
vn 0.00000000 -100.00000000 -0.00000000
vn -86.60254000 0.00000000 -50.00000000
vn -76.60444400 0.00000000 -64.27876100
vn 0.00000000 -100.00000000 -0.00000000
vn -64.27876100 0.00000000 -76.60444400
vn 0.00000000 -100.00000000 -0.00000000
vn -50.00000000 0.00000000 -86.60254000
vn 0.00000000 -100.00000000 -0.00000000
vn 0.00000000 -100.00000000 -0.00000000
vn -34.20201400 0.00000000 -93.96926200
vn -17.36481800 0.00000000 -98.48077500
vn 0.00000000 -100.00000000 -0.00000000
vn -0.00000000 0.00000000 -100.00000000
vn 0.00000000 -100.00000000 -0.00000000
vn 17.36481800 0.00000000 -98.48077500
vn 0.00000000 -100.00000000 -0.00000000
vn 34.20201400 0.00000000 -93.96926200
vn 0.00000000 -100.00000000 -0.00000000
vn 50.00000000 0.00000000 -86.60254000
vn 0.00000000 -100.00000000 -0.00000000
vn 0.00000000 -100.00000000 -0.00000000
vn 64.27876100 0.00000000 -76.60444400
vn 0.00000000 -100.00000000 -0.00000000
vn 76.60444400 0.00000000 -64.27876100
vn 0.00000000 -100.00000000 -0.00000000
vn 86.60254000 0.00000000 -50.00000000
vn 0.00000000 -100.00000000 -0.00000000
vn 93.96926200 0.00000000 -34.20201400
vn 0.00000000 -100.00000000 -0.00000000
vn 98.48077500 0.00000000 -17.36481800
vn 100.00000000 0.00000000 -0.00000000
vn 0.00000000 -100.00000000 -0.00000000
vn 0.00000000 -100.00000000 -0.00000000
vn 98.48077500 -0.00000000 17.36481800
vn 93.96926200 -0.00000000 34.20201400
vn 0.00000000 -100.00000000 -0.00000000
vn 0.00000000 -100.00000000 -0.00000000
vn 86.60254000 -0.00000000 50.00000000
vn 76.60444400 -0.00000000 64.27876100
vn 0.00000000 -100.00000000 -0.00000000
vn 0.00000000 -100.00000000 -0.00000000
vn 64.27876100 -0.00000000 76.60444400
vn 50.00000000 -0.00000000 86.60254000
vn 0.00000000 -100.00000000 -0.00000000
vn 34.20201400 -0.00000000 93.96926200
vn 0.00000000 -100.00000000 -0.00000000
vn 0.00000000 -100.00000000 -0.00000000
vn 17.36481800 -0.00000000 98.48077500
vn 0.00000000 -100.00000000 -0.00000000
vn 0.00000000 -0.00000000 100.00000000
vn -17.36481800 -0.00000000 98.48077500
vn 0.00000000 -100.00000000 -0.00000000
vn -34.20201400 -0.00000000 93.96926200
vn 0.00000000 -100.00000000 -0.00000000
vn 0.00000000 -100.00000000 -0.00000000
vn -50.00000000 -0.00000000 86.60254000
vn -64.27876100 -0.00000000 76.60444400
vn 0.00000000 -100.00000000 -0.00000000
vn 0.00000000 -100.00000000 -0.00000000
vn -76.60444400 -0.00000000 64.27876100
vn 0.00000000 -100.00000000 -0.00000000
vn -86.60254000 -0.00000000 50.00000000
vn 0.00000000 -100.00000000 -0.00000000
vn -93.96926200 -0.00000000 34.20201400
vn 0.00000000 -100.00000000 -0.00000000
vn -98.48077500 -0.00000000 17.36481800
vn -100.00000000 -0.00000000 0.00000000
vn 0.00000000 -100.00000000 -0.00000000
vn -100.00000000 -0.00000000 0.00000000
vn 0.00000000 -100.00000000 -0.00000000
vn -98.48077500 -0.00000000 17.36481800
vn -93.96926200 -0.00000000 34.20201400
vn 0.00000000 -100.00000000 -0.00000000
vn -86.60254000 -0.00000000 50.00000000
vn 0.00000000 -100.00000000 -0.00000000
vn 0.00000000 -100.00000000 -0.00000000
vn -76.60444400 -0.00000000 64.27876100
vn -64.27876100 -0.00000000 76.60444400
vn 0.00000000 -100.00000000 -0.00000000
vn -50.00000000 -0.00000000 86.60254000
vn 0.00000000 -100.00000000 -0.00000000
vn 0.00000000 -100.00000000 -0.00000000
vn -34.20201400 -0.00000000 93.96926200
vn -17.36481800 -0.00000000 98.48077500
vn 0.00000000 -100.00000000 -0.00000000
vn 0.00000000 -0.00000000 100.00000000
vn 0.00000000 -100.00000000 -0.00000000
vn 0.00000000 -100.00000000 -0.00000000
vn 17.36481800 -0.00000000 98.48077500
vn 34.20201400 -0.00000000 93.96926200
vn 0.00000000 -100.00000000 -0.00000000
vn 0.00000000 -100.00000000 -0.00000000
vn 50.00000000 -0.00000000 86.60254000
vn 64.27876100 -0.00000000 76.60444400
vn 0.00000000 -100.00000000 -0.00000000
vn 76.60444400 -0.00000000 64.27876100
vn 0.00000000 -100.00000000 -0.00000000
vn 86.60254000 -0.00000000 50.00000000
vn 0.00000000 -100.00000000 -0.00000000
vn 0.00000000 -100.00000000 -0.00000000
vn 93.96926200 -0.00000000 34.20201400
vn 98.48077500 -0.00000000 17.36481800
vn 0.00000000 -100.00000000 -0.00000000
vn 100.00000000 0.00000000 -0.00000000
vn 0.00000000 -100.00000000 -0.00000000
vn 0.00000000 -100.00000000 -0.00000000
vn 98.48077500 0.00000000 -17.36481800
vn 0.00000000 -100.00000000 -0.00000000
vn 93.96926200 0.00000000 -34.20201400
vn 0.00000000 -100.00000000 -0.00000000
vn 86.60254000 0.00000000 -50.00000000
vn 76.60444400 0.00000000 -64.27876100
vn 0.00000000 -100.00000000 -0.00000000
vn 64.27876100 0.00000000 -76.60444400
vn 0.00000000 -100.00000000 -0.00000000
vn 0.00000000 -100.00000000 -0.00000000
vn 50.00000000 0.00000000 -86.60254000
vn 34.20201400 0.00000000 -93.96926200
vn 0.00000000 -100.00000000 -0.00000000
vn 17.36481800 0.00000000 -98.48077500
vn 0.00000000 -100.00000000 -0.00000000
vn 0.00000000 -100.00000000 -0.00000000
vn -0.00000000 0.00000000 -100.00000000
vn -17.36481800 0.00000000 -98.48077500
vn 0.00000000 -100.00000000 -0.00000000
vn -34.20201400 0.00000000 -93.96926200
vn 0.00000000 -100.00000000 -0.00000000
vn -50.00000000 0.00000000 -86.60254000
vn 0.00000000 -100.00000000 -0.00000000
vn -64.27876100 0.00000000 -76.60444400
vn 0.00000000 -100.00000000 -0.00000000
vn -76.60444400 0.00000000 -64.27876100
vn 0.00000000 -100.00000000 -0.00000000
vn 0.00000000 -100.00000000 -0.00000000
vn -86.60254000 0.00000000 -50.00000000
vn -93.96926200 0.00000000 -34.20201400
vn 0.00000000 -100.00000000 -0.00000000
vn 0.00000000 -100.00000000 -0.00000000
vn -98.48077500 0.00000000 -17.36481800
vn 34.24792500 -0.00000000 93.95253900
vn 34.24792500 -0.00000000 93.95253900
vn -0.00000000 100.00000000 0.00000000
vn -0.00000000 100.00000000 0.00000000
vn 72.75971400 -0.00000000 68.60046600
vn -0.00000000 100.00000000 0.00000000
vn 95.80362100 -0.00000000 28.66472000
vn 98.48077500 0.00000000 -17.36481800
vn 98.48077500 0.00000000 -17.36481800
vn -0.00000000 100.00000000 0.00000000
vn 98.48077500 0.00000000 -17.36481800
vn 98.48077500 0.00000000 -17.36481800
vn -0.00000000 100.00000000 0.00000000
vn -0.00000000 100.00000000 0.00000000
vn 97.26155800 -0.00000000 23.24197600
vn 79.99031000 -0.00000000 60.01291700
vn -0.00000000 100.00000000 0.00000000
vn -0.00000000 100.00000000 0.00000000
vn 49.51747700 -0.00000000 86.87933900
vn 49.51747700 -0.00000000 86.87933900
vn -0.00000000 100.00000000 0.00000000
vn 66.33701300 -0.00000000 74.82914400
vn 80.31663500 -0.00000000 59.57548300
vn -0.00000000 100.00000000 0.00000000
vn -0.00000000 100.00000000 0.00000000
vn 90.85786900 -0.00000000 41.77137200
vn -0.00000000 100.00000000 0.00000000
vn 97.50944300 -0.00000000 22.17901300
vn -0.00000000 100.00000000 0.00000000
vn 99.98659800 -0.00000000 1.63716100
vn -0.00000000 100.00000000 0.00000000
vn 98.18328700 0.00000000 -18.97477900
vn 92.17671000 0.00000000 -38.77440100
vn -0.00000000 100.00000000 0.00000000
vn -0.00000000 100.00000000 0.00000000
vn 82.22401200 0.00000000 -56.91407500
vn 68.75127000 0.00000000 -72.61723500
vn -0.00000000 100.00000000 0.00000000
vn 52.33526000 0.00000000 -85.21162200
vn -0.00000000 100.00000000 0.00000000
vn -0.00000000 100.00000000 0.00000000
vn 33.67875600 0.00000000 -94.15806600
vn 33.67875600 0.00000000 -94.15806600
vn -0.00000000 100.00000000 0.00000000
vn -15.21428500 0.00000000 -98.83585100
vn -15.21428500 0.00000000 -98.83585100
vn -0.00000000 100.00000000 0.00000000
vn -48.10060400 0.00000000 -87.67172800
vn -75.18527900 0.00000000 -65.93310100
vn -0.00000000 100.00000000 0.00000000
vn -93.20150100 0.00000000 -36.24196800
vn -0.00000000 100.00000000 0.00000000
vn -99.97624600 0.00000000 -2.17951900
vn -99.97624600 0.00000000 -2.17951900
vn -0.00000000 100.00000000 0.00000000
vn -0.00000000 100.00000000 0.00000000
vn -99.97624600 0.00000000 -2.17951900
vn -99.97624600 0.00000000 -2.17951900
vn -0.00000000 100.00000000 0.00000000
vn -94.69238000 -0.00000000 32.14581200
vn -77.98721500 -0.00000000 62.59388300
vn -0.00000000 100.00000000 0.00000000
vn -0.00000000 100.00000000 0.00000000
vn -51.87564200 -0.00000000 85.49220900
vn -0.00000000 100.00000000 0.00000000
vn -19.50710000 -0.00000000 98.07891200
vn -19.50710000 -0.00000000 98.07891200
vn -19.50710000 -0.00000000 98.07891200
vn -0.00000000 100.00000000 0.00000000
vn -19.50710000 -0.00000000 98.07891200
vn -2.17951900 -0.00000000 99.97624600
vn -0.00000000 100.00000000 0.00000000
vn 15.21428500 -0.00000000 98.83585100
vn -0.00000000 100.00000000 0.00000000
vn -0.00000000 100.00000000 0.00000000
vn 32.14581200 -0.00000000 94.69238000
vn -0.00000000 100.00000000 0.00000000
vn 48.10060400 -0.00000000 87.67172800
vn -0.00000000 100.00000000 0.00000000
vn 62.59388300 -0.00000000 77.98721500
vn 75.18527900 -0.00000000 65.93310100
vn -0.00000000 100.00000000 0.00000000
vn 85.49220900 -0.00000000 51.87564200
vn -0.00000000 100.00000000 0.00000000
vn 93.20150100 -0.00000000 36.24196800
vn -0.00000000 100.00000000 0.00000000
vn -0.00000000 100.00000000 0.00000000
vn 98.07891200 -0.00000000 19.50710000
vn 99.97624600 -0.00000000 2.17951900
vn -0.00000000 100.00000000 0.00000000
vn 98.83585100 0.00000000 -15.21428500
vn -0.00000000 100.00000000 0.00000000
vn 94.69238000 0.00000000 -32.14581200
vn -0.00000000 100.00000000 0.00000000
vn 87.67172800 0.00000000 -48.10060400
vn -0.00000000 100.00000000 0.00000000
vn 77.98721500 0.00000000 -62.59388300
vn -0.00000000 100.00000000 0.00000000
vn 65.93310100 0.00000000 -75.18527900
vn -0.00000000 100.00000000 0.00000000
vn 51.87564200 0.00000000 -85.49220900
vn -0.00000000 100.00000000 0.00000000
vn -0.00000000 100.00000000 0.00000000
vn 36.24196800 0.00000000 -93.20150100
vn -0.00000000 100.00000000 0.00000000
vn 19.50710000 0.00000000 -98.07891200
vn -0.00000000 100.00000000 0.00000000
vn 2.17951900 0.00000000 -99.97624600
vn -0.00000000 100.00000000 0.00000000
vn -15.21428500 0.00000000 -98.83585100
vn -15.21428500 0.00000000 -98.83585100
vn -0.00000000 100.00000000 0.00000000
vn 15.59589700 -0.00000000 98.77635400
vn -0.00000000 100.00000000 0.00000000
vn -3.63500100 -0.00000000 99.93391200
vn -0.00000000 100.00000000 0.00000000
vn -22.73097900 -0.00000000 97.38225000
vn -40.98325800 -0.00000000 91.21607600
vn -0.00000000 100.00000000 0.00000000
vn -0.00000000 100.00000000 0.00000000
vn -57.71437200 -0.00000000 81.66426000
vn -0.00000000 100.00000000 0.00000000
vn -72.30331600 -0.00000000 69.08133200
vn -0.00000000 100.00000000 0.00000000
vn -84.20859800 -0.00000000 53.93433100
vn -92.98833100 -0.00000000 36.78546300
vn -0.00000000 100.00000000 0.00000000
vn -0.00000000 100.00000000 0.00000000
vn -98.31664100 -0.00000000 18.27124000
vn -99.99575700 0.00000000 -0.92115300
vn -0.00000000 100.00000000 0.00000000
vn -97.96335800 0.00000000 -20.07935500
vn -0.00000000 100.00000000 0.00000000
vn -0.00000000 100.00000000 0.00000000
vn -92.29487800 0.00000000 -38.49227800
vn -0.00000000 100.00000000 0.00000000
vn -83.20071400 0.00000000 -55.47649200
vn -71.01841100 0.00000000 -70.40160000
vn -0.00000000 100.00000000 0.00000000
vn -0.00000000 100.00000000 0.00000000
vn -56.20013600 0.00000000 -82.71363100
vn -39.29589500 0.00000000 -91.95560100
vn -0.00000000 100.00000000 0.00000000
vn -0.00000000 100.00000000 0.00000000
vn -20.93311900 0.00000000 -97.78448000
vn -1.79337400 0.00000000 -99.98391800
vn -0.00000000 100.00000000 0.00000000
vn 17.41293500 0.00000000 -98.47227900
vn 17.41293500 0.00000000 -98.47227900
vn -0.00000000 100.00000000 0.00000000
vn -0.00000000 100.00000000 0.00000000
vn 59.74198500 0.00000000 -80.19286300
vn 89.37057300 0.00000000 -44.86536300
vn -0.00000000 100.00000000 0.00000000
vn -0.00000000 100.00000000 0.00000000
vn 100.00000000 0.00000000 -0.00000000
vn 100.00000000 0.00000000 -0.00000000
vn 100.00000000 0.00000000 -0.00000000
vn -0.00000000 100.00000000 0.00000000
vn 100.00000000 0.00000000 -0.00000000
vn -0.00000000 100.00000000 0.00000000
vn 91.74800900 0.00000000 -39.77817000
vn -0.00000000 100.00000000 0.00000000
vn 68.35394400 0.00000000 -72.99135800
vn -15.21428500 0.00000000 -98.83585100
vn -15.21428500 0.00000000 -98.83585100
vn 0.00000000 -100.00000000 -0.00000000
vn 0.00000000 -100.00000000 -0.00000000
vn -48.10060400 0.00000000 -87.67172800
vn 0.00000000 -100.00000000 -0.00000000
vn -75.18527900 0.00000000 -65.93310100
vn -93.20150100 0.00000000 -36.24196800
vn 0.00000000 -100.00000000 -0.00000000
vn -99.97624600 0.00000000 -2.17951900
vn -99.97624600 0.00000000 -2.17951900
vn 0.00000000 -100.00000000 -0.00000000
vn -15.21428500 0.00000000 -98.83585100
vn -15.21428500 0.00000000 -98.83585100
vn 0.00000000 -100.00000000 -0.00000000
vn 0.00000000 -100.00000000 -0.00000000
vn -99.97624600 0.00000000 -2.17951900
vn -99.97624600 0.00000000 -2.17951900
vn 0.00000000 -100.00000000 -0.00000000
vn -94.69238000 -0.00000000 32.14581200
vn 0.00000000 -100.00000000 -0.00000000
vn -77.98721500 -0.00000000 62.59388300
vn -51.87564200 -0.00000000 85.49220900
vn 0.00000000 -100.00000000 -0.00000000
vn -19.50710000 -0.00000000 98.07891200
vn 0.00000000 -100.00000000 -0.00000000
vn -19.50710000 -0.00000000 98.07891200
vn -19.50710000 -0.00000000 98.07891200
vn -19.50710000 -0.00000000 98.07891200
vn 0.00000000 -100.00000000 -0.00000000
vn -2.17951900 -0.00000000 99.97624600
vn 0.00000000 -100.00000000 -0.00000000
vn 0.00000000 -100.00000000 -0.00000000
vn 15.21428500 -0.00000000 98.83585100
vn 32.14581200 -0.00000000 94.69238000
vn 0.00000000 -100.00000000 -0.00000000
vn 48.10060400 -0.00000000 87.67172800
vn 0.00000000 -100.00000000 -0.00000000
vn 62.59388300 -0.00000000 77.98721500
vn 0.00000000 -100.00000000 -0.00000000
vn 75.18527900 -0.00000000 65.93310100
vn 0.00000000 -100.00000000 -0.00000000
vn 0.00000000 -100.00000000 -0.00000000
vn 85.49220900 -0.00000000 51.87564200
vn 0.00000000 -100.00000000 -0.00000000
vn 93.20150100 -0.00000000 36.24196800
vn 0.00000000 -100.00000000 -0.00000000
vn 98.07891200 -0.00000000 19.50710000
vn 0.00000000 -100.00000000 -0.00000000
vn 99.97624600 -0.00000000 2.17951900
vn 0.00000000 -100.00000000 -0.00000000
vn 98.83585100 0.00000000 -15.21428500
vn 94.69238000 0.00000000 -32.14581200
vn 0.00000000 -100.00000000 -0.00000000
vn 87.67172800 0.00000000 -48.10060400
vn 0.00000000 -100.00000000 -0.00000000
vn 77.98721500 0.00000000 -62.59388300
vn 0.00000000 -100.00000000 -0.00000000
vn 65.93310100 0.00000000 -75.18527900
vn 0.00000000 -100.00000000 -0.00000000
vn 51.87564200 0.00000000 -85.49220900
vn 0.00000000 -100.00000000 -0.00000000
vn 36.24196800 0.00000000 -93.20150100
vn 0.00000000 -100.00000000 -0.00000000
vn 0.00000000 -100.00000000 -0.00000000
vn 19.50710000 0.00000000 -98.07891200
vn 2.17951900 0.00000000 -99.97624600
vn 0.00000000 -100.00000000 -0.00000000
vt -1.75000000 0.00000000
vt -0.57498000 5.49778700
vt -0.57498000 -5.49778700
vt -0.57498000 5.11862900
vt -1.70908600 0.37619800
vt -1.58825700 0.73480600
vt -0.57498000 4.73947200
vt -1.39316300 1.05905500
vt -0.57498000 4.36031400
vt -1.13292600 1.33378400
vt -0.57498000 3.98115600
vt -0.81971500 1.54614600
vt -0.57498000 3.60199800
vt -0.57498000 3.22284100
vt -0.46817500 1.68621200
vt -0.57498000 2.84368300
vt -0.09474300 1.74743300
vt 0.28311800 1.72694600
vt -0.57498000 2.46452500
vt 0.64774200 1.62570900
vt -0.57498000 2.08536800
vt -0.57498000 1.70621000
vt 0.98207700 1.44845600
vt -0.57498000 1.32705200
vt 1.27049200 1.20347400
vt 1.49950000 0.90221900
vt -0.57498000 0.94789400
vt 1.65839300 0.55877800
vt -0.57498000 0.56873700
vt 1.73974100 0.18920800
vt -0.57498000 0.18957900
vt -0.57498000 -0.18957900
vt 1.73974100 -0.18920800
vt 1.65839300 -0.55877800
vt -0.57498000 -0.56873700
vt 1.49950000 -0.90221900
vt -0.57498000 -0.94789400
vt -0.57498000 -1.32705200
vt 1.27049200 -1.20347400
vt -0.57498000 -1.70621000
vt 0.98207700 -1.44845600
vt -0.57498000 -2.08536800
vt 0.64774200 -1.62570900
vt 0.28311800 -1.72694600
vt -0.57498000 -2.46452500
vt -0.09474300 -1.74743300
vt -0.57498000 -2.84368300
vt -0.46817500 -1.68621200
vt -0.57498000 -3.22284100
vt -0.81971500 -1.54614600
vt -0.57498000 -3.60199800
vt -1.13292600 -1.33378400
vt -0.57498000 -3.98115600
vt -0.57498000 -4.36031400
vt -1.39316300 -1.05905500
vt -0.57498000 -4.73947200
vt -1.58825700 -0.73480600
vt -1.70908600 -0.37619800
vt -0.57498000 -5.11862900
vt -0.00000000 5.49778700
vt -1.75000000 0.00000000
vt -0.00000000 -5.49778700
vt -0.00000000 -5.11862900
vt -1.70908600 -0.37619800
vt -1.58825700 -0.73480600
vt -0.00000000 -4.73947200
vt -0.00000000 -4.36031400
vt -1.39316300 -1.05905500
vt -0.00000000 -3.98115600
vt -1.13292600 -1.33378400
vt -0.81971500 -1.54614600
vt -0.00000000 -3.60199800
vt -0.46817500 -1.68621200
vt -0.00000000 -3.22284100
vt -0.09474300 -1.74743300
vt -0.00000000 -2.84368300
vt 0.28311800 -1.72694600
vt -0.00000000 -2.46452500
vt 0.64774200 -1.62570900
vt -0.00000000 -2.08536800
vt 0.98207700 -1.44845600
vt -0.00000000 -1.70621000
vt 1.27049200 -1.20347400
vt -0.00000000 -1.32705200
vt -0.00000000 -0.94789400
vt 1.49950000 -0.90221900
vt 1.65839300 -0.55877800
vt -0.00000000 -0.56873700
vt -0.00000000 -0.18957900
vt 1.73974100 -0.18920800
vt 1.73974100 0.18920800
vt 0.00000000 0.18957900
vt 0.00000000 0.56873700
vt 1.65839300 0.55877800
vt 1.49950000 0.90221900
vt 0.00000000 0.94789400
vt 1.27049200 1.20347400
vt 0.00000000 1.32705200
vt 0.00000000 1.70621000
vt 0.98207700 1.44845600
vt 0.00000000 2.08536800
vt 0.64774200 1.62570900
vt 0.00000000 2.46452500
vt 0.28311800 1.72694600
vt 0.00000000 2.84368300
vt -0.09474300 1.74743300
vt -0.46817500 1.68621200
vt 0.00000000 3.22284100
vt -0.81971500 1.54614600
vt 0.00000000 3.60199800
vt 0.00000000 3.98115600
vt -1.13292600 1.33378400
vt 0.00000000 4.36031400
vt -1.39316300 1.05905500
vt 0.00000000 4.73947200
vt -1.58825700 0.73480600
vt -1.70908600 0.37619800
vt 0.00000000 5.11862900
vt 0.31750000 0.10468300
vt -0.12204000 0.31750000
vt 0.50000000 1.97929300
vt 0.31750000 0.03489400
vt 0.48405600 2.04659100
vt 0.31750000 -0.03489400
vt 0.43961300 2.09958200
vt 0.37611900 2.12700100
vt 0.31750000 -0.10468300
vt 0.31750000 3.95946200
vt -0.03873700 2.15965300
vt 0.31750000 3.54267700
vt 0.31750000 3.12589100
vt -0.45215500 2.11214500
vt -0.84879100 1.98624100
vt 0.31750000 2.70910600
vt -1.21392300 1.78661400
vt 0.31750000 2.29232000
vt -1.53399800 1.52067500
vt 0.31750000 1.87553500
vt -1.79713500 1.19829200
vt 0.31750000 1.45874900
vt -1.99356900 0.83143300
vt 0.31750000 1.04196400
vt 0.31750000 0.62517800
vt -2.11600900 0.43371400
vt 0.31750000 0.20839300
vt -2.15990800 0.01989700
vt 0.31750000 -0.20839300
vt -2.12363900 -0.39465900
vt 0.31750000 -0.62517800
vt -2.00854800 -0.79456600
vt 0.31750000 -1.04196400
vt -1.81890600 -1.16498200
vt 0.31750000 -1.45874900
vt -1.56175200 -1.49215700
vt -1.24663000 -1.76394800
vt 0.31750000 -1.87553500
vt -0.88523800 -1.97026700
vt 0.31750000 -2.29232000
vt 0.31750000 -2.70910600
vt -0.49098900 -2.10345700
vt -0.07851600 -2.15857200
vt 0.31750000 -3.12589100
vt 0.33687100 -2.13356900
vt 0.31750000 -3.54267700
vt 0.73975500 -2.02937500
vt 0.31750000 -3.95946200
vt 0.31750000 0.10468300
vt 0.31750000 0.03489400
vt 0.79752300 -1.99134700
vt 0.83208900 -1.93144300
vt 0.31750000 -0.03489400
vt 0.31750000 -0.10468300
vt 0.83610400 -1.86239900
vt -0.27096000 0.31750000
vt -0.10891800 0.31750000
vt 0.80796600 -1.70281800
vt 0.31750000 0.09204700
vt 0.80979500 -1.64190800
vt 0.31750000 0.03068200
vt 0.83570200 -1.58675200
vt 0.31750000 -0.03068200
vt 0.31750000 1.87391300
vt 0.31750000 -0.09204700
vt 0.88141100 -1.54645200
vt 1.18079900 -1.33195900
vt 0.31750000 1.50495900
vt 1.42963600 -1.06044400
vt 0.31750000 1.13600500
vt 0.31750000 0.76705100
vt 1.61727000 -0.74353000
vt 0.31750000 0.39809700
vt 1.73566800 -0.39478600
vt 1.77976100 -0.02914100
vt 0.31750000 0.02914300
vt 1.74766300 0.33775100
vt 0.31750000 -0.33981100
vt 0.31750000 -0.70876500
vt 1.64074500 0.69018400
vt 0.31750000 -1.07772000
vt 1.46358700 1.01307100
vt 0.31750000 -1.44667400
vt 1.22377300 1.29258700
vt 0.31750000 -1.81562800
vt 0.93156800 1.51676700
vt 0.31750000 -2.18458200
vt -0.31750000 -0.09204700
vt 0.59948200 1.67601400
vt -0.31750000 -0.03068200
vt 0.54746900 1.70776400
vt -0.31750000 0.03068200
vt 0.51237800 1.75758300
vt -0.28408200 0.31750000
vt -0.31750000 0.09204700
vt 0.50000000 1.81725100
vt -0.00000000 8.95353900
vt -0.00000000 -8.95353900
vt -1.94419900 -0.00000000
vt -0.00000000 -8.45612000
vt -1.90090100 -0.49489700
vt -1.77232300 -0.97475700
vt -0.00000000 -7.95870100
vt -1.56237100 -1.42500000
vt 0.00000000 -7.46128300
vt 0.00000000 -6.96386400
vt -1.27742500 -1.83194500
vt -0.00000000 -6.46644500
vt -0.92614300 -2.18322700
vt -0.00000000 -5.96902600
vt -0.51919900 -2.46817200
vt -0.06895600 -2.67812400
vt -0.00000000 -5.47160700
vt 0.00000000 -4.97418800
vt 0.41090400 -2.80670200
vt 0.00000000 -4.47677000
vt 0.90580100 -2.85000000
vt 0.00000000 -3.97935100
vt 1.40069900 -2.80670200
vt -0.00000000 -3.48193200
vt 1.88055900 -2.67812400
vt 0.00000000 -2.98451300
vt 2.33080100 -2.46817200
vt 2.73774600 -2.18322700
vt 0.00000000 -2.48709400
vt 3.08902800 -1.83194500
vt -0.00000000 -1.98967500
vt 3.37397400 -1.42500000
vt 0.00000000 -1.49225700
vt 3.58392500 -0.97475700
vt -0.00000000 -0.99483800
vt 3.71250300 -0.49489700
vt 0.00000000 -0.49741900
vt 0.00000000 -0.00000000
vt 3.75580100 -0.00000000
vt 3.71250300 0.49489700
vt 0.00000000 0.49741900
vt 0.00000000 0.99483800
vt 3.58392500 0.97475700
vt 3.37397400 1.42500000
vt -0.00000000 1.49225700
vt -0.00000000 1.98967500
vt 3.08902800 1.83194500
vt 2.73774600 2.18322700
vt 0.00000000 2.48709400
vt 0.00000000 2.98451300
vt 2.33080100 2.46817200
vt 0.00000000 3.48193200
vt 1.88055900 2.67812400
vt 1.40069900 2.80670200
vt -0.00000000 3.97935100
vt 0.90580100 2.85000000
vt -0.00000000 4.47677000
vt -0.00000000 4.97418800
vt 0.41090400 2.80670200
vt 0.00000000 5.47160700
vt -0.06895600 2.67812400
vt -0.51919900 2.46817200
vt -0.00000000 5.96902600
vt -0.00000000 6.46644500
vt -0.92614300 2.18322700
vt -1.27742500 1.83194500
vt 0.00000000 6.96386400
vt -1.56237100 1.42500000
vt -0.00000000 7.46128300
vt -1.77232300 0.97475700
vt 0.00000000 7.95870100
vt -1.90090100 0.49489700
vt -0.00000000 8.45612000
vt -4.56000000 -8.95353900
vt -2.85000000 -0.00000000
vt -4.56000000 8.95353900
vt -2.80670200 0.49489700
vt -4.56000000 8.45612000
vt -4.56000000 7.95870100
vt -2.67812400 0.97475700
vt -4.56000000 7.46128300
vt -2.46817200 1.42500000
vt -2.18322700 1.83194500
vt -4.56000000 6.96386400
vt -4.56000000 6.46644500
vt -1.83194500 2.18322700
vt -4.56000000 5.96902600
vt -1.42500000 2.46817200
vt -0.97475700 2.67812400
vt -4.56000000 5.47160700
vt -4.56000000 4.97418800
vt -0.49489700 2.80670200
vt -4.56000000 4.47677000
vt -0.00000000 2.85000000
vt 0.49489700 2.80670200
vt -4.56000000 3.97935100
vt -4.56000000 3.48193200
vt 0.97475700 2.67812400
vt 1.42500000 2.46817200
vt -4.56000000 2.98451300
vt -4.56000000 2.48709400
vt 1.83194500 2.18322700
vt -4.56000000 1.98967500
vt 2.18322700 1.83194500
vt -4.56000000 1.49225700
vt 2.46817200 1.42500000
vt 2.67812400 0.97475700
vt -4.56000000 0.99483800
vt -4.56000000 0.49741900
vt 2.80670200 0.49489700
vt -4.56000000 0.00000000
vt 2.85000000 -0.00000000
vt 2.80670200 -0.49489700
vt -4.56000000 -0.49741900
vt 2.67812400 -0.97475700
vt -4.56000000 -0.99483800
vt 2.46817200 -1.42500000
vt -4.56000000 -1.49225700
vt -4.56000000 -1.98967500
vt 2.18322700 -1.83194500
vt -4.56000000 -2.48709400
vt 1.83194500 -2.18322700
vt 1.42500000 -2.46817200
vt -4.56000000 -2.98451300
vt -4.56000000 -3.48193200
vt 0.97475700 -2.67812400
vt -4.56000000 -3.97935100
vt 0.49489700 -2.80670200
vt 0.00000000 -2.85000000
vt -4.56000000 -4.47677000
vt -4.56000000 -4.97418800
vt -0.49489700 -2.80670200
vt -4.56000000 -5.47160700
vt -0.97475700 -2.67812400
vt -4.56000000 -5.96902600
vt -1.42500000 -2.46817200
vt -4.56000000 -6.46644500
vt -1.83194500 -2.18322700
vt -4.56000000 -6.96386400
vt -2.18322700 -1.83194500
vt -2.46817200 -1.42500000
vt -4.56000000 -7.46128300
vt -4.56000000 -7.95870100
vt -2.67812400 -0.97475700
vt -2.80670200 -0.49489700
vt -4.56000000 -8.45612000
vt 0.00000000 -3.95946200
vt 0.00000000 0.10468300
vt -0.16604600 -2.02937500
vt -0.10827800 -1.99134700
vt -0.00000000 0.03489400
vt -0.07371200 -1.93144300
vt -0.00000000 -0.03489400
vt -0.00000000 -0.10468300
vt -0.27096000 -0.00000000
vt -0.06969700 -1.86239900
vt -0.10891800 -0.00000000
vt 0.00000000 0.09204700
vt -0.09783500 -1.70281800
vt -0.09600600 -1.64190800
vt 0.00000000 0.03068200
vt -0.00000000 -0.03068200
vt -0.07009900 -1.58675200
vt -0.02439000 -1.54645200
vt 0.00000000 1.87391300
vt 0.00000000 -0.09204700
vt 0.27499800 -1.33195900
vt -0.00000000 1.50495900
vt -0.00000000 1.13600500
vt 0.52383500 -1.06044400
vt 0.71146900 -0.74353000
vt 0.00000000 0.76705100
vt 0.82986700 -0.39478600
vt -0.00000000 0.39809700
vt 0.87396000 -0.02914100
vt -0.00000000 0.02914300
vt 0.84186100 0.33775100
vt -0.00000000 -0.33981100
vt 0.00000000 -0.70876500
vt 0.73494400 0.69018400
vt 0.55778600 1.01307100
vt -0.00000000 -1.07772000
vt -0.00000000 -1.44667400
vt 0.31797100 1.29258700
vt 0.00000000 -1.81562800
vt 0.02576600 1.51676700
vt -0.30631900 1.67601400
vt 0.00000000 -2.18458200
vt 0.00000000 -0.09204700
vt 3.10869200 -2.29089300
vt 0.00000000 0.48869200
vt 0.58737000 0.00000000
vt 3.33889600 -2.21274400
vt -0.00000000 0.24434600
vt -0.00000000 0.00000000
vt 3.52848900 -2.06057400
vt -0.00000000 -0.24434600
vt 3.65460300 -1.85273600
vt 0.00000000 -0.48869200
vt 3.61434300 0.00000000
vt 3.70202600 -1.61429900
vt 3.76799900 1.41195600
vt 0.00000000 0.48869200
vt 0.58737000 0.00000000
vt 3.73101200 1.65223300
vt -0.00000000 0.24434600
vt -0.00000000 -0.00000000
vt 3.61407600 1.86536900
vt 3.43129500 2.02565800
vt -0.00000000 -0.24434600
vt 3.20471500 2.11376500
vt -0.00000000 -0.48869200
vt 3.61921600 -0.00000000
vt -0.00000000 5.01782200
vt -0.34497200 2.81976900
vt 0.00000000 0.00000000
vt 0.00000000 4.51603900
vt -0.84314000 2.87431700
vt -0.00000000 4.01425700
vt -1.34321200 2.84153100
vt -1.82999300 2.72240600
vt -0.00000000 3.51247500
vt -2.28869400 2.52056200
vt -0.00000000 3.01069300
vt -2.70537500 2.24213200
vt 0.00000000 2.50891100
vt -0.00000000 2.00712900
vt -3.06737800 1.89557700
vt 0.00000000 1.50534600
vt -3.36370200 1.49142500
vt -0.00000000 1.00356400
vt -3.58534400 1.04195700
vt -3.72557000 0.56082900
vt 0.00000000 0.50178200
vt 0.00000000 0.00000000
vt -3.78011800 0.06266100
vt 0.00000000 -0.50178200
vt -3.74733200 -0.43741100
vt -0.00000000 -1.00356400
vt -3.62820700 -0.92419200
vt -0.00000000 -1.50534600
vt -3.42636300 -1.38289200
vt -0.00000000 -2.00712900
vt -3.14793400 -1.79957400
vt 0.00000000 -2.50891100
vt -2.80137800 -2.16157700
vt -0.00000000 -3.01069300
vt -2.39722600 -2.45790100
vt -1.94775800 -2.67954300
vt 0.00000000 -3.51247500
vt -1.46663000 -2.81976900
vt -0.00000000 -4.01425700
vt -0.96846200 -2.87431700
vt -0.00000000 -4.51603900
vt -0.46839100 -2.84153100
vt 4.20658500 -0.00000000
vt -0.00000000 -5.01782200
vt -0.56893000 -2.13356900
vt 0.00000000 -3.54267700
vt -0.98431700 -2.15857200
vt 0.00000000 -3.12589100
vt -1.39679000 -2.10345700
vt -0.00000000 -2.70910600
vt -0.00000000 -2.29232000
vt -1.79104000 -1.97026700
vt -2.15243200 -1.76394800
vt 0.00000000 -1.87553500
vt -2.46755300 -1.49215700
vt 0.00000000 -1.45874900
vt -2.72470700 -1.16498200
vt -0.00000000 -1.04196400
vt -0.00000000 -0.62517800
vt -2.91434900 -0.79456600
vt -3.02944100 -0.39465900
vt 0.00000000 -0.20839300
vt 0.00000000 0.20839300
vt -3.06571000 0.01989700
vt -0.00000000 0.62517800
vt -3.02181000 0.43371400
vt -2.89937100 0.83143300
vt -0.00000000 1.04196400
vt -2.70293700 1.19829200
vt -0.00000000 1.45874900
vt 0.00000000 1.87553500
vt -2.43979900 1.52067500
vt -2.11972400 1.78661400
vt 0.00000000 2.29232000
vt -0.00000000 2.70910600
vt -1.75459300 1.98624100
vt -1.35795700 2.11214500
vt 0.00000000 3.12589100
vt -0.00000000 3.54267700
vt -0.94453800 2.15965300
vt 0.00000000 -0.10468300
vt 0.00000000 3.95946200
vt -0.52968200 2.12700100
vt -0.46618800 2.09958200
vt 0.00000000 -0.03489400
vt 0.00000000 0.03489400
vt -0.42174500 2.04659100
vt -0.40580100 1.97929300
vt -0.12204000 -0.00000000
vt -0.00000000 0.10468300
vt -0.00000000 0.09204700
vt -0.40580100 1.81725100
vt -0.28408200 0.00000000
vt -0.39342300 1.75758300
vt 0.00000000 0.03068200
vt -0.35833200 1.70776400
vt -0.00000000 -0.03068200
vt 0.58737000 0.31750000
vt -0.31750000 0.48869200
vt -3.10869200 -2.29089300
vt -3.33889600 -2.21274400
vt -0.31750000 0.24434600
vt -3.52848900 -2.06057400
vt -0.31750000 0.00000000
vt -0.31750000 -0.24434600
vt -3.65460300 -1.85273600
vt -0.31750000 -0.48869200
vt 3.61434300 0.31750000
vt -3.70202600 -1.61429900
vt 4.20658500 0.31750000
vt -0.31750000 -5.01782200
vt 0.46839100 -2.84153100
vt -3.76799900 1.41195600
vt -0.31750000 0.48869200
vt 0.58737000 0.31750000
vt -3.73101200 1.65223300
vt -0.31750000 0.24434600
vt -3.61407600 1.86536900
vt -0.31750000 -0.00000000
vt -0.31750000 -0.24434600
vt -3.43129500 2.02565800
vt 3.61921600 0.31750000
vt -3.20471500 2.11376500
vt -0.31750000 -0.48869200
vt 0.00000000 0.31750000
vt -0.31750000 5.01782200
vt 0.34497200 2.81976900
vt -0.31750000 4.51603900
vt 0.84314000 2.87431700
vt 1.34321200 2.84153100
vt -0.31750000 4.01425700
vt -0.31750000 3.51247500
vt 1.82999300 2.72240600
vt -0.31750000 3.01069300
vt 2.28869400 2.52056200
vt -0.31750000 2.50891100
vt 2.70537500 2.24213200
vt -0.31750000 2.00712900
vt 3.06737800 1.89557700
vt 3.36370200 1.49142500
vt -0.31750000 1.50534600
vt 3.58534400 1.04195700
vt -0.31750000 1.00356400
vt 3.72557000 0.56082900
vt -0.31750000 0.50178200
vt 3.78011800 0.06266100
vt -0.31750000 0.00000000
vt 3.74733200 -0.43741100
vt -0.31750000 -0.50178200
vt -0.31750000 -1.00356400
vt 3.62820700 -0.92419200
vt -0.31750000 -1.50534600
vt 3.42636300 -1.38289200
vt -0.31750000 -2.00712900
vt 3.14793400 -1.79957400
vt -0.31750000 -2.50891100
vt 2.80137800 -2.16157700
vt -0.31750000 -3.01069300
vt 2.39722600 -2.45790100
vt -0.31750000 -3.51247500
vt 1.94775800 -2.67954300
vt 1.46663000 -2.81976900
vt -0.31750000 -4.01425700
vt -0.31750000 -4.51603900
vt 0.96846200 -2.87431700
f 4/4/4 118/118/118 2/2/2
f 2/2/2 118/118/118 60/60/60
f 3/3/3 62/62/62 59/59/59
f 59/59/59 62/62/62 63/63/63
f 59/59/59 63/63/63 66/66/66
f 4/4/4 7/7/7 118/118/118
f 118/118/118 7/7/7 115/115/115
f 115/115/115 7/7/7 9/9/9
f 115/115/115 9/9/9 113/113/113
f 113/113/113 9/9/9 11/11/11
f 113/113/113 11/11/11 111/111/111
f 111/111/111 11/11/11 13/13/13
f 111/111/111 13/13/13 110/110/110
f 110/110/110 13/13/13 14/14/14
f 110/110/110 14/14/14 108/108/108
f 108/108/108 14/14/14 16/16/16
f 108/108/108 16/16/16 105/105/105
f 105/105/105 16/16/16 19/19/19
f 105/105/105 19/19/19 103/103/103
f 103/103/103 19/19/19 21/21/21
f 103/103/103 21/21/21 101/101/101
f 101/101/101 21/21/21 22/22/22
f 101/101/101 22/22/22 99/99/99
f 99/99/99 22/22/22 24/24/24
f 99/99/99 24/24/24 98/98/98
f 98/98/98 24/24/24 27/27/27
f 98/98/98 27/27/27 96/96/96
f 96/96/96 27/27/27 29/29/29
f 96/96/96 29/29/29 93/93/93
f 93/93/93 29/29/29 31/31/31
f 93/93/93 31/31/31 92/92/92
f 92/92/92 31/31/31 32/32/32
f 92/92/92 32/32/32 89/89/89
f 89/89/89 32/32/32 35/35/35
f 89/89/89 35/35/35 88/88/88
f 88/88/88 35/35/35 37/37/37
f 88/88/88 37/37/37 85/85/85
f 85/85/85 37/37/37 38/38/38
f 85/85/85 38/38/38 84/84/84
f 84/84/84 38/38/38 40/40/40
f 84/84/84 40/40/40 82/82/82
f 82/82/82 40/40/40 42/42/42
f 82/82/82 42/42/42 80/80/80
f 80/80/80 42/42/42 45/45/45
f 80/80/80 45/45/45 78/78/78
f 78/78/78 45/45/45 47/47/47
f 78/78/78 47/47/47 76/76/76
f 76/76/76 47/47/47 49/49/49
f 76/76/76 49/49/49 74/74/74
f 74/74/74 49/49/49 51/51/51
f 74/74/74 51/51/51 72/72/72
f 72/72/72 51/51/51 53/53/53
f 72/72/72 53/53/53 69/69/69
f 69/69/69 53/53/53 54/54/54
f 69/69/69 54/54/54 67/67/67
f 67/67/67 54/54/54 56/56/56
f 67/67/67 56/56/56 66/66/66
f 66/66/66 56/56/56 59/59/59
f 5/5/5 1/1/1 41/41/41
f 41/41/41 1/1/1 58/58/58
f 41/41/41 58/58/58 57/57/57
f 57/57/57 55/55/55 41/41/41
f 41/41/41 55/55/55 52/52/52
f 41/41/41 52/52/52 50/50/50
f 41/41/41 50/50/50 43/43/43
f 43/43/43 50/50/50 48/48/48
f 43/43/43 48/48/48 44/44/44
f 44/44/44 48/48/48 46/46/46
f 39/39/39 23/23/23 41/41/41
f 41/41/41 23/23/23 20/20/20
f 41/41/41 20/20/20 18/18/18
f 23/23/23 39/39/39 25/25/25
f 25/25/25 39/39/39 36/36/36
f 25/25/25 36/36/36 26/26/26
f 26/26/26 36/36/36 34/34/34
f 26/26/26 34/34/34 28/28/28
f 28/28/28 34/34/34 33/33/33
f 28/28/28 33/33/33 30/30/30
f 18/18/18 17/17/17 41/41/41
f 41/41/41 17/17/17 15/15/15
f 41/41/41 15/15/15 12/12/12
f 12/12/12 10/10/10 41/41/41
f 41/41/41 10/10/10 8/8/8
f 41/41/41 8/8/8 6/6/6
f 6/6/6 5/5/5 41/41/41
f 117/117/117 144/144/144 61/61/61
f 61/61/61 144/144/144 146/146/146
f 61/61/61 146/146/146 148/148/148
f 144/144/144 117/117/117 141/141/141
f 141/141/141 117/117/117 116/116/116
f 141/141/141 116/116/116 139/139/139
f 139/139/139 116/116/116 114/114/114
f 139/139/139 114/114/114 137/137/137
f 137/137/137 114/114/114 112/112/112
f 137/137/137 112/112/112 135/135/135
f 135/135/135 112/112/112 109/109/109
f 135/135/135 109/109/109 133/133/133
f 133/133/133 109/109/109 107/107/107
f 133/133/133 107/107/107 132/132/132
f 132/132/132 107/107/107 106/106/106
f 132/132/132 106/106/106 129/129/129
f 129/129/129 106/106/106 104/104/104
f 129/129/129 104/104/104 126/126/126
f 126/126/126 104/104/104 121/121/121
f 126/126/126 121/121/121 125/125/125
f 125/125/125 121/121/121 123/123/123
f 102/102/102 209/209/209 104/104/104
f 104/104/104 209/209/209 211/211/211
f 104/104/104 211/211/211 214/214/214
f 100/100/100 204/204/204 102/102/102
f 102/102/102 204/204/204 207/207/207
f 102/102/102 207/207/207 209/209/209
f 204/204/204 100/100/100 202/202/202
f 202/202/202 100/100/100 97/97/97
f 202/202/202 97/97/97 200/200/200
f 200/200/200 97/97/97 95/95/95
f 200/200/200 95/95/95 198/198/198
f 198/198/198 95/95/95 94/94/94
f 198/198/198 94/94/94 195/195/195
f 195/195/195 94/94/94 91/91/91
f 195/195/195 91/91/91 193/193/193
f 193/193/193 91/91/91 90/90/90
f 193/193/193 90/90/90 192/192/192
f 192/192/192 90/90/90 87/87/87
f 192/192/192 87/87/87 190/190/190
f 190/190/190 87/87/87 86/86/86
f 190/190/190 86/86/86 187/187/187
f 187/187/187 86/86/86 83/83/83
f 187/187/187 83/83/83 185/185/185
f 185/185/185 83/83/83 81/81/81
f 185/185/185 81/81/81 184/184/184
f 184/184/184 81/81/81 79/79/79
f 184/184/184 79/79/79 180/180/180
f 180/180/180 79/79/79 178/178/178
f 178/178/178 79/79/79 176/176/176
f 176/176/176 79/79/79 173/173/173
f 173/173/173 79/79/79 165/165/165
f 173/173/173 165/165/165 169/169/169
f 79/79/79 77/77/77 165/165/165
f 165/165/165 77/77/77 163/163/163
f 163/163/163 77/77/77 161/161/161
f 161/161/161 77/77/77 75/75/75
f 161/161/161 75/75/75 160/160/160
f 160/160/160 75/75/75 73/73/73
f 160/160/160 73/73/73 157/157/157
f 157/157/157 73/73/73 71/71/71
f 157/157/157 71/71/71 155/155/155
f 155/155/155 71/71/71 70/70/70
f 155/155/155 70/70/70 154/154/154
f 154/154/154 70/70/70 68/68/68
f 154/154/154 68/68/68 152/152/152
f 152/152/152 68/68/68 65/65/65
f 152/152/152 65/65/65 150/150/150
f 150/150/150 65/65/65 64/64/64
f 150/150/150 64/64/64 148/148/148
f 148/148/148 64/64/64 61/61/61
f 169/169/169 170/170/170 173/173/173
f 214/214/214 121/121/121 104/104/104
f 218/218/218 360/360/360 216/216/216
f 216/216/216 360/360/360 288/288/288
f 215/215/215 290/290/290 287/287/287
f 287/287/287 290/290/290 292/292/292
f 287/287/287 292/292/292 285/285/285
f 285/285/285 292/292/292 293/293/293
f 285/285/285 293/293/293 283/283/283
f 283/283/283 293/293/293 295/295/295
f 283/283/283 295/295/295 281/281/281
f 281/281/281 295/295/295 298/298/298
f 281/281/281 298/298/298 278/278/278
f 278/278/278 298/298/298 299/299/299
f 278/278/278 299/299/299 277/277/277
f 277/277/277 299/299/299 301/301/301
f 277/277/277 301/301/301 274/274/274
f 274/274/274 301/301/301 304/304/304
f 274/274/274 304/304/304 272/272/272
f 272/272/272 304/304/304 305/305/305
f 272/272/272 305/305/305 271/271/271
f 271/271/271 305/305/305 307/307/307
f 271/271/271 307/307/307 269/269/269
f 269/269/269 307/307/307 310/310/310
f 269/269/269 310/310/310 266/266/266
f 266/266/266 310/310/310 311/311/311
f 266/266/266 311/311/311 264/264/264
f 264/264/264 311/311/311 314/314/314
f 264/264/264 314/314/314 263/263/263
f 263/263/263 314/314/314 315/315/315
f 263/263/263 315/315/315 260/260/260
f 260/260/260 315/315/315 317/317/317
f 260/260/260 317/317/317 259/259/259
f 259/259/259 317/317/317 319/319/319
f 259/259/259 319/319/319 256/256/256
f 256/256/256 319/319/319 322/322/322
f 256/256/256 322/322/322 255/255/255
f 255/255/255 322/322/322 323/323/323
f 255/255/255 323/323/323 252/252/252
f 252/252/252 323/323/323 325/325/325
f 252/252/252 325/325/325 251/251/251
f 251/251/251 325/325/325 328/328/328
f 251/251/251 328/328/328 249/249/249
f 249/249/249 328/328/328 330/330/330
f 249/249/249 330/330/330 247/247/247
f 247/247/247 330/330/330 332/332/332
f 247/247/247 332/332/332 245/245/245
f 245/245/245 332/332/332 333/333/333
f 245/245/245 333/333/333 243/243/243
f 243/243/243 333/333/333 335/335/335
f 243/243/243 335/335/335 240/240/240
f 240/240/240 335/335/335 338/338/338
f 240/240/240 338/338/338 238/238/238
f 238/238/238 338/338/338 339/339/339
f 238/238/238 339/339/339 236/236/236
f 236/236/236 339/339/339 341/341/341
f 236/236/236 341/341/341 234/234/234
f 234/234/234 341/341/341 344/344/344
f 234/234/234 344/344/344 232/232/232
f 232/232/232 344/344/344 345/345/345
f 232/232/232 345/345/345 231/231/231
f 231/231/231 345/345/345 347/347/347
f 231/231/231 347/347/347 228/228/228
f 228/228/228 347/347/347 349/349/349
f 228/228/228 349/349/349 226/226/226
f 226/226/226 349/349/349 351/351/351
f 226/226/226 351/351/351 224/224/224
f 224/224/224 351/351/351 353/353/353
f 224/224/224 353/353/353 223/223/223
f 223/223/223 353/353/353 356/356/356
f 223/223/223 356/356/356 221/221/221
f 221/221/221 356/356/356 357/357/357
f 221/221/221 357/357/357 218/218/218
f 218/218/218 357/357/357 360/360/360
f 359/359/359 327/327/327 289/289/289
f 289/289/289 327/327/327 326/326/326
f 289/289/289 326/326/326 291/291/291
f 291/291/291 326/326/326 324/324/324
f 291/291/291 324/324/324 294/294/294
f 294/294/294 324/324/324 321/321/321
f 294/294/294 321/321/321 296/296/296
f 296/296/296 321/321/321 320/320/320
f 296/296/296 320/320/320 297/297/297
f 297/297/297 320/320/320 318/318/318
f 297/297/297 318/318/318 300/300/300
f 300/300/300 318/318/318 316/316/316
f 300/300/300 316/316/316 302/302/302
f 302/302/302 316/316/316 313/313/313
f 302/302/302 313/313/313 303/303/303
f 303/303/303 313/313/313 312/312/312
f 303/303/303 312/312/312 306/306/306
f 306/306/306 312/312/312 309/309/309
f 306/306/306 309/309/309 308/308/308
f 327/327/327 359/359/359 329/329/329
f 329/329/329 359/359/359 358/358/358
f 329/329/329 358/358/358 331/331/331
f 331/331/331 358/358/358 355/355/355
f 331/331/331 355/355/355 334/334/334
f 334/334/334 355/355/355 354/354/354
f 334/334/334 354/354/354 336/336/336
f 336/336/336 354/354/354 352/352/352
f 336/336/336 352/352/352 337/337/337
f 337/337/337 352/352/352 350/350/350
f 337/337/337 350/350/350 340/340/340
f 340/340/340 350/350/350 348/348/348
f 340/340/340 348/348/348 342/342/342
f 342/342/342 348/348/348 346/346/346
f 342/342/342 346/346/346 343/343/343
f 167/167/167 362/362/362 168/168/168
f 168/168/168 362/362/362 365/365/365
f 168/168/168 365/365/365 171/171/171
f 171/171/171 365/365/365 367/367/367
f 171/171/171 367/367/367 172/172/172
f 172/172/172 367/367/367 368/368/368
f 369/369/369 371/371/371 174/174/174
f 174/174/174 371/371/371 175/175/175
f 177/177/177 372/372/372 179/179/179
f 179/179/179 372/372/372 375/375/375
f 179/179/179 375/375/375 181/181/181
f 181/181/181 375/375/375 376/376/376
f 181/181/181 376/376/376 183/183/183
f 183/183/183 376/376/376 380/380/380
f 182/182/182 379/379/379 186/186/186
f 186/186/186 379/379/379 382/382/382
f 186/186/186 382/382/382 188/188/188
f 188/188/188 382/382/382 383/383/383
f 188/188/188 383/383/383 189/189/189
f 189/189/189 383/383/383 386/386/386
f 189/189/189 386/386/386 191/191/191
f 191/191/191 386/386/386 388/388/388
f 191/191/191 388/388/388 194/194/194
f 194/194/194 388/388/388 390/390/390
f 194/194/194 390/390/390 196/196/196
f 196/196/196 390/390/390 392/392/392
f 196/196/196 392/392/392 197/197/197
f 197/197/197 392/392/392 393/393/393
f 197/197/197 393/393/393 199/199/199
f 199/199/199 393/393/393 396/396/396
f 199/199/199 396/396/396 201/201/201
f 201/201/201 396/396/396 397/397/397
f 201/201/201 397/397/397 203/203/203
f 203/203/203 397/397/397 399/399/399
f 203/203/203 399/399/399 205/205/205
f 205/205/205 399/399/399 402/402/402
f 407/407/407 410/410/410 404/404/404
f 404/404/404 410/410/410 412/412/412
f 404/404/404 412/412/412 415/415/415
f 416/416/416 389/389/389 415/415/415
f 415/415/415 389/389/389 387/387/387
f 415/415/415 387/387/387 385/385/385
f 419/419/419 425/425/425 416/416/416
f 416/416/416 425/425/425 394/394/394
f 416/416/416 394/394/394 391/391/391
f 419/419/419 422/422/422 425/425/425
f 425/425/425 422/422/422 423/423/423
f 429/429/429 400/400/400 425/425/425
f 425/425/425 400/400/400 398/398/398
f 425/425/425 398/398/398 395/395/395
f 432/432/432 510/510/510 429/429/429
f 429/429/429 510/510/510 511/511/511
f 429/429/429 511/511/511 514/514/514
f 510/510/510 432/432/432 507/507/507
f 507/507/507 432/432/432 434/434/434
f 507/507/507 434/434/434 504/504/504
f 504/504/504 434/434/434 435/435/435
f 504/504/504 435/435/435 503/503/503
f 503/503/503 435/435/435 437/437/437
f 503/503/503 437/437/437 500/500/500
f 500/500/500 437/437/437 439/439/439
f 500/500/500 439/439/439 442/442/442
f 500/500/500 442/442/442 499/499/499
f 499/499/499 442/442/442 444/444/444
f 499/499/499 444/444/444 496/496/496
f 496/496/496 444/444/444 446/446/446
f 496/496/496 446/446/446 494/494/494
f 494/494/494 446/446/446 447/447/447
f 494/494/494 447/447/447 493/493/493
f 493/493/493 447/447/447 450/450/450
f 493/493/493 450/450/450 491/491/491
f 491/491/491 450/450/450 452/452/452
f 491/491/491 452/452/452 488/488/488
f 488/488/488 452/452/452 454/454/454
f 488/488/488 454/454/454 487/487/487
f 487/487/487 454/454/454 456/456/456
f 487/487/487 456/456/456 484/484/484
f 484/484/484 456/456/456 458/458/458
f 484/484/484 458/458/458 482/482/482
f 482/482/482 458/458/458 460/460/460
f 482/482/482 460/460/460 480/480/480
f 480/480/480 460/460/460 462/462/462
f 480/480/480 462/462/462 479/479/479
f 479/479/479 462/462/462 463/463/463
f 479/479/479 463/463/463 476/476/476
f 476/476/476 463/463/463 465/465/465
f 476/476/476 465/465/465 474/474/474
f 474/474/474 465/465/465 467/467/467
f 474/474/474 467/467/467 469/469/469
f 404/404/404 364/364/364 469/469/469
f 469/469/469 364/364/364 363/363/363
f 469/469/469 363/363/363 472/472/472
f 377/377/377 374/374/374 378/378/378
f 378/378/378 374/374/374 373/373/373
f 378/378/378 373/373/373 370/370/370
f 378/378/378 370/370/370 381/381/381
f 381/381/381 370/370/370 366/366/366
f 381/381/381 366/366/366 404/404/404
f 404/404/404 366/366/366 364/364/364
f 472/472/472 474/474/474 469/469/469
f 429/429/429 514/514/514 400/400/400
f 400/400/400 514/514/514 515/515/515
f 400/400/400 515/515/515 401/401/401
f 401/401/401 515/515/515 519/519/519
f 401/401/401 519/519/519 521/521/521
f 521/521/521 523/523/523 401/401/401
f 395/395/395 394/394/394 425/425/425
f 391/391/391 389/389/389 416/416/416
f 415/415/415 385/385/385 404/404/404
f 404/404/404 385/385/385 384/384/384
f 404/404/404 384/384/384 381/381/381
f 518/518/518 213/213/213 522/522/522
f 522/522/522 213/213/213 210/210/210
f 522/522/522 210/210/210 524/524/524
f 524/524/524 210/210/210 208/208/208
f 524/524/524 208/208/208 403/403/403
f 403/403/403 208/208/208 206/206/206
f 119/119/119 517/517/517 122/122/122
f 122/122/122 517/517/517 513/513/513
f 122/122/122 513/513/513 124/124/124
f 124/124/124 513/513/513 512/512/512
f 124/124/124 512/512/512 127/127/127
f 127/127/127 512/512/512 508/508/508
f 361/361/361 166/166/166 473/473/473
f 473/473/473 166/166/166 164/164/164
f 473/473/473 164/164/164 475/475/475
f 475/475/475 164/164/164 162/162/162
f 475/475/475 162/162/162 477/477/477
f 477/477/477 162/162/162 159/159/159
f 477/477/477 159/159/159 478/478/478
f 478/478/478 159/159/159 158/158/158
f 478/478/478 158/158/158 481/481/481
f 481/481/481 158/158/158 156/156/156
f 481/481/481 156/156/156 483/483/483
f 483/483/483 156/156/156 153/153/153
f 483/483/483 153/153/153 485/485/485
f 485/485/485 153/153/153 151/151/151
f 485/485/485 151/151/151 486/486/486
f 486/486/486 151/151/151 149/149/149
f 486/486/486 149/149/149 489/489/489
f 489/489/489 149/149/149 147/147/147
f 489/489/489 147/147/147 490/490/490
f 490/490/490 147/147/147 145/145/145
f 490/490/490 145/145/145 492/492/492
f 492/492/492 145/145/145 143/143/143
f 492/492/492 143/143/143 495/495/495
f 495/495/495 143/143/143 142/142/142
f 495/495/495 142/142/142 497/497/497
f 497/497/497 142/142/142 140/140/140
f 497/497/497 140/140/140 498/498/498
f 498/498/498 140/140/140 138/138/138
f 498/498/498 138/138/138 501/501/501
f 501/501/501 138/138/138 136/136/136
f 501/501/501 136/136/136 502/502/502
f 502/502/502 136/136/136 134/134/134
f 502/502/502 134/134/134 505/505/505
f 505/505/505 134/134/134 131/131/131
f 505/505/505 131/131/131 506/506/506
f 506/506/506 131/131/131 130/130/130
f 506/506/506 130/130/130 509/509/509
f 509/509/509 130/130/130 128/128/128
f 520/520/520 516/516/516 212/212/212
f 212/212/212 516/516/516 120/120/120
f 405/405/405 526/526/526 408/408/408
f 408/408/408 526/526/526 529/529/529
f 408/408/408 529/529/529 409/409/409
f 409/409/409 529/529/529 531/531/531
f 409/409/409 531/531/531 411/411/411
f 411/411/411 531/531/531 532/532/532
f 411/411/411 532/532/532 413/413/413
f 413/413/413 532/532/532 534/534/534
f 406/406/406 470/470/470 525/525/525
f 525/525/525 470/470/470 537/537/537
f 417/417/417 541/541/541 420/420/420
f 420/420/420 541/541/541 544/544/544
f 420/420/420 544/544/544 421/421/421
f 421/421/421 544/544/544 546/546/546
f 421/421/421 546/546/546 424/424/424
f 424/424/424 546/546/546 547/547/547
f 424/424/424 547/547/547 426/426/426
f 426/426/426 547/547/547 551/551/551
f 549/549/549 552/552/552 427/427/427
f 427/427/427 552/552/552 430/430/430
f 535/535/535 542/542/542 414/414/414
f 414/414/414 542/542/542 418/418/418
f 538/538/538 471/471/471 591/591/591
f 591/591/591 471/471/471 468/468/468
f 591/591/591 468/468/468 590/590/590
f 590/590/590 468/468/468 466/466/466
f 590/590/590 466/466/466 587/587/587
f 587/587/587 466/466/466 464/464/464
f 587/587/587 464/464/464 585/585/585
f 585/585/585 464/464/464 461/461/461
f 585/585/585 461/461/461 583/583/583
f 583/583/583 461/461/461 459/459/459
f 583/583/583 459/459/459 581/581/581
f 581/581/581 459/459/459 457/457/457
f 581/581/581 457/457/457 579/579/579
f 579/579/579 457/457/457 455/455/455
f 579/579/579 455/455/455 577/577/577
f 577/577/577 455/455/455 453/453/453
f 577/577/577 453/453/453 576/576/576
f 576/576/576 453/453/453 451/451/451
f 576/576/576 451/451/451 574/574/574
f 574/574/574 451/451/451 449/449/449
f 574/574/574 449/449/449 572/572/572
f 572/572/572 449/449/449 448/448/448
f 572/572/572 448/448/448 570/570/570
f 570/570/570 448/448/448 445/445/445
f 570/570/570 445/445/445 568/568/568
f 568/568/568 445/445/445 443/443/443
f 568/568/568 443/443/443 565/565/565
f 565/565/565 443/443/443 441/441/441
f 565/565/565 441/441/441 563/563/563
f 563/563/563 441/441/441 440/440/440
f 563/563/563 440/440/440 561/561/561
f 561/561/561 440/440/440 438/438/438
f 561/561/561 438/438/438 559/559/559
f 559/559/559 438/438/438 436/436/436
f 559/559/559 436/436/436 558/558/558
f 558/558/558 436/436/436 433/433/433
f 558/558/558 433/433/433 555/555/555
f 555/555/555 433/433/433 431/431/431
f 555/555/555 431/431/431 553/553/553
f 553/553/553 431/431/431 428/428/428
f 533/533/533 527/527/527 536/536/536
f 536/536/536 527/527/527 222/222/222
f 536/536/536 222/222/222 220/220/220
f 533/533/533 530/530/530 527/527/527
f 527/527/527 530/530/530 528/528/528
f 539/539/539 230/230/230 527/527/527
f 527/527/527 230/230/230 229/229/229
f 527/527/527 229/229/229 227/227/227
f 592/592/592 235/235/235 539/539/539
f 539/539/539 235/235/235 233/233/233
f 539/539/539 233/233/233 230/230/230
f 235/235/235 592/592/592 237/237/237
f 237/237/237 592/592/592 589/589/589
f 237/237/237 589/589/589 239/239/239
f 239/239/239 589/589/589 588/588/588
f 239/239/239 588/588/588 241/241/241
f 241/241/241 588/588/588 586/586/586
f 241/241/241 586/586/586 242/242/242
f 242/242/242 586/586/586 584/584/584
f 242/242/242 584/584/584 244/244/244
f 244/244/244 584/584/584 582/582/582
f 244/244/244 582/582/582 246/246/246
f 246/246/246 582/582/582 580/580/580
f 246/246/246 580/580/580 248/248/248
f 248/248/248 580/580/580 578/578/578
f 248/248/248 578/578/578 250/250/250
f 250/250/250 578/578/578 575/575/575
f 250/250/250 575/575/575 253/253/253
f 253/253/253 575/575/575 573/573/573
f 253/253/253 573/573/573 254/254/254
f 254/254/254 573/573/573 571/571/571
f 254/254/254 571/571/571 257/257/257
f 257/257/257 571/571/571 569/569/569
f 257/257/257 569/569/569 258/258/258
f 258/258/258 569/569/569 567/567/567
f 258/258/258 567/567/567 261/261/261
f 261/261/261 567/567/567 566/566/566
f 261/261/261 566/566/566 262/262/262
f 262/262/262 566/566/566 564/564/564
f 262/262/262 564/564/564 265/265/265
f 265/265/265 564/564/564 562/562/562
f 265/265/265 562/562/562 267/267/267
f 267/267/267 562/562/562 560/560/560
f 267/267/267 560/560/560 268/268/268
f 268/268/268 560/560/560 557/557/557
f 268/268/268 557/557/557 270/270/270
f 270/270/270 557/557/557 556/556/556
f 270/270/270 556/556/556 273/273/273
f 273/273/273 556/556/556 554/554/554
f 273/273/273 554/554/554 275/275/275
f 275/275/275 554/554/554 550/550/550
f 275/275/275 550/550/550 276/276/276
f 276/276/276 550/550/550 279/279/279
f 279/279/279 550/550/550 280/280/280
f 280/280/280 550/550/550 282/282/282
f 282/282/282 550/550/550 284/284/284
f 284/284/284 550/550/550 540/540/540
f 284/284/284 540/540/540 286/286/286
f 286/286/286 540/540/540 217/217/217
f 217/217/217 540/540/540 536/536/536
f 217/217/217 536/536/536 219/219/219
f 219/219/219 536/536/536 220/220/220
f 548/548/548 545/545/545 550/550/550
f 550/550/550 545/545/545 543/543/543
f 550/550/550 543/543/543 540/540/540
f 227/227/227 225/225/225 527/527/527
f 527/527/527 225/225/225 222/222/222

